<svg width="17" height="17" viewBox="0 0 17 17" fill="none" xmlns="http://www.w3.org/2000/svg">
<ellipse cx="8.38141" cy="7.89001" rx="1.58704" ry="1.58703" fill="white"/>
<path d="M5.68383 5.09667C5.7818 5.02603 5.88038 4.96754 5.97859 4.91964C6.7462 4.54524 6.95747 5.52275 6.33984 6.11261C3.28207 9.03293 3.15421 11.4458 3.9421 12.2793C4.52409 12.8949 5.91895 12.6088 6.73515 12.2886C6.93041 12.212 7.15299 12.2222 7.3289 12.3365C7.71828 12.5894 7.68198 13.1814 7.2495 13.3503C6.04757 13.8197 4.1297 14.29 2.94856 12.953C0.868672 10.5988 4.66918 5.82834 5.68383 5.09667Z" fill="white"/>
<path d="M12.9119 4.09941C13.6314 6.00237 11.7432 8.58533 10.0362 10.2098C9.5093 10.7113 9.59045 11.5435 10.2795 11.3103C10.4652 11.2474 10.6657 11.1458 10.8784 10.9928C12.0522 10.1486 15.7906 5.43919 13.6727 3.1186C12.2474 1.55691 9.74408 2.41798 8.14415 3.33761C7.78383 3.54473 7.86975 4.12043 8.218 4.34726C8.39889 4.46508 8.58501 4.43134 8.76826 4.31721C10.9459 2.96105 12.3343 3.38521 12.7977 3.90268C12.8487 3.95963 12.8849 4.02789 12.9119 4.09941Z" fill="white"/>
<path d="M5.37255 10.6483C5.30191 10.5503 5.24342 10.4517 5.19552 10.3535C4.82113 9.58589 5.79863 9.37462 6.3885 9.99224C9.30882 13.05 11.7217 13.1779 12.5552 12.39C13.1674 11.8112 12.8878 10.4286 12.5698 9.6106C12.4909 9.40766 12.506 9.17604 12.6311 8.99784C12.8928 8.62509 13.4694 8.67037 13.636 9.09429C14.1016 10.2794 14.5772 12.1924 13.2289 13.3835C10.8747 15.4634 6.10423 11.6629 5.37255 10.6483Z" fill="white"/>
<path d="M4.37529 3.4202C6.27826 2.70074 8.86121 4.5889 10.4857 6.29586C10.9872 6.82279 11.8194 6.74164 11.5862 6.05262C11.5233 5.86693 11.4217 5.66638 11.2687 5.45365C10.4245 4.27989 5.71508 0.54153 3.39448 2.65942C2.17998 3.76783 2.41444 5.52717 3.00723 7.00689C3.17295 7.42056 3.75278 7.39827 4.00063 7.02793C4.1188 6.85136 4.10728 6.66908 4.02684 6.47243C3.39171 4.91975 3.75343 3.91547 4.17827 3.5347C4.2352 3.48367 4.30377 3.44724 4.37529 3.4202Z" fill="white"/>
<path d="M15.6637 7.96424C15.6637 12.0084 12.3852 15.2869 8.34101 15.2869C4.29683 15.2869 1.01837 12.0084 1.01837 7.96424C1.01837 3.92006 4.29683 0.641602 8.34101 0.641602C12.3852 0.641602 15.6637 3.92006 15.6637 7.96424ZM1.84819 7.96424C1.84819 11.5501 4.75512 14.4571 8.34101 14.4571C11.9269 14.4571 14.8338 11.5501 14.8338 7.96424C14.8338 4.37835 11.9269 1.47141 8.34101 1.47141C4.75512 1.47141 1.84819 4.37835 1.84819 7.96424Z" fill="white"/>
</svg>
