<svg width="380" height="215" viewBox="0 0 380 215" fill="none" xmlns="http://www.w3.org/2000/svg">
<path d="M158 106H113" stroke="#3873E6" stroke-dasharray="2 2"/>
<path d="M222 106H267" stroke="#3873E6" stroke-dasharray="2 2"/>
<path d="M87 106H42" stroke="#80A6EF" stroke-dasharray="2 2"/>
<path d="M293 106H338" stroke="#80A6EF" stroke-dasharray="2 2"/>
<g filter="url(#filter0_bdi_2386_29404)">
<path d="M189.801 73.9465V137.252C189.801 142.137 186.371 146.101 182.141 146.101C180.587 146.064 179.081 145.516 177.82 144.53C176.759 143.701 175.914 142.594 175.36 141.318C175.18 140.902 174.744 140.651 174.293 140.696V140.696C174.097 140.709 173.9 140.709 173.704 140.696C169.474 140.696 166.044 136.732 166.044 131.847C166.044 131.753 166.044 131.66 166.044 131.566V131.566C166.055 131.169 165.676 130.85 165.287 130.929C164.784 131.032 164.273 131.085 163.76 131.088C158.973 131.088 155.127 126.604 155.127 121.08C155.112 119.874 155.29 118.674 155.653 117.534V117.534C155.788 117.094 155.595 116.606 155.187 116.393C153.509 115.52 152.058 114.195 150.976 112.54C149.734 110.64 149.031 108.386 148.954 106.057C148.878 103.729 149.43 101.426 150.544 99.4347C151.657 97.443 153.283 95.849 155.221 94.8494C155.415 94.7512 155.614 94.6646 155.814 94.5848C155.884 94.5566 155.918 94.4759 155.888 94.4061V94.4061C155.343 93.0632 155.063 91.6113 155.064 90.1437C155.064 84.6196 158.941 80.1355 163.697 80.1355C164.352 80.1389 165.003 80.2272 165.638 80.3983C165.813 80.4454 165.989 80.3167 165.989 80.1355V80.1355C165.989 75.2508 169.419 71.2867 173.649 71.2867C173.728 71.2884 173.807 71.2912 173.885 71.2952C174.387 71.3205 174.854 71.0069 175.03 70.5365V70.5365C175.564 68.9603 176.524 67.5964 177.785 66.6241C179.046 65.6518 180.548 65.1167 182.094 65.0892C186.371 65.0977 189.801 69.0617 189.801 73.9465Z" fill="url(#paint0_linear_2386_29404)" fill-opacity="0.24" shape-rendering="crispEdges"/>
<path d="M166.419 131.571V131.571C166.434 130.935 165.836 130.434 165.212 130.562C164.733 130.659 164.247 130.71 163.759 130.713C159.23 130.713 155.502 126.451 155.502 121.08L155.502 121.076C155.488 119.909 155.66 118.749 156.01 117.648L155.653 117.534L156.012 117.644C156.197 117.038 155.936 116.36 155.36 116.06C153.741 115.218 152.338 113.939 151.29 112.334C150.086 110.493 149.404 108.307 149.329 106.045C149.255 103.783 149.791 101.548 150.871 99.6177C151.95 97.6875 153.523 96.1475 155.392 95.1832C155.573 95.0918 155.76 95.0099 155.953 94.933C156.215 94.8283 156.346 94.5279 156.235 94.2626C155.709 92.9659 155.438 91.563 155.439 90.1441V90.1437C155.439 84.7734 159.198 80.511 163.697 80.5105C164.318 80.5138 164.937 80.5978 165.54 80.7603C165.941 80.8683 166.364 80.5764 166.364 80.1355C166.364 75.4068 169.673 71.6642 173.645 71.6617C173.719 71.6633 173.793 71.666 173.866 71.6697C174.535 71.7034 175.149 71.2879 175.381 70.6682L175.03 70.5365L175.386 70.6568C175.897 69.1473 176.815 67.8461 178.014 66.9211C179.212 65.9972 180.635 65.4911 182.097 65.4642C186.118 65.4745 189.426 69.2195 189.426 73.9465V137.252C189.426 141.98 186.117 145.723 182.145 145.726C180.677 145.69 179.249 145.172 178.051 144.234C177.042 143.445 176.235 142.39 175.704 141.169C175.458 140.603 174.871 140.265 174.263 140.322C174.085 140.333 173.906 140.333 173.728 140.322L173.716 140.321H173.704C169.73 140.321 166.419 136.577 166.419 131.847V131.847V131.846V131.846V131.845V131.844V131.844V131.843V131.843V131.842V131.842V131.841V131.841V131.84V131.839V131.839V131.838V131.838V131.837V131.837V131.836V131.836V131.835V131.835V131.834V131.833V131.833V131.832V131.832V131.831V131.831V131.83V131.83V131.829V131.828V131.828V131.827V131.827V131.826V131.826V131.825V131.825V131.824V131.824V131.823V131.822V131.822V131.821V131.821V131.82V131.82V131.819V131.819V131.818V131.817V131.817V131.816V131.816V131.815V131.815V131.814V131.814V131.813V131.813V131.812V131.811V131.811V131.81V131.81V131.809V131.809V131.808V131.808V131.807V131.806V131.806V131.805V131.805V131.804V131.804V131.803V131.803V131.802V131.802V131.801V131.8V131.8V131.799V131.799V131.798V131.798V131.797V131.797V131.796V131.796V131.795V131.794V131.794V131.793V131.793V131.792V131.792V131.791V131.791V131.79V131.789V131.789V131.788V131.788V131.787V131.787V131.786V131.786V131.785V131.785V131.784V131.783V131.783V131.782V131.782V131.781V131.781V131.78V131.78V131.779V131.778V131.778V131.777V131.777V131.776V131.776V131.775V131.775V131.774V131.774V131.773V131.772V131.772V131.771V131.771V131.77V131.77V131.769V131.769V131.768V131.767V131.767V131.766V131.766V131.765V131.765V131.764V131.764V131.763V131.763V131.762V131.761V131.761V131.76V131.76V131.759V131.759V131.758V131.758V131.757V131.756V131.756V131.755V131.755V131.754V131.754V131.753V131.753V131.752V131.752V131.751V131.75V131.75V131.749V131.749V131.748V131.748V131.747V131.747V131.746V131.745V131.745V131.744V131.744V131.743V131.743V131.742V131.742V131.741V131.741V131.74V131.739V131.739V131.738V131.738V131.737V131.737V131.736V131.736V131.735V131.735V131.734V131.733V131.733V131.732V131.732V131.731V131.731V131.73V131.73V131.729V131.728V131.728V131.727V131.727V131.726V131.726V131.725V131.725V131.724V131.724V131.723V131.722V131.722V131.721V131.721V131.72V131.72V131.719V131.719V131.718V131.717V131.717V131.716V131.716V131.715V131.715V131.714V131.714V131.713V131.713V131.712V131.711V131.711V131.71V131.71V131.709V131.709V131.708V131.708V131.707V131.706V131.706V131.705V131.705V131.704V131.704V131.703V131.703V131.702V131.702V131.701V131.7V131.7V131.699V131.699V131.698V131.698V131.697V131.697V131.696V131.696V131.695V131.694V131.694V131.693V131.693V131.692V131.692V131.691V131.691V131.69V131.689V131.689V131.688V131.688V131.687V131.687V131.686V131.686V131.685V131.685V131.684V131.683V131.683V131.682V131.682V131.681V131.681V131.68V131.68V131.679V131.678V131.678V131.677V131.677V131.676V131.676V131.675V131.675V131.674V131.674V131.673V131.672V131.672V131.671V131.671V131.67V131.67V131.669V131.669V131.668V131.667V131.667V131.666V131.666V131.665V131.665V131.664V131.664V131.663V131.663V131.662V131.661V131.661V131.66V131.66V131.659V131.659V131.658V131.658V131.657V131.656V131.656V131.655V131.655V131.654V131.654V131.653V131.653V131.652V131.652V131.651V131.65V131.65V131.649V131.649V131.648V131.648V131.647V131.647V131.646V131.646V131.645V131.644V131.644V131.643V131.643V131.642V131.642V131.641V131.641V131.64V131.639V131.639V131.638V131.638V131.637V131.637V131.636V131.636V131.635V131.635V131.634V131.633V131.633V131.632V131.632V131.631V131.631V131.63V131.63V131.629V131.628V131.628V131.627V131.627V131.626V131.626V131.625V131.625V131.624V131.624V131.623V131.622V131.622V131.621V131.621V131.62V131.62V131.619V131.619V131.618V131.617V131.617V131.616V131.616V131.615V131.615V131.614V131.614V131.613V131.613V131.612V131.611V131.611V131.61V131.61V131.609V131.609V131.608V131.608V131.607V131.606V131.606V131.605V131.605V131.604V131.604V131.603V131.603V131.602V131.602V131.601V131.6V131.6V131.599V131.599V131.598V131.598V131.597V131.597V131.596V131.595V131.595V131.594V131.594V131.593V131.593V131.592V131.592V131.591V131.591V131.59V131.589V131.589V131.588V131.588V131.587V131.587V131.586V131.586V131.585V131.585V131.584V131.583V131.583V131.582V131.582V131.581V131.581V131.58V131.58V131.579V131.578V131.578V131.577V131.577V131.576V131.576V131.575V131.575V131.574V131.574V131.573V131.572V131.572V131.571V131.571ZM155.064 90.1437C155.064 84.6196 158.941 80.1355 163.697 80.1355C164.352 80.1389 165.003 80.2272 165.638 80.3983C165.813 80.4454 165.989 80.3167 165.989 80.1355C165.989 75.2508 169.419 71.2867 173.649 71.2867L155.064 90.1437Z" stroke="url(#paint1_linear_2386_29404)" stroke-width="0.75" shape-rendering="crispEdges"/>
<path d="M166.419 131.571V131.571C166.434 130.935 165.836 130.434 165.212 130.562C164.733 130.659 164.247 130.71 163.759 130.713C159.23 130.713 155.502 126.451 155.502 121.08L155.502 121.076C155.488 119.909 155.66 118.749 156.01 117.648L155.653 117.534L156.012 117.644C156.197 117.038 155.936 116.36 155.36 116.06C153.741 115.218 152.338 113.939 151.29 112.334C150.086 110.493 149.404 108.307 149.329 106.045C149.255 103.783 149.791 101.548 150.871 99.6177C151.95 97.6875 153.523 96.1475 155.392 95.1832C155.573 95.0918 155.76 95.0099 155.953 94.933C156.215 94.8283 156.346 94.5279 156.235 94.2626C155.709 92.9659 155.438 91.563 155.439 90.1441V90.1437C155.439 84.7734 159.198 80.511 163.697 80.5105C164.318 80.5138 164.937 80.5978 165.54 80.7603C165.941 80.8683 166.364 80.5764 166.364 80.1355C166.364 75.4068 169.673 71.6642 173.645 71.6617C173.719 71.6633 173.793 71.666 173.866 71.6697C174.535 71.7034 175.149 71.2879 175.381 70.6682L175.03 70.5365L175.386 70.6568C175.897 69.1473 176.815 67.8461 178.014 66.9211C179.212 65.9972 180.635 65.4911 182.097 65.4642C186.118 65.4745 189.426 69.2195 189.426 73.9465V137.252C189.426 141.98 186.117 145.723 182.145 145.726C180.677 145.69 179.249 145.172 178.051 144.234C177.042 143.445 176.235 142.39 175.704 141.169C175.458 140.603 174.871 140.265 174.263 140.322C174.085 140.333 173.906 140.333 173.728 140.322L173.716 140.321H173.704C169.73 140.321 166.419 136.577 166.419 131.847V131.847V131.846V131.846V131.845V131.844V131.844V131.843V131.843V131.842V131.842V131.841V131.841V131.84V131.839V131.839V131.838V131.838V131.837V131.837V131.836V131.836V131.835V131.835V131.834V131.833V131.833V131.832V131.832V131.831V131.831V131.83V131.83V131.829V131.828V131.828V131.827V131.827V131.826V131.826V131.825V131.825V131.824V131.824V131.823V131.822V131.822V131.821V131.821V131.82V131.82V131.819V131.819V131.818V131.817V131.817V131.816V131.816V131.815V131.815V131.814V131.814V131.813V131.813V131.812V131.811V131.811V131.81V131.81V131.809V131.809V131.808V131.808V131.807V131.806V131.806V131.805V131.805V131.804V131.804V131.803V131.803V131.802V131.802V131.801V131.8V131.8V131.799V131.799V131.798V131.798V131.797V131.797V131.796V131.796V131.795V131.794V131.794V131.793V131.793V131.792V131.792V131.791V131.791V131.79V131.789V131.789V131.788V131.788V131.787V131.787V131.786V131.786V131.785V131.785V131.784V131.783V131.783V131.782V131.782V131.781V131.781V131.78V131.78V131.779V131.778V131.778V131.777V131.777V131.776V131.776V131.775V131.775V131.774V131.774V131.773V131.772V131.772V131.771V131.771V131.77V131.77V131.769V131.769V131.768V131.767V131.767V131.766V131.766V131.765V131.765V131.764V131.764V131.763V131.763V131.762V131.761V131.761V131.76V131.76V131.759V131.759V131.758V131.758V131.757V131.756V131.756V131.755V131.755V131.754V131.754V131.753V131.753V131.752V131.752V131.751V131.75V131.75V131.749V131.749V131.748V131.748V131.747V131.747V131.746V131.745V131.745V131.744V131.744V131.743V131.743V131.742V131.742V131.741V131.741V131.74V131.739V131.739V131.738V131.738V131.737V131.737V131.736V131.736V131.735V131.735V131.734V131.733V131.733V131.732V131.732V131.731V131.731V131.73V131.73V131.729V131.728V131.728V131.727V131.727V131.726V131.726V131.725V131.725V131.724V131.724V131.723V131.722V131.722V131.721V131.721V131.72V131.72V131.719V131.719V131.718V131.717V131.717V131.716V131.716V131.715V131.715V131.714V131.714V131.713V131.713V131.712V131.711V131.711V131.71V131.71V131.709V131.709V131.708V131.708V131.707V131.706V131.706V131.705V131.705V131.704V131.704V131.703V131.703V131.702V131.702V131.701V131.7V131.7V131.699V131.699V131.698V131.698V131.697V131.697V131.696V131.696V131.695V131.694V131.694V131.693V131.693V131.692V131.692V131.691V131.691V131.69V131.689V131.689V131.688V131.688V131.687V131.687V131.686V131.686V131.685V131.685V131.684V131.683V131.683V131.682V131.682V131.681V131.681V131.68V131.68V131.679V131.678V131.678V131.677V131.677V131.676V131.676V131.675V131.675V131.674V131.674V131.673V131.672V131.672V131.671V131.671V131.67V131.67V131.669V131.669V131.668V131.667V131.667V131.666V131.666V131.665V131.665V131.664V131.664V131.663V131.663V131.662V131.661V131.661V131.66V131.66V131.659V131.659V131.658V131.658V131.657V131.656V131.656V131.655V131.655V131.654V131.654V131.653V131.653V131.652V131.652V131.651V131.65V131.65V131.649V131.649V131.648V131.648V131.647V131.647V131.646V131.646V131.645V131.644V131.644V131.643V131.643V131.642V131.642V131.641V131.641V131.64V131.639V131.639V131.638V131.638V131.637V131.637V131.636V131.636V131.635V131.635V131.634V131.633V131.633V131.632V131.632V131.631V131.631V131.63V131.63V131.629V131.628V131.628V131.627V131.627V131.626V131.626V131.625V131.625V131.624V131.624V131.623V131.622V131.622V131.621V131.621V131.62V131.62V131.619V131.619V131.618V131.617V131.617V131.616V131.616V131.615V131.615V131.614V131.614V131.613V131.613V131.612V131.611V131.611V131.61V131.61V131.609V131.609V131.608V131.608V131.607V131.606V131.606V131.605V131.605V131.604V131.604V131.603V131.603V131.602V131.602V131.601V131.6V131.6V131.599V131.599V131.598V131.598V131.597V131.597V131.596V131.595V131.595V131.594V131.594V131.593V131.593V131.592V131.592V131.591V131.591V131.59V131.589V131.589V131.588V131.588V131.587V131.587V131.586V131.586V131.585V131.585V131.584V131.583V131.583V131.582V131.582V131.581V131.581V131.58V131.58V131.579V131.578V131.578V131.577V131.577V131.576V131.576V131.575V131.575V131.574V131.574V131.573V131.572V131.572V131.571V131.571ZM155.064 90.1437C155.064 84.6196 158.941 80.1355 163.697 80.1355C164.352 80.1389 165.003 80.2272 165.638 80.3983C165.813 80.4454 165.989 80.3167 165.989 80.1355C165.989 75.2508 169.419 71.2867 173.649 71.2867L155.064 90.1437Z" stroke="white" stroke-opacity="0.2" stroke-width="0.75" shape-rendering="crispEdges"/>
<path d="M166.419 131.571V131.571C166.434 130.935 165.836 130.434 165.212 130.562C164.733 130.659 164.247 130.71 163.759 130.713C159.23 130.713 155.502 126.451 155.502 121.08L155.502 121.076C155.488 119.909 155.66 118.749 156.01 117.648L155.653 117.534L156.012 117.644C156.197 117.038 155.936 116.36 155.36 116.06C153.741 115.218 152.338 113.939 151.29 112.334C150.086 110.493 149.404 108.307 149.329 106.045C149.255 103.783 149.791 101.548 150.871 99.6177C151.95 97.6875 153.523 96.1475 155.392 95.1832C155.573 95.0918 155.76 95.0099 155.953 94.933C156.215 94.8283 156.346 94.5279 156.235 94.2626C155.709 92.9659 155.438 91.563 155.439 90.1441V90.1437C155.439 84.7734 159.198 80.511 163.697 80.5105C164.318 80.5138 164.937 80.5978 165.54 80.7603C165.941 80.8683 166.364 80.5764 166.364 80.1355C166.364 75.4068 169.673 71.6642 173.645 71.6617C173.719 71.6633 173.793 71.666 173.866 71.6697C174.535 71.7034 175.149 71.2879 175.381 70.6682L175.03 70.5365L175.386 70.6568C175.897 69.1473 176.815 67.8461 178.014 66.9211C179.212 65.9972 180.635 65.4911 182.097 65.4642C186.118 65.4745 189.426 69.2195 189.426 73.9465V137.252C189.426 141.98 186.117 145.723 182.145 145.726C180.677 145.69 179.249 145.172 178.051 144.234C177.042 143.445 176.235 142.39 175.704 141.169C175.458 140.603 174.871 140.265 174.263 140.322C174.085 140.333 173.906 140.333 173.728 140.322L173.716 140.321H173.704C169.73 140.321 166.419 136.577 166.419 131.847V131.847V131.846V131.846V131.845V131.844V131.844V131.843V131.843V131.842V131.842V131.841V131.841V131.84V131.839V131.839V131.838V131.838V131.837V131.837V131.836V131.836V131.835V131.835V131.834V131.833V131.833V131.832V131.832V131.831V131.831V131.83V131.83V131.829V131.828V131.828V131.827V131.827V131.826V131.826V131.825V131.825V131.824V131.824V131.823V131.822V131.822V131.821V131.821V131.82V131.82V131.819V131.819V131.818V131.817V131.817V131.816V131.816V131.815V131.815V131.814V131.814V131.813V131.813V131.812V131.811V131.811V131.81V131.81V131.809V131.809V131.808V131.808V131.807V131.806V131.806V131.805V131.805V131.804V131.804V131.803V131.803V131.802V131.802V131.801V131.8V131.8V131.799V131.799V131.798V131.798V131.797V131.797V131.796V131.796V131.795V131.794V131.794V131.793V131.793V131.792V131.792V131.791V131.791V131.79V131.789V131.789V131.788V131.788V131.787V131.787V131.786V131.786V131.785V131.785V131.784V131.783V131.783V131.782V131.782V131.781V131.781V131.78V131.78V131.779V131.778V131.778V131.777V131.777V131.776V131.776V131.775V131.775V131.774V131.774V131.773V131.772V131.772V131.771V131.771V131.77V131.77V131.769V131.769V131.768V131.767V131.767V131.766V131.766V131.765V131.765V131.764V131.764V131.763V131.763V131.762V131.761V131.761V131.76V131.76V131.759V131.759V131.758V131.758V131.757V131.756V131.756V131.755V131.755V131.754V131.754V131.753V131.753V131.752V131.752V131.751V131.75V131.75V131.749V131.749V131.748V131.748V131.747V131.747V131.746V131.745V131.745V131.744V131.744V131.743V131.743V131.742V131.742V131.741V131.741V131.74V131.739V131.739V131.738V131.738V131.737V131.737V131.736V131.736V131.735V131.735V131.734V131.733V131.733V131.732V131.732V131.731V131.731V131.73V131.73V131.729V131.728V131.728V131.727V131.727V131.726V131.726V131.725V131.725V131.724V131.724V131.723V131.722V131.722V131.721V131.721V131.72V131.72V131.719V131.719V131.718V131.717V131.717V131.716V131.716V131.715V131.715V131.714V131.714V131.713V131.713V131.712V131.711V131.711V131.71V131.71V131.709V131.709V131.708V131.708V131.707V131.706V131.706V131.705V131.705V131.704V131.704V131.703V131.703V131.702V131.702V131.701V131.7V131.7V131.699V131.699V131.698V131.698V131.697V131.697V131.696V131.696V131.695V131.694V131.694V131.693V131.693V131.692V131.692V131.691V131.691V131.69V131.689V131.689V131.688V131.688V131.687V131.687V131.686V131.686V131.685V131.685V131.684V131.683V131.683V131.682V131.682V131.681V131.681V131.68V131.68V131.679V131.678V131.678V131.677V131.677V131.676V131.676V131.675V131.675V131.674V131.674V131.673V131.672V131.672V131.671V131.671V131.67V131.67V131.669V131.669V131.668V131.667V131.667V131.666V131.666V131.665V131.665V131.664V131.664V131.663V131.663V131.662V131.661V131.661V131.66V131.66V131.659V131.659V131.658V131.658V131.657V131.656V131.656V131.655V131.655V131.654V131.654V131.653V131.653V131.652V131.652V131.651V131.65V131.65V131.649V131.649V131.648V131.648V131.647V131.647V131.646V131.646V131.645V131.644V131.644V131.643V131.643V131.642V131.642V131.641V131.641V131.64V131.639V131.639V131.638V131.638V131.637V131.637V131.636V131.636V131.635V131.635V131.634V131.633V131.633V131.632V131.632V131.631V131.631V131.63V131.63V131.629V131.628V131.628V131.627V131.627V131.626V131.626V131.625V131.625V131.624V131.624V131.623V131.622V131.622V131.621V131.621V131.62V131.62V131.619V131.619V131.618V131.617V131.617V131.616V131.616V131.615V131.615V131.614V131.614V131.613V131.613V131.612V131.611V131.611V131.61V131.61V131.609V131.609V131.608V131.608V131.607V131.606V131.606V131.605V131.605V131.604V131.604V131.603V131.603V131.602V131.602V131.601V131.6V131.6V131.599V131.599V131.598V131.598V131.597V131.597V131.596V131.595V131.595V131.594V131.594V131.593V131.593V131.592V131.592V131.591V131.591V131.59V131.589V131.589V131.588V131.588V131.587V131.587V131.586V131.586V131.585V131.585V131.584V131.583V131.583V131.582V131.582V131.581V131.581V131.58V131.58V131.579V131.578V131.578V131.577V131.577V131.576V131.576V131.575V131.575V131.574V131.574V131.573V131.572V131.572V131.571V131.571ZM155.064 90.1437C155.064 84.6196 158.941 80.1355 163.697 80.1355C164.352 80.1389 165.003 80.2272 165.638 80.3983C165.813 80.4454 165.989 80.3167 165.989 80.1355C165.989 75.2508 169.419 71.2867 173.649 71.2867L155.064 90.1437Z" stroke="url(#paint2_linear_2386_29404)" stroke-opacity="0.3" stroke-width="0.75" shape-rendering="crispEdges"/>
</g>
<path d="M175.045 140.551C174.786 140.602 174.52 140.645 174.261 140.67C173.918 139.628 173.746 138.529 173.75 137.422C173.75 137.309 173.792 137.201 173.865 137.121C173.939 137.041 174.039 136.996 174.143 136.996C174.247 136.996 174.347 137.041 174.42 137.121C174.494 137.201 174.535 137.309 174.535 137.422C174.53 138.49 174.703 139.55 175.045 140.551ZM178.326 72.5994C178.29 72.6556 178.242 72.7013 178.186 72.7325C178.13 72.7637 178.067 72.7795 178.004 72.7784C177.923 72.778 177.844 72.7513 177.777 72.7017C176.9 72.0105 175.887 71.5522 174.818 71.3633C174.886 71.0731 174.973 70.7883 175.077 70.5108C176.21 70.7365 177.283 71.2346 178.216 71.9685C178.263 72.0003 178.304 72.0424 178.336 72.0922C178.367 72.1419 178.389 72.1983 178.399 72.2577C178.409 72.317 178.408 72.378 178.396 72.4369C178.383 72.4957 178.359 72.5511 178.326 72.5994ZM176.96 80.5275C176.856 80.5275 176.756 80.4826 176.683 80.4026C176.609 80.3227 176.568 80.2143 176.568 80.1012C176.593 79.2448 176.305 78.4124 175.767 77.786C175.229 77.1597 174.484 76.7906 173.695 76.7595C173.591 76.7595 173.492 76.7146 173.418 76.6347C173.344 76.5547 173.303 76.4463 173.303 76.3333C173.303 76.2202 173.344 76.1118 173.418 76.0319C173.492 75.9519 173.591 75.907 173.695 75.907C174.692 75.9383 175.636 76.3972 176.322 77.1834C177.007 77.9695 177.378 79.0188 177.353 80.1012C177.353 80.2143 177.311 80.3227 177.238 80.4026C177.164 80.4826 177.064 80.5275 176.96 80.5275ZM163.713 100.169C163.713 100.282 163.671 100.39 163.598 100.47C163.524 100.55 163.424 100.595 163.32 100.595C161.6 100.582 159.92 100.028 158.483 99.0011C157.046 97.9741 155.913 96.5173 155.221 94.8066C155.456 94.6872 155.699 94.5849 155.943 94.4912C156.582 96.0408 157.616 97.3591 158.924 98.2898C160.231 99.2204 161.757 99.7246 163.32 99.7425C163.424 99.7425 163.524 99.7874 163.598 99.8673C163.671 99.9472 163.713 100.056 163.713 100.169ZM159.514 92.2918C159.437 92.291 159.363 92.2665 159.299 92.2212C159.235 92.1759 159.184 92.1116 159.153 92.036C158.906 91.4185 158.779 90.7526 158.779 90.0796C158.779 89.4065 158.906 88.7406 159.153 88.1231C159.654 86.8311 160.592 85.7969 161.774 85.2332C161.862 85.2107 161.955 85.222 162.036 85.2651C162.117 85.3082 162.182 85.3805 162.22 85.4698C162.258 85.559 162.266 85.6598 162.244 85.7549C162.221 85.8501 162.169 85.9338 162.096 85.9919C161.099 86.4647 160.307 87.3341 159.883 88.4215C159.675 88.9331 159.567 89.4862 159.567 90.0455C159.567 90.6047 159.675 91.1578 159.883 91.6694C159.903 91.7209 159.915 91.7763 159.916 91.8325C159.917 91.8887 159.907 91.9446 159.888 91.9969C159.869 92.0492 159.841 92.0969 159.805 92.1372C159.769 92.1776 159.726 92.2098 159.679 92.2321C159.629 92.2666 159.572 92.2871 159.514 92.2918ZM163.736 127.465C162.64 127.461 161.586 127 160.793 126.178C160.717 126.1 160.673 125.992 160.67 125.879C160.667 125.765 160.705 125.655 160.777 125.573C160.849 125.49 160.948 125.442 161.053 125.439C161.157 125.436 161.259 125.478 161.334 125.556C161.952 126.225 162.789 126.6 163.661 126.6C164.534 126.6 165.371 126.225 165.988 125.556C166.024 125.515 166.067 125.482 166.114 125.459C166.161 125.436 166.212 125.423 166.264 125.422C166.316 125.42 166.367 125.43 166.415 125.45C166.464 125.47 166.508 125.5 166.546 125.539C166.583 125.577 166.614 125.624 166.635 125.675C166.656 125.726 166.668 125.781 166.669 125.838C166.67 125.894 166.662 125.95 166.643 126.002C166.625 126.055 166.597 126.103 166.561 126.144C166.199 126.563 165.761 126.896 165.275 127.123C164.789 127.351 164.265 127.467 163.736 127.465ZM159.357 117.687C159.357 117.8 159.315 117.909 159.242 117.989C159.168 118.069 159.068 118.113 158.964 118.113C157.838 118.122 156.719 117.926 155.652 117.534C155.734 117.266 155.831 117.004 155.943 116.749C156.916 117.109 157.936 117.294 158.964 117.295C159.063 117.295 159.159 117.335 159.231 117.408C159.304 117.48 159.349 117.58 159.357 117.687ZM168.68 130.261C167.911 130.845 167.06 131.291 166.161 131.583H166.051H166.02C166.028 131.297 166.052 131.013 166.091 130.73C166.855 130.463 167.58 130.076 168.241 129.579C168.326 129.522 168.429 129.502 168.527 129.524C168.626 129.546 168.713 129.609 168.77 129.698C168.827 129.788 168.851 129.898 168.836 130.006C168.821 130.114 168.768 130.211 168.688 130.278L168.68 130.261ZM175.956 127.661H173.083C172.852 127.662 172.622 127.614 172.408 127.518C172.194 127.423 171.999 127.282 171.835 127.105C171.671 126.928 171.541 126.717 171.452 126.484C171.363 126.252 171.317 126.003 171.317 125.752V122.725C171.317 122.612 171.359 122.504 171.432 122.424C171.506 122.344 171.606 122.299 171.71 122.299C171.814 122.299 171.914 122.344 171.987 122.424C172.061 122.504 172.102 122.612 172.102 122.725V125.752C172.104 126.033 172.209 126.302 172.392 126.5C172.576 126.698 172.824 126.809 173.083 126.809H175.956C176.059 126.811 176.158 126.857 176.231 126.936C176.304 127.016 176.346 127.123 176.348 127.235C176.348 127.348 176.307 127.457 176.233 127.536C176.16 127.616 176.06 127.661 175.956 127.661ZM174.904 86.5801H168.994C168.89 86.5801 168.79 86.5352 168.717 86.4553C168.643 86.3753 168.602 86.2669 168.602 86.1539C168.602 86.0408 168.643 85.9324 168.717 85.8525C168.79 85.7725 168.89 85.7276 168.994 85.7276H174.904C175.008 85.7276 175.108 85.7725 175.182 85.8525C175.255 85.9324 175.297 86.0408 175.297 86.1539C175.297 86.2669 175.255 86.3753 175.182 86.4553C175.108 86.5352 175.008 86.5801 174.904 86.5801Z" fill="#336CBD"/>
<g filter="url(#filter1_bdi_2386_29404)">
<path d="M231.828 116.318C231.416 116.536 231.224 117.029 231.357 117.476V117.476C231.745 118.625 231.945 119.84 231.945 121.065C231.945 126.589 228.068 131.073 223.312 131.073C222.557 131.07 221.807 130.953 221.081 130.727C221.072 130.725 221.063 130.723 221.054 130.723V130.723C221.002 130.723 220.96 130.767 220.962 130.819C220.974 131.083 220.972 131.347 220.958 131.61C220.958 131.695 220.958 131.789 220.958 131.874C220.958 136.759 217.528 140.723 213.298 140.723C213.102 140.736 212.905 140.736 212.709 140.723C212.463 140.723 212.217 140.665 211.983 140.616C211.953 140.609 211.924 140.633 211.924 140.664V140.664C211.924 140.669 211.924 140.674 211.922 140.679C211.389 142.255 210.431 143.619 209.172 144.593C207.912 145.568 206.409 146.106 204.861 146.136C200.631 146.136 197.201 142.172 197.201 137.287V73.9479C197.201 69.0632 200.631 65.0991 204.861 65.0991C206.407 65.1267 207.909 65.6618 209.17 66.6341C210.43 67.6063 211.391 68.9702 211.924 70.5465V70.5465C212.101 71.0167 212.568 71.3298 213.07 71.3048C213.146 71.301 213.222 71.2983 213.298 71.2967C217.528 71.2967 220.958 75.2607 220.958 80.1455V80.1455C220.958 80.3266 221.134 80.4554 221.309 80.4082C221.944 80.2372 222.595 80.1489 223.249 80.1455C228.037 80.1455 231.883 84.6295 231.883 90.1536C231.889 91.3883 231.697 92.6126 231.317 93.772C231.181 94.1869 231.381 94.6414 231.773 94.8337V94.8337C233.697 95.8386 235.31 97.4306 236.415 99.4153C237.52 101.4 238.068 103.691 237.993 106.009C237.918 108.327 237.223 110.571 235.993 112.466C234.923 114.115 233.489 115.438 231.828 116.318Z" fill="url(#paint3_linear_2386_29404)" fill-opacity="0.24" shape-rendering="crispEdges"/>
<path d="M211.569 70.6667L211.924 70.5465L211.573 70.6781C211.806 71.298 212.42 71.7127 213.088 71.6793C213.159 71.6758 213.231 71.6732 213.302 71.6717C217.274 71.6742 220.583 75.4167 220.583 80.1455C220.583 80.5864 221.006 80.8783 221.407 80.7703C222.01 80.6077 222.629 80.5238 223.251 80.5205C227.78 80.5211 231.508 84.7824 231.508 90.1536L231.508 90.1556C231.514 91.3502 231.328 92.5344 230.961 93.6552C230.765 94.2516 231.051 94.8947 231.603 95.1681C233.458 96.1375 235.017 97.6751 236.087 99.5977C237.158 101.522 237.691 103.746 237.618 105.997C237.545 108.248 236.87 110.425 235.678 112.262C234.642 113.859 233.255 115.138 231.652 115.986C231.074 116.292 230.817 116.975 230.997 117.582L231.357 117.476L231.001 117.596C231.377 118.706 231.57 119.881 231.57 121.065C231.57 126.435 227.812 130.697 223.314 130.698C222.597 130.695 221.883 130.584 221.192 130.369C221.148 130.356 221.101 130.348 221.054 130.348C220.785 130.348 220.577 130.573 220.588 130.835C220.598 131.086 220.597 131.338 220.583 131.59L220.583 131.6V131.61V131.874C220.583 136.604 217.272 140.348 213.298 140.348H213.286L213.274 140.349C213.094 140.36 212.913 140.36 212.734 140.349L212.721 140.348H212.709C212.529 140.348 212.346 140.309 212.125 140.262C212.104 140.258 212.082 140.253 212.06 140.249C211.82 140.198 211.595 140.361 211.555 140.592C211.043 142.087 210.132 143.376 208.943 144.296C207.745 145.223 206.321 145.732 204.858 145.761C200.885 145.759 197.576 142.016 197.576 137.287V73.9479C197.576 69.2189 200.885 65.4762 204.858 65.4741C206.319 65.5009 207.743 66.0071 208.941 66.931C210.14 67.856 211.058 69.1572 211.569 70.6667Z" stroke="url(#paint4_linear_2386_29404)" stroke-width="0.75" shape-rendering="crispEdges"/>
<path d="M211.569 70.6667L211.924 70.5465L211.573 70.6781C211.806 71.298 212.42 71.7127 213.088 71.6793C213.159 71.6758 213.231 71.6732 213.302 71.6717C217.274 71.6742 220.583 75.4167 220.583 80.1455C220.583 80.5864 221.006 80.8783 221.407 80.7703C222.01 80.6077 222.629 80.5238 223.251 80.5205C227.78 80.5211 231.508 84.7824 231.508 90.1536L231.508 90.1556C231.514 91.3502 231.328 92.5344 230.961 93.6552C230.765 94.2516 231.051 94.8947 231.603 95.1681C233.458 96.1375 235.017 97.6751 236.087 99.5977C237.158 101.522 237.691 103.746 237.618 105.997C237.545 108.248 236.87 110.425 235.678 112.262C234.642 113.859 233.255 115.138 231.652 115.986C231.074 116.292 230.817 116.975 230.997 117.582L231.357 117.476L231.001 117.596C231.377 118.706 231.57 119.881 231.57 121.065C231.57 126.435 227.812 130.697 223.314 130.698C222.597 130.695 221.883 130.584 221.192 130.369C221.148 130.356 221.101 130.348 221.054 130.348C220.785 130.348 220.577 130.573 220.588 130.835C220.598 131.086 220.597 131.338 220.583 131.59L220.583 131.6V131.61V131.874C220.583 136.604 217.272 140.348 213.298 140.348H213.286L213.274 140.349C213.094 140.36 212.913 140.36 212.734 140.349L212.721 140.348H212.709C212.529 140.348 212.346 140.309 212.125 140.262C212.104 140.258 212.082 140.253 212.06 140.249C211.82 140.198 211.595 140.361 211.555 140.592C211.043 142.087 210.132 143.376 208.943 144.296C207.745 145.223 206.321 145.732 204.858 145.761C200.885 145.759 197.576 142.016 197.576 137.287V73.9479C197.576 69.2189 200.885 65.4762 204.858 65.4741C206.319 65.5009 207.743 66.0071 208.941 66.931C210.14 67.856 211.058 69.1572 211.569 70.6667Z" stroke="white" stroke-opacity="0.2" stroke-width="0.75" shape-rendering="crispEdges"/>
<path d="M211.569 70.6667L211.924 70.5465L211.573 70.6781C211.806 71.298 212.42 71.7127 213.088 71.6793C213.159 71.6758 213.231 71.6732 213.302 71.6717C217.274 71.6742 220.583 75.4167 220.583 80.1455C220.583 80.5864 221.006 80.8783 221.407 80.7703C222.01 80.6077 222.629 80.5238 223.251 80.5205C227.78 80.5211 231.508 84.7824 231.508 90.1536L231.508 90.1556C231.514 91.3502 231.328 92.5344 230.961 93.6552C230.765 94.2516 231.051 94.8947 231.603 95.1681C233.458 96.1375 235.017 97.6751 236.087 99.5977C237.158 101.522 237.691 103.746 237.618 105.997C237.545 108.248 236.87 110.425 235.678 112.262C234.642 113.859 233.255 115.138 231.652 115.986C231.074 116.292 230.817 116.975 230.997 117.582L231.357 117.476L231.001 117.596C231.377 118.706 231.57 119.881 231.57 121.065C231.57 126.435 227.812 130.697 223.314 130.698C222.597 130.695 221.883 130.584 221.192 130.369C221.148 130.356 221.101 130.348 221.054 130.348C220.785 130.348 220.577 130.573 220.588 130.835C220.598 131.086 220.597 131.338 220.583 131.59L220.583 131.6V131.61V131.874C220.583 136.604 217.272 140.348 213.298 140.348H213.286L213.274 140.349C213.094 140.36 212.913 140.36 212.734 140.349L212.721 140.348H212.709C212.529 140.348 212.346 140.309 212.125 140.262C212.104 140.258 212.082 140.253 212.06 140.249C211.82 140.198 211.595 140.361 211.555 140.592C211.043 142.087 210.132 143.376 208.943 144.296C207.745 145.223 206.321 145.732 204.858 145.761C200.885 145.759 197.576 142.016 197.576 137.287V73.9479C197.576 69.2189 200.885 65.4762 204.858 65.4741C206.319 65.5009 207.743 66.0071 208.941 66.931C210.14 67.856 211.058 69.1572 211.569 70.6667Z" stroke="url(#paint5_linear_2386_29404)" stroke-opacity="0.3" stroke-width="0.75" shape-rendering="crispEdges"/>
</g>
<path d="M213.252 137.398C213.253 138.52 213.075 139.633 212.727 140.689C212.46 140.689 212.193 140.621 211.942 140.569C212.295 139.556 212.476 138.482 212.475 137.398C212.475 137.285 212.517 137.177 212.59 137.097C212.664 137.017 212.764 136.972 212.868 136.972C212.971 136.974 213.068 137.02 213.14 137.1C213.212 137.179 213.252 137.287 213.252 137.398ZM212.161 71.3648C210.87 71.599 209.663 72.2189 208.677 73.155C208.605 73.222 208.513 73.2583 208.418 73.2573C208.337 73.2582 208.258 73.2321 208.192 73.1826C208.126 73.1332 208.075 73.0627 208.046 72.9807C208.018 72.8988 208.014 72.8094 208.034 72.7247C208.054 72.6399 208.098 72.564 208.159 72.5071C209.224 71.5028 210.516 70.8259 211.902 70.5464C212.005 70.8127 212.092 71.0861 212.161 71.3648ZM210.019 80.529C209.915 80.529 209.815 80.4841 209.741 80.4041C209.668 80.3242 209.627 80.2158 209.627 80.1027C209.601 79.0203 209.972 77.971 210.657 77.1849C211.343 76.3987 212.287 75.9397 213.284 75.9085C213.388 75.9085 213.488 75.9534 213.561 76.0334C213.635 76.1133 213.676 76.2217 213.676 76.3348C213.676 76.4478 213.635 76.5562 213.561 76.6361C213.488 76.7161 213.388 76.761 213.284 76.761C212.495 76.7921 211.751 77.1612 211.212 77.7875C210.674 78.4138 210.386 79.2463 210.411 80.1027C210.411 80.2158 210.37 80.3242 210.296 80.4041C210.223 80.4841 210.123 80.529 210.019 80.529ZM231.766 94.8081C231.067 96.5076 229.932 97.9528 228.497 98.9715C227.063 99.9902 225.389 100.539 223.675 100.554C223.571 100.554 223.471 100.509 223.397 100.429C223.324 100.349 223.282 100.241 223.282 100.128C223.282 100.015 223.324 99.9061 223.397 99.8262C223.471 99.7462 223.571 99.7013 223.675 99.7013C225.228 99.6852 226.745 99.1892 228.049 98.2714C229.352 97.3536 230.389 96.0519 231.037 94.5182C231.28 94.5864 231.523 94.6887 231.766 94.8081ZM227.976 91.688C227.929 91.6961 227.881 91.6961 227.834 91.688C227.737 91.6461 227.659 91.5647 227.617 91.4612C227.574 91.3577 227.571 91.2402 227.607 91.1339C227.937 90.0373 227.854 88.8432 227.376 87.8128C226.898 86.7825 226.064 85.9996 225.056 85.6353C224.959 85.5933 224.88 85.5124 224.837 85.4093C224.793 85.3062 224.787 85.1888 224.821 85.0812C224.838 85.0287 224.865 84.9805 224.9 84.9395C224.935 84.8984 224.977 84.8654 225.024 84.8424C225.071 84.8193 225.121 84.8067 225.173 84.8053C225.224 84.8038 225.275 84.8136 225.323 84.834C226.528 85.2752 227.523 86.2176 228.09 87.4545C228.656 88.6915 228.748 90.122 228.345 91.4322C228.312 91.5085 228.26 91.5731 228.194 91.6183C228.129 91.6636 228.053 91.6878 227.976 91.688ZM231.327 117.535C230.253 117.946 229.122 118.156 227.984 118.158C227.879 118.158 227.78 118.113 227.706 118.033C227.632 117.953 227.591 117.844 227.591 117.731C227.591 117.618 227.632 117.51 227.706 117.43C227.78 117.35 227.879 117.305 227.984 117.305C229.023 117.302 230.054 117.112 231.037 116.742C231.149 116.999 231.246 117.264 231.327 117.535ZM220.897 130.715C220.934 131.011 220.955 131.31 220.959 131.61C220.926 131.618 220.891 131.618 220.857 131.61C219.099 131.046 217.541 129.913 216.392 128.362C216.359 128.318 216.335 128.268 216.32 128.214C216.306 128.16 216.301 128.104 216.307 128.048C216.318 127.935 216.369 127.832 216.451 127.761C216.532 127.69 216.636 127.656 216.739 127.668C216.843 127.68 216.938 127.737 217.004 127.825C218.034 129.218 219.426 130.243 220.999 130.766L220.897 130.715ZM214.861 88.1246H212.075C211.971 88.1246 211.871 88.0797 211.798 87.9998C211.724 87.9198 211.683 87.8114 211.683 87.6984C211.683 87.5853 211.724 87.4769 211.798 87.397C211.871 87.317 211.971 87.2721 212.075 87.2721H214.861C215.12 87.2721 215.368 87.161 215.552 86.963C215.736 86.765 215.84 86.4962 215.842 86.215V83.0949C215.842 82.9819 215.884 82.8735 215.957 82.7935C216.031 82.7136 216.131 82.6687 216.235 82.6687C216.339 82.6687 216.439 82.7136 216.512 82.7935C216.586 82.8735 216.627 82.9819 216.627 83.0949V86.215C216.625 86.7223 216.438 87.2079 216.107 87.5658C215.776 87.9237 215.328 88.1246 214.861 88.1246ZM219.084 123.503H214.257C214.153 123.503 214.053 123.458 213.979 123.378C213.906 123.298 213.865 123.189 213.865 123.076C213.865 122.963 213.906 122.855 213.979 122.775C214.053 122.695 214.153 122.65 214.257 122.65H219.084C219.188 122.65 219.288 122.695 219.361 122.775C219.435 122.855 219.476 122.963 219.476 123.076C219.476 123.189 219.435 123.298 219.361 123.378C219.288 123.458 219.188 123.503 219.084 123.503ZM224.601 127.688C224.497 127.688 224.397 127.643 224.323 127.564C224.25 127.484 224.209 127.375 224.209 127.262C224.209 127.149 224.25 127.041 224.323 126.961C224.397 126.881 224.497 126.836 224.601 126.836C225.454 126.773 226.255 126.371 226.85 125.705C227.446 125.039 227.794 124.157 227.827 123.23C227.837 123.116 227.887 123.011 227.968 122.937C228.049 122.864 228.153 122.828 228.258 122.838C228.362 122.851 228.456 122.907 228.522 122.994C228.588 123.082 228.62 123.194 228.611 123.307C228.553 124.437 228.116 125.505 227.383 126.31C226.65 127.116 225.672 127.603 224.632 127.68L224.601 127.688Z" fill="#336CBD"/>
<path d="M176.671 106.026H158.377C158.273 106.026 158.173 105.981 158.099 105.901C158.026 105.821 157.984 105.712 157.984 105.599C157.984 105.486 158.026 105.378 158.099 105.298C158.173 105.218 158.273 105.173 158.377 105.173H176.671C176.775 105.173 176.875 105.218 176.949 105.298C177.022 105.378 177.063 105.486 177.063 105.599C177.063 105.712 177.022 105.821 176.949 105.901C176.875 105.981 176.775 106.026 176.671 106.026ZM176.671 115.948H168.493C168.389 115.948 168.289 115.904 168.216 115.824C168.142 115.744 168.101 115.635 168.101 115.522C168.101 115.409 168.142 115.301 168.216 115.221C168.289 115.141 168.389 115.096 168.493 115.096H176.671C176.775 115.096 176.875 115.141 176.949 115.221C177.022 115.301 177.063 115.409 177.063 115.522C177.063 115.635 177.022 115.744 176.949 115.824C176.875 115.904 176.775 115.948 176.671 115.948ZM176.671 96.1026H168.493C168.389 96.1026 168.289 96.0577 168.216 95.9778C168.142 95.8979 168.101 95.7894 168.101 95.6764C168.101 95.5634 168.142 95.4549 168.216 95.375C168.289 95.2951 168.389 95.2502 168.493 95.2502H176.671C176.775 95.2502 176.875 95.2951 176.949 95.375C177.022 95.4549 177.063 95.5634 177.063 95.6764C177.063 95.7894 177.022 95.8979 176.949 95.9778C176.875 96.0577 176.775 96.1026 176.671 96.1026ZM228.603 106.026H210.309C210.205 106.026 210.105 105.981 210.031 105.901C209.958 105.821 209.916 105.712 209.916 105.599C209.916 105.486 209.958 105.378 210.031 105.298C210.105 105.218 210.205 105.173 210.309 105.173H228.603C228.707 105.173 228.807 105.218 228.88 105.298C228.954 105.378 228.995 105.486 228.995 105.599C228.995 105.712 228.954 105.821 228.88 105.901C228.807 105.981 228.707 106.026 228.603 106.026ZM218.486 96.1026H210.309C210.205 96.1026 210.105 96.0577 210.031 95.9778C209.958 95.8979 209.916 95.7894 209.916 95.6764C209.916 95.5634 209.958 95.4549 210.031 95.375C210.105 95.2951 210.205 95.2502 210.309 95.2502H218.486C218.591 95.2502 218.69 95.2951 218.764 95.375C218.838 95.4549 218.879 95.5634 218.879 95.6764C218.879 95.7894 218.838 95.8979 218.764 95.9778C218.69 96.0577 218.591 96.1026 218.486 96.1026ZM218.486 115.948H210.309C210.205 115.948 210.105 115.904 210.031 115.824C209.958 115.744 209.916 115.635 209.916 115.522C209.916 115.409 209.958 115.301 210.031 115.221C210.105 115.141 210.205 115.096 210.309 115.096H218.486C218.591 115.096 218.69 115.141 218.764 115.221C218.838 115.301 218.879 115.409 218.879 115.522C218.879 115.635 218.838 115.744 218.764 115.824C218.69 115.904 218.591 115.948 218.486 115.948ZM184.354 87.7568C184.25 87.7568 184.151 87.7119 184.077 87.632C184.003 87.5521 183.962 87.4436 183.962 87.3306V78.4477C183.962 78.3347 184.003 78.2262 184.077 78.1463C184.151 78.0664 184.25 78.0215 184.354 78.0215C184.459 78.0215 184.558 78.0664 184.632 78.1463C184.706 78.2262 184.747 78.3347 184.747 78.4477V87.3306C184.747 87.4436 184.706 87.5521 184.632 87.632C184.558 87.7119 184.459 87.7568 184.354 87.7568ZM202.625 87.7568C202.521 87.7568 202.421 87.7119 202.348 87.632C202.274 87.5521 202.233 87.4436 202.233 87.3306V78.4477C202.233 78.3347 202.274 78.2262 202.348 78.1463C202.421 78.0664 202.521 78.0215 202.625 78.0215C202.729 78.0215 202.829 78.0664 202.903 78.1463C202.976 78.2262 203.018 78.3347 203.018 78.4477V87.3306C203.018 87.4436 202.976 87.5521 202.903 87.632C202.829 87.7119 202.729 87.7568 202.625 87.7568ZM202.625 133.177C202.521 133.177 202.421 133.132 202.348 133.052C202.274 132.972 202.233 132.864 202.233 132.751V123.868C202.233 123.755 202.274 123.647 202.348 123.567C202.421 123.487 202.521 123.442 202.625 123.442C202.729 123.442 202.829 123.487 202.903 123.567C202.976 123.647 203.018 123.755 203.018 123.868V132.751C203.018 132.864 202.976 132.972 202.903 133.052C202.829 133.132 202.729 133.177 202.625 133.177ZM184.354 133.177C184.25 133.177 184.151 133.132 184.077 133.052C184.003 132.972 183.962 132.864 183.962 132.751V123.868C183.962 123.755 184.003 123.647 184.077 123.567C184.151 123.487 184.25 123.442 184.354 123.442C184.459 123.442 184.558 123.487 184.632 123.567C184.706 123.647 184.747 123.755 184.747 123.868V132.751C184.747 132.864 184.706 132.972 184.632 133.052C184.558 133.132 184.459 133.177 184.354 133.177ZM193.49 87.7568C193.386 87.7568 193.286 87.7119 193.212 87.632C193.139 87.5521 193.097 87.4436 193.097 87.3306V67.4592C193.097 67.3462 193.139 67.2377 193.212 67.1578C193.286 67.0779 193.386 67.033 193.49 67.033C193.594 67.033 193.694 67.0779 193.767 67.1578C193.841 67.2377 193.882 67.3462 193.882 67.4592V87.3306C193.882 87.4436 193.841 87.5521 193.767 87.632C193.694 87.7119 193.594 87.7568 193.49 87.7568ZM193.49 144.166C193.386 144.166 193.286 144.121 193.212 144.041C193.139 143.961 193.097 143.852 193.097 143.739V123.868C193.097 123.755 193.139 123.647 193.212 123.567C193.286 123.487 193.386 123.442 193.49 123.442C193.594 123.442 193.694 123.487 193.767 123.567C193.841 123.647 193.882 123.755 193.882 123.868V143.739C193.882 143.852 193.841 143.961 193.767 144.041C193.694 144.121 193.594 144.166 193.49 144.166Z" fill="#336CBD"/>
<g filter="url(#filter2_bdi_2386_29404)">
<path d="M205.593 87.3323H181.381C178.78 87.3323 176.672 89.6223 176.672 92.4472V118.746C176.672 121.571 178.78 123.861 181.381 123.861H205.593C208.193 123.861 210.302 121.571 210.302 118.746V92.4472C210.302 89.6223 208.193 87.3323 205.593 87.3323Z" fill="url(#paint6_linear_2386_29404)" fill-opacity="0.24" shape-rendering="crispEdges"/>
</g>
<path d="M194.934 107.79C194.937 107.773 194.937 107.755 194.934 107.739C194.931 107.622 194.886 107.512 194.808 107.432L191.496 96.9206C191.472 96.828 191.421 96.7465 191.35 96.6885C191.279 96.6304 191.193 96.5991 191.104 96.5991C191.015 96.5991 190.929 96.6304 190.858 96.6885C190.787 96.7465 190.736 96.828 190.712 96.9206L185.304 113.97C185.28 114.025 185.267 114.084 185.266 114.144C185.264 114.204 185.275 114.264 185.296 114.32C185.318 114.375 185.35 114.425 185.39 114.466C185.431 114.507 185.479 114.538 185.532 114.558C185.584 114.577 185.64 114.584 185.695 114.579C185.75 114.573 185.804 114.555 185.852 114.525C185.9 114.495 185.942 114.455 185.975 114.406C186.007 114.358 186.03 114.302 186.042 114.243L187.996 108.156H194.204L196.143 114.269C196.168 114.353 196.217 114.427 196.283 114.479C196.35 114.531 196.43 114.559 196.511 114.558C196.553 114.567 196.595 114.567 196.637 114.558C196.734 114.522 196.815 114.445 196.86 114.344C196.906 114.244 196.913 114.128 196.88 114.021L194.934 107.79ZM188.286 107.304L191.135 98.3698L193.953 107.304H188.286ZM201.267 96.6307C201.163 96.6307 201.064 96.6757 200.99 96.7556C200.916 96.8355 200.875 96.9439 200.875 97.057V114.124C200.875 114.237 200.916 114.345 200.99 114.425C201.064 114.505 201.163 114.55 201.267 114.55C201.372 114.55 201.471 114.505 201.545 114.425C201.619 114.345 201.66 114.237 201.66 114.124V97.074C201.662 97.0166 201.653 96.9594 201.635 96.9057C201.616 96.852 201.587 96.803 201.551 96.7616C201.514 96.7202 201.47 96.6872 201.421 96.6647C201.373 96.6423 201.32 96.6307 201.267 96.6307Z" fill="white"/>
<path d="M158.377 105.6C158.377 106.011 158.265 106.414 158.054 106.756C157.844 107.098 157.545 107.364 157.195 107.522C156.845 107.679 156.46 107.72 156.088 107.64C155.717 107.56 155.376 107.362 155.108 107.071C154.84 106.78 154.658 106.409 154.584 106.006C154.51 105.602 154.548 105.184 154.693 104.804C154.838 104.424 155.083 104.099 155.398 103.871C155.713 103.642 156.083 103.52 156.462 103.52C156.97 103.52 157.457 103.739 157.816 104.129C158.175 104.519 158.377 105.048 158.377 105.6ZM168.493 115.523C168.493 115.934 168.381 116.336 168.17 116.679C167.96 117.021 167.661 117.287 167.311 117.445C166.961 117.602 166.576 117.643 166.205 117.563C165.833 117.483 165.492 117.285 165.224 116.994C164.956 116.703 164.774 116.332 164.7 115.929C164.626 115.525 164.664 115.107 164.809 114.727C164.954 114.347 165.199 114.022 165.514 113.793C165.829 113.565 166.199 113.443 166.578 113.443C167.086 113.443 167.573 113.662 167.932 114.052C168.291 114.442 168.493 114.971 168.493 115.523ZM168.493 95.6771C168.493 96.0885 168.381 96.4907 168.17 96.8327C167.96 97.1748 167.661 97.4414 167.311 97.5989C166.961 97.7563 166.576 97.7975 166.205 97.7172C165.833 97.637 165.492 97.4389 165.224 97.148C164.956 96.8571 164.774 96.4864 164.7 96.0829C164.626 95.6794 164.664 95.2612 164.809 94.8811C164.954 94.501 165.199 94.1762 165.514 93.9476C165.829 93.7191 166.199 93.5971 166.578 93.5971C167.086 93.5971 167.573 93.8162 167.932 94.2063C168.291 94.5964 168.493 95.1255 168.493 95.6771ZM193.49 67.4599C193.111 67.4599 192.741 67.3379 192.426 67.1094C192.111 66.8808 191.866 66.556 191.721 66.1759C191.576 65.7958 191.538 65.3776 191.612 64.9741C191.686 64.5706 191.868 64.1999 192.136 63.909C192.404 63.6181 192.745 63.42 193.116 63.3398C193.488 63.2595 193.873 63.3007 194.223 63.4581C194.573 63.6156 194.872 63.8822 195.082 64.2242C195.293 64.5663 195.405 64.9685 195.405 65.3799C195.405 65.9315 195.203 66.4606 194.844 66.8507C194.485 67.2408 193.998 67.4599 193.49 67.4599ZM184.354 78.4484C183.976 78.4484 183.606 78.3264 183.291 78.0979C182.976 77.8693 182.73 77.5445 182.585 77.1644C182.44 76.7843 182.402 76.3661 182.476 75.9626C182.55 75.5591 182.733 75.1885 183 74.8976C183.268 74.6066 183.609 74.4085 183.981 74.3283C184.352 74.248 184.737 74.2892 185.087 74.4467C185.437 74.6041 185.736 74.8707 185.947 75.2128C186.157 75.5548 186.269 75.957 186.269 76.3684C186.269 76.92 186.068 77.4491 185.709 77.8392C185.349 78.2293 184.862 78.4484 184.354 78.4484ZM202.625 78.4484C202.246 78.4484 201.876 78.3264 201.561 78.0979C201.246 77.8693 201.001 77.5445 200.856 77.1644C200.711 76.7843 200.673 76.3661 200.747 75.9626C200.821 75.5591 201.003 75.1885 201.271 74.8976C201.539 74.6066 201.88 74.4085 202.252 74.3283C202.623 74.248 203.008 74.2892 203.358 74.4467C203.708 74.6041 204.007 74.8707 204.217 75.2128C204.428 75.5548 204.54 75.957 204.54 76.3684C204.54 76.92 204.338 77.4491 203.979 77.8392C203.62 78.2293 203.133 78.4484 202.625 78.4484ZM228.603 105.6C228.603 105.189 228.715 104.786 228.926 104.444C229.136 104.102 229.435 103.836 229.785 103.678C230.135 103.521 230.52 103.48 230.891 103.56C231.263 103.64 231.604 103.838 231.872 104.129C232.14 104.42 232.322 104.791 232.396 105.194C232.47 105.598 232.432 106.016 232.287 106.396C232.142 106.776 231.897 107.101 231.582 107.33C231.267 107.558 230.897 107.68 230.518 107.68C230.01 107.68 229.523 107.461 229.164 107.071C228.805 106.681 228.603 106.152 228.603 105.6ZM218.486 95.6771C218.486 95.2657 218.599 94.8636 218.809 94.5215C219.02 94.1794 219.319 93.9128 219.669 93.7554C220.019 93.598 220.404 93.5568 220.775 93.637C221.147 93.7173 221.488 93.9154 221.756 94.2063C222.023 94.4972 222.206 94.8678 222.28 95.2713C222.354 95.6748 222.316 96.093 222.171 96.4731C222.026 96.8532 221.78 97.1781 221.465 97.4066C221.15 97.6352 220.78 97.7572 220.401 97.7572C219.894 97.7572 219.407 97.538 219.047 97.148C218.688 96.7579 218.486 96.2288 218.486 95.6771ZM218.486 115.523C218.486 115.112 218.599 114.709 218.809 114.367C219.02 114.025 219.319 113.759 219.669 113.601C220.019 113.444 220.404 113.403 220.775 113.483C221.147 113.563 221.488 113.761 221.756 114.052C222.023 114.343 222.206 114.714 222.28 115.117C222.354 115.521 222.316 115.939 222.171 116.319C222.026 116.699 221.78 117.024 221.465 117.252C221.15 117.481 220.78 117.603 220.401 117.603C219.894 117.603 219.407 117.384 219.047 116.994C218.688 116.604 218.486 116.075 218.486 115.523ZM193.49 143.74C193.869 143.74 194.239 143.862 194.554 144.091C194.869 144.319 195.114 144.644 195.259 145.024C195.404 145.404 195.442 145.823 195.368 146.226C195.294 146.629 195.112 147 194.844 147.291C194.576 147.582 194.235 147.78 193.863 147.86C193.492 147.941 193.107 147.899 192.757 147.742C192.407 147.584 192.108 147.318 191.898 146.976C191.687 146.634 191.575 146.232 191.575 145.82C191.575 145.269 191.777 144.739 192.136 144.349C192.495 143.959 192.982 143.74 193.49 143.74ZM202.625 132.752C203.004 132.752 203.374 132.874 203.689 133.102C204.004 133.331 204.249 133.656 204.394 134.036C204.539 134.416 204.577 134.834 204.503 135.237C204.429 135.641 204.247 136.012 203.979 136.303C203.711 136.593 203.37 136.792 202.999 136.872C202.627 136.952 202.242 136.911 201.892 136.753C201.542 136.596 201.243 136.329 201.033 135.987C200.823 135.645 200.71 135.243 200.71 134.832C200.71 134.28 200.912 133.751 201.271 133.361C201.63 132.971 202.117 132.752 202.625 132.752ZM184.354 132.752C184.733 132.752 185.103 132.874 185.418 133.102C185.733 133.331 185.979 133.656 186.124 134.036C186.269 134.416 186.307 134.834 186.233 135.237C186.159 135.641 185.976 136.012 185.709 136.303C185.441 136.593 185.1 136.792 184.728 136.872C184.357 136.952 183.972 136.911 183.622 136.753C183.272 136.596 182.973 136.329 182.762 135.987C182.552 135.645 182.44 135.243 182.44 134.832C182.44 134.28 182.641 133.751 183 133.361C183.36 132.971 183.847 132.752 184.354 132.752Z" fill="#336CBD"/>
<path d="M100 93L100 48" stroke="#3873E6" stroke-dasharray="2 2"/>
<path d="M193 57L193 27" stroke="#FB9C2D" stroke-dasharray="2 2"/>
<path d="M193 188L193 158" stroke="#FB9C2D" stroke-dasharray="2 2"/>
<path d="M280 93L280 48" stroke="#3873E6" stroke-dasharray="2 2"/>
<path d="M280 165L280 120" stroke="#3873E6" stroke-dasharray="2 2"/>
<path d="M100 165L100 120" stroke="#3873E6" stroke-dasharray="2 2"/>
<circle cx="100" cy="106" r="7.5" stroke="#80A6EF"/>
<circle cx="152" cy="18" r="2" fill="#1C5CD9"/>
<circle cx="36" cy="51" r="2" fill="#FB9C2D"/>
<circle cx="36" cy="163" r="2" fill="#FB9C2D"/>
<circle cx="346" cy="51" r="2" fill="#FB9C2D"/>
<circle cx="346" cy="163" r="2" fill="#FB9C2D"/>
<circle cx="152" cy="197" r="2" fill="#1C5CD9"/>
<circle cx="236" cy="18" r="2" fill="#1C5CD9"/>
<circle cx="236" cy="197" r="2" fill="#1C5CD9"/>
<circle cx="7" cy="7" r="6.5" transform="matrix(-1 0 0 1 287 99)" stroke="#80A6EF"/>
<circle cx="4" cy="4" r="4" transform="matrix(-1 0 0 1 284 102)" fill="#80A6EF"/>
<circle cx="4" cy="4" r="4" transform="matrix(-1 0 0 1 104 102)" fill="#80A6EF"/>
<circle cx="32" cy="106" r="4" fill="#80A6EF"/>
<circle cx="64" cy="79" r="2" fill="#FB9C2D"/>
<circle cx="318" cy="79" r="2" fill="#FB9C2D"/>
<circle cx="64" cy="133" r="2" fill="#FB9C2D"/>
<circle cx="318" cy="133" r="2" fill="#FB9C2D"/>
<circle cx="193" cy="18" r="4" fill="#FB9C2D"/>
<circle cx="193" cy="197" r="4" fill="#FB9C2D"/>
<circle opacity="0.2" cx="100" cy="47" r="10" fill="#1C5CD9"/>
<circle opacity="0.1" cx="100" cy="47" r="23" fill="#1C5CD9"/>
<circle cx="100" cy="47" r="4" fill="#1C5CD9"/>
<circle opacity="0.2" cx="280" cy="165" r="10" fill="#1C5CD9"/>
<circle opacity="0.1" cx="280" cy="165" r="23" fill="#1C5CD9"/>
<circle cx="280" cy="165" r="4" fill="#1C5CD9"/>
<circle opacity="0.2" cx="280" cy="49" r="10" fill="#1C5CD9"/>
<circle opacity="0.1" cx="280" cy="49" r="23" fill="#1C5CD9"/>
<circle cx="280" cy="49" r="4" fill="#1C5CD9"/>
<circle opacity="0.2" cx="100" cy="165" r="10" fill="#1C5CD9"/>
<circle opacity="0.1" cx="100" cy="165" r="23" fill="#1C5CD9"/>
<circle cx="100" cy="165" r="4" fill="#1C5CD9"/>
<circle cx="4" cy="4" r="4" transform="matrix(-1 0 0 1 352 102)" fill="#80A6EF"/>
<path d="M166 73L152 59V26" stroke="#0E2E6D" stroke-dasharray="3 3"/>
<path d="M166 142L152 156V189" stroke="#0E2E6D" stroke-dasharray="3 3"/>
<path d="M222 73L236 59V26" stroke="#0E2E6D" stroke-dasharray="3 3"/>
<path d="M222 142L236 156V189" stroke="#0E2E6D" stroke-dasharray="3 3"/>
<path d="M60 75L40 55" stroke="#FB9C2D" stroke-width="0.5" stroke-dasharray="3 3"/>
<path d="M60 138L40 158" stroke="#FB9C2D" stroke-width="0.5" stroke-dasharray="3 3"/>
<path d="M322 75L342 55" stroke="#FB9C2D" stroke-width="0.5" stroke-dasharray="3 3"/>
<path d="M322 138L342 158" stroke="#FB9C2D" stroke-width="0.5" stroke-dasharray="3 3"/>
<defs>
<filter id="filter0_bdi_2386_29404" x="108.947" y="35.0892" width="120.854" height="161.012" filterUnits="userSpaceOnUse" color-interpolation-filters="sRGB">
<feFlood flood-opacity="0" result="BackgroundImageFix"/>
<feGaussianBlur in="BackgroundImageFix" stdDeviation="10"/>
<feComposite in2="SourceAlpha" operator="in" result="effect1_backgroundBlur_2386_29404"/>
<feColorMatrix in="SourceAlpha" type="matrix" values="0 0 0 0 0 0 0 0 0 0 0 0 0 0 0 0 0 0 127 0" result="hardAlpha"/>
<feOffset dy="10"/>
<feGaussianBlur stdDeviation="20"/>
<feComposite in2="hardAlpha" operator="out"/>
<feColorMatrix type="matrix" values="0 0 0 0 0.101961 0 0 0 0 0.337255 0 0 0 0 0.796078 0 0 0 0.12 0"/>
<feBlend mode="normal" in2="effect1_backgroundBlur_2386_29404" result="effect2_dropShadow_2386_29404"/>
<feBlend mode="normal" in="SourceGraphic" in2="effect2_dropShadow_2386_29404" result="shape"/>
<feColorMatrix in="SourceAlpha" type="matrix" values="0 0 0 0 0 0 0 0 0 0 0 0 0 0 0 0 0 0 127 0" result="hardAlpha"/>
<feOffset dy="10"/>
<feGaussianBlur stdDeviation="15"/>
<feComposite in2="hardAlpha" operator="arithmetic" k2="-1" k3="1"/>
<feColorMatrix type="matrix" values="0 0 0 0 0.28571 0 0 0 0 0.480516 0 0 0 0 1 0 0 0 0.36 0"/>
<feBlend mode="normal" in2="shape" result="effect3_innerShadow_2386_29404"/>
</filter>
<filter id="filter1_bdi_2386_29404" x="157.201" y="35.0991" width="120.799" height="161.037" filterUnits="userSpaceOnUse" color-interpolation-filters="sRGB">
<feFlood flood-opacity="0" result="BackgroundImageFix"/>
<feGaussianBlur in="BackgroundImageFix" stdDeviation="10"/>
<feComposite in2="SourceAlpha" operator="in" result="effect1_backgroundBlur_2386_29404"/>
<feColorMatrix in="SourceAlpha" type="matrix" values="0 0 0 0 0 0 0 0 0 0 0 0 0 0 0 0 0 0 127 0" result="hardAlpha"/>
<feOffset dy="10"/>
<feGaussianBlur stdDeviation="20"/>
<feComposite in2="hardAlpha" operator="out"/>
<feColorMatrix type="matrix" values="0 0 0 0 0.101961 0 0 0 0 0.337255 0 0 0 0 0.796078 0 0 0 0.12 0"/>
<feBlend mode="normal" in2="effect1_backgroundBlur_2386_29404" result="effect2_dropShadow_2386_29404"/>
<feBlend mode="normal" in="SourceGraphic" in2="effect2_dropShadow_2386_29404" result="shape"/>
<feColorMatrix in="SourceAlpha" type="matrix" values="0 0 0 0 0 0 0 0 0 0 0 0 0 0 0 0 0 0 127 0" result="hardAlpha"/>
<feOffset dy="10"/>
<feGaussianBlur stdDeviation="15"/>
<feComposite in2="hardAlpha" operator="arithmetic" k2="-1" k3="1"/>
<feColorMatrix type="matrix" values="0 0 0 0 0.28571 0 0 0 0 0.480516 0 0 0 0 1 0 0 0 0.36 0"/>
<feBlend mode="normal" in2="shape" result="effect3_innerShadow_2386_29404"/>
</filter>
<filter id="filter2_bdi_2386_29404" x="136.672" y="57.3323" width="113.629" height="116.529" filterUnits="userSpaceOnUse" color-interpolation-filters="sRGB">
<feFlood flood-opacity="0" result="BackgroundImageFix"/>
<feGaussianBlur in="BackgroundImageFix" stdDeviation="10"/>
<feComposite in2="SourceAlpha" operator="in" result="effect1_backgroundBlur_2386_29404"/>
<feColorMatrix in="SourceAlpha" type="matrix" values="0 0 0 0 0 0 0 0 0 0 0 0 0 0 0 0 0 0 127 0" result="hardAlpha"/>
<feOffset dy="10"/>
<feGaussianBlur stdDeviation="20"/>
<feComposite in2="hardAlpha" operator="out"/>
<feColorMatrix type="matrix" values="0 0 0 0 0.101961 0 0 0 0 0.337255 0 0 0 0 0.796078 0 0 0 0.12 0"/>
<feBlend mode="normal" in2="effect1_backgroundBlur_2386_29404" result="effect2_dropShadow_2386_29404"/>
<feBlend mode="normal" in="SourceGraphic" in2="effect2_dropShadow_2386_29404" result="shape"/>
<feColorMatrix in="SourceAlpha" type="matrix" values="0 0 0 0 0 0 0 0 0 0 0 0 0 0 0 0 0 0 127 0" result="hardAlpha"/>
<feOffset dy="10"/>
<feGaussianBlur stdDeviation="15"/>
<feComposite in2="hardAlpha" operator="arithmetic" k2="-1" k3="1"/>
<feColorMatrix type="matrix" values="0 0 0 0 0.28571 0 0 0 0 0.480516 0 0 0 0 1 0 0 0 0.36 0"/>
<feBlend mode="normal" in2="shape" result="effect3_innerShadow_2386_29404"/>
</filter>
<linearGradient id="paint0_linear_2386_29404" x1="169.374" y1="31.9481" x2="169.374" y2="172.798" gradientUnits="userSpaceOnUse">
<stop stop-opacity="0"/>
<stop offset="1" stop-color="#1A56CB"/>
</linearGradient>
<linearGradient id="paint1_linear_2386_29404" x1="169.374" y1="65.0892" x2="169.374" y2="146.101" gradientUnits="userSpaceOnUse">
<stop offset="0.171875" stop-color="#1A56CB"/>
<stop offset="1" stop-color="#1A56CB" stop-opacity="0.44"/>
</linearGradient>
<linearGradient id="paint2_linear_2386_29404" x1="169.374" y1="61.2918" x2="169.374" y2="146.101" gradientUnits="userSpaceOnUse">
<stop stop-color="#2737CF" stop-opacity="0"/>
<stop offset="1" stop-color="#BDFCFE"/>
</linearGradient>
<linearGradient id="paint3_linear_2386_29404" x1="217.601" y1="31.9476" x2="217.601" y2="172.842" gradientUnits="userSpaceOnUse">
<stop stop-opacity="0"/>
<stop offset="1" stop-color="#1A56CB"/>
</linearGradient>
<linearGradient id="paint4_linear_2386_29404" x1="217.6" y1="65.0991" x2="217.6" y2="146.136" gradientUnits="userSpaceOnUse">
<stop offset="0.171875" stop-color="#1A56CB"/>
<stop offset="1" stop-color="#1A56CB" stop-opacity="0.44"/>
</linearGradient>
<linearGradient id="paint5_linear_2386_29404" x1="217.6" y1="61.3005" x2="217.6" y2="146.136" gradientUnits="userSpaceOnUse">
<stop stop-color="#2737CF" stop-opacity="0"/>
<stop offset="1" stop-color="#BDFCFE"/>
</linearGradient>
<linearGradient id="paint6_linear_2386_29404" x1="193.487" y1="72.3886" x2="193.487" y2="135.899" gradientUnits="userSpaceOnUse">
<stop stop-opacity="0"/>
<stop offset="1" stop-color="#1A56CB"/>
</linearGradient>
</defs>
</svg>
