<svg width="36" height="37" viewBox="0 0 36 37" fill="none" xmlns="http://www.w3.org/2000/svg">
<path d="M32.2959 8.7755L27.7959 4.2755C27.6915 4.17091 27.5674 4.08793 27.4308 4.03131C27.2942 3.9747 27.1478 3.94556 27 3.94556C26.8522 3.94556 26.7058 3.9747 26.5692 4.03131C26.4326 4.08793 26.3085 4.17091 26.2041 4.2755L12.7041 17.7755C12.5996 17.8801 12.5168 18.0042 12.4603 18.1407C12.4039 18.2773 12.3749 18.4237 12.375 18.5714V23.0714C12.375 23.3698 12.4935 23.656 12.7045 23.8669C12.9155 24.0779 13.2016 24.1964 13.5 24.1964H18C18.1478 24.1966 18.2941 24.1676 18.4307 24.1111C18.5673 24.0546 18.6914 23.9718 18.7959 23.8674L32.2959 10.3674C32.4005 10.2629 32.4835 10.1388 32.5401 10.0022C32.5967 9.86568 32.6259 9.71928 32.6259 9.57144C32.6259 9.4236 32.5967 9.27721 32.5401 9.14063C32.4835 9.00406 32.4005 8.87999 32.2959 8.7755ZM17.5345 21.9464H14.625V19.0369L23.625 10.0369L26.5345 12.9464L17.5345 21.9464ZM28.125 11.356L25.2155 8.44644L27 6.66191L29.9095 9.57144L28.125 11.356ZM31.5 18.5714V29.8214C31.5 30.4182 31.2629 30.9905 30.841 31.4124C30.419 31.8344 29.8467 32.0714 29.25 32.0714H6.75C6.15326 32.0714 5.58097 31.8344 5.15901 31.4124C4.73705 30.9905 4.5 30.4182 4.5 29.8214V7.32144C4.5 6.7247 4.73705 6.15241 5.15901 5.73045C5.58097 5.30849 6.15326 5.07144 6.75 5.07144H18C18.2984 5.07144 18.5845 5.18997 18.7955 5.40095C19.0065 5.61193 19.125 5.89807 19.125 6.19644C19.125 6.49481 19.0065 6.78096 18.7955 6.99194C18.5845 7.20291 18.2984 7.32144 18 7.32144H6.75V29.8214H29.25V18.5714C29.25 18.2731 29.3685 17.9869 29.5795 17.7759C29.7905 17.565 30.0766 17.4464 30.375 17.4464C30.6734 17.4464 30.9595 17.565 31.1705 17.7759C31.3815 17.9869 31.5 18.2731 31.5 18.5714Z" fill="#FB9C2D"/>
</svg>
