<svg width="36" height="8" viewBox="0 0 36 8" fill="none" xmlns="http://www.w3.org/2000/svg">
<g clip-path="url(#clip0_2759_6599)">
<path d="M28 4C28 6.20914 29.7909 8 32 8C34.2091 8 36 6.20914 36 4C36 1.79086 34.2091 0 32 0C29.7909 0 28 1.79086 28 4ZM0 4.75H0.888889V3.25H0V4.75ZM2.66667 4.75H4.44444V3.25H2.66667V4.75ZM6.22222 4.75H8V3.25H6.22222V4.75ZM9.77778 4.75H11.5556V3.25H9.77778V4.75ZM13.3333 4.75H15.1111V3.25H13.3333V4.75ZM16.8889 4.75H18.6667V3.25H16.8889V4.75ZM20.4444 4.75H22.2222V3.25H20.4444V4.75ZM24 4.75H25.7778V3.25H24V4.75ZM27.5556 4.75H29.3333V3.25H27.5556V4.75ZM31.1111 4.75H32V3.25H31.1111V4.75Z" fill="#1C5CD9"/>
</g>
<defs>
<clipPath id="clip0_2759_6599">
<rect width="36" height="8" fill="white"/>
</clipPath>
</defs>
</svg>
