<svg width="36" height="37" viewBox="0 0 36 37" fill="none" xmlns="http://www.w3.org/2000/svg">
<path d="M16.8396 31.3616C16.7787 31.605 16.6383 31.8211 16.4406 31.9755C16.2428 32.1299 15.9992 32.2138 15.7483 32.2138C15.6535 32.2143 15.559 32.203 15.4671 32.1801L10.9671 31.0551C10.8418 31.0236 10.7229 30.9708 10.6155 30.899L7.2405 28.649C6.99229 28.4834 6.82003 28.226 6.76162 27.9334C6.70321 27.6408 6.76342 27.337 6.92901 27.0888C7.09461 26.8406 7.35202 26.6683 7.64462 26.6099C7.93722 26.5515 8.24104 26.6117 8.48925 26.7773L11.7011 28.919L16.0127 29.9976C16.1567 30.0325 16.2925 30.0956 16.4121 30.1831C16.5317 30.2707 16.6328 30.381 16.7097 30.5077C16.7865 30.6345 16.8375 30.7752 16.8598 30.9217C16.8821 31.0683 16.8752 31.2178 16.8396 31.3616ZM35.4991 17.797C35.4068 18.0773 35.2598 18.3367 35.0667 18.5599C34.8736 18.7832 34.6382 18.966 34.3741 19.0977L31.0441 20.7627L23.2985 28.5098C23.161 28.6471 22.9903 28.7465 22.803 28.7982C22.6157 28.85 22.4182 28.8524 22.2297 28.8051L13.2297 26.5551C13.0928 26.5207 12.9636 26.4611 12.8486 26.3793L5.04112 20.8049L1.62675 19.0977C1.09313 18.831 0.68729 18.3632 0.498476 17.7973C0.309662 17.2314 0.353328 16.6137 0.619873 16.0799L4.1144 9.09228C4.38116 8.55866 4.84892 8.15282 5.41484 7.964C5.98075 7.77519 6.59849 7.81886 7.13222 8.0854L10.2344 9.63228L17.6875 7.50321C17.8897 7.44538 18.1041 7.44538 18.3063 7.50321L25.7594 9.63228L28.8616 8.0854C29.3953 7.81886 30.0131 7.77519 30.579 7.964C31.1449 8.15282 31.6126 8.55866 31.8794 9.09228L35.3739 16.0799C35.5072 16.3437 35.5869 16.6312 35.6084 16.9259C35.6299 17.2206 35.5927 17.5167 35.4991 17.797ZM29.005 19.6167L25.1786 11.9638H20.7039L14.6233 17.8701C16.4036 19.0077 19.195 19.3213 21.6996 16.7971C21.8952 16.6 22.1568 16.4821 22.434 16.4663C22.7113 16.4504 22.9847 16.5377 23.2014 16.7113L28.0403 20.5884L29.005 19.6167ZM2.63222 17.0854L5.11987 18.3299L8.6144 11.3423L6.12675 10.0977L2.63222 17.0854ZM26.4358 22.1817L22.5391 19.0612C19.7913 21.3112 16.3024 21.6079 13.4111 19.7643C13.1267 19.5834 12.8866 19.3409 12.7085 19.0547C12.5304 18.7686 12.4189 18.446 12.3821 18.111C12.3454 17.7759 12.3844 17.4369 12.4963 17.1189C12.6082 16.801 12.7901 16.5122 13.0286 16.274C13.032 16.2699 13.0358 16.2661 13.0399 16.2627L19.3483 10.1442L17.9983 9.75884L10.908 11.7852L7.05909 19.4817L13.9778 24.4246L22.1538 26.4679L26.4358 22.1817ZM33.3602 17.0854L29.8699 10.0977L27.3822 11.3423L30.8767 18.3299L33.3602 17.0854Z" fill="#FB9C2D"/>
</svg>
