<svg width="36" height="37" viewBox="0 0 36 37" fill="none" xmlns="http://www.w3.org/2000/svg">
<path d="M30.375 10.2678H7.875C7.57663 10.2678 7.29048 10.1493 7.07951 9.93832C6.86853 9.72734 6.75 9.44119 6.75 9.14282C6.75 8.84445 6.86853 8.55831 7.07951 8.34733C7.29048 8.13635 7.57663 8.01782 7.875 8.01782H27C27.2984 8.01782 27.5845 7.8993 27.7955 7.68832C28.0065 7.47734 28.125 7.19119 28.125 6.89282C28.125 6.59445 28.0065 6.30831 27.7955 6.09733C27.5845 5.88635 27.2984 5.76782 27 5.76782H7.875C6.97989 5.76782 6.12145 6.1234 5.48851 6.75634C4.85558 7.38927 4.5 8.24772 4.5 9.14282V27.1428C4.5 28.0379 4.85558 28.8964 5.48851 29.5293C6.12145 30.1622 6.97989 30.5178 7.875 30.5178H30.375C30.9717 30.5178 31.544 30.2808 31.966 29.8588C32.3879 29.4369 32.625 28.8646 32.625 28.2678V12.5178C32.625 11.9211 32.3879 11.3488 31.966 10.9268C31.544 10.5049 30.9717 10.2678 30.375 10.2678ZM30.375 28.2678H7.875C7.57663 28.2678 7.29048 28.1493 7.07951 27.9383C6.86853 27.7273 6.75 27.4412 6.75 27.1428V12.3252C7.11123 12.4532 7.49174 12.5184 7.875 12.5178H30.375V28.2678ZM23.625 19.8303C23.625 19.4966 23.724 19.1703 23.9094 18.8928C24.0948 18.6153 24.3584 18.399 24.6667 18.2713C24.9751 18.1436 25.3144 18.1101 25.6417 18.1752C25.9691 18.2404 26.2697 18.4011 26.5057 18.6371C26.7417 18.8731 26.9025 19.1738 26.9676 19.5011C27.0327 19.8285 26.9993 20.1677 26.8715 20.4761C26.7438 20.7844 26.5275 21.048 26.25 21.2334C25.9725 21.4189 25.6463 21.5178 25.3125 21.5178C24.8649 21.5178 24.4357 21.34 24.1193 21.0236C23.8028 20.7071 23.625 20.2779 23.625 19.8303Z" fill="#FB9C2D"/>
</svg>
