<svg width="36" height="37" viewBox="0 0 36 37" fill="none" xmlns="http://www.w3.org/2000/svg">
<path d="M25.8752 33.4814C25.8752 33.7797 25.7567 34.0659 25.5457 34.2769C25.3347 34.4878 25.0486 34.6064 24.7502 34.6064H13.5002C13.2018 34.6064 12.9157 34.4878 12.7047 34.2769C12.4937 34.0659 12.3752 33.7797 12.3752 33.4814C12.3752 33.183 12.4937 32.8969 12.7047 32.6859C12.9157 32.4749 13.2018 32.3564 13.5002 32.3564H24.7502C25.0486 32.3564 25.3347 32.4749 25.5457 32.6859C25.7567 32.8969 25.8752 33.183 25.8752 33.4814ZM31.5002 15.4814C31.505 17.3568 31.0814 19.2086 30.2615 20.8953C29.4417 22.5821 28.2473 24.0592 26.7696 25.214C26.4933 25.4258 26.269 25.698 26.114 26.0097C25.959 26.3214 25.8773 26.6645 25.8752 27.0126V27.8564C25.8752 28.4531 25.6381 29.0254 25.2162 29.4474C24.7942 29.8693 24.2219 30.1064 23.6252 30.1064H14.6252C14.0284 30.1064 13.4562 29.8693 13.0342 29.4474C12.6122 29.0254 12.3752 28.4531 12.3752 27.8564V27.0126C12.375 26.6687 12.2959 26.3293 12.144 26.0207C11.9921 25.7121 11.7715 25.4424 11.4991 25.2323C10.0252 24.0845 8.8318 22.6164 8.00905 20.9393C7.18631 19.2621 6.75583 17.4198 6.75018 15.5517C6.71362 8.84809 12.1305 3.26809 18.8271 3.10638C20.4771 3.06661 22.1184 3.35732 23.6544 3.9614C25.1904 4.56548 26.59 5.47071 27.7709 6.62382C28.9518 7.77692 29.89 9.15461 30.5305 10.6758C31.171 12.197 31.5007 13.8309 31.5002 15.4814ZM29.2502 15.4814C29.2506 14.1309 28.9808 12.794 28.4567 11.5493C27.9327 10.3047 27.1649 9.17746 26.1987 8.234C25.2324 7.29054 24.0872 6.54991 22.8304 6.05571C21.5735 5.56152 20.2306 5.32374 18.8805 5.35637C13.3961 5.48575 8.97065 10.0518 9.00018 15.5362C9.00522 17.0642 9.35778 18.5711 10.0312 19.9428C10.7046 21.3144 11.6812 22.5149 12.8871 23.4534C13.4291 23.8748 13.8675 24.4146 14.1688 25.0315C14.4701 25.6484 14.6262 26.3261 14.6252 27.0126V27.8564H18.0002V21.5718L13.8292 17.4023C13.6182 17.1912 13.4996 16.9049 13.4996 16.6064C13.4996 16.3078 13.6182 16.0215 13.8292 15.8104C14.0403 15.5993 14.3266 15.4807 14.6252 15.4807C14.9237 15.4807 15.21 15.5993 15.4211 15.8104L19.1252 19.5159L22.8292 15.8104C22.9338 15.7059 23.0579 15.623 23.1944 15.5664C23.331 15.5099 23.4774 15.4807 23.6252 15.4807C23.773 15.4807 23.9194 15.5099 24.0559 15.5664C24.1925 15.623 24.3166 15.7059 24.4211 15.8104C24.5256 15.915 24.6086 16.039 24.6651 16.1756C24.7217 16.3122 24.7508 16.4586 24.7508 16.6064C24.7508 16.7542 24.7217 16.9006 24.6651 17.0371C24.6086 17.1737 24.5256 17.2978 24.4211 17.4023L20.2502 21.5718V27.8564H23.6252V27.0126C23.6264 26.3241 23.7851 25.6449 24.089 25.0271C24.3929 24.4092 24.8341 23.869 25.3788 23.4478C26.5883 22.5025 27.5658 21.2934 28.2368 19.9128C28.9077 18.5321 29.2544 17.0164 29.2502 15.4814Z" fill="#FB9C2D"/>
</svg>
