<svg width="36" height="36" viewBox="0 0 36 36" fill="none" xmlns="http://www.w3.org/2000/svg">
<path d="M31.7616 14.4591C31.2314 13.905 30.683 13.3341 30.4763 12.832C30.285 12.3722 30.2737 11.61 30.2625 10.8717C30.2414 9.49922 30.2189 7.94391 29.1375 6.8625C28.0561 5.78109 26.5008 5.75859 25.1283 5.7375C24.39 5.72625 23.6278 5.715 23.168 5.52375C22.6673 5.31703 22.095 4.76859 21.5409 4.23844C20.5706 3.30609 19.4681 2.25 18 2.25C16.5319 2.25 15.4308 3.30609 14.4591 4.23844C13.905 4.76859 13.3341 5.31703 12.832 5.52375C12.375 5.715 11.61 5.72625 10.8717 5.7375C9.49922 5.75859 7.94391 5.78109 6.8625 6.8625C5.78109 7.94391 5.76562 9.49922 5.7375 10.8717C5.72625 11.61 5.715 12.3722 5.52375 12.832C5.31703 13.3327 4.76859 13.905 4.23844 14.4591C3.30609 15.4294 2.25 16.5319 2.25 18C2.25 19.4681 3.30609 20.5692 4.23844 21.5409C4.76859 22.095 5.31703 22.6659 5.52375 23.168C5.715 23.6278 5.72625 24.39 5.7375 25.1283C5.75859 26.5008 5.78109 28.0561 6.8625 29.1375C7.94391 30.2189 9.49922 30.2414 10.8717 30.2625C11.61 30.2737 12.3722 30.285 12.832 30.4763C13.3327 30.683 13.905 31.2314 14.4591 31.7616C15.4294 32.6939 16.5319 33.75 18 33.75C19.4681 33.75 20.5692 32.6939 21.5409 31.7616C22.095 31.2314 22.6659 30.683 23.168 30.4763C23.6278 30.285 24.39 30.2737 25.1283 30.2625C26.5008 30.2414 28.0561 30.2189 29.1375 29.1375C30.2189 28.0561 30.2414 26.5008 30.2625 25.1283C30.2737 24.39 30.285 23.6278 30.4763 23.168C30.683 22.6673 31.2314 22.095 31.7616 21.5409C32.6939 20.5706 33.75 19.4681 33.75 18C33.75 16.5319 32.6939 15.4308 31.7616 14.4591ZM30.1373 19.9842C29.4637 20.6873 28.7662 21.4144 28.3964 22.3073C28.042 23.1652 28.0266 24.1453 28.0125 25.0945C27.9984 26.0789 27.983 27.1097 27.5456 27.5456C27.1083 27.9816 26.0845 27.9984 25.0945 28.0125C24.1453 28.0266 23.1652 28.042 22.3073 28.3964C21.4144 28.7662 20.6873 29.4637 19.9842 30.1373C19.2811 30.8109 18.5625 31.5 18 31.5C17.4375 31.5 16.7133 30.8081 16.0158 30.1373C15.3183 29.4666 14.5856 28.7662 13.6927 28.3964C12.8348 28.042 11.8547 28.0266 10.9055 28.0125C9.92109 27.9984 8.89031 27.983 8.45437 27.5456C8.01844 27.1083 8.00156 26.0845 7.9875 25.0945C7.97344 24.1453 7.95797 23.1652 7.60359 22.3073C7.23375 21.4144 6.53625 20.6873 5.86266 19.9842C5.18906 19.2811 4.5 18.5625 4.5 18C4.5 17.4375 5.19187 16.7133 5.86266 16.0158C6.53344 15.3183 7.23375 14.5856 7.60359 13.6927C7.95797 12.8348 7.97344 11.8547 7.9875 10.9055C8.00156 9.92109 8.01703 8.89031 8.45437 8.45437C8.89172 8.01844 9.91547 8.00156 10.9055 7.9875C11.8547 7.97344 12.8348 7.95797 13.6927 7.60359C14.5856 7.23375 15.3127 6.53625 16.0158 5.86266C16.7189 5.18906 17.4375 4.5 18 4.5C18.5625 4.5 19.2867 5.19187 19.9842 5.86266C20.6817 6.53344 21.4144 7.23375 22.3073 7.60359C23.1652 7.95797 24.1453 7.97344 25.0945 7.9875C26.0789 8.00156 27.1097 8.01703 27.5456 8.45437C27.9816 8.89172 27.9984 9.91547 28.0125 10.9055C28.0266 11.8547 28.042 12.8348 28.3964 13.6927C28.7662 14.5856 29.4637 15.3127 30.1373 16.0158C30.8109 16.7189 31.5 17.4375 31.5 18C31.5 18.5625 30.8081 19.2867 30.1373 19.9842ZM24.4209 13.8291C24.5255 13.9335 24.6085 14.0576 24.6651 14.1942C24.7217 14.3308 24.7509 14.4772 24.7509 14.625C24.7509 14.7728 24.7217 14.9192 24.6651 15.0558C24.6085 15.1924 24.5255 15.3165 24.4209 15.4209L16.5459 23.2959C16.4415 23.4005 16.3174 23.4835 16.1808 23.5401C16.0442 23.5967 15.8978 23.6259 15.75 23.6259C15.6022 23.6259 15.4558 23.5967 15.3192 23.5401C15.1826 23.4835 15.0585 23.4005 14.9541 23.2959L11.5791 19.9209C11.368 19.7098 11.2494 19.4235 11.2494 19.125C11.2494 18.8265 11.368 18.5402 11.5791 18.3291C11.7902 18.118 12.0765 17.9994 12.375 17.9994C12.6735 17.9994 12.9598 18.118 13.1709 18.3291L15.75 20.9095L22.8291 13.8291C22.9335 13.7245 23.0576 13.6415 23.1942 13.5849C23.3308 13.5283 23.4772 13.4991 23.625 13.4991C23.7728 13.4991 23.9192 13.5283 24.0558 13.5849C24.1924 13.6415 24.3165 13.7245 24.4209 13.8291Z" fill="#FB9C2D"/>
</svg>
