<svg width="74" height="158" viewBox="0 0 74 158" fill="none" xmlns="http://www.w3.org/2000/svg">
<g clip-path="url(#clip0_2756_6947)">
<path d="M36 50.6445L35.25 50.6445L36 50.6445ZM36 80.0076L36.75 80.0076V80.0076L36 80.0076ZM8 154C8 151.791 6.20914 150 4 150C1.79086 150 0 151.791 0 154C0 156.209 1.79086 158 4 158C6.20914 158 8 156.209 8 154ZM8 4C8 1.79086 6.20914 -3.57628e-06 4 -3.57628e-06C1.79086 -3.57628e-06 0 1.79086 0 4C0 6.20914 1.79086 8 4 8C6.20914 8 8 6.20914 8 4ZM8 80.0076C8 77.7984 6.20914 76.0076 4 76.0076C1.79086 76.0076 0 77.7984 0 80.0076C0 82.2167 1.79086 84.0076 4 84.0076C6.20914 84.0076 8 82.2167 8 80.0076ZM28 154L28 154.75L28 154ZM36.75 80.0076L36.75 79.09L35.25 79.09L35.25 80.0076L36.75 80.0076ZM36.75 77.2548L36.75 75.4196L35.25 75.4196L35.25 77.2548L36.75 77.2548ZM36.75 73.5844L36.75 71.7492L35.25 71.7492L35.25 73.5844L36.75 73.5844ZM36.75 69.914L36.75 68.0788L35.25 68.0788L35.25 69.914L36.75 69.914ZM36.75 66.2436L36.75 64.4084L35.25 64.4084L35.25 66.2436L36.75 66.2436ZM36.75 62.5732L36.75 60.738L35.25 60.738L35.25 62.5732L36.75 62.5732ZM36.75 58.9029L36.75 57.0677L35.25 57.0677L35.25 58.9029L36.75 58.9029ZM36.75 55.2325L36.75 53.3973L35.25 53.3973L35.25 55.2325L36.75 55.2325ZM36.75 51.5621L36.75 50.6445L35.25 50.6445L35.25 51.5621L36.75 51.5621ZM36.75 50.6445V49.7662H35.25V50.6445H36.75ZM36.75 48.0096V46.2531H35.25V48.0096H36.75ZM36.75 44.4965V42.7399H35.25V44.4965H36.75ZM36.75 40.9834V39.2268H35.25V40.9834H36.75ZM36.75 37.4702V35.7137H35.25V37.4702H36.75ZM36.75 33.9571V32.2005H35.25V33.9571H36.75ZM36.75 30.444V28.6874H35.25V30.444H36.75ZM36.75 26.9308V25.1742H35.25V26.9308H36.75ZM36.75 23.4177V21.6611H35.25V23.4177H36.75ZM36.75 19.9045V18.148H35.25V19.9045H36.75ZM36.75 16.3914V14.6348H35.25V16.3914H36.75ZM36.75 12.8783V12H35.25V12.8783H36.75ZM36.75 12C36.75 11.711 36.736 11.4251 36.7085 11.1429L35.2156 11.2882C35.2383 11.5222 35.25 11.7596 35.25 12H36.75ZM36.3753 9.45946C36.2075 8.90566 35.9864 8.37518 35.7179 7.87403L34.3957 8.58226C34.6179 8.99728 34.8009 9.43629 34.9397 9.89439L36.3753 9.45946ZM34.7638 6.44865C34.4002 6.00605 33.9939 5.59982 33.5513 5.23618L32.5991 6.39516C32.9662 6.69679 33.3032 7.03378 33.6048 7.40089L34.7638 6.44865ZM32.126 4.28207C31.6248 4.01364 31.0943 3.7925 30.5405 3.62472L30.1056 5.06028C30.5637 5.19907 31.0027 5.38205 31.4177 5.60434L32.126 4.28207ZM28.8571 3.29149C28.5749 3.26403 28.289 3.25 28 3.25V4.75C28.2404 4.75 28.4778 4.76167 28.7118 4.78444L28.8571 3.29149ZM28 3.25H27.1429V4.75H28V3.25ZM25.4286 3.25H23.7143V4.75H25.4286V3.25ZM22 3.25H20.2857V4.75H22V3.25ZM18.5714 3.25H16.8571V4.75H18.5714V3.25ZM15.1429 3.25H13.4286V4.75H15.1429V3.25ZM11.7143 3.25H10V4.75H11.7143V3.25ZM8.28572 3.25H6.57143V4.75H8.28572V3.25ZM4.85715 3.25H4V4.75H4.85715V3.25ZM36 79.2576H35.1111V80.7576H36V79.2576ZM33.3333 79.2576H31.5556V80.7576H33.3333V79.2576ZM29.7778 79.2576H28V80.7576H29.7778V79.2576ZM26.2222 79.2576H24.4444V80.7576H26.2222V79.2576ZM22.6667 79.2576H20.8889V80.7576H22.6667V79.2576ZM19.1111 79.2576H17.3333V80.7576H19.1111V79.2576ZM15.5556 79.2576H13.7778V80.7576H15.5556V79.2576ZM12 79.2576H10.2222V80.7576H12V79.2576ZM8.44444 79.2576H6.66666V80.7576H8.44444V79.2576ZM4.88888 79.2576H4V80.7576H4.88888V79.2576ZM35.25 80.0076L35.25 80.8759L36.75 80.8759L36.75 80.0076L35.25 80.0076ZM35.25 82.6125L35.25 84.3492L36.75 84.3492L36.75 82.6125L35.25 82.6125ZM35.25 86.0858L35.25 87.8225L36.75 87.8225L36.75 86.0858L35.25 86.0858ZM35.25 89.5591L35.25 91.2957L36.75 91.2957L36.75 89.5591L35.25 89.5591ZM35.25 93.0324L35.25 94.769L36.75 94.769L36.75 93.0324L35.25 93.0324ZM35.25 96.5057L35.25 98.2423L36.75 98.2423L36.75 96.5057L35.25 96.5057ZM35.25 99.979L35.25 101.716L36.75 101.716L36.75 99.979L35.25 99.979ZM35.25 103.452L35.25 105.189L36.75 105.189L36.75 103.452L35.25 103.452ZM35.25 106.926L35.25 108.662L36.75 108.662L36.75 106.926L35.25 106.926ZM35.25 110.399L35.25 112.135L36.75 112.135L36.75 110.399L35.25 110.399ZM35.25 113.872L35.25 115.609L36.75 115.609L36.75 113.872L35.25 113.872ZM35.25 117.345L35.25 119.082L36.75 119.082L36.75 117.345L35.25 117.345ZM35.25 120.819L35.25 122.555L36.75 122.555L36.75 120.819L35.25 120.819ZM35.25 124.292L35.25 126.029L36.75 126.029L36.75 124.292L35.25 124.292ZM35.25 127.765L35.25 129.502L36.75 129.502L36.75 127.765L35.25 127.765ZM35.25 131.239L35.25 132.975L36.75 132.975L36.75 131.239L35.25 131.239ZM35.25 134.712L35.25 136.448L36.75 136.448L36.75 134.712L35.25 134.712ZM35.25 138.185L35.25 139.922L36.75 139.922L36.75 138.185L35.25 138.185ZM35.25 141.658L35.25 143.395L36.75 143.395L36.75 141.658L35.25 141.658ZM35.25 145.132L35.25 146L36.75 146L36.75 145.132L35.25 145.132ZM35.25 146C35.25 146.24 35.2383 146.478 35.2156 146.712L36.7085 146.857C36.736 146.575 36.75 146.289 36.75 146L35.25 146ZM34.9397 148.106C34.8009 148.564 34.6179 149.003 34.3957 149.418L35.7179 150.126C35.9864 149.625 36.2075 149.094 36.3753 148.541L34.9397 148.106ZM33.6048 150.599C33.3032 150.966 32.9662 151.303 32.5991 151.605L33.5513 152.764C33.9939 152.4 34.4002 151.994 34.7638 151.551L33.6048 150.599ZM31.4177 152.396C31.0027 152.618 30.5637 152.801 30.1056 152.94L30.5405 154.375C31.0943 154.207 31.6248 153.986 32.126 153.718L31.4177 152.396ZM28.7118 153.216C28.4778 153.238 28.2404 153.25 28 153.25L28 154.75C28.289 154.75 28.5749 154.736 28.8571 154.709L28.7118 153.216ZM28 153.25L27.1429 153.25L27.1429 154.75L28 154.75L28 153.25ZM25.4286 153.25L23.7143 153.25L23.7143 154.75L25.4286 154.75L25.4286 153.25ZM22 153.25L20.2857 153.25L20.2857 154.75L22 154.75L22 153.25ZM18.5714 153.25L16.8571 153.25L16.8571 154.75L18.5714 154.75L18.5714 153.25ZM15.1429 153.25L13.4286 153.25L13.4286 154.75L15.1429 154.75L15.1429 153.25ZM11.7143 153.25L10 153.25L10 154.75L11.7143 154.75L11.7143 153.25ZM8.28571 153.25L6.57143 153.25L6.57143 154.75L8.28571 154.75L8.28571 153.25ZM4.85714 153.25L4 153.25L4 154.75L4.85714 154.75L4.85714 153.25Z" fill="#1C5CD9"/>
<path d="M66 80C66 82.2091 67.7909 84 70 84C72.2091 84 74 82.2091 74 80C74 77.7909 72.2091 76 70 76C67.7909 76 66 77.7909 66 80ZM36 80.75L36.85 80.75L36.85 79.25L36 79.25L36 80.75ZM38.55 80.75L40.25 80.75L40.25 79.25L38.55 79.25L38.55 80.75ZM41.95 80.75L43.65 80.75L43.65 79.25L41.95 79.25L41.95 80.75ZM45.35 80.75L47.05 80.75L47.05 79.25L45.35 79.25L45.35 80.75ZM48.75 80.75L50.45 80.75L50.45 79.25L48.75 79.25L48.75 80.75ZM52.15 80.75L53.85 80.75L53.85 79.25L52.15 79.25L52.15 80.75ZM55.55 80.75L57.25 80.75L57.25 79.25L55.55 79.25L55.55 80.75ZM58.95 80.75L60.65 80.75L60.65 79.25L58.95 79.25L58.95 80.75ZM62.35 80.75L64.05 80.75L64.05 79.25L62.35 79.25L62.35 80.75ZM65.75 80.75L67.45 80.75L67.45 79.25L65.75 79.25L65.75 80.75ZM69.15 80.75L70 80.75L70 79.25L69.15 79.25L69.15 80.75Z" fill="#1C5CD9"/>
</g>
<defs>
<clipPath id="clip0_2756_6947">
<rect width="74" height="158" fill="white"/>
</clipPath>
</defs>
</svg>
