<svg width="36" height="37" viewBox="0 0 36 37" fill="none" xmlns="http://www.w3.org/2000/svg">
<path d="M34.4254 21.5796C34.3072 21.6682 34.1727 21.7327 34.0296 21.7694C33.8865 21.806 33.7376 21.8142 33.5913 21.7933C33.4451 21.7724 33.3044 21.7229 33.1772 21.6476C33.0501 21.5723 32.9391 21.4728 32.8504 21.3546C32.1724 20.4431 31.2898 19.7036 30.2737 19.1956C29.2576 18.6875 28.1364 18.4252 27.0004 18.4296C26.7792 18.4296 26.5629 18.3643 26.3786 18.242C26.1942 18.1197 26.05 17.9457 25.964 17.7419C25.9056 17.6035 25.8755 17.4548 25.8755 17.3046C25.8755 17.1543 25.9056 17.0056 25.964 16.8672C26.05 16.6634 26.1942 16.4895 26.3786 16.3671C26.5629 16.2448 26.7792 16.1796 27.0004 16.1796C27.6317 16.1795 28.2502 16.0024 28.7858 15.6685C29.3215 15.3345 29.7527 14.857 30.0306 14.2902C30.3084 13.7234 30.4218 13.0901 30.3577 12.4621C30.2937 11.8341 30.0548 11.2367 29.6682 10.7377C29.2816 10.2387 28.7629 9.85809 28.1709 9.63913C27.5788 9.42017 26.9372 9.37163 26.319 9.49902C25.7008 9.62641 25.1306 9.92462 24.6734 10.3598C24.2162 10.795 23.8901 11.3496 23.7323 11.9608C23.6954 12.1039 23.6306 12.2384 23.5417 12.3565C23.4528 12.4746 23.3415 12.574 23.2142 12.6491C23.0869 12.7242 22.946 12.7734 22.7997 12.7941C22.6533 12.8147 22.5043 12.8063 22.3612 12.7694C22.2181 12.7325 22.0836 12.6677 21.9656 12.5788C21.8475 12.4899 21.748 12.3787 21.6729 12.2513C21.5979 12.124 21.5486 11.9832 21.5279 11.8368C21.5073 11.6904 21.5157 11.5414 21.5526 11.3983C21.7716 10.5508 22.1855 9.76608 22.7611 9.10663C23.3368 8.44717 24.0584 7.93117 24.8686 7.59969C25.6788 7.26821 26.5552 7.13038 27.428 7.19719C28.3008 7.264 29.146 7.5336 29.8963 7.98453C30.6466 8.43546 31.2813 9.05527 31.7499 9.79466C32.2185 10.534 32.508 11.3726 32.5955 12.2436C32.683 13.1146 32.566 13.994 32.2538 14.8118C31.9417 15.6296 31.4429 16.3633 30.7973 16.9544C32.327 17.6168 33.6568 18.6678 34.6546 20.0032C34.7433 20.1217 34.8077 20.2565 34.8441 20.3999C34.8806 20.5433 34.8884 20.6925 34.8671 20.8389C34.8458 20.9854 34.7958 21.1262 34.72 21.2532C34.6443 21.3803 34.5441 21.4912 34.4254 21.5796ZM26.8486 30.2421C26.9299 30.3701 26.9846 30.5133 27.0092 30.663C27.0339 30.8127 27.0279 30.9659 26.9918 31.1133C26.9557 31.2606 26.8902 31.3992 26.7992 31.5206C26.7082 31.6419 26.5935 31.7437 26.4621 31.8196C26.3308 31.8955 26.1854 31.9441 26.0348 31.9624C25.8842 31.9807 25.7314 31.9683 25.5857 31.9261C25.44 31.8838 25.3043 31.8125 25.1869 31.7164C25.0694 31.6203 24.9726 31.5015 24.9023 31.3671C24.1936 30.1671 23.1843 29.1726 21.974 28.4817C20.7636 27.7909 19.3941 27.4275 18.0004 27.4275C16.6068 27.4275 15.2372 27.7909 14.0269 28.4817C12.8165 29.1726 11.8072 30.1671 11.0986 31.3671C11.0282 31.5015 10.9314 31.6203 10.814 31.7164C10.6965 31.8125 10.5609 31.8838 10.4152 31.9261C10.2694 31.9683 10.1167 31.9807 9.96605 31.9624C9.81543 31.9441 9.67007 31.8955 9.53871 31.8196C9.40735 31.7437 9.2927 31.6419 9.20167 31.5206C9.11064 31.3992 9.04511 31.2606 9.00901 31.1133C8.97291 30.9659 8.967 30.8127 8.99162 30.663C9.01625 30.5133 9.0709 30.3701 9.1523 30.2421C10.243 28.3681 11.906 26.8933 13.897 26.0346C12.7767 25.1768 11.9533 23.9895 11.5426 22.6396C11.132 21.2897 11.1547 19.8451 11.6075 18.5088C12.0603 17.1724 12.9206 16.0116 14.0672 15.1894C15.2139 14.3672 16.5894 13.9251 18.0004 13.9251C19.4114 13.9251 20.7869 14.3672 21.9336 15.1894C23.0803 16.0116 23.9405 17.1724 24.3934 18.5088C24.8462 19.8451 24.8689 21.2897 24.4582 22.6396C24.0475 23.9895 23.2242 25.1768 22.1039 26.0346C24.0948 26.8933 25.7579 28.3681 26.8486 30.2421ZM18.0004 25.1796C18.8904 25.1796 19.7605 24.9157 20.5005 24.4212C21.2405 23.9267 21.8173 23.2239 22.1579 22.4016C22.4985 21.5794 22.5876 20.6746 22.414 19.8017C22.2403 18.9288 21.8117 18.1269 21.1824 17.4976C20.5531 16.8683 19.7512 16.4397 18.8783 16.266C18.0054 16.0924 17.1006 16.1815 16.2784 16.5221C15.4561 16.8627 14.7533 17.4395 14.2588 18.1795C13.7643 18.9195 13.5004 19.7896 13.5004 20.6796C13.5004 21.873 13.9745 23.0176 14.8184 23.8616C15.6624 24.7055 16.807 25.1796 18.0004 25.1796ZM10.1254 17.3046C10.1254 17.0062 10.0069 16.7201 9.79592 16.5091C9.58494 16.2981 9.2988 16.1796 9.00043 16.1796C8.3692 16.1795 7.75064 16.0024 7.21501 15.6685C6.67937 15.3345 6.24814 14.857 5.97028 14.2902C5.69243 13.7234 5.57909 13.0901 5.64314 12.4621C5.7072 11.8341 5.94607 11.2367 6.33264 10.7377C6.71921 10.2387 7.23797 9.85809 7.83 9.63913C8.42204 9.42017 9.06361 9.37163 9.68185 9.49902C10.3001 9.62641 10.8702 9.92462 11.3275 10.3598C11.7847 10.795 12.1107 11.3496 12.2686 11.9608C12.3431 12.2499 12.5295 12.4974 12.7866 12.6491C13.0438 12.8007 13.3506 12.844 13.6396 12.7694C13.9287 12.6948 14.1763 12.5085 14.3279 12.2513C14.4795 11.9942 14.5228 11.6874 14.4482 11.3983C14.2292 10.5508 13.8154 9.76608 13.2397 9.10663C12.6641 8.44717 11.9424 7.93117 11.1322 7.59969C10.3221 7.26821 9.44569 7.13038 8.57287 7.19719C7.70005 7.264 6.85487 7.5336 6.10457 7.98453C5.35428 8.43546 4.71958 9.05527 4.25099 9.79466C3.78239 10.534 3.49283 11.3726 3.40534 12.2436C3.31785 13.1146 3.43484 13.994 3.74702 14.8118C4.0592 15.6296 4.55793 16.3633 5.20355 16.9544C3.67536 17.6174 2.34706 18.6684 1.35043 20.0032C1.17122 20.2419 1.09417 20.542 1.13624 20.8375C1.1783 21.133 1.33603 21.3997 1.57472 21.5789C1.81342 21.7581 2.11353 21.8351 2.40903 21.7931C2.70453 21.751 2.97122 21.5933 3.15043 21.3546C3.8285 20.4431 4.7111 19.7036 5.72718 19.1956C6.74326 18.6875 7.86443 18.4252 9.00043 18.4296C9.2988 18.4296 9.58494 18.311 9.79592 18.1001C10.0069 17.8891 10.1254 17.6029 10.1254 17.3046Z" fill="#FB9C2D"/>
</svg>
