<svg width="486" height="65" viewBox="0 0 486 65" fill="none" xmlns="http://www.w3.org/2000/svg">
<g clip-path="url(#clip0_2759_6608)">
<path d="M0 42C0 44.2091 1.79086 46 4 46C6.20914 46 8 44.2091 8 42C8 39.7909 6.20914 38 4 38C1.79086 38 0 39.7909 0 42ZM4.2613 42.703L5.06844 42.403L4.54585 40.997L3.7387 41.297L4.2613 42.703ZM6.68272 41.803L8.29701 41.203L7.77442 39.797L6.16013 40.397L6.68272 41.803ZM9.9113 40.603L11.5256 40.003L11.003 38.597L9.3887 39.197L9.9113 40.603ZM13.1399 39.403L14.7542 38.803L14.2316 37.397L12.6173 37.997L13.1399 39.403ZM16.3684 38.203L17.9827 37.603L17.4601 36.197L15.8458 36.797L16.3684 38.203ZM19.597 37.003L21.2113 36.403L20.6887 34.997L19.0744 35.597L19.597 37.003ZM22.8256 35.803L24.4399 35.203L23.9173 33.797L22.303 34.397L22.8256 35.803ZM26.0542 34.603L27.6684 34.003L27.1458 32.597L25.5316 33.197L26.0542 34.603ZM29.2827 33.403L30.897 32.803L30.3744 31.397L28.7601 31.997L29.2827 33.403ZM32.5113 32.203L34.1256 31.603L33.603 30.197L31.9887 30.797L32.5113 32.203ZM35.7399 31.003L37.3541 30.403L36.8316 28.997L35.2173 29.597L35.7399 31.003ZM38.9684 29.803L40.5827 29.203L40.0601 27.797L38.4458 28.397L38.9684 29.803ZM42.197 28.603L43.8113 28.003L43.2887 26.597L41.6744 27.197L42.197 28.603ZM45.4256 27.403L47.0399 26.803L46.5173 25.397L44.903 25.997L45.4256 27.403ZM48.6541 26.203L50.2684 25.603L49.7458 24.197L48.1315 24.797L48.6541 26.203ZM51.8827 25.003L53.497 24.403L52.9744 22.997L51.3601 23.597L51.8827 25.003ZM55.1113 23.803L56.7256 23.203L56.203 21.797L54.5887 22.397L55.1113 23.803ZM58.3398 22.603L59.9541 22.003L59.4315 20.597L57.8173 21.197L58.3398 22.603ZM61.5684 21.403L63.1827 20.803L62.6601 19.397L61.0458 19.997L61.5684 21.403ZM64.797 20.203L66.4113 19.603L65.8887 18.197L64.2744 18.797L64.797 20.203ZM68.0256 19.003L69.6398 18.403L69.1172 16.997L67.503 17.597L68.0256 19.003ZM71.2541 17.803L72.8684 17.203L72.3458 15.797L70.7315 16.397L71.2541 17.803ZM74.4827 16.603L76.097 16.003L75.5744 14.597L73.9601 15.197L74.4827 16.603ZM77.7113 15.403L79.3256 14.803L78.803 13.397L77.1887 13.997L77.7113 15.403ZM80.9398 14.203L82.5541 13.603L82.0315 12.197L80.4172 12.797L80.9398 14.203ZM84.1684 13.003L85.7827 12.403L85.2601 10.997L83.6458 11.597L84.1684 13.003ZM87.397 11.803L89.0113 11.203L88.4887 9.797L86.8744 10.397L87.397 11.803ZM90.6255 10.603L92.2398 10.003L91.7172 8.597L90.103 9.197L90.6255 10.603ZM93.8541 9.40302L95.4684 8.80303L94.9458 7.397L93.3315 7.997L93.8541 9.40302ZM97.0827 8.20302L98.697 7.60303L98.1744 6.197L96.5601 6.797L97.0827 8.20302ZM100.311 7.00302L101.926 6.40303L101.403 4.997L99.7887 5.597L100.311 7.00302ZM103.54 5.80303L105.154 5.20303L104.632 3.797L103.017 4.39701L103.54 5.80303ZM106.768 4.60303L108.383 4.00303L107.86 2.59701L106.246 3.19701L106.768 4.60303ZM109.997 3.40303L111.611 2.80303L111.089 1.39701L109.474 1.99701L109.997 3.40303ZM113.226 2.20303L114.84 1.60303L114.317 0.197007L112.703 0.797006L113.226 2.20303ZM116.454 1.00303L117.261 0.703011L116.739 -0.703011L115.932 -0.402992L116.454 1.00303Z" fill="#1C5CD9"/>
<path d="M486 42C486 44.2091 484.209 46 482 46C479.791 46 478 44.2091 478 42C478 39.7909 479.791 38 482 38C484.209 38 486 39.7909 486 42ZM481.739 42.703L480.932 42.403L481.454 40.997L482.261 41.297L481.739 42.703ZM479.317 41.803L477.703 41.203L478.226 39.797L479.84 40.397L479.317 41.803ZM476.089 40.603L474.474 40.003L474.997 38.597L476.611 39.197L476.089 40.603ZM472.86 39.403L471.246 38.803L471.768 37.397L473.383 37.997L472.86 39.403ZM469.632 38.203L468.017 37.603L468.54 36.197L470.154 36.797L469.632 38.203ZM466.403 37.003L464.789 36.403L465.311 34.997L466.926 35.597L466.403 37.003ZM463.174 35.803L461.56 35.203L462.083 33.797L463.697 34.397L463.174 35.803ZM459.946 34.603L458.332 34.003L458.854 32.597L460.468 33.197L459.946 34.603ZM456.717 33.403L455.103 32.803L455.626 31.397L457.24 31.997L456.717 33.403ZM453.489 32.203L451.874 31.603L452.397 30.197L454.011 30.797L453.489 32.203ZM450.26 31.003L448.646 30.403L449.168 28.997L450.783 29.597L450.26 31.003ZM447.032 29.803L445.417 29.203L445.94 27.797L447.554 28.397L447.032 29.803ZM443.803 28.603L442.189 28.003L442.711 26.597L444.326 27.197L443.803 28.603ZM440.574 27.403L438.96 26.803L439.483 25.397L441.097 25.997L440.574 27.403ZM437.346 26.203L435.732 25.603L436.254 24.197L437.868 24.797L437.346 26.203ZM434.117 25.003L432.503 24.403L433.026 22.997L434.64 23.597L434.117 25.003ZM430.889 23.803L429.274 23.203L429.797 21.797L431.411 22.397L430.889 23.803ZM427.66 22.603L426.046 22.003L426.568 20.597L428.183 21.197L427.66 22.603ZM424.432 21.403L422.817 20.803L423.34 19.397L424.954 19.997L424.432 21.403ZM421.203 20.203L419.589 19.603L420.111 18.197L421.726 18.797L421.203 20.203ZM417.974 19.003L416.36 18.403L416.883 16.997L418.497 17.597L417.974 19.003ZM414.746 17.803L413.132 17.203L413.654 15.797L415.268 16.397L414.746 17.803ZM411.517 16.603L409.903 16.003L410.426 14.597L412.04 15.197L411.517 16.603ZM408.289 15.403L406.674 14.803L407.197 13.397L408.811 13.997L408.289 15.403ZM405.06 14.203L403.446 13.603L403.968 12.197L405.583 12.797L405.06 14.203ZM401.832 13.003L400.217 12.403L400.74 10.997L402.354 11.597L401.832 13.003ZM398.603 11.803L396.989 11.203L397.511 9.797L399.126 10.397L398.603 11.803ZM395.374 10.603L393.76 10.003L394.283 8.597L395.897 9.197L395.374 10.603ZM392.146 9.40302L390.532 8.80303L391.054 7.397L392.668 7.997L392.146 9.40302ZM388.917 8.20302L387.303 7.60303L387.826 6.197L389.44 6.797L388.917 8.20302ZM385.689 7.00302L384.074 6.40303L384.597 4.997L386.211 5.597L385.689 7.00302ZM382.46 5.80303L380.846 5.20303L381.368 3.797L382.983 4.39701L382.46 5.80303ZM379.232 4.60303L377.617 4.00303L378.14 2.59701L379.754 3.19701L379.232 4.60303ZM376.003 3.40303L374.389 2.80303L374.911 1.39701L376.526 1.99701L376.003 3.40303ZM372.774 2.20303L371.16 1.60303L371.683 0.197007L373.297 0.797006L372.774 2.20303ZM369.546 1.00303L368.739 0.703011L369.261 -0.703011L370.068 -0.402992L369.546 1.00303Z" fill="#1C5CD9"/>
<path d="M241 61C241 63.2091 242.791 65 245 65C247.209 65 249 63.2091 249 61C249 58.7909 247.209 57 245 57C242.791 57 241 58.7909 241 61ZM244.25 0V0.847222H245.75V0H244.25ZM244.25 2.54167V4.23611H245.75V2.54167H244.25ZM244.25 5.93056V7.625H245.75V5.93056H244.25ZM244.25 9.31944V11.0139H245.75V9.31944H244.25ZM244.25 12.7083V14.4028H245.75V12.7083H244.25ZM244.25 16.0972V17.7917H245.75V16.0972H244.25ZM244.25 19.4861V21.1806H245.75V19.4861H244.25ZM244.25 22.875V24.5694H245.75V22.875H244.25ZM244.25 26.2639V27.9583H245.75V26.2639H244.25ZM244.25 29.6528V31.3472H245.75V29.6528H244.25ZM244.25 33.0417V34.7361H245.75V33.0417H244.25ZM244.25 36.4306V38.125H245.75V36.4306H244.25ZM244.25 39.8194V41.5139H245.75V39.8194H244.25ZM244.25 43.2083V44.9028H245.75V43.2083H244.25ZM244.25 46.5972V48.2917H245.75V46.5972H244.25ZM244.25 49.9861V51.6805H245.75V49.9861H244.25ZM244.25 53.375V55.0694H245.75V53.375H244.25ZM244.25 56.7639V58.4583H245.75V56.7639H244.25ZM244.25 60.1528V61H245.75V60.1528H244.25Z" fill="#1C5CD9"/>
</g>
<defs>
<clipPath id="clip0_2759_6608">
<rect width="486" height="65" fill="white"/>
</clipPath>
</defs>
</svg>
