<svg width="238" height="45" viewBox="0 0 238 45" fill="none" xmlns="http://www.w3.org/2000/svg">
<g clip-path="url(#clip0_2759_6601)">
<path d="M52 4C52 6.20914 53.7909 8 56 8C58.2091 8 60 6.20914 60 4C60 1.79086 58.2091 0 56 0C53.7909 0 52 1.79086 52 4ZM0.413443 41.6258L1.15029 41.1389L0.323399 39.8874L-0.413443 40.3742L0.413443 41.6258ZM2.62397 40.1652L4.09765 39.1915L3.27077 37.94L1.79708 38.9137L2.62397 40.1652ZM5.57134 38.2179L7.04502 37.2442L6.21814 35.9927L4.74445 36.9664L5.57134 38.2179ZM8.51871 36.2705L9.99239 35.2968L9.1655 34.0453L7.69182 35.019L8.51871 36.2705ZM11.4661 34.3231L12.9398 33.3494L12.1129 32.0979L10.6392 33.0716L11.4661 34.3231ZM14.4134 32.3758L15.8871 31.4021L15.0602 30.1506L13.5866 31.1242L14.4134 32.3758ZM17.3608 30.4284L18.8345 29.4547L18.0076 28.2032L16.5339 29.1769L17.3608 30.4284ZM20.3082 28.481L21.7819 27.5073L20.955 26.2558L19.4813 27.2295L20.3082 28.481ZM23.2555 26.5336L24.7292 25.56L23.9023 24.3085L22.4287 25.2821L23.2555 26.5336ZM26.2029 24.5863L27.6766 23.6126L26.8497 22.3611L25.376 23.3348L26.2029 24.5863ZM29.1503 22.6389L30.624 21.6652L29.7971 20.4137L28.3234 21.3874L29.1503 22.6389ZM32.0976 20.6915L33.5713 19.7179L32.7444 18.4664L31.2708 19.44L32.0976 20.6915ZM35.045 18.7442L36.5187 17.7705L35.6918 16.519L34.2181 17.4927L35.045 18.7442ZM37.9924 16.7968L39.4661 15.8231L38.6392 14.5716L37.1655 15.5453L37.9924 16.7968ZM40.9397 14.8494L42.4134 13.8758L41.5865 12.6243L40.1129 13.5979L40.9397 14.8494ZM43.8871 12.9021L45.3608 11.9284L44.5339 10.6769L43.0602 11.6506L43.8871 12.9021ZM46.8345 10.9547L48.3082 9.98103L47.4813 8.72952L46.0076 9.7032L46.8345 10.9547ZM49.7818 9.00734L51.2555 8.03366L50.4286 6.78215L48.955 7.75584L49.7818 9.00734ZM52.7292 7.05997L54.2029 6.08629L53.376 4.83479L51.9023 5.80847L52.7292 7.05997ZM55.6766 5.1126L56.4134 4.62575L55.5866 3.37425L54.8497 3.8611L55.6766 5.1126Z" fill="#1C5CD9"/>
<path d="M229.092 40.5C229.092 42.9345 231.066 44.908 233.5 44.908C235.934 44.908 237.908 42.9345 237.908 40.5C237.908 38.0655 235.934 36.092 233.5 36.092C231.066 36.092 229.092 38.0655 229.092 40.5ZM156.648 5.24783L157.445 5.62283L158.149 4.12717L157.352 3.75217L156.648 5.24783ZM159.039 6.37283L160.632 7.12283L161.336 5.62717L159.743 4.87717L159.039 6.37283ZM162.226 7.87283L163.82 8.62283L164.524 7.12717L162.93 6.37717L162.226 7.87283ZM165.414 9.37283L167.007 10.1228L167.711 8.62717L166.118 7.87717L165.414 9.37283ZM168.601 10.8728L170.195 11.6228L170.899 10.1272L169.305 9.37717L168.601 10.8728ZM171.789 12.3728L173.382 13.1228L174.086 11.6272L172.493 10.8772L171.789 12.3728ZM174.976 13.8728L176.57 14.6228L177.274 13.1272L175.68 12.3772L174.976 13.8728ZM178.164 15.3728L179.757 16.1228L180.461 14.6272L178.868 13.8772L178.164 15.3728ZM181.351 16.8728L182.945 17.6228L183.649 16.1272L182.055 15.3772L181.351 16.8728ZM184.539 18.3728L186.132 19.1228L186.836 17.6272L185.243 16.8772L184.539 18.3728ZM187.726 19.8728L189.32 20.6228L190.024 19.1272L188.43 18.3772L187.726 19.8728ZM190.914 21.3728L192.507 22.1228L193.211 20.6272L191.618 19.8772L190.914 21.3728ZM194.101 22.8728L195.695 23.6228L196.399 22.1272L194.805 21.3772L194.101 22.8728ZM197.289 24.3728L198.882 25.1228L199.586 23.6272L197.993 22.8772L197.289 24.3728ZM200.476 25.8728L202.07 26.6228L202.774 25.1272L201.18 24.3772L200.476 25.8728ZM203.664 27.3728L205.257 28.1228L205.961 26.6272L204.368 25.8772L203.664 27.3728ZM206.851 28.8728L208.445 29.6228L209.149 28.1272L207.555 27.3772L206.851 28.8728ZM210.039 30.3728L211.632 31.1228L212.336 29.6272L210.743 28.8772L210.039 30.3728ZM213.226 31.8728L214.82 32.6228L215.524 31.1272L213.93 30.3772L213.226 31.8728ZM216.414 33.3728L218.007 34.1228L218.711 32.6272L217.118 31.8772L216.414 33.3728ZM219.601 34.8728L221.195 35.6228L221.899 34.1272L220.305 33.3772L219.601 34.8728ZM222.789 36.3728L224.382 37.1228L225.086 35.6272L223.493 34.8772L222.789 36.3728ZM225.976 37.8728L227.57 38.6228L228.274 37.1272L226.68 36.3772L225.976 37.8728ZM229.164 39.3728L230.757 40.1228L231.461 38.6272L229.868 37.8772L229.164 39.3728ZM232.351 40.8728L233.148 41.2478L233.852 39.7522L233.055 39.3772L232.351 40.8728Z" fill="#FB9C2D"/>
</g>
<defs>
<clipPath id="clip0_2759_6601">
<rect width="238" height="45" fill="white"/>
</clipPath>
</defs>
</svg>
