<svg width="160" height="120" viewBox="0 0 160 120" fill="none" xmlns="http://www.w3.org/2000/svg">
<path fill-rule="evenodd" clip-rule="evenodd" d="M99.5517 10.0789L61.0579 10.114L46.7853 23.9654L46.8204 61.2304C52.6912 67.1014 54.5895 68.7888 54.8004 68.7888C55.0465 68.7888 55.2574 68.9998 55.2574 69.2107C55.2574 69.4568 56.2417 70.6521 57.437 71.8474L59.6517 74.0622C64.503 74.0622 65.1358 73.9567 65.2764 73.5349C65.417 73.0778 64.96 73.0075 62.5343 73.0075H59.6517L47.5235 60.8788L47.4884 24.3169L61.4094 10.8171L98.8486 10.782L112.945 24.3169L112.91 44.5314C96.7042 44.6721 94.4895 44.8127 94.384 45.1291C94.3137 45.4806 96.1066 45.5861 102.54 45.5861C108.832 45.5861 110.836 45.4806 110.942 45.1291C111.082 44.7775 111.117 44.7775 111.117 45.1291C111.153 45.4103 111.68 45.5861 112.559 45.5861H113.965L114 23.9654L99.5517 10.0789ZM105.282 51.8438L101.134 47.6954C91.3608 47.6954 89.357 47.8361 89.4976 48.047C89.6382 48.2579 91.8881 48.3986 95.0871 48.3986H100.431L112.91 60.8788V95.6829L98.8486 109.218C82.1152 109.323 73.7485 109.288 69.4949 109.253C62.4289 109.148 61.6906 109.077 60.8821 108.444C60.3899 108.058 57.1909 105.034 53.781 101.73L47.5235 95.6829V76.8747C53.4646 76.8747 54.9059 76.734 54.9059 76.5231C54.9059 76.3122 53.324 76.1715 50.8632 76.1715H46.8204V96.2103L61.0579 109.921H99.5517C108.621 101.308 110.801 98.9524 110.836 98.4954C110.871 98.0032 110.906 97.9681 111.047 98.3196C111.188 98.7415 111.574 98.4954 112.594 97.4407L114 96.0345L113.965 60.3515C110.906 57.5039 109.887 56.6953 109.711 56.7656C109.535 56.8008 109.395 56.6601 109.395 56.4141C109.395 56.168 107.532 54.0938 105.282 51.8438ZM98.1455 12.5398L62.1125 12.5749L49.2812 25.02V59.8242L60.7063 71.2497C65.4873 71.2497 66.8583 71.2849 66.8583 71.3552C66.8935 71.3904 66.6474 71.9529 66.331 72.5857C66.0498 73.2185 65.874 73.8864 65.9795 74.0622C66.0849 74.2731 66.6825 74.4138 67.3153 74.4138C67.9481 74.4138 69.3191 74.0974 70.3737 73.7106C71.4283 73.3591 72.4478 73.0427 72.5884 73.0427C72.7291 73.0075 72.8345 73.2185 72.8345 73.4646C72.8345 73.7106 72.4127 74.238 71.9557 74.695C71.4635 75.1169 70.4089 75.6091 69.6003 75.7145C68.7566 75.8551 67.7723 76.2419 67.3856 76.5934C66.788 77.0856 66.7528 77.2965 67.1395 77.9293L67.5614 78.6324H49.2812L49.3164 94.9798L62.2883 107.46H98.1455C105.262 100.569 108.337 97.6302 109.425 96.5906C109.525 96.4953 109.608 96.4159 109.676 96.3509L111.188 94.9798L111.153 61.5819L99.7275 50.1563H91.4662C88.3375 48.1525 86.9313 47.0626 86.2986 46.3947C85.6658 45.7619 85.2088 45.1291 85.3142 44.9885C85.3845 44.8478 86.2283 44.883 87.1423 45.0939C88.0914 45.3049 89.814 45.5861 91.0444 45.7267C92.9427 45.9025 93.2591 45.8673 93.47 45.34C93.6106 44.9885 93.4349 44.2853 93.1185 43.758L92.5208 42.7736H111.153L111.188 25.02L98.1455 12.5398ZM66.331 76.5231C66.4365 76.3122 64.503 76.1715 60.8821 76.1715C57.7885 76.1715 55.2574 76.3122 55.2574 76.4528C55.2574 76.5934 57.6831 76.7692 60.7063 76.8043C64.0811 76.8747 66.2255 76.7692 66.331 76.5231ZM57.0827 19.6779C51.3174 25.2677 51.2119 25.4083 50.9658 27.1309C50.8604 28.1153 50.7549 35.6737 50.7198 44.0056L50.6846 59.1226L61.0551 69.4935C68.5781 69.4935 70.2303 69.3529 71.1795 68.9662C71.8826 68.6849 72.6208 68.0873 72.7966 67.6654C72.9724 67.2084 73.0427 66.7865 72.9372 66.6811C72.8317 66.5756 71.5662 66.4701 70.0897 66.4701C67.875 66.435 67.3828 66.2943 67.3125 65.8373C67.2422 65.5209 67.4883 64.853 67.8398 64.3608C68.1562 63.8334 69.6327 62.7436 71.074 61.8647C72.5153 60.9858 74.0621 59.9312 74.5191 59.5093C74.941 59.1226 75.2925 58.4898 75.2925 58.1734C75.2925 57.5757 75.2222 57.5757 74.1676 58.1382C73.4294 58.5249 72.3747 58.7359 71.2498 58.7007C70.3006 58.6656 69.3515 58.4546 69.1405 58.2788C68.8945 58.0328 69.0702 57.6109 69.6679 56.9781C70.16 56.4859 71.2498 55.7125 72.1287 55.2555C73.0075 54.8336 73.9567 54.2008 74.2379 53.8844C74.5191 53.568 74.6598 53.2164 74.5191 53.1461C74.3434 53.0406 73.9567 53.111 73.6403 53.2867C73.2887 53.4625 72.1287 53.7438 71.074 53.8844C69.8788 54.0602 68.7539 54.482 68.1914 54.9742C67.6289 55.4312 66.9258 55.7828 66.6094 55.7828C66.047 55.7828 66.0118 55.5719 66.2579 53.6735C66.3985 52.5133 66.8204 50.9313 67.2071 50.1579C67.7344 49.1032 68.6484 48.2946 70.7576 46.9236C72.445 45.8337 73.8864 44.6033 74.2731 43.9353C74.6598 43.3025 74.8707 42.7049 74.7652 42.5994C74.6598 42.4939 74.2379 42.6697 73.8161 42.951C73.359 43.2322 71.988 43.5486 70.7225 43.6189C69.4569 43.6892 68.1914 43.865 67.9102 44.0056C67.6289 44.1111 67.1719 43.9705 66.961 43.6892C66.6446 43.3025 66.6094 42.9158 66.8555 42.4236C67.0665 42.0369 67.5235 41.4041 67.9102 41.0174C68.2968 40.6307 70.0897 39.4706 71.8826 38.4159C73.6403 37.3612 75.5035 36.1659 75.9956 35.7792L76.8745 35.0409C73.2887 35.3573 72.0935 35.287 71.7771 35.0761C71.3553 34.7948 71.3553 34.5488 71.6365 34.0917C71.8474 33.7402 72.8669 33.0019 73.8864 32.4043C74.9058 31.8066 75.8198 31.1387 75.8901 30.9277C75.9605 30.6465 75.6089 30.4707 74.941 30.4707C74.3785 30.4707 73.7809 30.2598 73.6754 30.0488C73.5348 29.8027 73.7457 29.2051 74.0973 28.7481C74.484 28.291 75.2574 27.6582 75.8901 27.3418L77.0151 26.7794C75.6792 26.1114 75.2925 25.795 75.2925 25.6544C75.2925 25.4786 75.5386 25.0919 75.8901 24.7403C76.2417 24.4239 76.9448 23.8263 77.5072 23.4396C78.4564 22.7365 78.4564 22.7365 77.7533 22.2091C77.3666 21.9279 77.0502 21.4357 77.0502 21.1544C77.0502 20.8732 77.4369 20.4865 77.9291 20.2756C78.5267 20.0295 78.8783 19.5724 79.0189 18.799C79.1243 18.1662 79.2649 17.3576 79.3704 17.0412C79.4407 16.6897 79.7571 16.4084 80.0383 16.4084C80.3547 16.4084 80.7414 17.0061 81.0227 18.0256C81.3039 19.1857 81.6906 19.7834 82.2531 19.9592C82.9913 20.2404 82.9913 20.3459 82.4991 21.1544C82.007 21.9982 82.007 22.0685 82.8507 22.3849C83.3428 22.5958 83.7295 22.9122 83.7295 23.088C83.7295 23.2989 83.4131 23.7208 83.0264 24.0724C82.3585 24.67 82.3585 24.7052 83.7295 26.0059C84.5029 26.709 85.1357 27.4122 85.1357 27.5879C85.1708 27.7286 84.9248 28.045 84.6084 28.291C84.1514 28.6426 84.2568 28.8887 85.5927 30.084C86.9286 31.3144 87.034 31.4902 86.5419 32.0176C86.2606 32.334 85.663 32.6152 85.2412 32.58C84.749 32.58 84.4678 32.7558 84.5381 33.0371C84.6084 33.248 85.5927 33.916 86.7176 34.5136C87.8426 35.1112 88.9323 35.8144 89.1433 36.1659C89.4245 36.5878 89.3893 36.9042 89.0027 37.3261C88.5808 37.8182 88.1238 37.8885 86.8231 37.7128C85.8739 37.6073 85.0654 37.6073 84.9599 37.7831C84.8896 37.9237 85.4872 38.3104 86.2958 38.6268C87.1043 38.9784 88.4753 39.7166 89.3542 40.3143L90.9361 41.369H109.392L109.427 25.7247L97.4397 13.9475H62.9886L57.0827 19.6779ZM93.3618 52.5485C93.5024 52.9 93.7133 53.9899 93.7836 55.0094C93.8891 56.5914 93.8188 56.8375 93.2915 56.8375C92.9399 56.8375 91.1119 56.2398 89.2487 55.5367C87.3504 54.7984 85.7333 54.3414 85.6279 54.482C85.5575 54.6227 85.6982 55.1851 86.0145 55.7125C86.3309 56.275 87.2449 56.9781 88.1941 57.3648C89.1081 57.7515 90.3034 58.4546 90.8658 58.9468C91.4634 59.5093 91.815 60.1069 91.7447 60.564C91.6392 61.1616 91.358 61.2319 89.1433 61.1968C87.8074 61.1968 86.2958 61.0561 85.8036 60.9155C84.9599 60.6694 84.9599 60.7046 85.9794 61.6186C86.577 62.146 88.0886 63.1655 89.319 63.9038C90.5846 64.6069 91.8853 65.5209 92.2017 65.8725C92.5181 66.224 93.0454 67.1732 93.3618 67.9467C93.643 68.6849 93.9242 69.599 93.9242 69.9505C93.8891 70.3021 93.7485 70.6536 93.5375 70.7591C93.3618 70.8294 92.8345 70.724 92.4126 70.513C91.9556 70.3021 90.9713 70.056 90.1979 69.9505C89.4245 69.8802 88.4402 69.599 88.0183 69.3177C87.2801 68.8607 87.2449 68.8607 87.3153 69.4232C87.3856 69.8099 88.4402 70.5482 90.1276 71.3568C92.0259 72.2708 93.0454 73.0091 93.5375 73.8177C93.9242 74.4505 94.2406 75.2239 94.2406 75.5754C94.2406 76.0676 93.9242 76.1731 92.5884 76.1731C91.6744 76.1731 90.2682 75.8918 89.4948 75.5051C88.7214 75.1536 87.9129 74.9426 87.6316 75.0833C87.3153 75.259 87.3504 75.5051 87.8426 76.2083C88.2293 76.7004 89.2487 77.2981 90.233 77.5793C91.1822 77.8606 92.0611 78.0715 92.1314 78.0363C92.2368 78.0012 92.6235 78.2824 93.0102 78.6692C93.7133 79.3723 93.7133 79.4426 93.1157 80.4269C92.7641 80.9894 92.4829 81.6222 92.4829 81.8332C92.4829 82.0089 93.1508 82.6066 93.9945 83.1691C95.014 83.837 95.7171 84.7159 96.2444 85.8761C96.6663 86.8253 97.1233 88.2666 97.2639 89.0401C97.4397 90.0947 97.3693 90.5166 96.9123 90.8682C96.4553 91.2197 96.0686 91.1494 94.7679 90.4463C93.9242 89.9541 92.5181 89.1455 91.7095 88.6885C90.5143 87.9854 89.6354 87.7745 87.491 87.7042C85.7333 87.6339 84.6435 87.4581 84.3271 87.1417C83.9756 86.7198 83.9756 86.6846 84.3975 86.8956C84.7138 87.0362 84.6084 86.8956 84.2217 86.5792C83.835 86.2628 83.378 86.0518 83.1671 86.0518C82.9327 86.0753 82.9327 86.1339 83.1671 86.2276C83.4131 86.3331 83.4483 88.4776 83.3428 92.2041C83.2725 95.3681 83.2725 98.0399 83.3428 98.0751C83.4483 98.1102 83.835 98.7782 84.2217 99.5165C84.6435 100.29 85.5927 101.274 86.5067 101.872C87.3856 102.399 88.405 103.208 88.7917 103.63C89.1784 104.052 90.1276 104.72 90.901 105.071C91.8853 105.493 93.1508 105.704 94.9437 105.704H97.5803L109.392 94.3134L109.357 61.9702L99.338 51.9508C93.3618 51.9508 93.1157 51.986 93.3618 52.5485ZM57.6803 80.0754C57.2936 80.0754 56.9772 79.8293 56.9772 79.548C56.9772 79.2316 57.2936 79.0207 57.6803 79.0207C58.067 79.0207 58.3834 79.2316 58.3834 79.548C58.3834 79.8293 58.067 80.0754 57.6803 80.0754ZM50.856 89.5597L50.8559 89.5618C50.8443 90.0921 50.8337 90.574 50.8252 90.9736L50.7549 93.9619L62.7776 105.704C67.8047 105.704 68.6484 105.563 69.5624 105.001C70.1952 104.614 71.2146 103.559 71.8123 102.645C72.4099 101.731 73.6051 100.255 74.4488 99.411C75.2925 98.5321 76.2065 97.4071 76.4526 96.9501C76.769 96.3173 76.9448 94.208 76.9799 89.6377C77.0151 86.1222 76.9096 83.2042 76.769 83.2042C76.6284 83.2042 76.0659 83.5909 75.5386 84.0831C74.941 84.6456 73.9918 85.0323 73.0778 85.173C72.2341 85.2433 71.1795 85.3839 70.6873 85.4542C70.2303 85.4893 69.1054 85.9112 68.2265 86.3682C67.3828 86.7901 66.1524 87.669 65.4845 88.2666C64.5705 89.1807 64.219 89.2862 63.7268 88.9698C63.305 88.6885 63.1643 88.1612 63.1995 87.0362C63.1995 86.1925 63.5862 84.7159 64.0783 83.7667C64.5354 82.7824 65.4142 81.6925 66.1173 81.2355L67.3477 80.3918L51.001 80.4269L50.9658 84.1886C50.9392 85.7602 50.8924 87.897 50.856 89.559L50.856 89.5597Z" fill="white"/>
<path fill-rule="evenodd" clip-rule="evenodd" d="M79.9698 17.6367L80.3565 18.7969C80.5674 19.4297 81.0244 20.2031 81.3408 20.4843C81.6924 20.7656 81.833 21.0468 81.6221 21.1523C81.4111 21.2578 81.2705 21.6445 81.2705 22.0312C81.2705 22.453 81.5518 22.8046 81.9736 22.9101C82.3603 23.0155 82.6767 23.2616 82.6767 23.4374C82.6767 23.6132 82.4306 23.8593 82.1494 23.9647C81.8681 24.0702 81.6221 24.3866 81.6221 24.6679C81.6221 24.9491 82.1845 25.6522 82.8525 26.2499C83.5204 26.8475 84.0829 27.4803 84.0829 27.6561C84.0829 27.8319 83.8368 28.078 83.5555 28.1834C83.2743 28.2889 83.0282 28.5701 83.0282 28.8162C83.0282 29.0272 83.5907 29.6248 84.3289 30.117C85.032 30.6092 85.6648 31.2068 85.7351 31.4529C85.8054 31.699 85.4539 31.8748 84.7859 31.8748C83.9422 31.8748 83.7313 32.0154 83.7313 32.6834C83.6962 33.1052 83.9071 33.6326 84.1532 33.8786C84.3992 34.1247 85.489 34.7575 86.5436 35.2849C87.5983 35.8122 88.4068 36.4099 88.3014 36.6208C88.1959 36.8317 87.317 36.9723 86.2976 36.9723C85.2781 36.9723 84.2938 37.113 84.0477 37.3239C83.8368 37.5348 83.7665 37.8864 83.8719 38.1325C83.9774 38.3434 85.2429 39.0817 86.614 39.7145C88.1607 40.4176 89.9184 41.5777 91.0082 42.5973C92.0277 43.5816 92.8714 44.566 92.8714 44.8121C92.8714 45.0933 92.4495 45.1636 91.3598 45.023C90.5512 44.9175 89.0747 44.6714 88.1256 44.4957C87.1413 44.3199 85.946 44.1089 85.3836 44.0035C84.5399 43.8277 84.4344 43.898 84.6102 44.7066C84.7156 45.1988 85.1375 46.0425 85.5593 46.605C86.0163 47.1675 87.6334 48.4683 89.1451 49.5229C91.2895 50.9292 92.098 51.7377 92.5902 52.7924C92.9417 53.5658 93.2229 54.6205 93.2229 55.183C93.2229 55.7806 93.0472 56.097 92.7659 55.9916C92.555 55.9213 90.9028 55.3588 89.1802 54.7611C87.4225 54.1283 85.7703 53.6713 85.489 53.7416C85.2078 53.8119 84.9266 54.1635 84.8562 54.5502C84.7859 54.9369 85.1023 55.7103 85.5945 56.308C86.0515 56.9056 86.9655 57.5736 87.6334 57.8548C88.3014 58.1361 89.356 58.7337 89.9536 59.1907C90.5864 59.6126 91.1137 60.1048 91.1137 60.2806C91.1137 60.4212 90.1997 60.5267 89.0747 60.5267C87.985 60.5267 86.5436 60.2806 85.9109 59.9993C85.032 59.5774 84.6805 59.5774 84.3289 59.8938C84.0125 60.2103 84.0477 60.5267 84.5047 61.2298C84.8562 61.7219 85.8054 62.5657 86.614 63.093C87.4577 63.6555 88.8287 64.4992 89.7075 64.9914C90.5864 65.4836 91.6762 66.5031 92.1683 67.2414C92.6253 67.9797 93.0823 68.8937 93.1175 69.2453C93.1878 69.6671 93.0472 69.7726 92.5902 69.632C92.2738 69.4914 91.2543 69.2804 90.3755 69.175C89.4614 69.0695 88.4068 68.6828 87.985 68.3312C87.5983 68.0148 87.071 67.8039 86.8952 67.9093C86.6843 68.0148 86.5788 68.507 86.6491 69.0343C86.7194 69.5968 86.86 70.1593 86.9655 70.3702C87.071 70.5812 88.3717 71.3194 89.8481 72.0577C91.7816 73.0069 92.6605 73.6397 93.5745 75.4678H92.5199C91.9222 75.4678 90.6567 75.1514 89.7075 74.7647C88.7232 74.378 87.7389 74.1319 87.4928 74.2374C87.2819 74.3077 86.9655 74.6592 86.7897 75.0108C86.6491 75.3975 86.7546 75.96 87.071 76.4522C87.3522 76.874 88.0201 77.4365 88.5474 77.7178C89.1099 77.999 90.0942 78.3154 90.7621 78.4209C91.4301 78.5264 92.2386 78.8779 92.5199 79.1592C92.9769 79.6513 92.9769 79.7568 92.4144 80.3193C92.0628 80.6357 91.8168 81.3037 91.8871 81.7607C91.9574 82.3232 92.555 83.0263 93.5745 83.7294C94.6994 84.538 95.3322 85.2763 95.7189 86.4012C96.0353 87.245 96.3868 88.4754 96.5274 89.1082C96.668 89.8816 96.5977 90.2332 96.2813 90.2332C96.0704 90.2684 94.5939 89.4949 93.0823 88.5809C90.4458 86.9637 90.1997 86.8934 87.985 86.9637C86.2273 86.9989 85.3836 86.8583 84.4344 86.3309C83.7665 85.9442 83.0985 85.7684 82.9579 85.9091C82.8173 86.0497 82.6767 88.7918 82.6415 91.991C82.6064 97.405 82.6767 97.8971 83.4501 99.5495C83.9774 100.71 84.7156 101.553 85.6999 102.186C86.4733 102.678 87.8795 103.733 90.5864 106.088L69.8454 106.053L70.7594 105.104C71.2516 104.542 72.025 103.557 72.482 102.889C72.939 102.221 74.1694 100.78 77.1223 97.7917L77.052 90.409C77.0169 86.1551 76.8763 82.9911 76.6653 82.9208C76.5599 82.9208 76.4896 82.8154 76.4896 82.7099L75.8919 83.4833C75.5404 83.9403 75.1889 84.1513 74.8022 84.0458L76.4896 82.7099C76.4661 82.6396 76.4778 82.5693 76.5247 82.499C76.6302 82.288 76.6653 82.1474 76.595 82.1474C76.5599 82.1474 76.138 82.5693 74.8022 84.0458C74.7553 84.0224 74.7084 84.0107 74.6615 84.0107C74.2397 83.8349 74.1342 83.87 74.31 84.1864C74.4858 84.4325 74.3803 84.6786 74.0639 84.7841C73.7827 84.8895 73.3257 84.9599 73.0796 84.9599C72.7984 84.9599 72.8335 84.8427 73.1851 84.6083C73.5366 84.3974 73.1851 84.3505 72.1304 84.4677C71.2516 84.5731 70.0563 84.8192 69.4939 84.995C68.8963 85.1708 67.701 85.7684 66.7519 86.3661C65.8378 86.9286 65.1348 87.6317 65.1699 87.8778C65.2402 88.1239 64.959 88.2645 64.3965 88.1942C63.9044 88.1239 63.3419 87.9129 63.1661 87.7372C62.9201 87.5614 62.9904 87.2098 63.3771 86.8231C63.6583 86.4715 64.1856 85.452 64.502 84.538C64.9941 83.1318 65.4511 82.6044 67.1034 81.5498C68.1932 80.8115 69.1423 80.0732 69.2126 79.8623C69.283 79.6513 68.9666 78.9834 68.4744 78.3857C67.6307 77.3311 67.5956 77.1904 68.158 76.9092C68.5096 76.7686 69.3533 76.5225 70.0212 76.3819C70.6891 76.2412 71.7789 75.7491 72.3765 75.292C73.2554 74.6241 73.5015 74.1671 73.4311 73.4639C73.3608 72.6202 73.2202 72.4796 72.3062 72.5499C71.7086 72.5851 70.3024 72.8663 69.1423 73.1827C67.9822 73.4991 66.9628 73.6397 66.8573 73.5343C66.7519 73.4288 66.9276 72.9015 67.2089 72.3741C67.5252 71.8116 68.8259 70.8976 70.5133 70.0538C72.7984 68.8937 73.396 68.4015 73.6421 67.5578C73.8178 66.9601 73.853 66.2922 73.7475 66.0813C73.6069 65.7649 72.6929 65.6594 70.7243 65.7297C69.1775 65.7649 67.9119 65.7297 67.9119 65.6242C67.9119 65.5188 68.1932 65.0969 68.5447 64.7102C68.8611 64.2883 70.5133 63.0579 72.2007 61.968C73.9233 60.8782 75.4349 59.6829 75.6459 59.2962C75.8216 58.9095 75.9974 58.2064 75.9974 57.7142C75.9974 57.1517 75.7865 56.8353 75.4701 56.8353C75.1889 56.8353 74.5912 57.0462 74.1342 57.3275C73.7124 57.6087 72.9741 57.89 72.482 57.9251C71.9898 57.9603 71.2164 57.9954 70.7243 57.9603C69.9157 57.9251 69.8806 57.8548 70.3727 57.3275C70.654 57.0111 71.6031 56.3783 72.482 55.9564C73.3608 55.4994 74.31 54.8666 74.6264 54.515C74.9428 54.1283 75.2943 53.4955 75.4349 53.0736C75.5755 52.5112 75.4701 52.1948 75.1185 52.0893C74.8373 51.9838 74.2397 52.1596 73.7827 52.4408C73.3608 52.7221 72.5171 52.9682 71.9547 52.9682C71.357 52.9682 70.3376 53.144 69.6696 53.3197C69.0017 53.5307 68.0526 54.0229 66.7519 55.2533L67.0331 53.4955C67.1737 52.5112 67.5252 51.2104 67.8416 50.5424C68.2635 49.6987 69.3533 48.7143 71.2516 47.4839C72.7984 46.4644 74.4155 45.0933 74.8373 44.4605C75.2943 43.8277 75.6459 43.0543 75.6459 42.773C75.6459 42.4918 75.5052 41.9996 75.3295 41.7184C75.0482 41.2613 74.8373 41.2965 73.853 41.9293C73.0093 42.4566 71.8492 42.7379 67.0331 43.0543L68.8259 41.4371C69.8103 40.5231 71.7789 39.152 73.2202 38.4137C74.6615 37.6755 76.1732 36.7263 76.6302 36.3044C77.052 35.8825 77.4036 35.3552 77.4036 35.1091C77.4036 34.8982 77.1223 34.5466 76.7708 34.3708C76.4544 34.195 75.8568 34.195 75.4701 34.3708C75.0834 34.5114 74.2397 34.6521 73.6069 34.6521C73.0093 34.6872 72.482 34.5466 72.482 34.3357C72.482 34.1247 73.2202 33.5974 74.1342 33.1404C75.0834 32.6834 76.0326 32.0505 76.2435 31.7341C76.4896 31.4177 76.6653 30.8904 76.595 30.5389C76.5599 30.1521 76.1029 29.8709 74.0639 29.5897L75.1185 28.7811C75.7162 28.324 76.7005 27.7264 77.2981 27.4452C77.9309 27.1639 78.4582 26.742 78.4582 26.496C78.4582 26.285 77.966 25.9335 76.1732 25.5116L77.6496 24.3163C78.4933 23.6483 79.1613 22.8398 79.1613 22.5585C79.1613 22.2773 78.88 21.8906 78.5285 21.7148C77.966 21.4335 77.966 21.3984 78.6691 20.7656C79.0558 20.414 79.5128 19.5351 79.6886 18.8672L79.9698 17.6367ZM76.5247 82.6747L76.4896 82.7099V82.7099L76.5247 82.6747ZM74.767 84.081C74.767 84.081 74.7787 84.0692 74.8022 84.0458V84.0458L74.767 84.081ZM76.4192 97.6511C76.5599 97.6511 76.7005 97.6862 76.7005 97.7214C76.7005 97.7565 76.0326 98.4596 75.224 99.2331C74.3803 100.006 74.0288 100.217 74.4506 99.7604C74.8373 99.2682 75.3998 98.6003 75.681 98.2487C75.9271 97.9323 76.2786 97.6511 76.4192 97.6511V97.6511Z" fill="white"/>
<path d="M74.4167 84.2595C74.2058 84.2595 74.3816 84.0486 74.7683 83.7322C75.155 83.4509 75.4714 83.2048 75.5065 83.2048C75.5417 83.2048 75.5417 83.4509 75.5065 83.7322C75.4714 84.0486 75.2253 84.4353 74.944 84.6111C74.6628 84.7868 74.2761 84.9626 74.0652 84.9626C73.8543 84.9626 73.9597 84.7868 74.241 84.6111C74.5222 84.4353 74.6276 84.2595 74.4167 84.2595Z" fill="white"/>
<path d="M68.089 85.5954C68.8624 85.1736 70.2685 84.7517 71.2529 84.6111C72.2372 84.4704 73.1512 84.3298 73.3621 84.3298C73.573 84.3298 73.5027 84.365 73.2918 84.4704C73.0457 84.5407 72.9051 84.7517 73.0106 84.9626C73.116 85.1736 72.5887 85.3142 71.7802 85.3142C71.0068 85.3142 70.3388 85.279 70.3037 85.2439C70.2334 85.2087 69.4248 85.6306 68.4405 86.1579C67.4914 86.7204 66.1555 87.5993 65.5579 88.1618C64.9251 88.7243 64.2923 89.1813 64.1517 89.1813C63.9759 89.2165 63.6244 88.9352 63.3432 88.6188C62.851 88.0563 62.8862 88.0212 63.4135 88.2321C63.8353 88.4079 64.4681 88.1266 65.347 87.3884C66.0852 86.7907 67.3156 85.9821 68.089 85.5954Z" fill="white"/>
<path d="M76.7017 97.2671C76.9127 97.2671 76.983 97.021 76.8775 96.7398C76.8072 96.4585 76.8775 96.2124 77.0533 96.2124C77.2642 96.2124 77.4048 96.4585 77.4048 96.7398C77.4048 97.021 76.7017 98.0054 75.8932 98.9546C74.862 100.056 74.2761 100.466 74.1355 100.185C73.9949 99.9038 74.0652 99.7632 74.3113 99.8335C74.5573 99.8686 74.7331 99.6577 74.7683 99.3764C74.7683 99.0952 75.0143 98.8491 75.2956 98.8491C75.5768 98.814 75.7877 98.6382 75.7526 98.3921C75.6823 98.146 75.858 98.0054 76.1041 98.0757C76.3151 98.1108 76.4908 97.9351 76.4557 97.7241C76.3854 97.478 76.4908 97.2671 76.7017 97.2671Z" fill="white"/>
<path d="M77.6509 94.8062C77.5806 95.2984 77.5103 94.982 77.5103 94.1031C77.5103 93.2242 77.5806 92.8375 77.6509 93.2242C77.7212 93.6109 77.7212 94.314 77.6509 94.8062Z" fill="white"/>
</svg>
