<svg width="160" height="120" viewBox="0 0 160 120" fill="none" xmlns="http://www.w3.org/2000/svg">
<g clip-path="url(#clip0_1607_31791)">
<g clip-path="url(#clip1_1607_31791)">
<path d="M143.34 55.96H147.643V57.9215C148.455 56.8006 149.9 55.4696 152.369 55.4696C153.711 55.4696 155.685 55.8549 156.886 57.3257C157.943 58.6219 158.085 60.1281 158.085 61.5989V71.1263H153.78V62.8602C153.78 62.0195 153.746 60.6885 152.97 59.8827C152.3 59.1824 151.382 59.1121 150.959 59.1121C149.831 59.1121 148.948 59.4975 148.313 60.4432C147.678 61.4237 147.643 62.5098 147.643 63.3854V71.1263H143.34V55.96ZM136.084 63.5606C136.084 61.1789 134.249 59.2525 131.781 59.2525C129.311 59.2525 127.477 61.1789 127.477 63.5606C127.477 65.8722 129.276 67.8337 131.781 67.8337C134.284 67.8337 136.084 65.8722 136.084 63.5606ZM137.954 57.606C139.47 58.9719 140.529 61.0738 140.529 63.5606C140.529 66.0124 139.47 68.1139 137.954 69.4802C136.649 70.6708 134.673 71.6167 131.781 71.6167C128.888 71.6167 126.913 70.6708 125.607 69.4802C124.09 68.1139 123.032 66.0124 123.032 63.5606C123.032 61.0738 124.09 58.9719 125.607 57.606C126.913 56.4149 128.888 55.4696 131.781 55.4696C134.673 55.4696 136.649 56.4149 137.954 57.606ZM120.366 71.1263H116.062V55.96H120.366V71.1263ZM118.214 49.6903C119.393 49.6903 120.366 50.6561 120.366 51.8271C120.366 52.998 119.393 53.9639 118.214 53.9639C117.035 53.9639 116.062 52.998 116.062 51.8271C116.062 50.6561 117.035 49.6903 118.214 49.6903ZM111.304 59.6025V71.1263H107V59.6025H105.307V55.96H107V50.7763H111.304V55.96H114.267V59.6025H111.304ZM101.385 59.5676C100.362 58.6219 99.339 58.5516 98.8804 58.5516C97.8576 58.5516 97.2226 59.0421 97.2226 59.7777C97.2226 60.1633 97.399 60.7583 98.5982 61.1439L99.6212 61.4591C100.821 61.8443 102.62 62.4397 103.502 63.6303C103.96 64.2613 104.278 65.1718 104.278 66.1524C104.278 67.5187 103.819 68.8845 102.584 70.0051C101.35 71.1263 99.8683 71.6167 97.999 71.6167C94.8239 71.6167 93.0248 70.1104 92.0728 69.0946L94.33 66.5027C95.1768 67.4834 96.4465 68.2543 97.7164 68.2543C98.9159 68.2543 99.8329 67.6586 99.8329 66.6078C99.8329 65.6621 99.0568 65.2768 98.4928 65.0667L97.5048 64.7164C96.4114 64.331 95.1412 63.8408 94.2243 62.895C93.5185 62.1594 93.0603 61.2137 93.0603 59.9882C93.0603 58.5168 93.7656 57.2909 94.6474 56.5553C95.847 55.6095 97.399 55.4696 98.6337 55.4696C99.7622 55.4696 101.562 55.6095 103.502 57.0804L101.385 59.5676ZM77.3492 63.5257C77.3492 65.9424 79.1127 67.8337 81.5821 67.8337C84.0514 67.8337 85.8156 65.9424 85.8156 63.5257C85.8156 61.1086 84.0514 59.2525 81.5821 59.2525C79.1127 59.2525 77.3492 61.1086 77.3492 63.5257ZM85.392 55.96H89.6956V71.1263H85.392V69.1648C83.84 71.3717 81.7942 71.6167 80.7004 71.6167C76.0087 71.6167 72.9046 67.9737 72.9046 63.5257C72.9046 59.0421 75.9732 55.4696 80.4887 55.4696C81.6528 55.4696 83.9457 55.6798 85.392 57.9215V55.96ZM59.2113 67.4135H61.1869C62.0335 67.4135 63.3029 67.3783 64.3261 66.783C65.4549 66.1176 65.7723 64.997 65.7723 64.0862C65.7723 63.3505 65.5256 62.0892 64.0438 61.4237C63.0562 60.9687 61.8918 60.9687 60.9043 60.9687H59.2113V67.4135ZM59.2113 57.4661H60.5162C61.222 57.4661 64.0794 57.3959 64.0794 54.4189C64.0794 52.2821 62.4211 51.4766 60.5518 51.4766H59.2113V57.4661ZM60.446 47.7639C61.7509 47.7639 64.291 47.7639 66.1958 49.2353C67.5714 50.286 68.3829 52.1073 68.3829 54.0689C68.3829 57.0804 66.3722 58.3064 65.7372 58.6568C67.2892 58.9022 68.2065 59.5676 68.8061 60.1281C70.2172 61.459 70.4994 63.2803 70.4994 64.5062C70.4994 65.8722 70.1115 67.7985 68.4884 69.2348C66.7251 70.776 64.5732 71.1263 62.5274 71.1263H54.6255V47.7639H60.446Z" fill="white"/>
<path d="M11.7209 62.2368H4.52074L1.91711 76.8911L16.6757 74.3055V67.1565C14.3775 66.3295 12.5536 64.5188 11.7209 62.2368ZM1.91711 42L4.52074 56.6543H11.7209C12.5536 54.3724 14.3775 52.5617 16.6757 51.7345V44.5856L1.91711 42ZM22.2979 44.5856V51.7345C24.5958 52.5617 26.4197 54.3724 27.2523 56.6543H34.4525L37.0562 42L22.2979 44.5856ZM37.0562 76.8911L22.2979 74.3055V67.1565C24.5958 66.3295 26.4197 64.5188 27.2523 62.2368H34.4525L37.0562 76.8911Z" fill="white"/>
</g>
</g>
<defs>
<clipPath id="clip0_1607_31791">
<rect width="160" height="120" fill="white"/>
</clipPath>
<clipPath id="clip1_1607_31791">
<rect width="160" height="35.0877" fill="white" transform="translate(0 42)"/>
</clipPath>
</defs>
</svg>
