<svg width="160" height="120" viewBox="0 0 160 120" fill="none" xmlns="http://www.w3.org/2000/svg">
<g clip-path="url(#clip0_1607_31748)">
<path d="M62.8082 58.2018H55.5063V50.6755H53.0281V68.6168H55.5063V60.4756H62.8082V68.6168H65.2864V50.6755H62.8082V58.2018Z" fill="white"/>
<path d="M74.2292 65.2047L70.5176 55.5393H68.0244L73.099 68.6138L73.0624 68.7418C72.3061 70.9857 71.5665 71.2084 69.9409 71.2084H69.8029V73.4822H69.9409C73.6691 73.4822 74.3755 71.9231 75.3977 68.9346L79.9653 55.5393H77.492L74.2292 65.2047Z" fill="white"/>
<path d="M87.9872 55.335C86.4912 55.335 85.4009 55.7389 84.6429 56.5699V55.5394H82.3159V73.4906H84.6429V67.5917C85.4009 68.4227 86.4996 68.8266 87.9872 68.8266C91.2799 68.8266 93.2462 66.6127 93.2462 62.9027V61.209C93.2496 57.5307 91.2799 55.335 87.9872 55.335ZM90.9225 62.8977C90.9225 65.2098 89.6909 66.7024 87.7844 66.7024C85.0535 66.7024 84.6446 64.3189 84.6446 62.8977V61.0295C84.6446 58.7906 85.8181 57.4542 87.7844 57.4542C89.779 57.4542 90.9225 58.8222 90.9225 61.209V62.8977Z" fill="white"/>
<path d="M100.996 55.335C97.6371 55.335 95.7888 57.421 95.7888 61.209V62.8978C95.7888 66.5545 97.9496 68.8217 101.405 68.8217C103.732 68.8217 105.113 68.1568 106.006 66.6027L106.069 66.493L104.254 65.2048L104.179 65.3395C103.629 66.3068 102.781 66.7024 101.252 66.7024C99.286 66.7024 98.1142 65.2796 98.1142 62.8978V62.6783H106.204V61.209C106.204 57.3661 104.402 55.335 100.996 55.335ZM98.1241 60.6106C98.2904 58.518 99.2561 57.4525 100.996 57.4525C102.737 57.4525 103.706 58.5147 103.845 60.6106H98.1241Z" fill="white"/>
<path d="M114.849 55.335C113.556 55.335 112.644 55.704 112.024 56.4902V55.5394H109.697V68.6172H112.024V60.4727C112.024 58.7025 113.069 57.5124 114.625 57.5124C115.526 57.5124 116.154 57.8265 116.664 58.5313L116.744 58.641L118.71 57.2531L118.629 57.1401C117.738 55.8901 116.575 55.335 114.849 55.335Z" fill="white"/>
<path d="M126.159 55.335C124.533 55.335 123.566 55.6674 122.866 56.5118V55.5394H120.539V68.6172H122.866V60.491C122.866 58.7341 124.095 57.4991 125.858 57.4991C127.052 57.4991 128.639 57.8116 128.639 60.5109V68.6106H130.966V60.491C130.963 56.2292 128.353 55.335 126.159 55.335Z" fill="white"/>
<path d="M139.352 55.335C135.994 55.335 134.145 57.421 134.145 61.209V62.8978C134.145 66.5545 136.305 68.8217 139.763 68.8217C142.09 68.8217 143.469 68.1568 144.363 66.6027L144.425 66.493L142.617 65.2048L142.542 65.3395C141.992 66.3068 141.144 66.7024 139.615 66.7024C137.65 66.7024 136.477 65.2796 136.477 62.8978V62.6783H144.566V61.209C144.56 57.3661 142.759 55.335 139.352 55.335ZM136.48 60.6106C136.646 58.518 137.612 57.4525 139.352 57.4525C141.092 57.4525 142.063 58.5147 142.203 60.6106H136.48Z" fill="white"/>
<path d="M150.882 52.7246H148.555V55.5403H146.918V57.6612H148.557V64.5375C148.557 67.4745 149.687 68.6181 152.588 68.6181H153.826V66.3958H152.663C151.127 66.3958 150.881 65.834 150.881 64.0256V57.6612H153.824V55.5403H150.882V52.7246Z" fill="white"/>
<path d="M160 65.3711H156.754V68.6173H160V65.3711Z" fill="white"/>
<path d="M20.3265 40C16.3065 39.9997 12.3766 41.1915 9.03399 43.4247C5.69134 45.6578 3.086 48.8321 1.54746 52.5461C0.00891854 56.26 -0.39372 60.3468 0.390463 64.2896C1.17465 68.2323 3.11043 71.854 5.953 74.6966C8.79558 77.5392 12.4173 79.4749 16.36 80.2591C20.3028 81.0433 24.3896 80.6407 28.1035 79.1021C31.8175 77.5636 34.9917 74.9583 37.2249 71.6156C39.4581 68.273 40.6499 64.3431 40.6496 60.3231C40.6434 54.935 38.5003 49.7693 34.6903 45.9593C30.8803 42.1493 25.7146 40.0062 20.3265 40ZM20.3265 77.8821C16.8536 77.8821 13.4588 76.8523 10.5712 74.9229C7.68366 72.9935 5.43309 70.2511 4.10409 67.0427C2.77509 63.8342 2.42737 60.3037 3.10488 56.8975C3.7824 53.4914 5.45473 50.3627 7.91039 47.9071C10.3661 45.4514 13.4948 43.7791 16.9009 43.1015C20.307 42.424 23.8375 42.7718 27.046 44.1008C30.2545 45.4298 32.9968 47.6803 34.9262 50.5679C36.8556 53.4554 37.8854 56.8503 37.8854 60.3231C37.8806 64.9786 36.0291 69.442 32.7372 72.7338C29.4453 76.0257 24.9819 77.8773 20.3265 77.8821Z" fill="white"/>
<path d="M16.5781 53.2158L11.3506 67.4305H14.394L19.6231 53.2158H16.5781Z" fill="white"/>
<path d="M25.7971 53.2158L23.5149 59.4206H18.8476L17.9966 61.6861H22.6805L20.5679 67.4305H23.613L25.7256 61.6861H27.2248L28.0759 59.4206H26.5583L28.8405 53.2158H25.7971Z" fill="white"/>
</g>
<defs>
<clipPath id="clip0_1607_31748">
<rect width="160" height="120" fill="white"/>
</clipPath>
</defs>
</svg>
