<svg width="160" height="120" viewBox="0 0 160 120" fill="none" xmlns="http://www.w3.org/2000/svg">
<g clip-path="url(#clip0_1607_31792)">
<path d="M38.4152 68.8231C38.4152 60.4462 45.5178 53.9246 54.7745 53.9246C60.1305 53.9246 65.0208 56.2296 67.8153 59.7153L63.7983 63.5945C62.7327 62.2771 61.3732 61.2087 59.821 60.469C58.2687 59.7292 56.5636 59.337 54.8326 59.3218C49.3019 59.3218 44.8774 63.3134 44.8774 68.8231C44.8774 74.3889 49.3019 78.3805 54.8326 78.3805C56.6255 78.3785 58.3937 77.9767 59.9993 77.2062C61.6049 76.4358 63.0046 75.3177 64.0893 73.9392L68.0481 77.7058C65.3701 81.3604 60.2469 83.7777 54.7745 83.7777C45.5178 83.7777 38.4152 77.2561 38.4152 68.8231Z" fill="white"/>
<path d="M73.2866 54.9375H79.6325V82.7667H73.2866V54.9375Z" fill="white"/>
<path d="M91.4515 75.2889V60.1093H84.5234V54.937H91.7428V48.9775L97.6809 46.1665V54.937H107.112V60.1093H97.6809V74.2769C97.6809 77.0881 99.3111 78.3247 102.396 78.3247C104.002 78.3327 105.591 78.0067 107.054 77.369V82.6537C105.221 83.4306 103.234 83.8144 101.232 83.7781C95.5851 83.7781 91.4515 80.7986 91.4515 75.2889Z" fill="white"/>
<path d="M112.117 54.9375H118.463V82.7667H112.117V54.9375Z" fill="white"/>
<path d="M95.8147 37.2269C101.026 37.2149 106.165 38.4142 110.796 40.7235C115.426 43.0328 119.413 46.3843 122.421 50.495H115.027C112.603 47.8938 109.641 45.8137 106.331 44.3899C103.021 42.9661 99.4381 42.2303 95.8147 42.2303C92.1914 42.2303 88.6086 42.9661 85.299 44.3899C81.9893 45.8137 79.0264 47.8938 76.6029 50.495H69.2092C72.2163 46.3843 76.2036 43.0328 80.8342 40.7235C85.4649 38.4142 90.603 37.2149 95.8147 37.2269Z" fill="white"/>
</g>
<defs>
<clipPath id="clip0_1607_31792">
<rect width="84.4275" height="47.0846" fill="white" transform="translate(38.0208 36.9155)"/>
</clipPath>
</defs>
</svg>
