<svg width="160" height="120" viewBox="0 0 160 120" fill="none" xmlns="http://www.w3.org/2000/svg">
<g clip-path="url(#clip0_1607_31509)">
<path d="M121.619 32.5112V22.6308C121.619 19.8481 119.429 17.5898 116.731 17.5898H107.15C104.452 17.5898 102.262 19.8481 102.262 22.6308V32.5112C102.262 35.2938 104.452 37.5522 107.15 37.5522H116.731C119.429 37.5522 121.619 35.2938 121.619 32.5112ZM116.731 21.058C117.552 21.058 118.217 21.7436 118.217 22.5905V32.5112C118.217 33.3581 117.552 34.0437 116.731 34.0437H107.15C106.329 34.0437 105.664 33.3581 105.664 32.5112V22.6308C105.664 21.7839 106.329 21.0983 107.15 21.0983L116.731 21.058ZM57.7201 98.3671V88.4867C57.7201 85.704 55.5301 83.4457 52.8318 83.4457H43.2508C40.5525 83.4457 38.3625 85.704 38.3625 88.4867V98.3671C38.3625 101.15 40.5525 103.408 43.2508 103.408H52.8318C55.5301 103.408 57.7201 101.15 57.7201 98.3671ZM52.8318 86.9542C53.653 86.9542 54.3178 87.6398 54.3178 88.4867V98.3671C54.3178 99.214 53.653 99.8996 52.8318 99.8996H43.2508C42.4296 99.8996 41.7648 99.214 41.7648 98.3671V88.4867C41.7648 87.6398 42.4296 86.9542 43.2508 86.9542H52.8318ZM121.971 95.8264V58.0792C121.971 53.7238 118.53 50.1346 114.267 50.1346H93.6195C91.625 50.1346 89.9826 48.4408 89.9826 46.3841V25.1715C89.9826 20.816 86.5413 17.2268 82.2787 17.2268H45.7145C41.491 17.2268 38.0497 20.7757 38.0497 25.1715V62.9186C38.0497 67.2741 41.491 70.8633 45.7536 70.8633H66.4016C68.396 70.8633 70.0385 72.5571 70.0385 74.6138V95.8264C70.0385 100.182 73.4798 103.771 77.7424 103.771H114.267C118.53 103.771 121.971 100.222 121.971 95.8264ZM82.3178 21.4209C84.3122 21.4209 85.9547 23.1147 85.9547 25.1715V46.4647C85.9547 50.8202 89.396 54.4094 93.6586 54.4094H114.267C116.262 54.4094 117.904 56.1032 117.904 58.1599V95.8264C117.904 97.8832 116.262 99.5769 114.267 99.5769H77.6642C75.6698 99.5769 74.0273 97.8832 74.0273 95.8264V74.5331C74.0273 70.1777 70.586 66.5885 66.3234 66.5885H45.7145C43.7201 66.5885 42.0776 64.8947 42.0776 62.838V25.1715C42.0776 23.1147 43.7201 21.4209 45.7145 21.4209H82.3178ZM73.2452 46.9487V32.0676H67.653V46.4647C67.653 47.11 67.5748 47.7552 67.4184 48.3198C67.2619 48.9248 67.0273 49.4087 66.6754 49.8926C66.3234 50.3362 65.8541 50.7395 65.3066 50.9815C64.7592 51.2638 64.0944 51.3848 63.3122 51.3848C62.5301 51.3848 61.8653 51.2638 61.3178 50.9815C60.7703 50.6992 60.3011 50.3362 59.9882 49.8926C59.6363 49.449 59.4016 48.9248 59.2452 48.3198C59.0888 47.7149 59.0106 47.11 59.0106 46.4647V32.0676H53.3793V46.9487C53.3793 48.4005 53.6139 49.691 54.0832 50.8605C54.5525 52.03 55.1782 53.0382 56.0385 53.8851C56.8988 54.732 57.9156 55.3773 59.167 55.8612C60.3793 56.3451 61.748 56.5871 63.2731 56.5871C64.7592 56.5871 66.167 56.3451 67.3793 55.8612C68.6307 55.3773 69.6474 54.732 70.5469 53.8851C71.4072 53.0382 72.072 52.03 72.5413 50.8605C73.0105 49.691 73.2452 48.4005 73.2452 46.9487ZM112.899 65.6609H107.072L103.357 81.5502H103.24L99.0943 65.6609H93.2675L89.1614 81.5502H89.044L85.3681 65.6609H79.3457L85.9156 89.5352H91.4686L96.044 73.3636H96.1223L100.698 89.5352H106.212L112.899 65.6609Z" fill="white"/>
</g>
<defs>
<clipPath id="clip0_1607_31509">
<rect width="83.9999" height="86.6249" fill="white" transform="translate(38.0001 17.1875)"/>
</clipPath>
</defs>
</svg>
