<svg width="160" height="120" viewBox="0 0 160 120" fill="none" xmlns="http://www.w3.org/2000/svg">
<g clip-path="url(#clip0_1607_31373)">
<path fill-rule="evenodd" clip-rule="evenodd" d="M42.9066 50.2202C42.9702 50.2202 43.3306 50.3879 43.7123 50.608C44.0939 50.8176 45.0693 51.3731 45.8644 51.8342C46.6701 52.2954 47.4546 52.746 47.603 52.8404C47.7621 52.9347 48.0589 53.1024 48.2603 53.2177C48.4618 53.3329 49.0025 53.6474 49.4583 53.9199C49.9036 54.1819 50.2958 54.402 50.3276 54.402C50.3595 54.402 50.6775 54.5801 51.7059 55.209V65.4171L51.3878 65.5952C51.2182 65.6896 51.0486 65.7944 51.0168 65.8258C50.9849 65.8572 50.8153 65.9516 50.6457 66.0354C50.4761 66.1193 50.0944 66.3394 49.7976 66.5175C49.5113 66.6957 49.0767 66.9577 48.8434 67.0835C48.6102 67.2197 48.1543 67.4713 47.8363 67.6389C47.5182 67.8171 47.0624 68.0791 46.8291 68.2154C46.5959 68.3621 46.2566 68.5612 46.087 68.6556C45.9174 68.7604 45.4615 69.0224 45.0799 69.232C44.6982 69.4521 44.2848 69.6827 44.1575 69.7455C44.0197 69.8084 43.9137 69.8923 43.9137 69.9342C43.9137 69.9866 43.8501 70.018 43.7759 70.018C43.7123 70.018 43.5533 70.1019 43.4366 70.1962C43.32 70.301 43.1398 70.3953 43.0338 70.4058C42.9384 70.4268 42.6733 70.3325 42.4507 70.2172C42.2387 70.0914 41.9312 69.9132 41.7722 69.8189C41.6238 69.7246 40.8393 69.2739 40.0335 68.8128C39.2278 68.3516 38.3797 67.859 38.1465 67.7228C37.9026 67.5865 37.5634 67.3874 37.3937 67.2931C37.2241 67.1883 36.7895 66.9472 36.4396 66.7376C36.0898 66.5385 35.5915 66.245 35.3264 66.0983C35.0614 65.9411 34.6903 65.742 34.1603 65.459V55.1356L34.4995 54.9679C34.6903 54.8736 34.9554 54.7373 35.0826 54.6745C35.2204 54.6116 35.3264 54.5277 35.3264 54.4753C35.3264 54.4334 35.3688 54.402 35.4325 54.402C35.4961 54.402 36.0792 54.0876 36.7364 53.7102C37.3831 53.3225 38.1359 52.8928 38.4009 52.746C38.6659 52.6098 38.9204 52.4526 38.984 52.4107C39.0476 52.3687 39.2702 52.2325 39.4823 52.1067C39.7049 51.981 40.0653 51.7923 40.2774 51.6665C40.5 51.5408 40.7226 51.4045 40.7862 51.3626C40.8499 51.3207 41.1043 51.1635 41.3693 51.0272C41.6344 50.8805 42.0584 50.6394 42.3235 50.4927C42.5885 50.346 42.8429 50.2202 42.9066 50.2202ZM39.196 53.1443C38.9628 53.2701 38.5281 53.5111 38.2419 53.6893C37.945 53.8675 37.5528 54.098 37.3619 54.2028C37.1817 54.3181 36.8425 54.4963 36.6198 54.6221C36.4078 54.7478 35.9413 55.0203 35.6021 55.2299C35.2098 55.4605 35.0402 55.6177 35.1462 55.6282C35.2416 55.6492 35.3264 55.7016 35.3264 55.7644C35.3264 55.8168 35.3688 55.8693 35.4325 55.8693C35.4961 55.8693 35.7399 55.995 35.9943 56.1522C36.2382 56.299 36.588 56.5086 36.7576 56.6029C36.9273 56.7077 37.2347 56.8754 37.4255 56.9802L37.786 57.1793C38.0616 56.7706 38.3267 56.4457 38.5599 56.1941C38.7931 55.9426 39.2278 55.5863 39.5141 55.3871C39.8109 55.1985 40.288 54.9365 40.5742 54.8107C40.8711 54.6849 41.3587 54.5173 41.6662 54.4439C41.963 54.36 42.3341 54.2972 42.4825 54.2972H42.7475C42.7475 51.8552 42.7157 51.153 42.6627 51.1635C42.6203 51.1635 41.9206 51.5722 41.1043 52.0543C40.288 52.5364 39.4292 53.029 39.196 53.1443V53.1443ZM41.2103 55.5024C41.0937 55.5444 40.7862 55.6701 40.5212 55.7959C40.2562 55.9217 39.7261 56.3409 39.3232 56.7287C38.931 57.1269 38.6129 57.4728 38.6129 57.5147C38.6023 57.5671 38.7931 57.7243 39.037 57.8815C39.2702 58.0492 39.5035 58.175 39.5671 58.175C39.6307 58.175 39.6731 58.2169 39.6731 58.2798C39.6731 58.3322 39.7155 58.3846 39.7791 58.3846C39.8427 58.3846 40.2562 58.6047 40.712 58.8667C41.1573 59.1392 41.698 59.4536 41.8994 59.5689C42.1008 59.6842 42.3765 59.8414 42.5037 59.9148L42.7475 60.0615C42.7475 56.2466 42.7369 55.1461 42.7157 55.1461C42.7051 55.1566 42.4083 55.2195 42.0584 55.2928C41.7086 55.3662 41.3269 55.4605 41.2103 55.5024ZM49.0555 56.9173C49.0237 56.9173 48.8116 57.0326 48.5784 57.1793L48.1543 57.4413C48.5042 58.1331 48.6632 58.4999 48.7162 58.699C48.7798 58.8981 48.8328 59.6108 48.8328 60.2711C48.8328 60.9314 48.7798 61.665 48.7162 61.8956C48.6526 62.1262 48.5254 62.5035 48.43 62.734C48.2815 63.0799 48.2709 63.1742 48.3876 63.279C48.4618 63.3419 49.0767 63.7087 49.7446 64.086C50.4125 64.4738 50.9743 64.7777 50.9955 64.7777C51.0062 64.7777 51.0168 62.776 51.0168 60.3235C51.0168 57.871 50.9849 55.8693 50.9319 55.8693C50.8895 55.8797 50.4655 56.1103 49.9778 56.3933C49.5007 56.6867 49.0873 56.9173 49.0555 56.9173V56.9173ZM46.2991 58.4999C46.2354 58.5208 45.9174 58.7095 45.5782 58.9086C45.2283 59.1078 44.8042 59.3593 44.624 59.4746C44.4332 59.5794 44.0621 59.7785 43.7759 59.9148C43.5002 60.051 43.2776 60.2082 43.2776 60.2711C43.2776 60.3235 43.479 60.4912 43.7229 60.617C43.9773 60.7532 44.73 61.1829 45.3979 61.5812C46.0658 61.969 46.7761 62.3777 46.9564 62.4825C47.1472 62.5978 47.3486 62.6816 47.4122 62.6816C47.4758 62.6816 47.6136 62.4091 47.7409 62.0738C47.8575 61.7489 47.9847 61.12 48.0271 60.6903C48.0589 60.1873 48.0271 59.6632 47.9317 59.2335C47.8469 58.8667 47.7515 58.5523 47.6985 58.5313C47.6561 58.5104 47.6349 58.4056 47.6455 58.2903C47.6667 58.1855 47.6031 58.0387 47.5076 57.9758C47.3804 57.892 47.2426 57.9234 46.8715 58.154C46.6171 58.3217 46.3627 58.4684 46.2991 58.4999V58.4999ZM41.9736 61.0047C41.9312 61.0047 41.539 61.2143 41.1043 61.4764C40.6696 61.7384 40.2668 61.948 40.2032 61.948C40.1395 61.948 40.0865 61.9794 40.0653 62.0214C40.0547 62.0738 39.8957 62.189 39.7261 62.2938C39.5565 62.3987 39.2278 62.5559 39.0052 62.6607C38.7719 62.7655 38.6129 62.9122 38.6129 63.017C38.6129 63.1218 38.9098 63.4991 39.2808 63.8555C39.6625 64.2432 40.2138 64.6415 40.5742 64.8197C40.9241 64.9874 41.4435 65.1865 41.7404 65.2703C42.0266 65.3437 42.3765 65.4066 42.5037 65.4066H42.7475C42.7899 61.4449 42.7581 60.5855 42.6945 60.5855C42.6309 60.5855 42.4719 60.6798 42.3235 60.7951C42.175 60.9104 42.0266 61.0047 41.9736 61.0047ZM36.3866 64.1699C35.9519 64.4214 35.4643 64.6939 35.2946 64.7777C35.1356 64.8616 35.0084 64.9664 35.0084 65.0083C35.0084 65.0607 35.0932 65.1236 35.1886 65.1655C35.2946 65.197 35.4961 65.3123 35.6445 65.4066C35.7929 65.5114 36.1216 65.7 36.3866 65.8468C36.6516 65.9935 37.0333 66.2031 37.2347 66.3184C37.4361 66.4337 37.9768 66.7481 38.4327 67.0206C38.878 67.2826 39.2914 67.5027 39.355 67.5027C39.4186 67.5027 39.461 67.5446 39.461 67.6075C39.461 67.6704 39.5035 67.7123 39.5671 67.7123C39.6307 67.7123 40.0441 67.9324 40.5 68.1944C40.9453 68.4669 41.4647 68.7604 41.6344 68.8652C41.804 68.9595 42.1326 69.1482 42.3447 69.2739L42.7475 69.494V66.245C42.0054 66.245 41.4435 66.1297 41.0195 65.983C40.606 65.8363 40.1289 65.6267 39.9699 65.5114C39.8003 65.3961 39.6413 65.3018 39.5989 65.3018C39.5459 65.3018 39.1642 64.9664 38.7507 64.5472C38.3267 64.128 37.9768 63.7297 37.9768 63.6668C37.9662 63.5934 37.9026 63.5201 37.8284 63.4886C37.7436 63.4572 37.5634 63.4991 37.4362 63.583C37.2983 63.6563 36.8213 63.9288 36.3866 64.1699V64.1699ZM6.21455 52.8299C10.381 52.8299 12.3847 52.8613 12.6391 52.9452C12.8405 53.0081 13.1586 53.1233 13.3282 53.1967C13.5084 53.2805 13.7417 53.4482 13.8689 53.5845C13.9961 53.7207 14.1763 53.9932 14.2717 54.1924C14.4096 54.4858 14.4414 54.8841 14.4414 56.2046C14.4414 57.3365 14.399 57.9339 14.3141 58.0911C14.2399 58.2169 14.1339 58.3741 14.0703 58.4475C14.0173 58.5104 13.7735 58.6885 13.5402 58.8457C13.307 59.0029 13.0101 59.1182 12.8829 59.1182C12.7451 59.1182 12.6391 59.1497 12.6391 59.1916C12.6391 59.244 12.9253 59.4117 13.2752 59.5899C13.678 59.789 14.0067 60.0405 14.1551 60.2711C14.2929 60.4702 14.4626 60.858 14.5262 61.1305C14.6004 61.4135 14.6534 62.0842 14.6534 62.6292C14.6534 63.1742 14.6004 63.8764 14.5262 64.1699C14.452 64.5262 14.2823 64.8616 14.0703 65.0922C13.8795 65.2913 13.5508 65.5533 13.3176 65.6581C13.095 65.7734 12.6179 65.9201 12.268 65.9935C11.791 66.0983 10.1689 66.1297 0.0232344 66.1402L0.00203128 59.5584C-0.00857029 55.9321 0.0232344 52.9347 0.0762422 52.9032C0.12925 52.8613 2.88566 52.8299 6.21455 52.8299V52.8299ZM3.23551 56.4666C3.23551 57.2108 3.25671 57.871 3.26731 57.9339C3.29912 58.0387 4.10484 58.0702 6.84004 58.0702C8.76952 58.0702 10.5506 58.0178 10.7838 57.9654C11.0171 57.913 11.2715 57.8082 11.3457 57.7348C11.4411 57.6405 11.4835 57.2946 11.4835 56.6239C11.4729 56.0998 11.4517 55.5968 11.4199 55.5234C11.3881 55.4605 11.2079 55.3347 11.0277 55.2719C10.7732 55.1775 9.64945 55.1356 6.95666 55.1356H3.23551V56.4666ZM3.23551 62.1471L3.25671 63.562C9.99931 63.6144 10.9428 63.5934 11.1337 63.4886C11.2715 63.4153 11.4517 63.2266 11.5365 63.0694C11.6213 62.9017 11.685 62.4615 11.685 62.0423C11.685 61.6441 11.6213 61.1829 11.5365 61.0257C11.4623 60.8685 11.3033 60.6903 11.1973 60.6379C11.0807 60.575 9.35261 60.5226 7.15809 60.5017C4.05183 60.4702 3.30972 60.4912 3.25671 60.596C3.23551 60.6798 3.2143 61.3716 3.23551 62.1471V62.1471Z" fill="white"/>
<path d="M14.5165 56.8133C14.5059 57.243 14.4847 56.9391 14.4847 56.1321C14.4847 55.3251 14.4953 54.9688 14.5165 55.3461C14.5378 55.7234 14.5378 56.3836 14.5165 56.8133Z" fill="white"/>
<path d="M42.7589 50.1467C42.6635 50.1782 42.6317 50.1677 42.6847 50.1048C42.7271 50.0419 42.8013 50 42.8544 50C42.918 50 43.1406 50.1048 43.3632 50.2201C43.5753 50.3459 43.8509 50.5135 43.9675 50.5869C44.0841 50.6708 44.1371 50.7336 44.0735 50.7336C44.0205 50.7336 43.9251 50.6917 43.8615 50.6393C43.8085 50.5869 43.5647 50.4402 43.3314 50.3144C43.0982 50.1887 42.8438 50.1153 42.7589 50.1467Z" fill="#B3B8A8" fill-opacity="0.7"/>
<path d="M41.1369 51.0271C41.2111 50.9537 41.5504 50.7441 41.879 50.5555C42.2077 50.3773 42.4939 50.2201 42.5151 50.2201C42.5363 50.2096 42.4833 50.283 42.4091 50.3668C42.3349 50.4611 42.2395 50.5345 42.1971 50.524C42.144 50.524 41.8578 50.6708 41.561 50.8489C41.2535 51.0271 41.0627 51.1109 41.1369 51.0271Z" fill="#B3B8A8" fill-opacity="0.7"/>
<path d="M39.6845 51.8446C40.0025 51.6874 40.2994 51.5092 40.363 51.4568C40.416 51.4044 40.5114 51.3625 40.575 51.3625C40.628 51.3625 40.5856 51.4254 40.469 51.4987C40.3524 51.5826 39.9813 51.7922 39.6527 51.9703C39.3134 52.159 39.059 52.2743 39.0802 52.2219C39.1014 52.18 39.3664 52.0123 39.6845 51.8446Z" fill="#B3B8A8" fill-opacity="0.7"/>
<path d="M45.6956 51.6874C45.4729 51.5721 45.3033 51.4358 45.3139 51.4044C45.3245 51.373 45.4941 51.4463 45.7062 51.5721C45.9182 51.7083 46.3529 51.9494 46.6709 52.1276C46.989 52.2952 47.3282 52.5049 47.413 52.5887C47.4978 52.6725 47.3918 52.6411 47.1798 52.5258C46.9572 52.4001 46.6179 52.2219 46.4377 52.1066C46.2469 52.0018 45.9076 51.8131 45.6956 51.6874Z" fill="#B3B8A8" fill-opacity="0.7"/>
<path d="M6.43799 52.8822C2.90767 52.8822 0.0240479 52.8507 0.0240479 52.7983C0.0240479 52.7564 2.82286 52.725 6.25777 52.7354C9.68207 52.7354 12.5657 52.7669 12.6611 52.8088C12.7671 52.8507 9.95771 52.8822 6.43799 52.8822Z" fill="#B3B8A8" fill-opacity="0.7"/>
<path d="M14.1771 53.9197C13.9545 53.5634 13.7001 53.3328 13.382 53.1756C13.117 53.0394 12.9686 52.9346 13.0428 52.9346C13.1064 52.9346 13.276 52.9974 13.4138 53.0603C13.541 53.1337 13.7637 53.2909 13.8909 53.4062C14.0287 53.5215 14.2407 53.8045 14.368 54.035C14.5482 54.3809 14.6012 54.6848 14.633 55.7119C14.6542 56.4036 14.6436 57.2002 14.6118 57.4936C14.5588 57.8919 14.4528 58.1329 14.1453 58.4788C13.9333 58.7408 13.5622 59.0238 12.9049 59.2963L13.2654 59.443C13.4562 59.5268 13.6365 59.6212 13.6577 59.6631C13.6789 59.7155 13.5092 59.6526 13.276 59.5373C13.0428 59.422 12.8519 59.2963 12.8519 59.2439C12.8519 59.2019 13.0004 59.1286 13.1912 59.0867C13.3926 59.0447 13.7319 58.8037 13.9969 58.5417C14.368 58.1434 14.4528 57.9862 14.5058 57.5146C14.5376 57.2211 14.5482 56.4036 14.527 55.7014C14.4952 54.5066 14.474 54.4123 14.1771 53.9197Z" fill="#B3B8A8" fill-opacity="0.7"/>
<path d="M35.0622 54.5066C35.094 54.5066 35.3378 54.3599 35.6135 54.1922C35.8997 54.0245 36.1436 53.8778 36.1754 53.8778C36.2072 53.8778 36.1224 53.9617 35.9951 54.0665C35.8573 54.1608 35.5711 54.339 35.359 54.4542C35.1364 54.5591 34.829 54.7372 34.6699 54.842C34.5003 54.9468 34.3413 55.0307 34.2989 55.0307C34.2459 55.0307 34.3943 54.9154 34.6169 54.7687C34.829 54.6219 35.0304 54.5066 35.0622 54.5066Z" fill="#B3B8A8" fill-opacity="0.7"/>
<path d="M50.2754 54.3285C50.0104 54.1818 49.7454 54.0141 49.6924 53.9512C49.6394 53.8988 49.8514 53.9931 50.1694 54.1608C50.4875 54.339 50.9858 54.6115 51.8127 55.0936L51.8657 65.4065L51.6324 65.6161C51.4946 65.7209 51.3356 65.8257 51.2826 65.8257C51.2296 65.8257 51.06 65.92 50.9115 66.0353C50.7631 66.1506 50.5935 66.2449 50.5405 66.2449C50.4875 66.2449 50.6147 66.1296 50.8373 65.9829C51.0494 65.8362 51.2614 65.7209 51.3144 65.7209C51.3568 65.7209 51.4734 65.637 51.5794 65.5322C51.7491 65.3645 51.7703 65.0082 51.7597 55.1355L51.2614 54.863C50.9751 54.7058 50.5405 54.4647 50.2754 54.3285Z" fill="#B3B8A8" fill-opacity="0.7"/>
<path d="M34.0551 65.5113L34.0763 60.2395L34.1081 54.9783L34.1611 65.4589L34.9456 65.9305C35.3803 66.1925 35.7301 66.4126 35.7195 66.4335C35.7089 66.4545 35.5287 66.3707 35.3272 66.2659C35.1258 66.1611 34.7548 65.941 34.0551 65.5113Z" fill="#B3B8A8" fill-opacity="0.7"/>
<path d="M14.4316 60.6273C14.315 60.3967 14.1135 60.1033 13.9757 59.9775C13.8485 59.8413 13.7955 59.7365 13.8485 59.7365C13.9121 59.7469 14.0817 59.9251 14.2407 60.1347C14.3892 60.3548 14.5482 60.6483 14.58 60.7845C14.6224 60.9417 14.5588 60.8684 14.4316 60.6273Z" fill="#B3B8A8" fill-opacity="0.7"/>
<path d="M14.7284 63.4571C14.7072 63.9287 14.686 63.5724 14.686 62.671C14.686 61.7802 14.7072 61.4029 14.7284 61.8326C14.7496 62.2728 14.7496 62.9959 14.7284 63.4571Z" fill="#B3B8A8" fill-opacity="0.7"/>
<path d="M13.4774 65.6265C13.6895 65.5217 13.9969 65.2492 14.1665 65.0082C14.3362 64.7776 14.4952 64.6099 14.5376 64.6309C14.5694 64.6519 14.474 64.8195 14.3256 65.0082C14.1771 65.1968 13.9121 65.4484 13.7425 65.5637C13.5728 65.6894 13.329 65.8257 13.2124 65.8676C13.0958 65.9095 13.0322 65.92 13.0534 65.8886C13.0852 65.8571 13.276 65.7418 13.4774 65.6265Z" fill="#B3B8A8" fill-opacity="0.7"/>
<path d="M9.2368 66.2135C7.58296 66.2344 4.81595 66.2344 3.0879 66.2135C1.37045 66.1925 2.72745 66.182 6.10934 66.182C9.49124 66.182 10.9012 66.1925 9.2368 66.2135Z" fill="#B3B8A8" fill-opacity="0.7"/>
<path d="M46.8935 68.2257C47.5402 67.8589 48.3354 67.3978 48.664 67.2091C48.9927 67.0309 49.2789 66.8737 49.3107 66.8737C49.3319 66.8737 49.3107 66.9052 49.2577 66.9576C49.2047 67.01 48.9396 67.1672 48.6746 67.3139C48.4202 67.4606 47.6569 67.8904 46.9784 68.2677C46.3105 68.6554 45.7486 68.9594 45.738 68.9384C45.7274 68.9279 46.2469 68.603 46.8935 68.2257Z" fill="#B3B8A8" fill-opacity="0.7"/>
<path d="M39.3134 68.5401C38.9636 68.341 38.6667 68.1419 38.6455 68.1C38.6243 68.058 38.8576 68.1733 39.165 68.3515C39.4725 68.5297 39.8117 68.7498 39.9283 68.8336C40.0449 68.9174 40.0979 68.9699 40.0343 68.9489C39.9813 68.9279 39.6527 68.7498 39.3134 68.5401Z" fill="#B3B8A8" fill-opacity="0.7"/>
<path d="M42.2077 70.217C41.8896 70.0284 41.5292 69.8188 41.4125 69.7349C41.2959 69.6616 41.2429 69.5882 41.2853 69.5882C41.3277 69.5882 41.6776 69.7873 42.0486 70.0074C42.4303 70.238 42.8544 70.4371 42.9816 70.4476C43.1936 70.4581 43.1936 70.4686 43.0028 70.5105C42.8862 70.5315 42.5363 70.4057 42.2077 70.217Z" fill="#B3B8A8" fill-opacity="0.7"/>
<path d="M56.2423 53.3136C56.4225 53.1984 56.7936 53.0516 57.0586 52.9783C57.4085 52.8839 58.9881 52.8525 68.7733 52.8839V55.0849L63.6846 55.1163C59.8786 55.1373 58.564 55.1792 58.458 55.2735C58.352 55.3783 58.3308 56.2377 58.3838 63.6789L68.8263 63.7313V66.1419H63.2605C59.4652 66.1419 57.5357 66.1 57.1964 66.0266C56.9102 65.9532 56.5285 65.8275 56.3377 65.7331C56.1363 65.6388 55.8606 65.3768 55.7228 65.1462C55.5744 64.8947 55.4578 64.5279 55.4472 64.2344C55.426 63.9514 55.3836 63.7313 55.3412 63.7313C55.2882 63.7313 55.2563 61.8763 55.2563 59.623C55.2563 56.9399 55.2988 55.284 55.373 54.8753C55.4472 54.5294 55.585 54.0787 55.7016 53.8796C55.8076 53.6805 56.0515 53.4185 56.2423 53.3136Z" fill="white"/>
<path d="M73.7773 59.5706C73.7667 55.9443 73.7667 52.9573 73.7879 52.9154C73.8091 52.863 74.5088 52.8315 76.8835 52.8315V55.5565C76.8835 57.0552 76.9047 58.2814 76.9365 58.2814C76.9683 58.2814 77.1698 58.1557 77.3818 57.9985C77.6044 57.8308 77.8059 57.6841 77.8377 57.6526C77.8695 57.6212 79.1523 56.657 80.7001 55.5146C82.2479 54.3617 83.6791 53.2927 84.2516 52.8315H86.3931C87.7607 52.8315 88.5452 52.8735 88.5452 52.9363C88.5452 52.9888 88.2484 53.2403 87.8774 53.4813C87.5169 53.7224 87.1989 53.9425 87.167 53.9844C87.1352 54.0158 86.5204 54.456 85.7888 54.9591C85.0573 55.4622 83.9336 56.2482 83.2975 56.7094C82.6614 57.16 81.6648 57.8622 81.103 58.25C80.5305 58.6378 80.064 59.0151 80.064 59.0675C80.064 59.1199 80.382 59.4133 80.7743 59.7068C81.1666 60.0003 81.8981 60.5138 82.3751 60.8597C82.8628 61.195 83.7745 61.8448 84.3894 62.285C85.0149 62.7252 85.9479 63.3855 86.4673 63.7523C86.9762 64.1191 87.5063 64.486 87.6441 64.5698C87.7713 64.6536 88.0894 64.8842 88.3438 65.0729C88.5983 65.272 89.0117 65.555 89.2556 65.7017C89.4994 65.8589 89.7008 66.0161 89.7114 66.0685C89.7114 66.1104 88.6089 66.1419 84.8347 66.1419L84.2198 65.6912C83.8912 65.4397 83.0218 64.8004 82.2903 64.2659C81.5588 63.7313 80.5623 62.9977 80.064 62.6309C79.5657 62.2536 78.707 61.6248 78.1557 61.216C77.6044 60.8177 77.085 60.4824 77.0108 60.4824C76.9153 60.4824 76.8729 61.1217 76.8305 66.0895L73.8091 66.1419L73.7773 59.5706Z" fill="white"/>
<path fill-rule="evenodd" clip-rule="evenodd" d="M42.8003 50.9436C42.9381 50.9436 42.9593 51.2266 42.9593 52.6205C42.9593 53.5428 42.9275 54.3184 42.8745 54.3393C42.8321 54.3603 42.8215 53.6162 42.8321 52.6939C42.8745 51.1008 42.8639 50.996 42.6837 51.0694C42.5671 51.1218 42.5247 51.1113 42.5777 51.0484C42.6201 50.9855 42.7261 50.9436 42.8003 50.9436V50.9436ZM105.668 52.7882C105.731 52.7882 105.774 53.2703 105.774 55.1882H94.642L94.589 57.9656L99.4445 57.997C103.261 58.018 104.364 58.0599 104.66 58.1752C104.862 58.2486 105.191 58.4163 105.371 58.5315C105.583 58.6678 105.816 58.9612 105.954 59.2757C106.187 59.7683 106.198 59.9359 106.198 62.053C106.198 63.929 106.166 64.3902 106.017 64.778C105.911 65.04 105.721 65.3544 105.593 65.4802C105.456 65.6059 105.085 65.8155 104.766 65.9308C104.205 66.13 103.929 66.1404 98.2465 66.1404C94.9812 66.1404 92.2778 66.109 92.2248 66.0671C92.1824 66.0147 92.1612 65.4697 92.2036 63.6775L103.441 63.5727V60.6381L98.4585 60.5857C93.5818 60.5229 93.4652 60.5229 93.0199 60.2923C92.7761 60.1665 92.4792 59.9359 92.3626 59.7787C92.2354 59.611 92.0764 59.2337 91.9916 58.9403C91.8856 58.5525 91.8326 57.8608 91.8326 56.7079C91.8326 55.4607 91.875 54.8738 92.0022 54.4336C92.1188 54.0563 92.3096 53.7 92.5111 53.5009C92.6913 53.3227 93.0305 53.1026 93.2638 53.0292C93.5924 52.9244 95.0342 52.872 99.6247 52.8301C102.89 52.7987 105.615 52.7777 105.668 52.7882ZM110.173 52.8301L123.796 52.8825V55.0834L118.548 55.1358C115.665 55.1673 113.29 55.1987 113.269 55.2197C113.258 55.2302 113.258 55.8695 113.301 58.018L119.397 58.0704V60.3761L113.301 60.4285V63.5727L124.008 63.6775V66.088L110.173 66.1404V52.8301ZM127.136 52.8301H140.812L140.759 55.0834L135.617 55.1149C131.769 55.1358 130.443 55.1778 130.337 55.2721C130.242 55.3664 130.2 55.7437 130.21 56.6031C130.21 57.2634 130.242 57.8713 130.295 57.9342C130.348 58.0285 131.154 58.0704 136.412 58.1228L136.433 59.1709C136.455 59.7473 136.433 60.2504 136.38 60.2923C136.338 60.3342 134.992 60.3761 133.391 60.3761C131.313 60.3866 130.433 60.4285 130.337 60.5124C130.242 60.6067 130.2 61.0154 130.21 62.0006C130.21 62.7552 130.242 63.426 130.295 63.4889C130.348 63.5937 131.631 63.6251 140.971 63.6775L141.024 66.1404H127.136V52.8301ZM150.343 52.8301C154.7 52.8301 156.566 52.872 156.873 52.9559C157.106 53.0292 157.446 53.176 157.636 53.3017C157.817 53.417 158.061 53.6266 158.167 53.7734C158.273 53.9201 158.41 54.2031 158.485 54.4022C158.569 54.6537 158.622 55.4922 158.622 56.949C158.622 58.3848 158.58 59.2757 158.485 59.5691C158.41 59.8207 158.177 60.198 157.933 60.439C157.679 60.6905 157.361 60.9002 157.138 60.9526C156.937 60.9945 156.216 61.0574 155.548 61.0783C154.88 61.0993 154.276 61.1727 154.223 61.2251C154.152 61.3019 154.205 61.4102 154.382 61.55C154.53 61.6652 155.23 62.2417 155.951 62.8286C156.672 63.405 157.393 63.9919 157.541 64.1282C157.7 64.2539 158.283 64.7256 158.856 65.1762C159.418 65.6164 159.884 66.0252 159.884 66.0671C159.895 66.109 158.898 66.1404 155.495 66.1404L154.912 65.5955C154.594 65.2915 153.587 64.3587 152.686 63.5203C151.784 62.6714 150.83 61.791 150.088 61.1098L147.226 61.1622L147.173 66.1404H144.098L144.077 59.5586C144.066 55.9324 144.098 52.9349 144.151 52.9035C144.194 52.8615 146.982 52.8301 150.343 52.8301ZM147.332 58.7516C152.601 58.7936 154.255 58.7621 154.594 58.6992C154.922 58.6364 155.23 58.5211 155.315 58.4163C155.4 58.2905 155.442 57.8189 155.442 56.9699C155.442 55.8171 155.431 55.6913 155.219 55.5027C155.007 55.3035 154.827 55.293 151.138 55.2616L147.279 55.2302L147.332 58.7516ZM68.912 53.4589C68.9332 53.721 68.9332 54.1716 68.912 54.4546C68.8908 54.7481 68.8696 54.528 68.8696 53.983C68.8696 53.438 68.8908 53.1969 68.912 53.4589ZM73.7887 56.7079C73.7993 58.4058 73.7993 61.2355 73.7887 62.9963C73.7675 64.757 73.7569 63.3631 73.7569 59.9045C73.7569 56.4459 73.7675 55.0101 73.7887 56.7079ZM42.9063 55.0834L42.9381 57.6302C42.9593 59.9883 42.9487 60.1665 42.7791 60.156C42.6731 60.156 42.6519 60.1351 42.7261 60.1036C42.8215 60.0722 42.8533 59.4748 42.8533 55.1358L42.3551 55.1882C41.9946 55.2197 41.9098 55.2092 42.0582 55.1358C42.1748 55.0834 42.4187 55.052 42.9063 55.0834ZM68.806 55.0625C68.8166 55.0415 68.8272 55.0834 68.8272 55.1358C68.8272 55.2092 67.0567 55.2302 58.4906 55.1987L63.6324 55.1358C66.463 55.1044 68.7848 55.073 68.806 55.0625V55.0625ZM58.3846 55.293L58.4906 63.5727L68.8802 63.688L58.3846 63.6775V55.293ZM11.6635 56.1315C11.6847 56.3621 11.6847 56.7603 11.6635 57.0223C11.6423 57.2844 11.6211 57.0957 11.6211 56.6031C11.6211 56.1105 11.6423 55.9009 11.6635 56.1315ZM3.04446 56.6031C3.07627 56.6346 3.11867 56.9699 3.12928 57.3577C3.15048 57.735 3.11867 58.0285 3.07627 58.0075C3.03386 57.9866 3.00206 57.6512 2.99146 57.2634C2.99146 56.8756 3.02326 56.5717 3.04446 56.6031V56.6031ZM6.81862 58.2276C8.76931 58.2276 9.58563 58.2381 8.62088 58.259C7.65614 58.2695 6.05531 58.2695 5.06936 58.259C4.07281 58.2381 4.86793 58.2276 6.81862 58.2276ZM8.35585 60.3237L5.89628 60.3552C4.15763 60.3761 3.39431 60.418 3.2671 60.5124C3.15401 60.5962 3.09394 60.5997 3.08687 60.5229C3.07627 60.46 3.10807 60.3866 3.16108 60.3447C3.20349 60.3028 4.39086 60.2818 8.35585 60.3237V60.3237ZM42.9381 61.6338C42.9593 62.2941 42.9593 63.426 42.9381 64.1491C42.9275 64.8723 42.9063 64.3273 42.9063 62.9439C42.9063 61.5604 42.9169 60.9735 42.9381 61.6338ZM11.7165 60.984C11.7695 61.0259 11.7908 61.508 11.7483 63.0487L11.6953 61.9797C11.6635 61.3927 11.6741 60.9421 11.7165 60.984V60.984ZM68.912 64.3063C68.9332 64.5998 68.9332 65.1133 68.912 65.4592C68.8908 65.8051 68.8802 65.5745 68.8802 64.9352C68.8696 64.3063 68.8908 64.0234 68.912 64.3063ZM42.7579 66.1719C42.8851 66.2033 42.9169 66.4968 42.9275 69.6514L42.8851 67.9745C42.8639 66.8217 42.8109 66.2767 42.7261 66.2138C42.6342 66.1509 42.6448 66.137 42.7579 66.1719V66.1719Z" fill="white"/>
<path fill-rule="evenodd" clip-rule="evenodd" d="M42.7781 51.0491C42.8205 51.0491 42.8417 51.7932 42.7993 54.3505L42.4813 54.3819C42.3117 54.4029 41.9194 54.4867 41.6332 54.5601C41.3363 54.6439 40.9865 54.7382 40.573 54.8326L40.8381 54.7068C40.9865 54.6439 41.3575 54.5286 41.6544 54.4448C41.9618 54.3609 42.3329 54.2981 42.7463 54.2981L42.7145 52.6736C42.7039 51.7827 42.7251 51.0491 42.7781 51.0491ZM40.149 52.5268C40.202 52.5164 40.1596 52.5792 40.0429 52.6631C39.9263 52.7364 39.6401 52.9041 39.4068 53.0299C39.1736 53.1557 38.9722 53.25 38.9616 53.229C38.951 53.2081 39.1842 53.0509 39.4917 52.8622C39.7991 52.684 40.0853 52.5268 40.149 52.5268V52.5268ZM18.0447 52.7155L21.2782 52.7784L21.3312 63.521L31.2436 63.5734V66.1935L24.6707 66.2145C19.6031 66.2354 18.0659 66.2145 17.9599 66.1097C17.8539 66.0049 17.8221 64.7053 17.8433 59.6222C17.8433 56.1217 17.8963 53.1452 17.9493 52.988L18.0447 52.7155ZM63.0695 52.726C68.5823 52.726 68.9322 52.7364 68.9216 52.9041C68.9216 53.0089 68.8898 53.0299 68.8686 52.9565C68.8368 52.8622 67.5858 52.8308 63.0695 52.8308C57.5567 52.8308 57.3023 52.8413 56.7404 53.0404C56.4224 53.1557 56.0513 53.3548 55.9135 53.491C55.7757 53.6168 55.5848 53.9522 55.4682 54.2456C55.3622 54.5286 55.2668 54.6963 55.2668 54.6125C55.2668 54.5286 55.341 54.2666 55.447 54.036C55.553 53.8055 55.8287 53.4596 56.0513 53.271C56.2845 53.0928 56.5708 52.9356 56.6874 52.9356C56.804 52.9356 56.9736 52.8832 57.0584 52.8308C57.1539 52.7679 59.4756 52.726 63.0695 52.726V52.726ZM76.9364 52.7784L76.9576 55.4195C76.9788 56.8763 77.0106 58.0711 77.0424 58.0711C77.0742 58.0711 77.2968 57.9139 77.5407 57.7252C77.7951 57.547 78.0177 57.3584 78.0495 57.3269C78.0813 57.2955 78.2616 57.1697 78.4418 57.044C78.6326 56.9182 78.7916 56.8239 78.7916 56.8344C78.8022 56.8553 78.4206 57.1593 77.9435 57.5156C77.4771 57.8824 77.0424 58.1759 76.9894 58.1759C76.9258 58.1759 76.8834 57.2117 76.8834 52.8308H73.7029V66.1411H76.8834L76.9046 63.3428C76.9258 61.5925 76.9788 60.534 77.0424 60.5235C77.0954 60.5026 77.3392 60.6598 77.5725 60.8589C77.9435 61.1838 77.9541 61.2048 77.6467 61.0161C77.4665 60.8903 77.2862 60.7436 77.2544 60.6912C77.2226 60.6283 77.1484 60.5864 77.0954 60.5864C77.0318 60.5864 76.9788 61.603 76.9364 66.1935H73.6499L73.6181 59.5907C73.6075 55.954 73.6181 52.9251 73.6499 52.8517C73.6923 52.7469 74.0846 52.726 76.9364 52.7784ZM86.446 52.726C87.7182 52.726 88.7783 52.7574 88.7995 52.7993C88.8313 52.8517 88.7677 52.9565 88.6723 53.0404C88.5769 53.1242 88.3331 53.3024 88.1422 53.4386C87.962 53.5644 87.803 53.6483 87.803 53.6168C87.803 53.5854 88.0256 53.3967 88.8101 52.8203L84.1984 52.8308L83.4775 53.3653C83.0853 53.6692 82.7036 53.9627 82.6294 54.0256C82.5552 54.0884 82.4916 54.1094 82.4916 54.057C82.5022 54.0151 82.7778 53.7845 83.1065 53.533C83.4457 53.2919 83.8168 53.0089 83.9228 52.9041C84.1136 52.7469 84.3893 52.726 86.446 52.726V52.726ZM105.561 52.7784L99.6237 52.8308C95.2559 52.8727 93.5914 52.9251 93.3158 53.0194C93.1144 53.0928 92.8387 53.2186 92.7009 53.3024C92.5737 53.3862 92.3722 53.6168 92.2556 53.795C92.139 53.9836 92.0436 54.078 92.0436 54.0046C92.0436 53.9417 92.2026 53.7111 92.3829 53.5015C92.6055 53.271 92.9447 53.0613 93.3158 52.9356C93.8565 52.7574 94.2911 52.7364 105.561 52.7784V52.7784ZM105.857 52.7888C105.91 52.8203 105.953 53.3862 105.942 54.0465C105.932 55.0107 105.9 55.2518 105.773 55.2937C105.688 55.3251 103.737 55.3356 97.2914 55.2937L105.773 55.1889V53.9627C105.773 53.2919 105.815 52.7679 105.857 52.7888V52.7888ZM110.066 52.726H116.957C122.99 52.726 123.859 52.7469 123.901 52.8832C123.933 52.967 123.954 53.4806 123.954 54.0046C123.954 54.5391 123.912 55.0317 123.87 55.1051C123.816 55.1994 122.555 55.2413 113.406 55.2937L113.353 57.9663H119.502L119.449 60.4292L113.353 60.4816V63.521L123.901 63.5734H113.3V60.4292L119.396 60.3768V58.0711L113.3 58.0187L113.268 56.6247C113.257 55.8701 113.257 55.2308 113.268 55.2203C113.289 55.1994 115.664 55.1679 123.795 55.0841V52.8832L110.172 52.8308V66.1411L124.007 66.0887V64.8625C124.007 64.1917 124.039 63.6677 124.082 63.6887C124.135 63.7096 124.166 64.2232 124.166 64.831C124.166 65.4389 124.145 66.0049 124.113 66.0887C124.071 66.225 123.191 66.2459 110.066 66.2459V52.726ZM140.864 52.7784L127.135 52.8308V66.1411H141.023L140.97 63.6782L135.669 63.6467C131.63 63.6258 130.347 63.5838 130.294 63.4895C130.252 63.4162 130.209 62.7454 130.209 62.0013C130.209 61.0685 130.241 60.5969 130.336 60.5026C130.4 60.4397 130.559 60.3768 130.676 60.3873C130.867 60.3977 130.856 60.4082 130.368 60.5445V63.4686L135.616 63.5C139.539 63.521 140.896 63.5629 141.002 63.6572C141.108 63.7515 141.129 64.0869 141.076 66.1935H127.082L127.05 59.5907C127.039 55.954 127.05 52.9251 127.082 52.8517C127.114 52.7574 128.577 52.726 140.864 52.7784ZM150.32 52.726C154.996 52.726 156.65 52.7574 156.925 52.8622C157.127 52.9251 157.466 53.0928 157.667 53.2081C157.869 53.3338 158.123 53.5749 158.42 54.036L158.176 53.7635C158.038 53.6168 157.784 53.3967 157.614 53.2814C157.434 53.1661 157.084 53.0194 156.819 52.9461C156.469 52.8517 154.72 52.8308 144.15 52.8832L144.097 66.1411H147.172L147.225 61.1628L150.087 61.1104L150.564 61.5401C150.829 61.7812 151.783 62.672 152.685 63.5105C153.586 64.3594 154.593 65.2922 155.494 66.1306L157.688 66.1411C158.908 66.1411 159.894 66.1097 159.883 66.0573C159.883 66.0153 159.417 65.6171 158.855 65.1769C158.293 64.7262 157.699 64.2546 157.551 64.1288C157.392 63.9926 156.681 63.4057 155.96 62.8188C155.24 62.2319 154.529 61.6554 154.381 61.5297C154.232 61.4039 154.19 61.341 154.275 61.3829C154.36 61.4248 154.667 61.6554 154.964 61.886C155.25 62.1166 155.515 62.3367 155.547 62.3681C155.579 62.3995 156.119 62.8502 156.766 63.3638C157.402 63.8878 158.028 64.3909 158.144 64.4852C158.261 64.5795 158.473 64.7682 158.621 64.8939C158.77 65.0197 159.141 65.3131 159.448 65.5542C159.756 65.7848 160.01 66.0468 160 66.1097C160 66.2145 159.47 66.2459 155.494 66.2564L154.953 65.7533C154.656 65.4704 153.66 64.5376 152.727 63.6677C151.805 62.8083 150.829 61.8965 150.087 61.2257L147.278 61.2152L147.225 66.1935H144.044L144.012 59.5907C144.002 55.954 144.012 52.9251 144.044 52.8517C144.076 52.7574 145.433 52.726 150.32 52.726ZM140.853 52.8832L140.896 53.8264C140.906 54.34 140.896 54.8745 140.811 55.2413L130.368 55.2937L130.252 57.9139L130.23 56.6562C130.209 55.7339 130.241 55.3671 130.336 55.2727C130.442 55.1784 131.768 55.1365 140.758 55.0841L140.853 52.8832ZM86.6156 54.4133C86.6262 54.4029 86.5944 54.4657 86.5414 54.5286C86.4884 54.602 86.0749 54.9164 85.6297 55.2099C85.195 55.5138 84.8239 55.7444 84.8239 55.7129C84.8239 55.6815 85.0466 55.5033 85.3222 55.3147C85.5873 55.1365 85.9901 54.8535 86.1915 54.6963C86.4036 54.5496 86.5944 54.4133 86.6156 54.4133ZM158.696 55.7653C158.717 56.3732 158.717 57.4108 158.696 58.0711C158.674 58.7313 158.664 58.2388 158.664 56.9706C158.664 55.7024 158.674 55.1575 158.696 55.7653ZM36.1098 54.8326C36.1734 54.8326 35.9401 55.0003 35.6009 55.2203C35.251 55.4404 35.039 55.6291 35.1238 55.65C35.198 55.671 35.2934 55.7234 35.3146 55.7549C35.3464 55.7863 35.5585 55.9121 35.7811 56.0273C36.0037 56.1426 36.2158 56.2789 36.2582 56.3418C36.29 56.3942 36.0355 56.2789 35.6857 56.0902C35.3358 55.9016 35.0072 55.7129 34.9436 55.6605C34.88 55.6081 35.0708 55.43 35.4207 55.2099C35.7493 55.0003 36.0567 54.8326 36.1098 54.8326V54.8326ZM55.2244 57.0754C55.2456 58.3436 55.2456 60.4606 55.2244 61.7917C55.2032 63.1122 55.1926 62.0746 55.1926 59.4859C55.1926 56.8868 55.2032 55.8073 55.2244 57.0754ZM68.8474 54.9478C68.8686 54.9898 68.8686 55.0946 68.8474 55.1784C68.8262 55.3251 68.2113 55.3461 63.6208 55.3671C60.769 55.388 58.426 55.3671 58.426 55.3147C58.426 55.2727 60.769 55.2413 63.6208 55.2413C68.5081 55.2413 68.8156 55.2308 68.8156 55.0527C68.8156 54.9583 68.8262 54.9059 68.8474 54.9478ZM91.7998 55.7653C91.821 56.2579 91.821 57.0754 91.7998 57.5994C91.7786 58.113 91.768 57.7147 91.768 56.7086C91.768 55.7024 91.7786 55.2727 91.7998 55.7653ZM6.98726 55.0317C10.1995 55.0422 10.8144 55.0631 11.0371 55.1994C11.1855 55.2832 11.2067 55.3251 11.0901 55.2727C10.9734 55.2308 9.16058 55.1784 3.24491 55.126L3.23431 56.4675C3.22371 57.2012 3.24491 57.8719 3.28732 57.9453C3.34032 58.0501 4.15664 58.0711 7.14629 58.0501C9.22419 58.0291 10.8462 58.0501 10.7508 58.092C10.6448 58.1235 8.90615 58.1654 6.88125 58.1654C4.00822 58.1759 3.1919 58.1444 3.1813 58.0396C3.1707 57.9767 3.1495 57.2955 3.13889 56.5514C3.12829 55.7968 3.13889 55.1575 3.1601 55.1051C3.1813 55.0631 4.90936 55.0317 6.98726 55.0317ZM42.8205 56.2894C42.8417 56.9496 42.8417 58.0815 42.8205 58.8047C42.7993 59.5279 42.7887 58.9829 42.7887 57.5994C42.7887 56.216 42.7993 55.6291 42.8205 56.2894ZM97.2808 55.1784L94.6834 55.2413L94.641 57.809L94.6198 56.6143C94.5986 55.954 94.6092 55.3461 94.6304 55.2727C94.6728 55.1679 94.9908 55.1365 97.2808 55.1784V55.1784ZM41.8346 55.2623C42.0254 55.2623 42.0678 55.2832 41.9406 55.3042C41.824 55.3356 41.5378 55.409 41.3045 55.4719C41.0713 55.5452 40.732 55.6815 40.5412 55.7863C40.3504 55.8911 40.2232 55.9225 40.2444 55.8701C40.2762 55.8073 40.4564 55.7024 40.6472 55.6186C40.8381 55.5452 41.1137 55.43 41.2515 55.3671C41.3999 55.3042 41.665 55.2518 41.8346 55.2623V55.2623ZM11.4929 55.4824C11.5353 55.5557 11.5671 55.933 11.5565 56.3418C11.5565 56.74 11.5353 57.002 11.5141 56.9182C11.4929 56.8344 11.4611 56.4466 11.4399 56.0588C11.4293 55.6815 11.4505 55.4195 11.4929 55.4824ZM39.4174 55.4509C39.4598 55.4509 39.2584 55.65 38.9828 55.8911C38.6965 56.1426 38.3361 56.5409 38.1665 56.7819C37.9968 57.0335 37.7954 57.2326 37.7 57.2326C37.6152 57.2326 37.5198 57.1802 37.488 57.1278C37.4668 57.0649 37.5198 57.044 37.6258 57.0859C37.753 57.1278 37.8802 57.044 38.0392 56.7924C38.1665 56.6038 38.5057 56.2265 38.8026 55.9435C39.0994 55.671 39.375 55.4509 39.4174 55.4509ZM58.4791 55.5557L58.5321 63.521L63.695 63.5419C68.1795 63.5734 68.858 63.5943 68.9004 63.7306C68.9287 63.8424 68.9145 63.8528 68.858 63.762C68.7838 63.6572 67.5328 63.6258 58.4791 63.5734V55.5557ZM50.9837 55.7653C51.0898 55.7653 51.1216 56.74 51.1216 60.272C51.1216 63.1751 51.0792 64.7996 51.0156 64.831C50.9519 64.8625 50.6657 64.7367 50.3795 64.569C50.0826 64.3909 49.8494 64.2336 49.8494 64.2022C49.8494 64.1708 50.0296 64.2546 50.2416 64.3804C50.4643 64.4957 50.6869 64.6424 50.7505 64.6948C50.8035 64.7367 50.8883 64.7786 50.9307 64.7786C50.9731 64.7786 51.0156 62.7768 51.0156 60.3244C51.0156 57.8719 50.9944 55.8701 50.9625 55.8701C50.9307 55.8701 50.6975 55.9854 50.4325 56.1322C50.1674 56.2789 49.9448 56.3732 49.9342 56.3418C49.9342 56.3208 50.1356 56.1846 50.3901 56.0378C50.6445 55.8911 50.9095 55.7653 50.9837 55.7653V55.7653ZM39.7461 56.1846C39.7673 56.1846 39.5235 56.4675 39.2054 56.8134C38.8768 57.1593 38.6117 57.4841 38.6117 57.547C38.6117 57.5994 38.7814 57.7462 38.9828 57.8614C39.1842 57.9767 39.3538 58.092 39.3538 58.1235C39.3538 58.1549 39.163 58.0711 38.9298 57.9348C38.6859 57.809 38.4951 57.6518 38.4845 57.5785C38.4845 57.5051 38.7495 57.1697 39.0888 56.8134C39.4174 56.4675 39.7143 56.1846 39.7461 56.1846V56.1846ZM133.358 57.9872C135.065 57.9767 136.464 57.9977 136.464 58.0396C136.464 58.092 135.542 58.113 134.418 58.092C133.294 58.0815 131.905 58.0606 131.322 58.0396C130.739 58.0187 131.651 57.9977 133.358 57.9872ZM104.818 58.1759C104.871 58.1759 105.073 58.2388 105.264 58.3331C105.455 58.4169 105.698 58.6161 105.804 58.7733C105.921 58.9409 106.069 59.2554 106.133 59.4859C106.207 59.7165 106.239 59.9471 106.207 60.01C106.186 60.0624 106.154 60.0309 106.154 59.9261C106.144 59.8318 106.048 59.5279 105.932 59.2449C105.815 58.9724 105.614 58.6789 105.476 58.6056C105.349 58.5217 105.126 58.3855 104.978 58.3121C104.829 58.2388 104.755 58.1759 104.818 58.1759V58.1759ZM92.0224 59.0772C92.1178 59.3707 92.298 59.7165 92.4147 59.8528C92.5313 59.9785 92.7963 60.1567 92.9977 60.2405C93.1992 60.3139 93.3264 60.4082 93.284 60.4292C93.2416 60.4606 93.072 60.4187 92.9129 60.3349C92.7539 60.2615 92.4889 60.0414 92.3298 59.8632C92.1708 59.6851 91.9906 59.3602 91.9376 59.1401C91.874 58.9305 91.8316 58.6999 91.8422 58.6475C91.8422 58.5846 91.927 58.7837 92.0224 59.0772V59.0772ZM47.9623 58.8571C48.0577 58.9934 48.1001 59.465 48.1001 60.272C48.1001 61.0475 48.0471 61.5506 47.9623 61.6869C47.8563 61.865 47.8457 61.8441 47.9093 61.5297C47.9623 61.3305 47.9941 60.7646 47.9941 60.272C47.9941 59.7794 47.9517 59.2134 47.9093 59.0143C47.8351 58.6894 47.8351 58.6685 47.9623 58.8571ZM44.9727 59.1191C45.0363 59.1191 45.0257 59.182 44.9515 59.2763C44.8772 59.3707 44.7712 59.444 44.7288 59.4335C44.6864 59.4335 44.4002 59.5803 44.0927 59.748C43.7853 59.9261 43.5308 60.0519 43.5202 60.0414C43.499 60.0204 43.7535 59.8528 44.0715 59.6641C44.3896 59.4859 44.697 59.3287 44.7606 59.3287C44.8136 59.3287 44.8666 59.2763 44.8666 59.2239C44.8666 59.161 44.9091 59.1191 44.9727 59.1191ZM48.8634 59.6431C48.8846 59.9576 48.8846 60.5026 48.8634 60.8484C48.8422 61.1943 48.8316 60.9323 48.8316 60.272C48.8316 59.6117 48.8422 59.3287 48.8634 59.6431ZM158.579 59.4021C158.6 59.4755 158.537 59.706 158.431 59.9261C158.335 60.1357 158.06 60.4606 157.826 60.6493C157.593 60.8484 157.254 61.0266 157.084 61.0685C156.904 61.0999 156.194 61.1419 154.222 61.1838L155.494 61.0999C156.194 61.058 156.936 60.9951 157.137 60.9427C157.349 60.9008 157.688 60.6912 157.932 60.4397C158.187 60.1881 158.399 59.8528 158.452 59.6431C158.494 59.444 158.547 59.3392 158.579 59.4021V59.4021ZM81.9721 60.3977C82.481 60.7646 83.4245 61.4248 84.0606 61.886C84.6967 62.3367 85.2268 62.7244 85.2374 62.7454C85.248 62.7664 85.195 62.7559 85.1208 62.7035C85.0466 62.6616 84.5165 62.2947 83.944 61.8965C83.3715 61.4877 82.799 61.0895 82.6718 61.0056C82.5446 60.9218 82.1205 60.6283 81.7283 60.3453C81.336 60.0729 81.018 59.8213 81.0286 59.7899C81.0286 59.7584 81.4526 60.0309 81.9721 60.3977ZM106.324 61.058C106.345 61.5716 106.345 62.4519 106.324 62.9969C106.303 63.5419 106.292 63.1227 106.292 62.0537C106.292 60.9847 106.303 60.534 106.324 61.058ZM136.432 60.2929C136.443 60.2825 136.432 60.3139 136.401 60.3768C136.369 60.4397 135.362 60.4711 130.898 60.4292L133.655 60.3768C135.171 60.3453 136.422 60.3034 136.432 60.2929ZM10.4646 60.4292L3.25551 60.534V63.5734L10.9947 63.6782L7.09328 63.7096C4.05063 63.7201 3.1919 63.6991 3.1601 63.5943C3.13889 63.5314 3.10709 62.8292 3.09649 62.0537C3.07529 61.0371 3.10709 60.6074 3.2025 60.513C3.29792 60.4082 4.09304 60.3768 10.4646 60.4292V60.4292ZM10.8038 60.4921C11.0477 60.4816 11.2385 60.5654 11.4187 60.7436C11.5671 60.8903 11.6838 61.0685 11.6732 61.1314C11.6732 61.2048 11.5989 61.1419 11.5141 60.9742C11.4293 60.817 11.2597 60.6702 11.1219 60.6388C10.9947 60.6178 10.7932 60.5759 10.6766 60.5445C10.5494 60.5235 10.6024 60.5026 10.8038 60.4921V60.4921ZM42.7357 60.4816C42.8417 60.4816 42.7993 60.534 42.6403 60.6283C42.4919 60.7017 42.089 60.9218 41.7392 61.1104C41.3893 61.2991 41.1455 61.4039 41.2091 61.341C41.2621 61.2886 41.5484 61.1104 41.8452 60.9532C42.1314 60.796 42.4177 60.6283 42.4707 60.5759C42.5343 60.5235 42.6509 60.4816 42.7357 60.4816ZM43.9019 60.6912C44.1139 60.8275 44.6016 61.1209 44.9939 61.341C45.3861 61.5716 45.6936 61.7812 45.6936 61.8021C45.6936 61.8336 45.6618 61.8336 45.6194 61.8126C45.5876 61.7917 45.0893 61.5087 44.5168 61.1838C43.9549 60.8484 43.499 60.555 43.499 60.5235C43.5096 60.4921 43.6899 60.5654 43.9019 60.6912V60.6912ZM98.3091 60.5654C101.013 60.5759 103.281 60.6178 103.355 60.6388C103.461 60.6807 103.483 61.058 103.44 63.5734L92.2026 63.6782L92.1708 64.831C92.1602 65.4599 92.1814 66.0153 92.2238 66.0677C92.2662 66.1097 94.9802 66.1411 98.2455 66.1411C103.939 66.1411 104.204 66.1306 104.765 65.9315C105.084 65.8057 105.433 65.638 105.55 65.5332C105.656 65.4389 105.836 65.1664 105.942 64.9358C106.048 64.7053 106.133 64.5795 106.144 64.6424C106.144 64.7157 106.069 64.9044 105.995 65.0616C105.91 65.2293 105.73 65.4599 105.592 65.5856C105.455 65.7114 105.084 65.9105 104.765 66.0363C104.204 66.2354 103.928 66.2459 98.2137 66.2459C94.9378 66.2459 92.2026 66.225 92.1496 66.1935C92.086 66.1621 92.0436 65.638 92.0436 64.9568C92.0365 64.1743 92.0789 63.7376 92.1708 63.6467C92.2662 63.5524 93.549 63.521 103.387 63.521V60.6912L98.7968 60.6807C96.2736 60.6807 94.0261 60.6493 93.8035 60.6074C93.5702 60.5654 95.5951 60.5445 98.3091 60.5654V60.5654ZM42.7993 60.6912C42.8311 60.6912 42.8524 61.7707 42.8524 65.5123L42.5025 65.5018C42.3117 65.5018 42.0678 65.4599 41.9512 65.4075C41.8134 65.3446 41.93 65.3446 42.7463 65.4599V63.0703C42.7463 61.7602 42.7675 60.6912 42.7993 60.6912V60.6912ZM78.2086 61.32C78.3252 61.4039 78.6644 61.6554 78.9613 61.8755C79.2581 62.0956 79.5126 62.3052 79.5232 62.3262C79.5232 62.3471 79.2369 62.169 78.8871 61.9174C78.5266 61.6764 78.1768 61.4039 78.1132 61.32C78.0071 61.1943 78.0177 61.1943 78.2086 61.32V61.32ZM40.9547 61.4248C40.9971 61.4248 41.0077 61.4563 40.9971 61.4982C40.9759 61.5506 40.7744 61.6764 40.5306 61.7917C40.2868 61.907 40.0959 62.0327 40.0959 62.0746C40.0959 62.127 40.0429 62.1585 39.9899 62.1585C39.9263 62.1585 39.7355 62.2528 39.5659 62.3681C39.3856 62.4834 39.2266 62.5672 39.1948 62.5463C39.163 62.5358 39.375 62.3681 39.6719 62.1794C39.9581 62.0013 40.2338 61.8441 40.2762 61.8441C40.3186 61.8441 40.4776 61.7497 40.626 61.6345C40.7744 61.5192 40.9229 61.4248 40.9547 61.4248V61.4248ZM47.8033 62.0432C47.8245 62.1061 47.7609 62.2947 47.6761 62.4729C47.5912 62.6406 47.4746 62.7873 47.4322 62.7873C47.3898 62.7873 47.199 62.714 47.0082 62.6301C46.8173 62.5463 46.6477 62.4205 46.6159 62.3681C46.5841 62.3052 46.7325 62.3576 46.934 62.4729C47.1354 62.5882 47.3474 62.6825 47.411 62.6825C47.464 62.6825 47.57 62.5148 47.6443 62.3052C47.7185 62.1061 47.7927 61.9803 47.8033 62.0432ZM80.6045 63.0808C81.1346 63.4686 81.6011 63.8249 81.6329 63.8878C81.6753 63.9402 81.5587 63.8878 81.3784 63.7515C81.2088 63.6258 80.7529 63.2904 80.3607 63.0179C79.9684 62.7454 79.6398 62.4939 79.6398 62.4519C79.6398 62.41 80.0744 62.693 80.6045 63.0808V63.0808ZM38.5693 62.9445C38.5905 63.0598 38.8344 63.3952 39.11 63.6887C39.3856 63.9716 39.7885 64.3489 39.9899 64.5061C40.2302 64.6948 40.2656 64.7472 40.0959 64.6633C39.9475 64.59 39.5341 64.2336 39.163 63.8668C38.7177 63.4162 38.5057 63.1332 38.5163 62.9655C38.5269 62.7664 38.5375 62.7559 38.5693 62.9445V62.9445ZM37.8272 63.3847C37.9014 63.4162 37.965 63.4581 37.965 63.479C37.9756 63.5 37.912 63.5 37.8378 63.479C37.7636 63.4581 37.4137 63.6048 37.0427 63.7935C36.6822 63.9926 36.3854 64.1288 36.3748 64.1079C36.3748 64.0869 36.5974 63.9297 36.8837 63.762C37.1593 63.6048 37.4562 63.4371 37.541 63.4057C37.6152 63.3638 37.7424 63.3638 37.8272 63.3847ZM86.3718 63.4895C86.4248 63.5419 86.8276 63.8459 87.2517 64.1603C87.6758 64.4747 88.0256 64.7472 88.0256 64.7786C88.0256 64.8101 87.962 64.7786 87.8878 64.7157C87.8136 64.6529 87.4001 64.3489 86.9761 64.0345C86.552 63.7201 86.2127 63.4476 86.2339 63.4266C86.2445 63.4057 86.3082 63.4371 86.3718 63.4895V63.4895ZM38.8026 64.4642C39.2584 64.8939 39.6083 65.2712 39.5871 65.3027C39.5765 65.3341 39.2054 64.9987 38.7601 64.569C38.3255 64.1393 37.9756 63.762 37.9756 63.7306C37.9756 63.6991 38.3467 64.0345 38.8026 64.4642ZM81.9191 64.066C82.0357 64.1393 82.375 64.3804 82.6718 64.6005C82.9687 64.8206 83.2231 65.0302 83.2337 65.0511C83.2337 65.0721 83.0429 64.9568 82.7884 64.7891C82.5446 64.6109 82.1947 64.3489 82.0251 64.2022C81.8449 64.045 81.8025 63.9821 81.9191 64.066V64.066ZM36.2476 64.1498C36.2582 64.1498 36.2476 64.1812 36.2264 64.2232C36.2052 64.2756 35.9189 64.4433 35.5903 64.6214C35.2722 64.7891 34.9966 64.9673 35.0072 65.0092C35.0072 65.0616 35.1132 65.135 35.2404 65.1874C35.3782 65.2398 35.6221 65.3865 35.8023 65.5018C35.9719 65.6276 36.078 65.7219 36.0355 65.7219C35.9931 65.7219 35.8235 65.638 35.6645 65.5332C35.5055 65.4389 35.2828 65.3027 35.1662 65.2398C35.0496 65.1769 34.9542 65.0616 34.9542 64.9882C34.9542 64.9149 35.2404 64.7053 35.5903 64.5061C35.9401 64.3175 36.237 64.1498 36.2476 64.1498V64.1498ZM88.4391 64.9987C88.6405 65.135 89.054 65.4179 89.3614 65.638C89.6689 65.8581 89.9021 66.0782 89.8703 66.1411C89.8385 66.204 88.8737 66.2459 84.8345 66.2459L84.0924 65.7428C83.6896 65.4704 83.3503 65.2188 83.3503 65.1664C83.3503 65.1245 83.4775 65.1874 83.6366 65.3027C83.7956 65.4179 84.1348 65.659 84.8345 66.1411L89.8491 66.0887L89.4144 65.7952C89.1706 65.638 88.8843 65.4389 88.7783 65.3551C88.6829 65.2712 88.4815 65.1035 88.3331 64.9882C88.0892 64.7786 88.0998 64.7786 88.4391 64.9987V64.9987ZM40.1171 65.5018C40.308 65.6066 40.7002 65.7743 40.9971 65.8791C41.2833 65.9734 41.7922 66.0992 42.1102 66.1411C42.6403 66.2145 42.6509 66.2145 42.2693 66.2354C42.036 66.2459 41.5378 66.1516 41.1561 66.0258C40.7744 65.9001 40.3292 65.7428 40.1702 65.659C40.0111 65.5752 39.8627 65.4599 39.8309 65.4075C39.7991 65.3446 39.9263 65.3865 40.1171 65.5018ZM55.9453 65.6171C55.9983 65.6171 56.1467 65.68 56.2633 65.7533C56.3799 65.8267 56.6662 65.9525 56.8994 66.0153C57.2175 66.1201 58.7441 66.1411 63.1225 66.1201C66.3136 66.0992 68.9322 66.1201 68.9322 66.1621C68.9322 66.2145 66.2924 66.2459 63.0695 66.2459C58.6169 66.2459 57.1221 66.2145 56.8464 66.1097C56.645 66.0363 56.3269 65.9001 56.1573 65.7952C55.9771 65.7009 55.8817 65.6276 55.9453 65.6171V65.6171ZM42.8205 66.9796C42.8417 67.4093 42.8417 68.1639 42.8205 68.6564C42.7993 69.149 42.7887 68.7927 42.7887 67.8704C42.7887 66.9481 42.7993 66.5499 42.8205 66.9796ZM39.5871 67.7132C39.6295 67.7132 40.0747 67.9438 40.573 68.2372C41.0713 68.5202 41.4741 68.7822 41.4741 68.8241C41.4741 68.8556 41.4423 68.8556 41.3893 68.8346C41.3469 68.8137 40.9335 68.5621 40.467 68.2896C40.0005 68.0171 39.5977 67.7761 39.5659 67.7446C39.5341 67.7237 39.5447 67.7027 39.5871 67.7132Z" fill="#B3B8A8" fill-opacity="0.7"/>
<path d="M18.1204 59.5603C18.0992 55.9445 18.1098 52.9575 18.131 52.9051C18.1522 52.8632 18.8201 52.8423 21.0677 52.8842L21.1207 63.522L21.3539 63.6373C21.5341 63.7316 22.9336 63.7525 31.1392 63.6792L31.1922 66.1421H18.1522L18.1204 59.5603Z" fill="white"/>
<path d="M21.2066 63.5409C21.1642 63.499 21.1112 61.078 21.1006 58.1539C21.0794 55.2298 21.1006 52.8717 21.143 52.9136C21.1854 52.9556 21.2384 55.3766 21.249 58.3007C21.2702 61.2247 21.249 63.5829 21.2066 63.5409Z" fill="white"/>
<path d="M18.047 66.0877C17.9728 66.0563 17.9516 63.7925 17.9622 59.5688C17.9728 56.0054 18.0046 53.4481 18.047 53.8778C18.0894 54.3076 18.1318 57.2421 18.1424 60.3968C18.153 64.2012 18.1212 66.1192 18.047 66.0877Z" fill="white"/>
<path d="M27.4834 63.6982C26.3489 63.7191 24.5041 63.7191 23.4014 63.6982C22.2987 63.6877 23.2211 63.6772 25.4689 63.6772C27.7167 63.6772 28.6179 63.6877 27.4834 63.6982Z" fill="white"/>
<path d="M147.152 57.0437C147.141 56.069 147.173 55.241 147.226 55.2096C147.279 55.1677 148.912 55.1362 150.873 55.1362C152.834 55.1362 154.573 55.1572 154.753 55.1886C154.933 55.2201 155.177 55.3354 155.304 55.4506C155.538 55.6498 155.548 55.7441 155.548 56.9389C155.548 57.9136 155.506 58.2804 155.389 58.4586C155.304 58.5948 155.145 58.6996 155.039 58.6891C154.902 58.6891 154.891 58.6682 155.018 58.6263C155.103 58.5948 155.241 58.49 155.315 58.3957C155.4 58.2804 155.442 57.8193 155.442 56.9703C155.453 55.8175 155.432 55.6917 155.22 55.5031C155.008 55.3039 154.827 55.2934 147.279 55.241L147.332 58.7416L147.597 58.8149C147.767 58.8568 147.799 58.8883 147.682 58.8988C147.576 58.9092 147.417 58.8883 147.332 58.8568C147.205 58.8149 147.173 58.5005 147.152 57.0437Z" fill="#B3B8A8" fill-opacity="0.7"/>
<path d="M31.1602 63.6255L26.2199 63.5941L21.2795 63.5731H31.245L31.2556 66.0884L31.1602 63.6255Z" fill="#B3B8A8" fill-opacity="0.7"/>
</g>
<defs>
<clipPath id="clip0_1607_31373">
<rect width="160" height="120" fill="white"/>
</clipPath>
</defs>
</svg>
