<svg width="160" height="120" viewBox="0 0 160 120" fill="none" xmlns="http://www.w3.org/2000/svg">
<path d="M19.5632 30.2077C17.4947 30.2077 16.1101 30.1566 16.4861 30.1055C16.8622 30.0544 18.0931 30.0033 19.2213 30.0033C20.3496 29.9863 21.7343 30.0374 22.2984 30.1055C22.8625 30.1566 21.6317 30.2077 19.5632 30.2077Z" fill="white" fill-opacity="0.5"/>
<path d="M11.8705 31.2981C12.5201 31.0425 13.4945 30.7018 14.0074 30.5655C14.5202 30.4292 15.1356 30.327 15.375 30.327C15.7169 30.327 15.734 30.344 15.4604 30.4122C15.2724 30.4462 14.657 30.5996 14.0929 30.7359C13.5287 30.8722 12.4859 31.2299 11.7851 31.5025C11.0842 31.7921 9.85334 32.4565 9.04988 32.9676C8.24642 33.4958 7.08397 34.4327 6.46856 35.0461C5.85314 35.6594 5.0155 36.6304 4.60522 37.1926C4.17785 37.7548 3.44277 38.9815 2.94702 39.9184C2.45127 40.8554 2.04099 41.571 2.04099 41.4858C2.04099 41.4176 2.31451 40.8043 2.65641 40.1229C2.9983 39.4585 3.63081 38.3681 4.07528 37.7037C4.50265 37.0563 5.28901 36.0682 5.80186 35.506C6.3147 34.9609 7.20364 34.1431 7.76777 33.7002C8.3319 33.2572 9.22083 32.6439 9.73367 32.3373C10.2465 32.0306 11.2209 31.5706 11.8705 31.2981Z" fill="white" fill-opacity="0.5"/>
<path d="M26.9995 30.9403C26.8627 30.9573 26.2815 30.8551 25.7174 30.7359C25.1532 30.5996 24.8797 30.4974 25.119 30.4974C25.3584 30.4974 25.9396 30.5996 26.4011 30.7188C26.8798 30.8381 27.1362 30.9403 26.9995 30.9403Z" fill="white" fill-opacity="0.5"/>
<path d="M33.2391 33.2743C32.1963 32.7462 30.4355 32.0136 29.3073 31.6558C28.179 31.2981 27.3585 30.9914 27.4781 30.9914C27.5807 30.9744 28.4354 31.2129 29.3415 31.5025C30.2646 31.7921 31.7518 32.3714 32.6408 32.7973C33.5297 33.2061 35.034 34.0579 35.9743 34.6883C37.0683 35.4038 38.3675 36.4941 39.5642 37.7037C40.7779 38.8963 41.872 40.191 42.59 41.2814C43.2225 42.2184 44.1456 43.8709 44.6584 44.9442C45.1713 46.0175 45.8722 47.7892 46.2141 48.8625C46.556 49.9358 46.8295 50.941 46.8295 51.0772C46.8124 51.2135 46.5389 50.4469 46.2141 49.3736C45.8893 48.3003 45.308 46.7159 44.932 45.8812C44.573 45.0464 43.9234 43.7346 43.496 42.985C43.0515 42.2354 42.2823 41.0428 41.7523 40.3444C41.2224 39.6459 40.1283 38.4193 39.3078 37.6185C38.5043 36.8178 37.2222 35.7275 36.47 35.1994C35.7349 34.6713 34.2819 33.8024 33.2391 33.2743Z" fill="white" fill-opacity="0.5"/>
<path d="M0.348603 47.7552C0.331508 47.5678 0.416983 46.9545 0.536647 46.3923C0.639216 45.8301 0.758879 45.4382 0.793069 45.5404C0.810164 45.6427 0.741785 46.2389 0.605026 46.9033C0.468267 47.5507 0.348603 47.9426 0.348603 47.7552Z" fill="white" fill-opacity="0.5"/>
<path d="M0.143465 54.9956C0.0750858 54.4845 0.00670639 53.1046 0.00670639 51.9291C-0.0103885 50.7536 0.00670639 49.8336 0.0408961 49.8847C0.0921806 49.9358 0.143465 51.3158 0.19475 52.9512C0.228939 54.5867 0.211845 55.5067 0.143465 54.9956Z" fill="white" fill-opacity="0.5"/>
<path d="M47.0688 52.8661C46.9492 52.3039 46.8466 51.7246 46.8637 51.5883C46.8637 51.452 46.9662 51.7076 47.0859 52.1846C47.2056 52.6446 47.3081 53.2238 47.3081 53.4623C47.3081 53.7008 47.2056 53.4283 47.0688 52.8661Z" fill="white" fill-opacity="0.5"/>
<path d="M47.8039 59.2547C47.7697 59.2036 47.6842 58.2495 47.65 57.1251C47.5817 55.8474 47.5988 55.4045 47.6842 55.9326C47.7697 56.3926 47.8381 57.3637 47.8381 58.0621C47.8552 58.7606 47.8381 59.3058 47.8039 59.2547Z" fill="white" fill-opacity="0.5"/>
<path d="M47.6159 69.732C47.65 68.6928 47.7355 65.967 47.7868 63.633C47.8552 61.3161 47.9407 59.425 47.9919 59.425C48.0261 59.425 48.009 61.5205 47.9407 64.0589C47.8723 66.6144 47.7526 69.3572 47.6842 70.1579C47.5304 71.589 47.5304 71.572 47.6159 69.732Z" fill="white" fill-opacity="0.5"/>
<path d="M3.3402 65.984C2.74188 64.7745 2.17775 63.5819 2.12647 63.3434C2.05809 63.1049 2.04099 62.9516 2.09228 63.0027C2.12647 63.0538 2.46836 63.7864 2.82736 64.6211C3.20344 65.4559 3.88724 66.8018 4.3488 67.6025C4.82745 68.4032 5.64801 69.6298 6.17795 70.3283C6.70789 71.0268 7.69939 72.2193 9.59691 74.3318L8.16095 72.8667C7.39168 72.066 6.22923 70.6861 5.59672 69.8002C4.96421 68.9143 3.93852 67.1936 3.3402 65.984Z" fill="white" fill-opacity="0.5"/>
<path d="M46.8979 76.8021C46.8637 76.751 46.915 75.9844 47.0346 75.0985C47.1372 74.2126 47.2398 73.5822 47.2569 73.7015C47.274 73.8208 47.2056 74.5874 47.1201 75.4051C47.0517 76.2229 46.9492 76.8532 46.8979 76.8021Z" fill="white" fill-opacity="0.5"/>
<path d="M45.8551 80.4649C46.0944 79.7153 46.385 78.625 46.5218 78.0287C46.6414 77.4325 46.7782 77.0577 46.8124 77.1769C46.8295 77.2962 46.7611 77.7732 46.6585 78.2502C46.5389 78.7102 46.2483 79.7153 46.026 80.4649C45.7867 81.2145 45.2909 82.4411 44.8978 83.1907C44.5217 83.9403 43.8721 85.0136 43.4276 85.5758C43.0002 86.121 42.2652 86.8876 41.7865 87.2624C41.3249 87.6202 40.4018 88.1824 39.7351 88.489C39.0855 88.7957 38.3163 89.1023 38.0256 89.1535C37.7521 89.2046 37.906 89.1023 38.3675 88.932C38.8462 88.7446 39.5642 88.4379 39.9915 88.2165C40.4189 88.012 41.1711 87.518 41.6839 87.1261C42.1797 86.7513 42.949 85.9677 43.3592 85.4055C43.7866 84.8433 44.4191 83.804 44.7781 83.1056C45.1371 82.4071 45.6157 81.2145 45.8551 80.4649Z" fill="white" fill-opacity="0.5"/>
<path d="M19.5632 84.0937C18.7256 83.3781 17.5973 82.4071 17.0845 81.913C16.5716 81.419 16.2981 81.1293 16.4861 81.2486C16.6742 81.3849 17.4093 82.0152 18.1101 82.6626C18.811 83.31 20.1957 84.4514 21.1872 85.184C22.1787 85.9165 23.7856 86.9217 24.7771 87.4328C25.7686 87.9268 27.0678 88.5061 27.6833 88.7105C28.2987 88.8979 29.1021 89.1364 29.4782 89.2216C29.8714 89.3068 30.0082 89.3749 29.7859 89.392C29.5637 89.409 28.7602 89.2046 27.991 88.9661C27.2046 88.7105 25.8883 88.1653 25.0336 87.7394C24.1959 87.3306 22.9651 86.615 22.2984 86.1721C21.6317 85.7292 20.418 84.7922 19.5632 84.0937Z" fill="white" fill-opacity="0.5"/>
<path d="M33.581 89.7327C32.4527 89.7327 31.2219 89.6645 30.8458 89.5964C30.4697 89.5282 31.2903 89.4942 32.7262 89.5453C34.1451 89.5794 35.3759 89.6305 35.4614 89.6645C35.564 89.6986 34.7092 89.7327 33.581 89.7327Z" fill="white" fill-opacity="0.5"/>
<path fill-rule="evenodd" clip-rule="evenodd" d="M60.1661 40.3445L75.9275 40.4297L75.9104 42.014C75.8933 42.8659 75.8933 43.6325 75.8933 43.7006C75.8933 43.7858 73.671 47.1249 65.9783 58.4882L75.9104 58.6585V62.5769L60.1661 62.6621V59.34L65.1236 52.0144C67.8588 47.9768 70.0811 44.6376 70.0811 44.5525C70.0811 44.4843 67.8588 44.4332 60.1661 44.4332V40.3445ZM122.049 40.3445H126.323V62.6621H122.049V61.214L121.673 61.5888C121.451 61.7932 120.853 62.151 120.34 62.3895C119.827 62.628 118.972 62.8665 118.46 62.9347C117.912 63.0028 117.092 62.9517 116.494 62.8324C115.929 62.7132 115.16 62.4747 114.784 62.2873C114.408 62.0999 113.793 61.7251 113.417 61.4525C113.04 61.197 112.442 60.6007 112.1 60.1577C111.741 59.7148 111.297 58.9141 111.092 58.403C110.904 57.8919 110.681 56.9719 110.596 56.3586C110.527 55.7453 110.527 54.672 110.613 53.9735C110.716 53.0706 110.921 52.3551 111.348 51.5033C111.707 50.7537 112.254 50.0211 112.801 49.51C113.28 49.0671 114.152 48.4708 114.733 48.1812C115.451 47.8405 116.203 47.636 117.006 47.5679C117.776 47.4827 118.596 47.5338 119.314 47.6871C119.93 47.8234 120.75 48.1301 121.143 48.3856C121.554 48.6582 121.913 48.8626 121.964 48.8626C122.015 48.8626 122.049 46.9546 122.049 44.6036V40.3445ZM116.066 52.2529C115.741 52.4914 115.314 53.0877 115.092 53.5476C114.87 54.0247 114.699 54.7061 114.699 55.0809C114.699 55.4557 114.784 56.069 114.887 56.4438C115.006 56.8697 115.382 57.4319 115.861 57.9089C116.494 58.5393 116.87 58.7437 117.605 58.9311C118.374 59.1015 118.699 59.1015 119.4 58.9141C119.861 58.7778 120.511 58.4371 120.836 58.1645C121.143 57.8749 121.571 57.3297 121.759 56.9549C121.998 56.4779 122.118 55.9327 122.118 55.1661C122.118 54.2632 122.032 53.9054 121.656 53.258C121.4 52.798 120.87 52.2358 120.477 51.9803C119.93 51.6055 119.519 51.5033 118.716 51.4692C118.152 51.4522 117.451 51.5203 117.177 51.6225C116.887 51.7248 116.391 52.0144 116.066 52.2529ZM84.8681 47.5168C85.4323 47.4997 86.3554 47.619 86.9195 47.7723C87.4836 47.9086 88.2871 48.2153 88.7145 48.4538C89.1418 48.6752 89.894 49.2715 90.3898 49.7656C90.9368 50.2937 91.5351 51.1285 91.8941 51.844C92.236 52.5595 92.5266 53.4795 92.6292 54.1439C92.7147 54.7913 92.7147 55.7283 92.6292 56.3586C92.5266 57.006 92.236 57.9601 91.8941 58.6585C91.5009 59.4763 90.9881 60.1577 90.3043 60.7881C89.7573 61.3162 88.8683 61.9466 88.3213 62.2021C87.7913 62.4576 86.8169 62.7473 86.1844 62.8665C85.3126 63.0198 84.7485 63.0198 83.8424 62.8665C83.1757 62.7643 82.15 62.4236 81.5346 62.134C80.9021 61.8103 80.0303 61.197 79.5174 60.6688C78.9875 60.1407 78.3721 59.2718 78.0131 58.5393C77.5173 57.5171 77.3977 57.0401 77.3122 55.8475C77.2438 54.7913 77.2951 54.1098 77.5002 53.2921C77.6541 52.6788 78.0302 51.7759 78.3379 51.2818C78.6285 50.7707 79.2268 50.0382 79.6542 49.6463C80.0816 49.2545 80.7654 48.7264 81.1927 48.4878C81.6201 48.2323 82.3894 47.9086 82.9022 47.7723C83.4151 47.636 84.304 47.5168 84.8681 47.5168ZM82.5774 52.5084C82.3552 52.7129 82.0304 53.1728 81.8252 53.5476C81.5859 54.0076 81.4663 54.5698 81.4663 55.2513C81.4663 56.069 81.5517 56.4438 81.9278 57.0912C82.1842 57.5512 82.6971 58.0963 83.1074 58.3519C83.5347 58.6245 84.1672 58.8459 84.6117 58.897C85.0391 58.9311 85.6887 58.863 86.0648 58.7437C86.4408 58.6074 87.005 58.2837 87.3298 57.9941C87.6546 57.7045 88.0478 57.1593 88.2187 56.7845C88.3897 56.4097 88.5264 55.7283 88.5264 55.2513C88.5264 54.7913 88.3897 54.0928 88.2187 53.718C88.0478 53.3432 87.6375 52.798 87.3298 52.4914C87.005 52.2018 86.5263 51.8781 86.2699 51.7759C86.0135 51.6736 85.3981 51.5885 84.9023 51.6055C84.4066 51.6055 83.7741 51.7248 83.5005 51.8781C83.2099 52.0314 82.7996 52.304 82.5774 52.5084ZM102.083 47.5168C102.63 47.4997 103.467 47.5849 103.963 47.6871C104.459 47.8064 105.331 48.1131 105.895 48.4027C106.459 48.6923 107.262 49.2715 107.69 49.6974C108.134 50.1404 108.562 50.6344 108.664 50.8218C108.835 51.1285 108.698 51.2648 105.382 53.3091L104.698 52.6106C104.322 52.2358 103.741 51.844 103.416 51.7418C103.091 51.6396 102.373 51.5714 101.843 51.6055C101.125 51.6566 100.698 51.8099 100.151 52.1847C99.7406 52.4744 99.2449 53.0366 99.0227 53.4625C98.732 54.0076 98.6124 54.5017 98.6295 55.2172C98.6295 55.8305 98.7491 56.4268 98.9543 56.8357C99.1252 57.1764 99.5013 57.6704 99.7577 57.926C100.031 58.1815 100.544 58.5052 100.886 58.6585C101.245 58.7948 101.843 58.9141 102.219 58.9141C102.595 58.9141 103.194 58.7948 103.536 58.6585C103.895 58.5052 104.459 58.1134 105.45 57.1253L108.886 59.2548L108.493 59.8C108.288 60.1066 107.809 60.6518 107.433 61.0096C107.057 61.3673 106.288 61.8784 105.724 62.151C105.16 62.4236 104.117 62.7473 103.416 62.8665C102.407 63.0369 101.895 63.0369 100.971 62.8665C100.339 62.7643 99.3816 62.4576 98.8346 62.2021C98.3047 61.9466 97.4157 61.2992 96.8516 60.7881C96.1678 60.1577 95.6721 59.4763 95.2789 58.6585C94.937 57.9601 94.6293 57.0231 94.5438 56.3586C94.4583 55.7283 94.4583 54.7913 94.5438 54.1439C94.6293 53.4965 94.937 52.5595 95.2789 51.844C95.6037 51.1796 96.2362 50.2767 96.7149 49.7996C97.1764 49.3397 97.9286 48.7434 98.3901 48.4878C98.8517 48.2323 99.6552 47.9257 100.168 47.7723C100.681 47.636 101.553 47.5168 102.083 47.5168ZM136.067 47.5168C136.683 47.5168 137.52 47.5849 137.948 47.6871C138.375 47.7894 139.144 48.079 139.657 48.3175C140.17 48.573 141.025 49.2034 141.555 49.7145C142.085 50.2256 142.734 51.1114 143.025 51.6736C143.315 52.2358 143.64 53.1899 143.76 53.8032C143.88 54.4165 143.931 55.3705 143.88 55.9327C143.828 56.4949 143.623 57.3808 143.435 57.8919C143.247 58.403 142.751 59.2889 142.341 59.8511C141.931 60.4133 141.179 61.1629 140.666 61.5206C140.153 61.8614 139.332 62.3043 138.837 62.4917C138.341 62.6791 137.469 62.8836 136.871 62.9347C136.255 63.0028 135.383 62.9517 134.785 62.8324C134.221 62.7302 133.332 62.4236 132.819 62.1851C132.306 61.9295 131.417 61.3162 130.87 60.7881C130.204 60.1577 129.691 59.4592 129.281 58.6585C128.939 57.943 128.631 57.006 128.528 56.3246C128.426 55.5579 128.426 54.7913 128.545 54.0247C128.648 53.3943 128.939 52.4403 129.195 51.9292C129.451 51.4181 129.93 50.6685 130.255 50.2596C130.58 49.8508 131.264 49.2374 131.776 48.8967C132.272 48.556 133.195 48.096 133.828 47.8916C134.529 47.6531 135.366 47.5168 136.067 47.5168ZM133.298 53.2069C132.888 53.8202 132.717 54.2632 132.665 54.9105C132.631 55.3705 132.7 56.069 132.819 56.4438C132.956 56.8186 133.281 57.3979 133.571 57.7045C133.862 58.0282 134.409 58.4371 134.785 58.6074C135.161 58.7778 135.742 58.9141 136.067 58.9141C136.392 58.9141 136.973 58.8119 137.349 58.7096C137.725 58.5904 138.324 58.1986 138.666 57.8578C139.11 57.4149 139.401 56.9208 139.589 56.2394C139.76 55.609 139.811 55.0298 139.743 54.655C139.674 54.3313 139.486 53.7862 139.315 53.4625C139.144 53.1388 138.819 52.6958 138.597 52.4914C138.375 52.287 137.913 51.9973 137.554 51.861C137.213 51.7077 136.546 51.5885 136.101 51.5885C135.554 51.5885 135.041 51.7248 134.58 51.9973C134.204 52.2018 133.623 52.764 133.298 53.2069ZM153.333 47.5168C153.948 47.5168 154.82 47.602 155.299 47.7383C155.76 47.8575 156.53 48.1301 157.008 48.3516C157.47 48.573 158.342 49.2374 158.923 49.8337C159.521 50.43 160 50.9922 160 51.0774C160 51.1796 159.231 51.7077 156.581 53.2921L156.017 52.7129C155.709 52.3892 155.179 52.0144 154.82 51.861C154.478 51.7077 153.795 51.5885 153.333 51.5885C152.82 51.5885 152.205 51.7248 151.829 51.9122C151.487 52.0996 150.991 52.4573 150.735 52.7299C150.478 52.9854 150.153 53.4965 149.999 53.8543C149.863 54.195 149.743 54.7743 149.743 55.132C149.743 55.4727 149.811 56.0349 149.914 56.3586C149.999 56.6823 150.324 57.2616 150.632 57.6193C150.94 57.9941 151.504 58.4371 151.88 58.6074C152.256 58.7778 152.906 58.9141 153.333 58.9141C153.76 58.9141 154.427 58.7608 154.82 58.5734C155.231 58.386 155.778 57.9941 156.564 57.1253L158.205 58.1475C159.128 58.7096 159.897 59.2037 159.932 59.2548C159.966 59.3059 159.761 59.6637 159.487 60.0726C159.197 60.4644 158.649 61.0266 158.239 61.3162C157.846 61.6229 157.094 62.0488 156.581 62.2873C156.068 62.5258 155.145 62.7984 154.53 62.8836C153.743 63.0198 153.059 63.0028 152.222 62.8665C151.555 62.7643 150.529 62.4236 149.914 62.134C149.196 61.8103 148.461 61.2651 147.863 60.6348C147.35 60.1066 146.717 59.2548 146.461 58.7437C146.204 58.2326 145.931 57.466 145.828 57.0401C145.726 56.6142 145.64 55.7624 145.64 55.132C145.64 54.4846 145.777 53.5306 145.948 53.0025C146.102 52.4573 146.495 51.6396 146.786 51.1626C147.076 50.7026 147.657 50.0041 148.051 49.6293C148.461 49.2374 149.145 48.7264 149.572 48.4878C149.999 48.2323 150.769 47.9086 151.282 47.7723C151.794 47.636 152.718 47.5168 153.333 47.5168ZM49.0544 86.5129C49.9946 86.5129 50.2511 86.5641 50.2511 86.7685C50.2511 86.9389 50.0801 87.024 49.8237 87.024C49.3963 87.024 49.3963 87.0581 49.3963 88.3018C49.3963 89.3239 49.345 89.5795 49.1399 89.5795C48.9348 89.5795 48.8835 89.3239 48.8835 87.024H48.3706C48.0287 87.024 47.8578 86.9389 47.8578 86.7685C47.8578 86.5641 48.0971 86.5129 49.0544 86.5129ZM50.952 86.5129C51.0374 86.5129 51.3451 86.8537 51.6528 87.2796C51.9605 87.6885 52.2854 88.0292 52.3879 88.0292C52.4734 88.0292 52.7982 87.6885 53.1059 87.2796C53.4136 86.8537 53.7555 86.547 53.8752 86.5811C54.029 86.6152 54.1145 87.0922 54.1316 88.1144C54.1658 89.3239 54.1316 89.5795 53.9265 89.5795C53.7213 89.5795 53.67 89.341 53.6529 87.4499L52.3879 88.9151L51.1229 87.4499L51.1058 88.5232C51.1058 89.341 51.0374 89.5795 50.8494 89.5795C50.6442 89.5795 50.5759 89.3069 50.5588 88.1655C50.5417 87.3818 50.593 86.7003 50.6784 86.6322C50.7468 86.5641 50.8836 86.5129 50.952 86.5129Z" fill="white"/>
<path fill-rule="evenodd" clip-rule="evenodd" d="M14.0978 30.7361C14.6619 30.5828 15.5851 30.3954 16.1492 30.3102C16.7133 30.2251 17.9783 30.1569 18.9698 30.1399C19.9613 30.1228 21.6024 30.208 22.6452 30.3102C23.688 30.4125 25.2266 30.6339 26.0642 30.8043C26.9018 30.9747 28.4404 31.3835 29.4832 31.7243C30.526 32.0479 32.2013 32.7464 33.244 33.2746C34.2868 33.8027 35.7399 34.6715 36.4921 35.1997C37.2442 35.7278 38.5776 36.9033 39.4837 37.7892C40.3726 38.6751 41.6034 40.1061 42.2017 40.9409C42.8 41.7927 43.7745 43.4623 44.3557 44.6889C44.954 45.8985 45.7062 47.7384 46.031 48.7776C46.3558 49.8168 46.7831 51.4523 46.9883 52.4404C47.1763 53.4285 47.4157 54.8766 47.5011 55.6773C47.6037 56.4781 47.7234 58.2328 47.7917 59.5957C47.843 60.9586 47.8088 64.0592 47.7063 66.4954C47.6037 68.9316 47.4498 71.7256 47.3473 72.7137C47.2447 73.7018 47.0054 75.3373 46.8344 76.3765C46.6635 77.4157 46.3045 78.949 46.0652 79.7838C45.8258 80.6185 45.2959 82.0155 44.8856 82.8503C44.4753 83.6851 43.8086 84.8436 43.3813 85.4058C42.9539 85.9679 42.1846 86.7516 41.6889 87.1435C41.176 87.5353 40.27 88.0805 39.6546 88.3701C39.0392 88.6597 38.0819 89.0175 37.5177 89.1708C36.9536 89.3241 35.5347 89.4774 34.3552 89.5285C33.056 89.5967 31.6542 89.5456 30.7653 89.4093C29.9618 89.3071 28.6968 89.0174 27.9446 88.7789C27.1925 88.5404 25.7736 87.9442 24.7821 87.4331C23.7906 86.922 22.2862 86.002 21.4144 85.3717C20.5597 84.7243 19.0553 83.4806 18.0638 82.5948C17.0723 81.7089 16.2689 80.9593 16.286 80.9593C16.2979 80.9474 16.6825 80.9933 17.2324 81.0683C17.4559 81.105 17.6675 81.1372 17.8607 81.1635C19.4163 81.3679 20.6642 81.419 22.9891 81.3509C24.6815 81.2998 26.6816 81.1465 27.4338 81.0102C28.1859 80.8739 29.451 80.5843 30.2544 80.3798C31.0579 80.1754 32.2887 79.8006 32.9896 79.545C33.6905 79.2895 34.9897 78.7273 35.8615 78.3184C36.7334 77.9096 37.4513 77.5177 37.4343 77.4496C37.4343 77.4461 37.4337 77.4416 37.4326 77.4362C37.4326 77.435 37.4325 77.4338 37.4323 77.4327C37.4323 77.3646 37.0904 76.6831 36.663 75.8995C36.5001 75.5951 36.3319 75.2908 36.1807 75.0238C35.9519 74.6161 35.7625 74.2981 35.6906 74.1956C35.6054 74.0754 35.535 74.011 35.3729 74.0279C35.145 74.0509 34.7348 74.2361 33.8424 74.6558C32.9534 75.0817 31.5175 75.6439 30.6798 75.9335C29.8422 76.2061 28.2523 76.615 27.1754 76.8194C26.4874 76.9566 25.9314 77.0509 25.3267 77.114C24.5043 77.1998 23.5915 77.2281 22.1344 77.2281C20.3565 77.2281 18.5445 77.1259 17.8607 77.0066C17.2111 76.8874 15.9802 76.6148 15.1597 76.4104C14.185 76.1715 13.748 75.9922 13.7509 75.8446C13.752 75.8401 13.7537 75.8357 13.7559 75.8313C13.805 75.7173 18.277 69.0772 33.2541 46.9754L35.3829 43.8369V40.3444H8.71492V40.3446H8.71294V44.4334H10.5261C25.1814 44.4367 29.0677 44.4819 29.5229 44.5813C29.5534 44.5885 29.5686 44.5959 29.5686 44.6037C29.5686 44.6305 29.266 45.102 28.7221 45.9265C27.4644 47.8284 24.924 51.6039 21.8883 56.0967C21.1908 57.1263 20.4657 58.1948 19.722 59.289C18.9289 60.4584 18.1552 61.5982 17.412 62.6924C16.1087 64.609 14.8869 66.4059 13.8179 67.9786C12.101 70.5012 10.7935 72.4189 10.1543 73.3564L10.1529 73.3584C9.88384 73.753 9.73359 73.9734 9.72153 73.9914C9.61897 74.0936 9.37964 73.9744 9.03774 73.6507C8.74713 73.3781 7.99496 72.5263 7.34535 71.7767C6.71284 71.0271 5.75553 69.7664 5.2085 68.9657C4.67856 68.165 3.82381 66.6828 3.32806 65.6436C2.83231 64.6044 2.18271 63.1222 1.90919 62.3215C1.63568 61.5208 1.2083 59.9875 0.968977 58.9142C0.729649 57.841 0.439037 56.1203 0.319373 55.0811C0.199709 53.9907 0.165519 52.219 0.216804 50.822C0.268088 49.4932 0.473226 47.6021 0.678364 46.5629C0.883502 45.5237 1.27668 43.9904 1.5673 43.1556C1.85791 42.3209 2.38785 41.0091 2.76393 40.2595C3.14002 39.5099 3.80672 38.3684 4.25119 37.721C4.67856 37.0566 5.61877 35.9322 6.31966 35.2167C7.02055 34.5012 8.25138 33.479 9.05484 32.9679C9.85829 32.4568 11.0891 31.7924 11.79 31.5028C12.4909 31.2302 13.5337 30.8724 14.0978 30.7361ZM34.8689 56.8191C35.1937 56.8702 35.7578 57.0916 36.0997 57.3131C36.4587 57.5346 36.869 57.8923 37.0057 58.1138C37.1425 58.3182 37.3305 58.7953 37.416 59.1701C37.5186 59.596 37.5186 60.1241 37.4331 60.533C37.3476 60.9078 37.1254 61.4018 36.9545 61.6403C36.7664 61.8788 36.3732 62.2366 36.0484 62.4581C35.7236 62.6796 35.1937 62.884 34.8689 62.9521C34.5441 63.0032 33.9629 62.9521 33.5868 62.8329C33.2107 62.7136 32.6124 62.3388 32.2876 61.9981C31.9457 61.6744 31.5696 61.0781 31.4499 60.7033C31.3303 60.3285 31.279 59.7493 31.3303 59.4256C31.3986 59.1019 31.6038 58.5738 31.826 58.2501C32.0482 57.9264 32.4072 57.5346 32.6466 57.3472C32.8859 57.1768 33.3474 56.9553 33.6722 56.8872C33.9971 56.802 34.5441 56.785 34.8689 56.8191ZM10.1668 56.8361C10.4404 56.8872 10.8677 57.0235 11.1071 57.1257C11.3464 57.245 11.7225 57.5516 11.9618 57.8242C12.2011 58.0968 12.5088 58.6249 12.6285 58.9997C12.7653 59.4256 12.8165 59.9537 12.7482 60.3626C12.6798 60.7374 12.4746 61.2826 12.2695 61.5552C12.0815 61.8448 11.7396 62.2025 11.5173 62.3729C11.2951 62.5262 10.7823 62.7477 10.372 62.8499C9.84203 63.0032 9.46595 63.0032 8.91891 62.8499C8.52573 62.7477 7.9616 62.4581 7.65389 62.2025C7.36328 61.947 7.02138 61.5211 6.88463 61.2655C6.76496 61.01 6.6453 60.4308 6.6453 59.9878C6.6282 59.4938 6.74787 58.8975 6.93591 58.5056C7.10686 58.1308 7.48295 57.6538 7.77356 57.4494C8.04708 57.2279 8.59411 56.9894 8.9702 56.9042C9.34628 56.8191 9.87622 56.785 10.1668 56.8361Z" fill="white"/>
</svg>
