<svg width="160" height="120" viewBox="0 0 160 120" fill="none" xmlns="http://www.w3.org/2000/svg">
<path d="M37.6604 25.615C37.6604 25.615 41.0578 38.5123 56.6166 40.7078C58.2924 40.9445 70.6876 41.2979 75.1416 41.2222C75.1698 41.2222 75.1961 41.2251 75.2231 41.2319C75.7045 41.3605 80.1551 42.6944 75.4814 46.8577C74.7369 47.5207 68.9936 53.1471 68.9936 53.1471L55.9576 65.7741L39.7304 81.4662C39.7304 81.4662 34.9841 85.1554 36.1989 92.6535C37.4138 100.151 43.8454 101.686 45.3461 102.06C46.8468 102.435 60.6384 102.199 60.6384 102.199H76.0736C76.0736 102.199 78.3604 101.713 76.1093 99.9079C73.8583 98.1029 71.2692 95.2945 71.3928 88.4879C71.4643 84.5653 76.3952 80.0179 76.3952 80.0179L86.0777 70.7495L95.0819 61.9323L105.015 52.2826L115.948 41.5916L120.843 36.8706C120.843 36.8706 127.274 30.1487 121.522 21.9098C118.735 17.9183 114.697 16.8758 110.204 16.9475C106.041 17.0141 95.8211 16.9441 95.8211 16.9441H38.7669C38.7669 16.9441 35.5107 16.75 36.213 20.2305C36.5135 21.7191 37.6604 25.6155 37.6604 25.6155V25.615Z" fill="white"/>
<path d="M111.501 102.357C118.404 102.357 124 96.9201 124 90.2138C124 83.5075 118.404 78.071 111.501 78.071C104.598 78.071 99.0024 83.5075 99.0024 90.2138C99.0024 96.9201 104.598 102.357 111.501 102.357Z" fill="white"/>
</svg>
