<svg width="160" height="120" viewBox="0 0 160 120" fill="none" xmlns="http://www.w3.org/2000/svg">
<g clip-path="url(#clip0_1607_31525)">
<mask id="mask0_1607_31525" style="mask-type:luminance" maskUnits="userSpaceOnUse" x="0" y="40" width="160" height="41">
<path d="M159.315 40.001H0.00793457V80.961H159.315V40.001Z" fill="white"/>
</mask>
<g mask="url(#mask0_1607_31525)">
<path d="M29.8087 65.0008C28.5216 64.2528 27.0697 64.0371 25.6312 63.99C24.4247 63.9495 22.6266 63.1743 22.6266 60.957C22.6336 60.1583 22.9517 59.3941 23.5131 58.8273C24.0744 58.2607 24.8346 57.9366 25.6312 57.9243C27.0697 57.8738 28.5216 57.6581 29.8087 56.9133C30.9645 56.2423 31.9238 55.2782 32.5905 54.1178C33.2571 52.9574 33.6075 51.6416 33.6065 50.3025C33.6055 48.9633 33.2532 47.648 32.5847 46.4887C31.9165 45.3293 30.9556 44.3666 29.7989 43.6973C28.6421 43.028 27.3301 42.6756 25.9946 42.6755C24.659 42.6755 23.347 43.0277 22.19 43.6969C21.0333 44.3661 20.0724 45.3287 19.404 46.4881C18.7355 47.6474 18.383 48.9626 18.3818 50.3018C18.3818 51.7811 18.9061 53.1425 19.5783 54.4062C20.1396 55.4677 20.4253 57.4391 18.4928 58.5544C17.7943 58.944 16.9714 59.0439 16.2005 58.8321C15.4295 58.6204 14.772 58.1142 14.369 57.4222C13.6128 56.209 12.6886 55.0633 11.4216 54.3321C10.2643 53.6627 8.95175 53.3106 7.61577 53.311C6.27979 53.3114 4.96743 53.6643 3.81058 54.3343C2.65371 55.0043 1.69309 55.9678 1.02521 57.128C0.357339 58.2882 0.0057373 59.604 0.0057373 60.9436C0.0057373 62.2831 0.357339 63.5991 1.02521 64.7593C1.69309 65.9193 2.65371 66.8829 3.81058 67.5528C4.96743 68.2228 6.27979 68.5758 7.61577 68.5763C8.95175 68.5766 10.2643 68.2245 11.4216 67.5552C12.6987 66.8138 13.6128 65.6782 14.369 64.4651C14.9908 63.4541 16.5401 62.2005 18.4928 63.3327C19.1786 63.7447 19.6761 64.4098 19.8785 65.1855C20.0807 65.961 19.9718 66.7851 19.575 67.4809C18.9029 68.7447 18.3818 70.1061 18.3818 71.5855C18.382 72.9257 18.7338 74.2423 19.4021 75.403C20.0705 76.5635 21.0317 77.5274 22.1892 78.1976C23.3468 78.8678 24.6598 79.2208 25.9965 79.2209C27.3332 79.2211 28.6462 78.8685 29.804 78.1986C30.9616 77.5288 31.9231 76.5654 32.5919 75.4048C33.2605 74.2443 33.6127 72.9279 33.6132 71.5877C33.6137 70.2475 33.2624 68.9308 32.5946 67.7699C31.9267 66.6088 30.966 65.6446 29.8087 64.9739V65.0008Z" fill="white"/>
<path d="M44.0872 49.3759H49.3871V51.8831C50.0938 51.0209 50.9818 50.3258 51.9874 49.8476C52.9932 49.3693 54.0918 49.1197 55.2048 49.1165C55.9597 49.0881 56.7146 49.1756 57.4431 49.3759V55.4416C57.4431 55.4416 56.7105 55.1821 54.9461 55.1821C51.9212 55.1821 49.9047 57.2041 49.9047 60.2368V72.6209H44.0872V49.3759ZM72.5702 49.3759H77.8703V51.6236C79.6798 50.0217 82.0068 49.1311 84.4206 49.1165C90.2381 49.1165 95.2795 54.1712 95.2795 60.9983C95.2795 67.8257 90.2381 72.8803 84.4206 72.8803C82.1978 72.886 80.0504 72.0715 78.3879 70.5922V80.961H72.5702V49.3759ZM89.4618 60.9983C89.4618 57.1972 86.9614 54.6901 83.6878 54.6901C80.4145 54.6901 77.8703 57.1872 77.8703 60.9983C77.8703 64.8097 80.4111 67.2966 83.6912 67.2966C86.9714 67.2966 89.4618 64.8028 89.4618 60.9983ZM99.5443 49.3759H104.844V51.6236C106.654 50.0225 108.981 49.132 111.395 49.1165C117.212 49.1165 122.254 54.1712 122.254 60.9983C122.254 67.8257 117.212 72.8803 111.395 72.8803C109.172 72.8841 107.026 72.07 105.362 70.5922V80.961H99.5443V49.3759ZM116.439 60.9983C116.439 57.1972 113.939 54.6901 110.662 54.6901C107.385 54.6901 104.844 57.1872 104.844 60.9983C104.844 64.8097 107.389 67.2966 110.662 67.2966C113.935 67.2966 116.439 64.8028 116.439 60.9983ZM126.522 40.7796H132.34V72.6209H126.522V40.7796ZM136.604 60.9983C136.604 54.434 141.905 49.1165 148.196 49.1165C154.269 49.1165 159.31 53.9151 159.31 60.9983C159.286 61.768 159.199 62.5343 159.051 63.2899H142.896C143.413 65.5376 145.195 67.2966 148.196 67.2966C150.911 67.2966 151.99 66.0463 151.99 66.0463H158.282C157.116 69.0792 153.496 72.8703 148.199 72.8703C141.905 72.8803 136.604 67.5661 136.604 60.9983ZM153.745 59.2292C153.48 57.947 152.783 56.7954 151.77 55.9686C150.758 55.1418 149.492 54.6903 148.186 54.6903C146.88 54.6903 145.614 55.1418 144.601 55.9686C143.589 56.7954 142.892 57.947 142.627 59.2292H153.745ZM60.8375 43.2833C60.8375 42.4066 61.1849 41.5657 61.8032 40.9458C62.4215 40.3258 63.2601 39.9775 64.1345 39.9775C65.0089 39.9775 65.8475 40.3258 66.4659 40.9458C67.0841 41.5657 67.4315 42.4066 67.4315 43.2833C67.4315 44.1601 67.0841 45.0009 66.4659 45.6209C65.8475 46.2408 65.0089 46.5891 64.1345 46.5891C63.2601 46.5891 62.4215 46.2408 61.8032 45.6209C61.1849 45.0009 60.8375 44.1601 60.8375 43.2833ZM61.2274 49.3759H67.0552V72.6276H61.2375L61.2274 49.3759Z" fill="#FAFAFA"/>
</g>
</g>
<defs>
<clipPath id="clip0_1607_31525">
<rect width="160" height="40.96" fill="white" transform="translate(0 40)"/>
</clipPath>
</defs>
</svg>
