<svg width="160" height="120" viewBox="0 0 160 120" fill="none" xmlns="http://www.w3.org/2000/svg">
<path d="M0 36.4491V35.9983V35.5476L5.44312 35.5823L8.23749 42.6206C10.4147 48.0848 11.0527 49.6381 11.1151 49.5687C11.1636 49.5202 12.5088 46.3512 17.0228 35.5823L21.821 35.5476L21.8418 36.4491H21.3911C21.1415 36.4491 20.8711 36.4837 20.7879 36.5253C20.6977 36.5739 20.4897 36.7264 20.3164 36.8651C20.143 37.0038 19.9003 37.2742 19.5536 37.8012V44.8742C19.5536 51.8224 19.5536 51.9541 19.6923 52.1691C19.7686 52.2939 19.9766 52.5435 20.1638 52.7238C20.3441 52.8972 20.5868 53.0983 20.6977 53.1745C20.8433 53.2647 21.0444 53.2994 21.8418 53.2994V54.2008H14.6999V53.2994H15.1991C15.629 53.3063 15.7469 53.2786 15.9827 53.1191C16.1352 53.022 16.364 52.8417 16.4888 52.7238C16.6206 52.599 16.7939 52.3771 17.0574 51.9472L17.0228 38.3005L13.6667 46.3027C11.8223 50.7059 10.2969 54.3256 10.2691 54.3534C10.2483 54.3811 8.73673 50.7614 6.91311 46.3096C5.08949 41.8578 3.57096 38.1688 3.53629 38.1133C3.49469 38.0509 3.46696 40.5542 3.46696 51.8778L3.66804 52.1899C3.77898 52.3632 3.95926 52.5851 4.07021 52.6822C4.17421 52.7862 4.38917 52.9526 4.54171 53.0497C4.77746 53.2092 4.89534 53.237 5.82449 53.23V54.1315H0V53.23H0.499242C0.949946 53.237 1.04009 53.2092 1.28277 53.0359C1.43532 52.9249 1.71961 52.6683 1.90683 52.4603C2.19805 52.1483 2.26739 52.0235 2.30899 51.7391C2.33673 51.545 2.35753 48.3275 2.35753 44.576C2.35753 38.8206 2.34366 37.7388 2.26045 37.5724C2.20498 37.4684 1.99697 37.2257 1.78895 37.0315C1.58787 36.8374 1.34518 36.6224 1.2481 36.56C1.12329 36.4837 0.92221 36.4491 0 36.4491Z" fill="white"/>
<path d="M33.3521 36.4491V35.9983V35.5476H40.494V36.4491H40.0295C39.6204 36.4421 39.5164 36.4768 39.2459 36.6502C39.0726 36.7611 38.8507 36.9414 38.7536 37.0523C38.6496 37.1564 38.4832 37.3713 38.2058 37.8012V41.629C38.2058 43.737 38.2267 45.4636 38.2613 45.4567C38.2891 45.4567 39.7937 43.7855 41.6035 41.7538C43.4132 39.7151 44.904 37.9885 44.9179 37.9053C44.9248 37.829 44.8763 37.6487 44.8139 37.5031C44.7445 37.3644 44.5226 37.0662 43.9263 36.4491H42.8516V35.5476H49.5775V36.3797H49.1476C48.7523 36.3728 48.6622 36.4075 48.156 36.7056C47.8509 36.8859 47.4141 37.1841 47.1853 37.3644C46.9564 37.5377 46.5196 37.9469 46.2076 38.2658C45.8956 38.5779 44.7792 39.7706 43.7252 40.9009C42.6713 42.0381 41.8184 42.995 41.8323 43.0297C41.8392 43.0644 43.2953 45.0198 45.0704 47.3706C46.8455 49.7282 48.4195 51.7669 48.572 51.9056C48.7246 52.0443 49.0366 52.287 49.2654 52.4395C49.4943 52.599 49.8756 52.8209 50.1183 52.9457C50.5135 53.1399 50.6106 53.1607 51.2069 53.1607C51.6784 53.1607 51.9281 53.126 52.0945 53.0428C52.2123 52.9804 52.4134 52.8556 52.5244 52.7585C52.6423 52.6683 52.8364 52.4603 53.19 52.0165L53.1831 44.0074L52.9196 43.6746C52.774 43.4943 52.5036 43.2447 52.3164 43.1198C52.0182 42.9257 51.9142 42.891 51.1029 42.8979V42.0658H55.4713L55.4644 52.0165L55.6932 52.3008C55.818 52.4603 56.0191 52.6683 56.13 52.7585C56.2479 52.8556 56.449 52.9873 56.5807 53.0567C56.7818 53.1537 56.9621 53.1676 57.6208 53.1537C58.4113 53.126 58.4251 53.1191 58.7649 52.8764C58.959 52.7446 59.2156 52.5019 59.5623 52.0512V43.9728L59.3404 43.6954C59.2156 43.5498 58.966 43.3071 58.7857 43.1614C58.4806 42.9187 58.4182 42.8979 57.5515 42.8979V42.0658H61.3304L61.4206 42.5304C61.4691 42.787 61.5801 43.3487 61.8158 44.5622L62.6132 43.7786C63.0501 43.3487 63.5701 42.8771 63.7573 42.7454C63.9515 42.6067 64.3398 42.3848 64.6241 42.2531C64.9083 42.1144 65.3313 41.9687 65.5601 41.9271C65.8028 41.8786 66.2951 41.8509 66.7389 41.8717C67.4392 41.8994 67.5432 41.9202 68.0217 42.149C68.3545 42.3085 68.6804 42.5374 68.9231 42.7731C69.138 42.9881 69.4015 43.3417 69.5263 43.5983C69.6511 43.841 69.7829 44.1808 69.8176 44.3541C69.8661 44.5483 69.8938 46.06 69.8938 52.0859L70.088 52.3632C70.1989 52.5158 70.4069 52.7377 70.5595 52.8556C70.7051 52.9734 70.8992 53.1052 70.9894 53.1468C71.0726 53.1953 71.3153 53.23 71.9047 53.23V54.1315H65.7335V53.23H66.1703C66.5378 53.23 66.6418 53.2023 66.8776 53.0359C67.0301 52.9249 67.2867 52.6822 67.7512 52.1552L67.7443 48.48C67.7443 45.8381 67.7166 44.7286 67.6611 44.5275C67.6056 44.3541 67.4392 44.1045 67.1965 43.8618C66.8984 43.5706 66.725 43.4527 66.4615 43.3833C66.2327 43.3209 65.9276 43.3071 65.5601 43.3279C65.2134 43.3556 64.8251 43.4319 64.52 43.5498C64.2566 43.6538 63.8197 43.8687 63.5493 44.0213C63.2858 44.1808 62.8906 44.4582 62.6826 44.6315C62.4745 44.8049 62.1972 45.103 61.8505 45.637V52.1552L62.0446 52.4326C62.1556 52.5851 62.3636 52.807 62.5161 52.9249C62.6618 53.0428 62.8559 53.1745 62.946 53.2161C63.0293 53.2647 63.2719 53.2994 63.8613 53.2994V54.2008H46.5612L43.3716 49.5548C41.6173 47.003 40.1612 44.9158 40.1335 44.9297C40.1057 44.9366 39.6758 45.3943 38.2752 46.9545V49.4855C38.2752 51.7253 38.2891 52.0373 38.3931 52.1899C38.4555 52.287 38.615 52.4811 38.7536 52.6267C38.8923 52.7724 39.135 52.9873 39.3014 53.0983C39.558 53.2716 39.655 53.2994 40.5634 53.2994V54.2008H33.3521V53.2994H33.8028C34.0524 53.2994 34.3229 53.2647 34.413 53.2161C34.4962 53.1745 34.7042 53.022 34.8776 52.8833C35.0509 52.7446 35.2936 52.4742 35.6472 51.9472V37.8012L35.4392 37.4892C35.3283 37.3158 35.148 37.094 35.0371 36.9899C34.933 36.8929 34.7181 36.7264 34.5655 36.6294C34.3367 36.4768 34.2119 36.4421 33.3521 36.4491Z" fill="white"/>
<path d="M146.86 67.9307V67.48V67.0292L153.205 67.0639V67.896L152.74 67.9099C152.289 67.9307 152.255 67.9446 151.977 68.2289C151.811 68.3883 151.61 68.6657 151.367 69.1442L152.768 72.3894C153.545 74.1715 154.189 75.6277 154.21 75.6277C154.231 75.6277 154.855 74.1785 156.963 69.2135L156.859 68.9015C156.79 68.7073 156.623 68.4577 156.415 68.2566C156.089 67.9376 156.075 67.9307 155.181 67.9307L155.195 67.0292L160 67.0639V67.896L159.619 67.9168C159.244 67.9372 159.237 67.9443 158.064 69.1446L157.996 69.2135L155.77 74.2756C154.543 77.0562 153.018 80.4887 152.373 81.9033C151.735 83.3109 151.138 84.6354 150.882 85.197L150.383 84.9474C150.105 84.8087 149.87 84.6839 149.863 84.67C149.849 84.6562 150.549 83.1653 151.409 81.3624C152.276 79.5664 152.969 78.0409 152.948 77.9854C152.927 77.9299 151.998 75.919 150.875 73.5267C149.183 69.907 148.781 69.1095 148.517 68.8113C148.344 68.6102 148.025 68.3329 147.81 68.1873C147.519 68 147.346 67.9307 146.86 67.9307Z" fill="white"/>
<path fill-rule="evenodd" clip-rule="evenodd" d="M2.69173 35.492C4.18252 35.4851 5.42369 35.4989 5.43756 35.5267C5.45143 35.5613 4.6679 35.5752 3.69022 35.5613C2.7056 35.5544 1.47136 35.5405 0.937453 35.5267C0.403542 35.5197 1.19401 35.4989 2.6848 35.492H2.69173ZM21.8848 35.5128V35.9843C21.8848 36.3796 21.8848 36.3796 21.8779 35.5475L19.4441 35.5613C18.1058 35.5752 17.0241 35.5613 17.0449 35.5267C17.0588 35.4989 18.1544 35.4851 21.8848 35.5128V35.5128ZM40.537 35.5128L40.5509 36.4836L40.5024 35.5475H33.3604L33.3327 36.4836L33.305 36.0745C33.2842 35.8526 33.2911 35.6238 33.3188 35.5752C33.3535 35.492 33.9637 35.4781 40.537 35.5128V35.5128ZM49.6205 35.5128L42.8599 35.5475L42.8321 36.4836L42.8044 36.0745C42.7836 35.8526 42.7905 35.6238 42.8113 35.5752C42.846 35.492 43.4423 35.4781 49.6205 35.5128ZM49.1351 36.4004C49.3986 36.4004 49.4956 36.4143 49.3431 36.4281C49.1905 36.442 48.9756 36.442 48.8577 36.4281C48.7398 36.4143 48.8716 36.4004 49.1351 36.4004ZM19.6105 41.2683C19.6243 43.2099 19.6243 46.4274 19.6105 48.4106C19.6035 50.3938 19.5966 48.7989 19.5966 44.8741C19.5966 40.9423 19.6035 39.3267 19.6105 41.2683ZM35.6278 41.2683C35.6417 43.2099 35.6417 46.4274 35.6278 48.4106C35.6209 50.3938 35.6139 48.7989 35.6139 44.8741C35.6139 40.9423 35.6209 39.3267 35.6278 41.2683ZM38.2627 39.084C38.2766 39.8259 38.2904 41.5664 38.2974 42.9533C38.3112 44.3332 38.2974 45.4635 38.2627 45.4635C38.235 45.4635 38.2211 43.723 38.228 41.5942C38.2419 39.4723 38.2558 38.342 38.2627 39.084ZM3.50993 38.0438C3.5238 38.0646 3.5446 41.185 3.5446 44.9781C3.53767 48.7711 3.5238 51.8916 3.503 51.9124C3.48913 51.9332 3.46833 48.8127 3.46833 44.9781C3.46833 41.1434 3.48913 38.023 3.50993 38.0438ZM17.038 38.3212C17.0519 38.3212 17.0588 41.4 17.0311 52.0164L16.9964 45.2555C16.9756 41.5387 16.9756 38.4529 16.9825 38.4044C16.9964 38.3628 17.0241 38.3212 17.038 38.3212V38.3212ZM66.5392 41.8161C66.8859 41.8161 67.0384 41.823 66.8859 41.8369C66.7333 41.8507 66.456 41.8507 66.2618 41.8369C66.0746 41.823 66.1925 41.8161 66.5392 41.8161ZM53.2954 42.0241C54.5158 42.0241 55.0289 42.038 54.4395 42.0449C53.8501 42.0588 52.8517 42.0588 52.2207 42.0449C51.5897 42.038 52.0751 42.0241 53.2954 42.0241ZM57.4904 41.9964L61.4081 42.031L57.5598 42.0657L57.5182 42.9325L57.4904 41.9964ZM2.34504 45.0821C2.35891 46.2609 2.35891 48.2303 2.34504 49.4507C2.3381 50.6711 2.33117 49.7003 2.33117 47.3011C2.33117 44.8949 2.3381 43.8963 2.34504 45.0821ZM63.1762 43.1752C63.1901 43.1752 62.8989 43.4872 62.5175 43.8686C62.1362 44.2431 61.8172 44.5482 61.8033 44.5412C61.7964 44.5343 62.0946 44.2223 62.4621 43.8547C62.8365 43.4803 63.1554 43.1752 63.1762 43.1752V43.1752ZM69.9507 46.6076C69.9645 47.5992 69.9645 49.2496 69.9507 50.2828C69.9437 51.3091 69.9368 50.4978 69.9368 48.4799C69.9368 46.4551 69.9437 45.616 69.9507 46.6076ZM61.9073 47.1971C61.9212 48.0916 61.9212 49.5894 61.9073 50.5255C61.9004 51.4616 61.8865 50.7266 61.8865 48.896C61.8865 47.0653 61.9004 46.3025 61.9073 47.1971ZM51.2153 53.1189C51.6313 53.1189 51.8185 53.1259 51.6313 53.1397C51.4371 53.1536 51.0974 53.1536 50.8686 53.1397C50.6397 53.1259 50.7923 53.1189 51.2153 53.1189ZM57.5251 53.1189C57.9827 53.1189 58.1838 53.1259 57.9758 53.1397C57.7678 53.1536 57.3934 53.1536 57.1437 53.1397C56.8941 53.1259 57.0675 53.1189 57.5251 53.1189ZM71.9407 53.1952L71.9615 53.6113C71.9754 53.8401 71.9684 54.0689 71.9476 54.1105C71.9199 54.1799 71.2404 54.1937 65.7071 54.166L71.913 54.1313L71.9407 53.1952ZM21.8779 53.2646L21.8987 53.6806C21.9125 53.9094 21.9056 54.1383 21.8848 54.1799C21.8571 54.2492 21.0805 54.2631 14.6735 54.2354L21.8501 54.2007L21.8779 53.2646ZM33.3188 53.2646L33.3604 54.2007L40.5717 54.2354H33.3258L33.3188 53.2646ZM2.92749 54.166C4.55002 54.166 5.20181 54.1729 4.38361 54.1799C3.56541 54.1937 2.23409 54.1937 1.43669 54.1799C0.632361 54.1729 1.30495 54.166 2.92749 54.166ZM55.2092 54.2354C59.9936 54.2354 61.942 54.2423 59.5429 54.2492C57.1368 54.2631 53.2261 54.2631 50.8408 54.2492C48.4556 54.2423 50.4248 54.2354 55.2092 54.2354ZM146.855 67.2024C146.869 67.3203 146.869 67.5353 146.855 67.6878C146.841 67.8404 146.827 67.7433 146.827 67.4798C146.827 67.2163 146.841 67.0846 146.855 67.2024ZM155.175 67.2024C155.189 67.3203 155.189 67.5353 155.175 67.6878C155.162 67.8404 155.148 67.7433 155.148 67.4798C155.148 67.2163 155.162 67.0846 155.175 67.2024Z" fill="#051C2C" fill-opacity="0.5"/>
<path fill-rule="evenodd" clip-rule="evenodd" d="M54.0513 36.1716C54.4258 36.1716 54.6061 36.2063 54.8487 36.3311C55.0221 36.4213 55.2509 36.6224 55.3688 36.7888C55.5352 37.0245 55.5837 37.1771 55.6045 37.5099C55.6184 37.7526 55.5907 38.0578 55.5352 38.2172C55.4867 38.3698 55.348 38.5986 55.237 38.7304C55.1192 38.8621 54.8834 39.0286 54.7101 39.1048C54.5159 39.188 54.2386 39.2435 53.982 39.2435C53.6977 39.2435 53.4758 39.2019 53.2886 39.1048C53.1361 39.0286 52.9211 38.8552 52.8032 38.7234C52.6854 38.5848 52.5536 38.3559 52.512 38.2103C52.4635 38.0578 52.4219 37.822 52.4219 37.6833C52.4219 37.5377 52.4704 37.3019 52.5328 37.1632C52.5883 37.0176 52.7062 36.8027 52.7963 36.6917C52.8795 36.5808 53.0875 36.4143 53.2609 36.3311C53.4897 36.2132 53.6908 36.1716 54.0513 36.1716V36.1716ZM28.4999 41.7052C28.7842 41.7191 29.2557 41.7953 29.54 41.8647C29.8243 41.934 30.3235 42.1282 30.6425 42.2877C30.9684 42.4541 31.4329 42.7592 31.6825 42.9742C31.9322 43.1891 32.1332 43.3902 32.1263 43.4249C32.1194 43.4596 31.738 44.0906 30.4414 46.157H29.7827L29.8104 45.311C29.8243 44.68 29.8035 44.361 29.7272 44.0767C29.6648 43.8687 29.5261 43.5705 29.4152 43.418C29.2973 43.2654 29.0407 43.0504 28.8396 42.9326C28.5207 42.7592 28.3681 42.7245 27.8412 42.7037C27.4945 42.6829 27.0507 42.7107 26.8496 42.7523C26.6555 42.7939 26.3088 42.9117 26.0938 43.0158C25.865 43.1198 25.5183 43.3763 25.3103 43.5913C25.0676 43.8271 24.8249 44.1669 24.6654 44.4928C24.5267 44.7771 24.3465 45.2625 24.2633 45.5676C24.1801 45.8935 24.1038 46.469 24.083 46.9544C24.0552 47.4884 24.0691 47.9876 24.1315 48.3413C24.1731 48.6464 24.3049 49.1457 24.4158 49.4508C24.5267 49.7559 24.7278 50.1719 24.8596 50.373C24.9913 50.5672 25.2201 50.8654 25.3658 51.0179C25.5044 51.1774 25.7957 51.427 26.0037 51.5657C26.2117 51.7113 26.5237 51.8916 26.6971 51.9679C26.8704 52.0442 27.2518 52.1551 27.5499 52.2175C27.8412 52.28 28.3889 52.3285 28.7634 52.3285C29.1378 52.3285 29.6093 52.2869 29.8381 52.2245C30.0531 52.169 30.4275 52.0234 30.6702 51.9055C30.9059 51.7807 31.2873 51.5033 31.5161 51.2814C31.7449 51.0665 32.0292 50.7267 32.1402 50.5325C32.3482 50.1789 32.3482 50.1789 33.0763 50.1789L32.9445 50.5464C32.8752 50.7405 32.7296 51.0942 32.6256 51.323C32.5285 51.5519 32.3066 51.9402 32.1471 52.1898C31.9807 52.4394 31.6271 52.8416 31.3636 53.0913C31.1001 53.3409 30.6633 53.6599 30.3998 53.7986C30.1363 53.9373 29.6717 54.1245 29.3666 54.2146C28.8951 54.3464 28.6455 54.3741 27.7371 54.3741C26.8011 54.3741 26.6 54.3533 26.1423 54.2077C25.8581 54.1175 25.449 53.9581 25.2409 53.854C25.0329 53.75 24.6585 53.5004 24.4089 53.3062C24.1592 53.1121 23.8195 52.7792 23.6461 52.5712C23.4728 52.3701 23.2301 52.0303 23.1122 51.8292C22.9874 51.6281 22.7933 51.2468 22.6893 50.9763C22.5783 50.7059 22.4396 50.2898 22.3772 50.0402C22.3148 49.7906 22.2247 49.2635 22.1831 48.8614C22.1207 48.3136 22.1207 47.946 22.1762 47.3705C22.2247 46.9544 22.3218 46.3789 22.398 46.1085C22.4743 45.8311 22.6199 45.4081 22.717 45.1723C22.821 44.9296 23.0429 44.5205 23.2162 44.2501C23.3896 43.9796 23.6877 43.5982 23.8819 43.3902C24.076 43.1891 24.4227 42.884 24.6516 42.7245C24.8804 42.565 25.2271 42.3501 25.4143 42.253C25.6084 42.1628 25.9759 42.0103 26.2464 41.9271C26.5168 41.8439 27.0091 41.7537 27.3558 41.726C27.7025 41.6913 28.2156 41.6844 28.4999 41.7052V41.7052ZM76.3785 41.7468C77.0303 41.7745 77.2591 41.8161 77.9387 42.038C78.528 42.2322 78.8609 42.3015 79.2076 42.3015C79.6167 42.3085 79.6999 42.2877 79.8178 42.1559C79.9148 42.0311 80.0258 41.9964 80.5735 41.9964V45.6716H79.8802L79.7761 45.311C79.7137 45.1099 79.5681 44.7563 79.4433 44.5344C79.3185 44.3055 79.0342 43.9311 78.8054 43.7023C78.5627 43.4596 78.1744 43.1683 77.904 43.0227C77.6336 42.884 77.1967 42.7176 76.9332 42.6552C76.6074 42.572 76.2745 42.5442 75.9278 42.572C75.6089 42.5928 75.276 42.6621 75.0611 42.7523C74.8739 42.8355 74.6589 42.9603 74.5827 43.0227C74.5133 43.0851 74.3954 43.2654 74.3122 43.418C74.2221 43.5982 74.1666 43.834 74.1666 44.0767C74.1597 44.2847 74.1805 44.5413 74.2152 44.6523C74.2429 44.7563 74.3954 44.9851 74.5619 45.1585C74.7213 45.3318 75.0126 45.5676 75.1998 45.6716C75.3939 45.7825 75.9209 46.0322 76.3785 46.2263C76.8362 46.4205 77.6336 46.7533 78.1467 46.9683C78.6598 47.1763 79.2838 47.4606 79.5335 47.5993C79.7831 47.738 80.1853 48.0431 80.421 48.2719C80.6637 48.5008 80.9549 48.8475 81.0589 49.0347C81.1699 49.2289 81.3085 49.5687 81.364 49.7975C81.4264 50.0263 81.475 50.4285 81.475 50.6989C81.475 50.9694 81.4264 51.3785 81.3709 51.6212C81.3155 51.857 81.1837 52.2175 81.0867 52.4186C80.9827 52.6128 80.8024 52.904 80.6845 53.0566C80.5597 53.2092 80.2754 53.4588 80.0466 53.6183C79.8247 53.7708 79.4364 53.965 79.1868 54.0482C78.9371 54.1383 78.4864 54.2285 78.1813 54.2632C77.8763 54.2909 77.384 54.2909 77.0927 54.2562C76.7946 54.2285 76.1567 54.069 75.6713 53.9164C75.1374 53.7431 74.5896 53.6183 74.2984 53.5905C73.9447 53.5697 73.7575 53.5836 73.605 53.6599C73.4871 53.7223 73.3484 53.8194 73.2929 53.8818C73.2305 53.9511 73.0849 53.9997 72.6689 53.9927V49.7628H73.397L73.4524 50.0887C73.4802 50.276 73.5911 50.6088 73.702 50.8376C73.8061 51.0665 74.0349 51.4409 74.2082 51.6697C74.3816 51.8986 74.6728 52.2106 74.86 52.3701C75.0472 52.5227 75.3592 52.7446 75.5465 52.8624C75.7406 52.9734 76.0734 53.1329 76.2953 53.2161C76.5103 53.2993 76.9194 53.3894 77.1967 53.4241C77.4672 53.4519 77.9317 53.4519 78.216 53.431C78.5142 53.4033 78.8817 53.327 79.0828 53.2369C79.2769 53.1537 79.5057 53.015 79.5959 52.9318C79.686 52.8486 79.8178 52.6544 79.8871 52.5019C79.9634 52.3424 80.0188 52.065 80.0188 51.8431C80.0188 51.6351 79.9772 51.3369 79.9287 51.1913C79.8871 51.0387 79.7068 50.7614 79.5335 50.5741C79.3601 50.3869 79.0689 50.1442 78.8747 50.0402C78.6875 49.9292 78.0427 49.6449 77.4533 49.3953C76.8639 49.1526 76.0526 48.799 75.6505 48.6187C75.2483 48.4314 74.7075 48.1541 74.4509 48.0015C74.1874 47.842 73.7853 47.53 73.5564 47.3011C73.3137 47.0584 73.0572 46.7117 72.9393 46.469C72.8284 46.2402 72.7105 45.8519 72.6758 45.6022C72.6412 45.3387 72.6412 44.9366 72.6758 44.6314C72.7036 44.3471 72.759 44.0143 72.7937 43.9034C72.8284 43.7924 72.9393 43.5289 73.0433 43.3347C73.1404 43.1336 73.3692 42.8216 73.5564 42.6482C73.7367 42.4749 74.0695 42.2391 74.2984 42.1282C74.5272 42.0172 74.9155 41.8785 75.1651 41.8231C75.4702 41.7537 75.8654 41.7329 76.3785 41.7468V41.7468ZM87.8195 41.7953C88.1246 41.7953 88.5961 41.8369 88.8596 41.8924C89.1231 41.9479 89.5946 42.1143 89.8997 42.2669C90.2256 42.4263 90.6139 42.6968 90.8427 42.9117C91.0576 43.1128 91.3627 43.4804 91.5222 43.73C91.6817 43.9796 91.8689 44.3679 91.9452 44.5968C92.0214 44.8256 92.1185 45.2763 92.1532 45.6022C92.1878 45.9282 92.2225 46.3373 92.2225 46.5245C92.2225 46.8366 92.2156 46.8504 92.0006 46.8851C91.8758 46.899 90.3504 47.0238 88.6169 47.1555C86.8834 47.2942 85.1707 47.426 84.1653 47.5092L84.2069 47.9599C84.2277 48.2095 84.3179 48.6464 84.3941 48.9307C84.4704 49.215 84.6646 49.7004 84.824 50.0055C85.0321 50.4008 85.2747 50.7197 85.67 51.115C86.086 51.538 86.3495 51.7321 86.7447 51.9263C87.029 52.065 87.4381 52.2175 87.6461 52.2661C87.8611 52.3216 88.3881 52.3632 88.8596 52.3632C89.546 52.3562 89.7679 52.3285 90.1423 52.1967C90.392 52.1135 90.7941 51.9055 91.0438 51.7391C91.2934 51.5796 91.6193 51.2953 91.7788 51.1081C91.9382 50.9208 92.1393 50.6365 92.2295 50.477C92.3889 50.1858 92.4028 50.1789 92.7634 50.1789C92.9575 50.1789 93.1239 50.1997 93.1239 50.2343C93.1239 50.2621 93.0477 50.4909 92.9506 50.7544C92.8535 51.011 92.6802 51.4132 92.5623 51.6559C92.4444 51.8916 92.2156 52.273 92.0492 52.5019C91.8897 52.7307 91.5707 53.0843 91.3488 53.2854C91.127 53.4865 90.7387 53.757 90.489 53.8887C90.2394 54.0205 89.7887 54.1938 89.4836 54.277C89.0468 54.3949 88.7348 54.4296 88.0275 54.4296C87.3064 54.4296 87.0152 54.4018 86.5714 54.277C86.2663 54.1938 85.7809 53.9997 85.4966 53.854C85.2123 53.7015 84.7894 53.431 84.5605 53.2438C84.3317 53.0566 83.985 52.7099 83.7909 52.4602C83.5898 52.2175 83.3055 51.7807 83.153 51.4964C82.9935 51.2121 82.7855 50.7267 82.6884 50.4216C82.5844 50.1165 82.4526 49.5548 82.3972 49.1734C82.3278 48.7157 82.307 48.2442 82.3348 47.7865C82.3556 47.4052 82.418 46.8782 82.4734 46.6077C82.5289 46.3373 82.6607 45.8866 82.7577 45.6022C82.8617 45.3179 83.042 44.9088 83.1599 44.7008C83.2778 44.4928 83.4858 44.1669 83.6314 43.9727C83.7701 43.7855 84.0821 43.4388 84.3248 43.2099C84.5675 42.9811 84.928 42.6899 85.1153 42.572C85.3094 42.4472 85.663 42.2669 85.9127 42.1628C86.1623 42.0658 86.5644 41.9409 86.8141 41.8924C87.0637 41.8439 87.5144 41.8023 87.8195 41.7953V41.7953ZM86.4674 43.0296C86.2594 43.1128 85.9335 43.3001 85.7393 43.4526C85.5521 43.5982 85.2747 43.8687 85.1361 44.0559C84.9974 44.2362 84.7894 44.5898 84.6784 44.8395C84.5675 45.0891 84.4219 45.519 84.3595 45.7964C84.2971 46.0668 84.2485 46.372 84.2485 46.469C84.2485 46.6147 84.2832 46.6424 84.4427 46.6424C84.5467 46.6424 85.878 46.5314 87.4035 46.3997C88.9289 46.2679 90.1909 46.1362 90.2117 46.1154C90.2325 46.0946 90.2464 45.7271 90.2464 45.3041C90.2464 44.7285 90.2117 44.4304 90.1146 44.1461C90.0175 43.8825 89.8719 43.6537 89.6292 43.411C89.3658 43.1475 89.1785 43.0227 88.8942 42.9395C88.6862 42.8771 88.2771 42.8077 87.9928 42.7939C87.7085 42.78 87.3341 42.7939 87.1608 42.8216C86.9874 42.8563 86.6754 42.9464 86.4674 43.0296V43.0296ZM92.3612 42.0658H98.7404V42.8979H98.3036C97.9222 42.8979 97.8459 42.9187 97.6032 43.1198C97.4507 43.2446 97.2357 43.4873 97.1317 43.6607C97.0208 43.834 96.9376 44.042 96.9376 44.1322C96.9376 44.2154 97.5478 45.7132 98.2966 47.4606C99.0455 49.2011 99.6765 50.6504 99.7042 50.6781C99.725 50.7059 100.37 49.2635 102.519 44.2154L102.311 43.8201C102.193 43.5913 101.979 43.3278 101.805 43.1961C101.549 42.995 101.465 42.9672 100.682 42.9672V42.0658H105.536V42.8979H105.189C104.891 42.8979 104.794 42.9326 104.509 43.1614C104.329 43.307 104.038 43.5982 103.865 43.8063C103.594 44.1252 103.254 44.8325 101.59 48.6187C100.509 51.0595 98.9137 54.6515 98.0331 56.5931C97.1525 58.5347 96.4175 60.1434 96.4037 60.1642C96.3898 60.185 96.1471 60.081 95.3428 59.6788L95.8559 58.6179C96.1333 58.0423 96.8544 56.5515 98.5324 53.0566L96.473 48.6603C94.4899 44.4373 94.3928 44.2431 93.9907 43.8132C93.7619 43.5705 93.436 43.2793 93.2626 43.1683C93.0407 43.0227 92.8674 42.9672 92.3612 42.9672V42.0658ZM65.1456 60.1088C65.3328 60.1018 65.7558 60.1296 66.0817 60.1642C66.4076 60.1989 67.2327 60.3723 67.9192 60.5387C68.6056 60.7051 69.3406 60.8646 69.5486 60.8923C69.7566 60.9201 70.0756 60.927 70.2559 60.8993C70.4847 60.8715 70.6858 60.7814 70.9007 60.615C71.1365 60.4277 71.2821 60.3723 71.7675 60.3723V67.0292H71.1088L71.0256 66.5646C70.984 66.3011 70.8383 65.8157 70.7135 65.469C70.5957 65.1222 70.3322 64.5883 70.138 64.2763C69.9508 63.9573 69.618 63.4996 69.41 63.25C69.2019 63.0004 68.8414 62.6398 68.6126 62.4525C68.3837 62.2723 68.0093 62.0018 67.7805 61.8701C67.5517 61.7314 67.1148 61.5303 66.8097 61.4332C66.3105 61.2668 66.151 61.246 65.2843 61.2529C64.5215 61.2529 64.1957 61.2876 63.7588 61.4055C63.4537 61.4817 63.0169 61.6412 62.7881 61.7591C62.5592 61.8701 62.1918 62.1058 61.9699 62.2792C61.7549 62.4525 61.429 62.7854 61.2557 63.0281C61.0823 63.2639 60.8466 63.6314 60.7426 63.8394C60.6386 64.0474 60.4652 64.4843 60.3681 64.8102C60.2641 65.1361 60.1185 65.7463 60.0492 66.1624C59.9729 66.6131 59.8966 67.4868 59.8689 68.2773C59.8412 69.0956 59.855 70.1635 59.9036 70.9817C59.9521 71.7237 60.0145 72.5211 60.0561 72.7499C60.0908 72.9788 60.1879 73.3671 60.2711 73.6167C60.3473 73.8664 60.5068 74.2547 60.6247 74.4835C60.7356 74.7123 60.9575 75.0868 61.1239 75.3156C61.2834 75.5445 61.6509 75.9536 61.9283 76.2171C62.2126 76.4875 62.6633 76.8412 62.9267 77.0007C63.1902 77.1601 63.6548 77.382 63.946 77.4999C64.2442 77.6109 64.7573 77.7565 65.0901 77.812C65.4299 77.8674 65.9499 77.916 66.255 77.916C66.5601 77.916 67.0732 77.8813 67.3991 77.8466C67.725 77.805 68.1757 77.7218 68.4045 77.6594C68.6334 77.6039 69.1187 77.4098 69.4793 77.2295C69.9577 76.9937 70.2698 76.7788 70.6511 76.4251C70.9354 76.1616 71.2821 75.7872 71.4208 75.593C71.5595 75.4058 71.8299 74.9897 72.3569 74.0952L72.7868 74.1021C73.0919 74.1021 73.2236 74.1299 73.2236 74.1923C73.2236 74.2339 73.1196 74.5113 72.9948 74.7956C72.87 75.0799 72.6273 75.5514 72.447 75.8357C72.2737 76.12 71.8854 76.6193 71.5872 76.9383C71.2821 77.2572 70.8383 77.6733 70.5887 77.8605C70.3391 78.0477 69.7913 78.3667 69.3753 78.5747C68.9176 78.8036 68.3352 79.0255 67.9192 79.1364C67.4338 79.2612 66.9553 79.3236 66.3244 79.3514C65.8043 79.3722 65.1317 79.3583 64.7296 79.3098C64.3482 79.2682 63.738 79.1503 63.3774 79.0601C63.0169 78.9631 62.372 78.7134 61.956 78.5123C61.54 78.3112 60.9436 77.9576 60.6386 77.7288C60.3335 77.4999 59.855 77.0631 59.5707 76.7649C59.2934 76.4598 58.8981 75.9675 58.6901 75.6623C58.489 75.3572 58.184 74.8094 58.0106 74.4488C57.8442 74.0883 57.6223 73.5543 57.5252 73.27C57.4351 72.9857 57.2825 72.424 57.1924 72.0218C57.0537 71.377 57.0399 71.1065 57.0399 69.6295C57.0399 68.1595 57.0537 67.8821 57.1924 67.2372C57.2825 66.835 57.449 66.2317 57.5599 65.885C57.6778 65.5383 57.8719 65.039 57.9967 64.7755C58.1146 64.512 58.3989 64.0197 58.6139 63.6868C58.8288 63.3471 59.2518 62.827 59.543 62.515C59.8412 62.2029 60.2849 61.8007 60.5345 61.6204C60.7842 61.4401 61.1863 61.1766 61.436 61.0449C61.6856 60.9131 62.1501 60.7051 62.476 60.5942C62.8019 60.4763 63.3289 60.3376 63.6548 60.2752C63.9807 60.2197 64.369 60.1573 64.5215 60.1434C64.6741 60.1296 64.9514 60.1157 65.1456 60.1088V60.1088ZM39.4901 60.3307C40.4817 60.3515 40.6828 60.3792 41.4316 60.5803C41.9725 60.7259 42.437 60.8091 42.7629 60.8161C43.1859 60.823 43.283 60.8022 43.4217 60.6704C43.5465 60.5456 43.6643 60.5109 44.3785 60.5109V64.8102H43.5465L43.4979 64.519C43.4771 64.3525 43.3384 63.985 43.1928 63.7007C43.0264 63.3679 42.756 62.9865 42.4232 62.6259C42.1389 62.3208 41.702 61.9394 41.4594 61.7799C41.2167 61.6135 40.7798 61.3985 40.4955 61.3015C40.1488 61.1766 39.7744 61.1073 39.3861 61.0865C38.9978 61.0657 38.6234 61.0865 38.2767 61.1628C37.9924 61.2252 37.5694 61.3639 37.3406 61.4748C37.1118 61.5858 36.7998 61.8146 36.6542 61.981C36.5016 62.1405 36.3075 62.4387 36.2173 62.6259C36.1272 62.827 36.037 63.1806 36.0162 63.458C35.9885 63.7978 36.0093 64.089 36.0925 64.4288C36.1549 64.6923 36.3075 65.1014 36.4253 65.3233C36.5501 65.5522 36.772 65.8781 36.9315 66.0514C37.0841 66.2248 37.3822 66.4814 37.5902 66.62C37.7983 66.7657 38.1033 66.9321 38.2767 67.0014C38.5194 67.0985 38.9146 67.4591 40.0864 68.6518C40.9116 69.4978 42.2984 70.8569 43.172 71.6821C44.0457 72.5003 45.1413 73.5266 46.4587 74.7262L46.6945 74.2616C46.8193 73.9981 47.0065 73.5405 47.1036 73.2353C47.2006 72.9302 47.3185 72.4171 47.3601 72.0912C47.4087 71.7653 47.4364 71.1551 47.4156 70.739C47.3948 70.0594 47.367 69.9277 47.166 69.5116C47.0412 69.2481 46.8123 68.9153 46.6459 68.7558C46.4864 68.6032 46.1952 68.3952 46.008 68.3051C45.8139 68.208 45.3909 68.0832 44.4479 67.896V67.0985H51.0351V67.9306H50.6676C50.3556 67.9306 50.2585 67.9722 49.9395 68.208C49.7454 68.3605 49.4472 68.6518 49.2947 68.8529C49.1352 69.047 48.9341 69.3521 48.8509 69.5255C48.74 69.7405 48.6776 70.0248 48.6429 70.4616C48.6152 70.8083 48.5389 71.3839 48.4695 71.7445C48.3933 72.1051 48.2407 72.6806 48.1159 73.0273C47.998 73.374 47.7762 73.901 47.6236 74.2061C47.4711 74.5113 47.2769 74.851 47.0481 75.1631L47.3948 75.4751C47.582 75.6415 48.1298 76.0992 48.6082 76.4875C49.0867 76.8758 49.7731 77.4237 50.7924 78.1864L51.9712 78.228L52.0058 79.0255H50.4804C49.4126 79.0255 48.8162 78.9977 48.4834 78.9215C48.2269 78.8729 47.8316 78.762 47.6028 78.6788C47.374 78.6025 46.9857 78.4222 46.7361 78.2835C46.4864 78.1517 46.1605 77.9437 46.008 77.8258C45.8555 77.708 45.6266 77.5277 45.2799 77.2226L44.8778 77.5554C44.6628 77.7357 44.2468 78.0269 43.9625 78.2072C43.6782 78.3875 43.179 78.651 42.8531 78.7897C42.5272 78.9284 41.9655 79.1225 41.605 79.2196C41.0017 79.3791 40.8214 79.3999 39.4901 79.3999C38.1796 79.4069 37.9785 79.393 37.4932 79.2543C37.2019 79.1642 36.7651 78.9977 36.5224 78.8798C36.2867 78.755 35.9192 78.5401 35.7111 78.4014C35.5031 78.2558 35.1426 77.9437 34.9068 77.701C34.6711 77.4583 34.366 77.07 34.2204 76.8412C34.0747 76.6123 33.8667 76.224 33.7627 75.9744C33.6587 75.7248 33.52 75.274 33.4576 74.9689C33.3605 74.539 33.3397 74.2269 33.3744 73.5821C33.3952 73.0689 33.4646 72.5419 33.5547 72.1952C33.6379 71.8901 33.8598 71.3284 34.047 70.947C34.2342 70.5656 34.5879 70.004 34.8305 69.6989C35.0732 69.3938 35.4962 68.9638 36.2659 68.3467L35.9608 67.9168C35.7944 67.6741 35.5655 67.2927 35.4477 67.0638C35.3367 66.835 35.1703 66.412 35.0802 66.1277C34.9345 65.67 34.9137 65.469 34.9137 64.4635C34.9137 63.4164 34.9276 63.2777 35.0871 62.8339C35.1842 62.5704 35.4061 62.1474 35.5794 61.8978C35.7527 61.6482 36.0509 61.3361 36.2381 61.1974C36.4253 61.0588 36.7443 60.8646 36.9384 60.7606C37.1395 60.6635 37.5486 60.5179 37.8399 60.4416C38.2975 60.3237 38.554 60.3099 39.4901 60.3307V60.3307ZM36.3629 69.1996C36.1965 69.4007 35.9469 69.7613 35.8221 70.0109C35.6903 70.2605 35.5101 70.6974 35.4199 70.9817C35.2812 71.4255 35.2604 71.6405 35.2604 72.5072C35.2674 73.4226 35.2812 73.5543 35.4546 74.0328C35.5586 74.3171 35.7736 74.7748 35.933 75.0383C36.0925 75.3156 36.4739 75.7802 36.8136 76.1131C37.1395 76.4459 37.5972 76.8342 37.826 76.9799C38.0548 77.1324 38.4778 77.3543 38.7621 77.4791C39.0464 77.597 39.5456 77.7496 39.8715 77.8189C40.3153 77.909 40.6412 77.9229 41.1889 77.8952C41.5911 77.8674 42.1527 77.7912 42.437 77.7149C42.7213 77.6455 43.1443 77.5069 43.3731 77.4098C43.6019 77.3127 43.9833 77.1255 44.2191 76.9868C44.4617 76.8481 44.649 76.7094 44.6351 76.6747C44.6282 76.6331 44.2468 76.2726 43.7892 75.8634C43.3315 75.4613 42.2845 74.4905 41.4663 73.7138C40.6481 72.9441 39.4624 71.7653 38.8314 71.1065C38.2004 70.4478 37.4585 69.6642 37.1811 69.373L36.675 68.839L36.3629 69.1996ZM80.5042 66.6894C80.8994 66.6894 81.4472 66.731 81.7176 66.7865C81.9811 66.8419 82.4318 66.9737 82.7231 67.0777C83.0074 67.1817 83.4581 67.4106 83.7285 67.5908C83.992 67.7642 84.3941 68.0762 84.616 68.2843C84.8448 68.4923 85.2054 68.9222 85.4204 69.2481C85.6353 69.574 85.9127 70.0872 86.0305 70.3923C86.1484 70.6974 86.301 71.1967 86.3634 71.5018C86.4466 71.8762 86.4882 72.3686 86.4882 73.0273C86.4882 73.5613 86.4535 74.1853 86.405 74.4142C86.3564 74.643 86.2524 75.0313 86.1762 75.281C86.0929 75.5306 85.9127 75.9675 85.767 76.2518C85.6284 76.5361 85.3371 76.9937 85.1291 77.2572C84.9142 77.5277 84.512 77.9299 84.2347 78.1517C83.9573 78.3736 83.5205 78.658 83.2778 78.7828C83.0282 78.9076 82.6191 79.074 82.3764 79.1503C82.1267 79.2335 81.7384 79.3306 81.5096 79.3722C81.2808 79.4138 80.8578 79.4415 80.5735 79.4415C80.2823 79.4415 79.8663 79.4138 79.6375 79.3722C79.4087 79.3306 79.0134 79.2335 78.7707 79.1503C78.5211 79.074 78.1328 78.9145 77.904 78.8036C77.6752 78.6857 77.3007 78.4638 77.0719 78.2974C76.8431 78.1379 76.434 77.7704 76.1705 77.4861C75.9001 77.2018 75.5673 76.7649 75.4217 76.5222C75.276 76.2795 75.068 75.8357 74.9501 75.5445C74.8392 75.2463 74.6936 74.7193 74.6312 74.3656C74.548 73.8872 74.5341 73.4919 74.5619 72.8193C74.5896 72.2091 74.652 71.7098 74.7699 71.2591C74.86 70.8985 75.0264 70.3992 75.1374 70.1496C75.2483 69.9 75.4633 69.5116 75.6158 69.2897C75.7683 69.0609 76.0318 68.7211 76.2052 68.5339C76.3716 68.3397 76.6836 68.0554 76.8986 67.9029C77.1066 67.7434 77.4325 67.5215 77.6266 67.4175C77.8139 67.3065 78.1744 67.1401 78.424 67.05C78.6667 66.9529 79.0758 66.835 79.3254 66.7865C79.5681 66.7379 80.102 66.6963 80.5042 66.6894V66.6894ZM78.7707 68.104C78.5766 68.2011 78.2646 68.4368 78.0773 68.6241C77.8693 68.8321 77.6336 69.1719 77.488 69.477C77.3562 69.7543 77.1967 70.212 77.1343 70.4963C77.0719 70.7806 77.0026 71.4532 76.9749 71.9872C76.9471 72.5211 76.9471 73.4087 76.9749 73.9634C77.0095 74.5529 77.0858 75.1839 77.1621 75.489C77.2383 75.7733 77.384 76.1963 77.4949 76.4251C77.6058 76.6539 77.8555 77.0145 78.0496 77.2226C78.2438 77.4306 78.5558 77.6872 78.743 77.7912C78.9302 77.8952 79.27 78.0269 79.4988 78.0893C79.7276 78.1448 80.1922 78.1934 80.5527 78.1934C80.9064 78.1934 81.3571 78.1587 81.5582 78.1171C81.7592 78.0755 82.1129 77.9576 82.3417 77.8466C82.6121 77.7218 82.8895 77.5138 83.1391 77.2503C83.3471 77.0284 83.6037 76.6609 83.7077 76.4459C83.8117 76.224 83.9434 75.8496 83.9989 75.6138C84.0544 75.3711 84.1306 74.6777 84.1723 74.0675C84.2208 73.3255 84.2208 72.6321 84.1723 71.9733C84.1376 71.4255 84.0544 70.739 83.9989 70.4478C83.9365 70.1496 83.7978 69.7197 83.6938 69.4908C83.5829 69.262 83.354 68.9222 83.1876 68.7281C83.0212 68.5408 82.6953 68.2843 82.4734 68.1595C82.2446 68.0416 81.8771 67.889 81.6483 67.8335C81.3918 67.7642 80.9549 67.7226 80.5389 67.7295C80.1575 67.7295 79.6791 67.7781 79.478 67.8335C79.2769 67.889 78.9579 68.0069 78.7707 68.104V68.104ZM116.283 66.6894C116.81 66.6825 117.164 66.7241 117.566 66.8281C117.871 66.9044 118.287 67.0569 118.502 67.1748C118.71 67.2857 119.064 67.5423 119.286 67.7434C119.514 67.9445 119.84 68.3259 120.021 68.5894C120.201 68.8598 120.444 69.3244 120.561 69.6295C120.679 69.9346 120.846 70.5102 120.929 70.9124C121.047 71.481 121.081 71.8832 121.088 72.7499C121.088 73.5127 121.054 74.0467 120.977 74.4488C120.915 74.7748 120.776 75.2879 120.679 75.593C120.575 75.8981 120.388 76.3488 120.256 76.5985C120.132 76.8481 119.875 77.2503 119.688 77.4999C119.501 77.7496 119.168 78.1032 118.946 78.2835C118.717 78.4638 118.363 78.6996 118.155 78.8174C117.94 78.9284 117.524 79.0879 117.219 79.1642C116.831 79.2612 116.443 79.3028 115.936 79.3028C115.5 79.3028 115.035 79.2612 114.792 79.1988C114.564 79.1364 114.175 78.9908 113.926 78.866C113.683 78.7481 113.281 78.4569 113.024 78.2211C112.775 77.9853 112.456 77.597 112.047 76.9105L112.054 79.8437C112.054 82.236 112.067 82.8046 112.151 82.9641C112.206 83.0682 112.379 83.2762 112.546 83.4357C112.712 83.5882 112.906 83.7616 112.983 83.8171C113.052 83.8725 113.336 83.928 114.099 83.9835L114.134 84.7809H107.754V83.9488H108.219C108.649 83.9419 108.711 83.9211 109.03 83.6853C109.218 83.5466 109.46 83.297 109.765 82.8393V68.9708L109.536 68.6795C109.405 68.5131 109.176 68.2843 109.016 68.1595C108.746 67.9514 108.677 67.9306 107.754 67.9306V67.0292L111.596 67.0638L111.769 68.1872C111.866 68.8043 111.97 69.3244 111.998 69.3452C112.026 69.373 112.123 69.2481 112.206 69.0678C112.289 68.8945 112.497 68.5824 112.657 68.3744C112.816 68.1733 113.128 67.8613 113.35 67.6879C113.572 67.5146 113.967 67.2649 114.238 67.1332C114.501 67.0014 114.91 66.8489 115.139 66.7934C115.368 66.7379 115.881 66.6894 116.283 66.6894V66.6894ZM114.064 68.5408C113.856 68.6449 113.489 68.9222 113.253 69.1649C112.906 69.5047 112.74 69.7543 112.449 70.3438L112.088 71.0857C112.054 74.851 112.067 75.2394 112.158 75.5583C112.22 75.7664 112.359 76.0992 112.463 76.2864C112.574 76.4806 112.844 76.8204 113.066 77.0423C113.322 77.2988 113.648 77.5346 113.96 77.6802C114.238 77.8189 114.661 77.9507 114.966 77.9992C115.368 78.0685 115.604 78.0685 116.041 77.9992C116.359 77.9507 116.769 77.8328 117.011 77.7149C117.261 77.5901 117.559 77.3682 117.774 77.1393C117.961 76.9313 118.211 76.5777 118.315 76.3558C118.426 76.1269 118.571 75.7248 118.641 75.4543C118.71 75.1908 118.8 74.5321 118.842 73.9981C118.904 73.277 118.904 72.7985 118.849 72.1259C118.807 71.6335 118.724 71.0094 118.662 70.739C118.599 70.4755 118.467 70.0664 118.37 69.8375C118.266 69.6087 118.031 69.2551 117.836 69.054C117.642 68.839 117.323 68.5894 117.094 68.4784C116.873 68.3675 116.498 68.2496 116.262 68.208C116.027 68.1733 115.722 68.1456 115.59 68.1456C115.451 68.1456 115.139 68.1941 114.896 68.2496C114.647 68.3051 114.272 68.4368 114.064 68.5408V68.5408ZM127.239 66.731C127.634 66.7518 128.216 66.8073 128.522 66.8697C128.827 66.9252 129.291 67.0638 129.562 67.1748C129.825 67.2857 130.22 67.5146 130.442 67.6879C130.664 67.8613 130.948 68.1664 131.08 68.3675C131.212 68.5686 131.392 68.9153 131.475 69.1441C131.628 69.5532 131.635 69.6434 131.67 73.3047C131.711 77.0007 131.711 77.0561 131.857 77.2572C131.94 77.3751 132.099 77.5485 132.203 77.6525C132.314 77.7496 132.509 77.9021 132.647 77.9784C132.855 78.1032 132.994 78.124 133.736 78.124C134.506 78.124 134.61 78.1101 134.845 77.9645C134.991 77.8744 135.254 77.6386 135.767 77.0839V69.0054L135.469 68.6657C135.31 68.4784 135.053 68.2357 134.901 68.1248C134.665 67.9584 134.554 67.9306 133.757 67.9306V67.0292H135.629C136.655 67.0292 137.508 67.0569 137.529 67.0846C137.543 67.1124 137.64 67.6463 137.744 68.2773C137.855 68.9084 137.945 69.4354 137.959 69.4562C137.972 69.477 138.347 69.1303 138.798 68.6934C139.248 68.2565 139.803 67.7711 140.032 67.6255C140.261 67.473 140.635 67.2649 140.864 67.1679C141.093 67.0638 141.446 66.939 141.661 66.8905C141.869 66.8419 142.334 66.8003 142.701 66.7934C143.152 66.7934 143.478 66.835 143.741 66.9182C143.95 66.9876 144.262 67.1262 144.435 67.2233C144.601 67.3273 144.879 67.5284 145.045 67.6879C145.211 67.8405 145.433 68.104 145.544 68.2773C145.655 68.4507 145.815 68.7766 145.898 69.0054C146.057 69.4215 146.057 69.4631 146.099 77.1185L146.39 77.4583C146.55 77.6455 146.813 77.8813 146.966 77.9853C147.202 78.1517 147.299 78.1726 148.041 78.124V78.9561H141.939V78.124H142.32C142.528 78.124 142.792 78.0755 142.909 78.02C143.02 77.9645 143.256 77.7842 143.436 77.6247C143.61 77.4583 143.797 77.2434 143.852 77.1393C143.929 76.9799 143.95 76.2726 143.943 73.3255C143.943 70.6489 143.922 69.6295 143.859 69.4284C143.811 69.2759 143.644 69.0124 143.492 68.839C143.332 68.6657 143.055 68.4507 142.868 68.3605C142.563 68.208 142.452 68.1941 141.869 68.2219C141.342 68.2496 141.1 68.2981 140.656 68.4715C140.351 68.5963 139.852 68.8529 139.546 69.054C139.241 69.2551 138.832 69.581 138.645 69.7682C138.451 69.9624 138.243 70.2328 138.174 70.3784C138.063 70.6142 138.056 70.9332 138.056 73.8248C138.056 76.4112 138.07 77.0492 138.146 77.2087C138.201 77.3127 138.395 77.5415 138.583 77.7149C138.77 77.8882 139.019 78.0824 139.144 78.1448C139.269 78.2142 139.526 78.2627 140.067 78.2627V79.0948H134.935C132.113 79.0948 129.804 79.074 129.804 79.0463C129.797 79.0185 129.735 78.4777 129.666 77.8466C129.589 77.2156 129.513 76.6955 129.506 76.6886C129.499 76.6747 129.263 76.9382 128.986 77.2572C128.709 77.5831 128.258 78.0339 127.981 78.2627C127.703 78.4915 127.26 78.7828 126.996 78.9145C126.726 79.0463 126.344 79.185 126.143 79.2266C125.942 79.2682 125.63 79.3028 125.45 79.3028C125.27 79.3028 124.964 79.2612 124.777 79.2127C124.583 79.1642 124.271 79.0463 124.084 78.9492C123.897 78.859 123.585 78.6441 123.39 78.4638C123.182 78.2766 122.94 77.9576 122.787 77.6664C122.649 77.4028 122.503 77.0284 122.461 76.8273C122.42 76.6262 122.385 76.2864 122.385 76.0784C122.385 75.8704 122.42 75.5375 122.461 75.3364C122.503 75.1353 122.621 74.7956 122.718 74.5875C122.815 74.3795 123.071 74.0328 123.28 73.8248C123.515 73.5959 123.883 73.3324 124.223 73.1591C124.528 72.9996 124.971 72.8054 125.207 72.7222C125.443 72.6459 126.49 72.4032 127.53 72.1952C128.57 71.9872 129.43 71.8138 129.437 71.8138C129.444 71.8138 129.444 71.2799 129.43 70.6211C129.409 69.6781 129.381 69.3521 129.277 69.0748C129.194 68.8529 129.021 68.5963 128.764 68.3397C128.445 68.0208 128.3 67.9237 127.897 67.7989C127.537 67.681 127.225 67.6394 126.719 67.6394C126.254 67.6324 125.887 67.6671 125.623 67.7434C125.346 67.8266 125.124 67.9514 124.909 68.1595C124.736 68.3189 124.548 68.5755 124.486 68.7281C124.41 68.9292 124.389 69.1719 124.41 69.5948C124.431 69.9554 124.5 70.3507 124.59 70.6003C124.673 70.8292 124.743 71.0233 124.743 71.0372C124.743 71.0441 124.562 71.051 123.945 71.058L122.316 68.5894L122.607 68.3189C122.766 68.1733 123.071 67.9376 123.286 67.7919C123.494 67.6533 123.82 67.4591 124.015 67.362C124.202 67.2649 124.625 67.0985 124.951 67.0014C125.27 66.8974 125.755 66.7865 126.025 66.7587C126.289 66.731 126.837 66.7171 127.239 66.731V66.731ZM125.783 73.6306C125.568 73.7346 125.276 73.9357 125.131 74.0813C124.978 74.2269 124.798 74.4835 124.722 74.6569C124.632 74.8441 124.562 75.1769 124.548 75.489C124.528 75.7733 124.548 76.1408 124.59 76.3072C124.639 76.4667 124.77 76.7302 124.902 76.8966C125.027 77.0561 125.27 77.278 125.436 77.382C125.672 77.5346 125.866 77.5901 126.233 77.6178C126.58 77.6455 126.816 77.6247 127.065 77.5485C127.253 77.4861 127.599 77.3127 127.828 77.1671C128.057 77.0215 128.411 76.7302 128.612 76.5222C128.82 76.3211 129.076 76.016 129.187 75.8565L129.388 75.5583C129.388 72.7569 129.374 72.6459 129.263 72.6529C129.194 72.6598 128.473 72.8401 127.655 73.0551C126.83 73.27 125.991 73.5335 125.783 73.6306ZM95.5161 66.8003C95.7796 66.8211 96.1541 66.8905 96.3482 66.9668C96.5354 67.0361 96.8613 67.2233 97.0763 67.3759C97.2843 67.5354 97.5755 67.8266 97.7211 68.0208C97.8737 68.2288 98.047 68.5894 98.2897 69.3799L99.0178 68.6726C99.413 68.2843 99.9746 67.8127 100.266 67.6255C100.55 67.4314 101.001 67.2025 101.271 67.1124C101.611 66.9945 101.972 66.9321 102.485 66.9044C103.095 66.8766 103.289 66.8974 103.698 67.0153C103.962 67.0985 104.378 67.2857 104.613 67.4452C104.898 67.6255 105.161 67.8751 105.362 68.1595C105.536 68.3952 105.751 68.7627 105.834 68.9708C105.979 69.3452 105.986 69.4284 106 73.1175C106.014 76.0715 106.035 76.8758 106.104 76.8758C106.153 76.8758 106.229 76.966 106.271 77.07C106.319 77.174 106.486 77.389 106.638 77.5554C106.791 77.7149 107.019 77.909 107.144 77.9853C107.29 78.0755 107.491 78.124 108.032 78.124V78.9561H101.999V78.124H102.36C102.658 78.1309 102.79 78.0893 103.067 77.9021C103.254 77.7773 103.49 77.5623 103.594 77.4306C103.698 77.2988 103.823 77.1047 103.865 77.0007C103.913 76.8689 103.941 75.6623 103.941 73.2908C103.941 70.3784 103.92 69.7127 103.837 69.4215C103.781 69.2343 103.629 68.9569 103.504 68.8043C103.379 68.6587 103.123 68.4576 102.935 68.3605C102.644 68.2149 102.492 68.1872 102.034 68.1941C101.673 68.2011 101.313 68.2565 101.029 68.3536C100.779 68.4299 100.37 68.6102 100.127 68.7489C99.8776 68.8876 99.5031 69.1441 99.2951 69.3175C99.0802 69.4978 98.8097 69.7959 98.4561 70.3229V73.6514C98.463 76.751 98.47 76.9937 98.5878 77.1879C98.6572 77.3058 98.8236 77.5069 98.9484 77.6317C99.0802 77.7634 99.2812 77.9299 99.3991 77.9992C99.5309 78.0824 99.7389 78.124 100.405 78.124V78.9561H94.2334V78.124H94.6286C94.8851 78.124 95.0862 78.0824 95.2041 78.0131C95.2942 77.9507 95.4676 77.812 95.5716 77.7149C95.6825 77.6178 95.8628 77.4098 96.1749 76.9799V73.3394C96.1749 70.2813 96.1541 69.6503 96.0708 69.3868C96.0084 69.2135 95.8628 68.9569 95.738 68.8113C95.6132 68.6587 95.3428 68.4646 95.1348 68.3605C94.8158 68.2149 94.6633 68.1872 94.2126 68.1941C93.8451 68.208 93.5192 68.2635 93.1725 68.3814C92.8951 68.4784 92.4999 68.6587 92.2919 68.7835C92.0838 68.9084 91.7025 69.2065 91.4321 69.4562C91.127 69.7405 90.8912 70.0386 90.6277 70.6003V73.7415C90.6277 76.2171 90.6416 76.9244 90.7179 77.1047C90.7664 77.2295 90.9051 77.4375 91.016 77.5693C91.127 77.6941 91.3558 77.8952 91.5291 77.9992C91.7649 78.1517 91.9244 78.1934 92.5692 78.1934V79.0255H86.4674V78.1934H86.8626C87.1192 78.1934 87.3202 78.1517 87.4381 78.0824C87.5283 78.02 87.7016 77.8813 87.8056 77.7842C87.9166 77.6871 88.0968 77.4791 88.4089 77.0492V69.0748L88.1801 68.735C88.0552 68.5478 87.8126 68.2912 87.6461 68.1664C87.3688 67.9653 87.2786 67.9376 86.4674 67.9306V67.0292H88.3049C89.9967 67.0292 90.1423 67.043 90.1701 67.154C90.184 67.2164 90.3018 67.7503 90.6624 69.3868L91.4251 68.6032C91.8412 68.1733 92.3889 67.681 92.6386 67.5146C92.8812 67.3481 93.2903 67.1401 93.54 67.05C93.7827 66.9529 94.2195 66.8558 94.5107 66.8211C94.795 66.7934 95.2457 66.7795 95.5161 66.8003V66.8003Z" fill="white"/>
<path d="M80.5722 45.6717V43.8342C80.5722 42.8218 80.5861 41.9966 80.6069 41.9966C80.6277 41.9966 80.6415 42.8356 80.6415 45.7411L80.2463 45.7272C79.962 45.7134 79.8511 45.6787 79.8303 45.6024C79.8164 45.5469 79.8233 45.54 79.8441 45.5816C79.8649 45.6371 80.0106 45.6717 80.5722 45.6717Z" fill="#051C2C" fill-opacity="0.5"/>
<path d="M97.1443 42.0451C96.2498 42.059 94.8006 42.059 93.92 42.0451C93.0394 42.0382 93.7744 42.0313 95.5495 42.0313C97.3245 42.0313 98.0387 42.0382 97.1443 42.0451Z" fill="#051C2C" fill-opacity="0.5"/>
<path d="M105.534 42.0659L103.094 42.0451L100.646 42.0313H105.569L105.583 42.9327L105.534 42.0659Z" fill="#051C2C" fill-opacity="0.5"/>
<path d="M84.2056 48.0571L84.1917 47.7659C84.1848 47.4747 84.1848 47.4677 84.4067 47.4816C84.6077 47.4885 84.6147 47.4955 84.4413 47.5163C84.2749 47.5371 84.2472 47.5717 84.2056 48.0571Z" fill="#051C2C" fill-opacity="0.5"/>
<path d="M72.6259 51.9403C72.619 50.7962 72.6259 49.8254 72.6398 49.7768C72.6606 49.7214 72.7924 49.6936 73.4025 49.7144L72.6745 49.756L72.6398 54.0206L72.6259 51.9403Z" fill="#051C2C" fill-opacity="0.5"/>
<path d="M89.2119 52.3772C89.0524 52.3911 88.775 52.3911 88.5878 52.3772C88.3937 52.3633 88.5185 52.3495 88.8652 52.3495C89.2049 52.3495 89.3644 52.3633 89.2119 52.3772Z" fill="#051C2C" fill-opacity="0.5"/>
<path d="M39.6691 60.2823C39.4541 60.2961 39.1282 60.2961 38.941 60.2823C38.7469 60.2684 38.9202 60.2545 39.3224 60.2545C39.7176 60.2545 39.8771 60.2684 39.6691 60.2823Z" fill="#051C2C" fill-opacity="0.5"/>
<path d="M71.8216 65.3582C71.8077 66.2943 71.8008 65.5454 71.8008 63.6939C71.8008 61.8494 71.8077 61.0797 71.8216 61.995C71.8355 62.9104 71.8355 64.429 71.8216 65.3582Z" fill="#051C2C" fill-opacity="0.5"/>
<path d="M65.6019 61.2531C65.4285 61.2669 65.1651 61.2669 65.0125 61.2531C64.853 61.2392 64.9986 61.2253 65.3245 61.2253C65.6435 61.2253 65.7683 61.2392 65.6019 61.2531Z" fill="#051C2C" fill-opacity="0.5"/>
<path d="M59.188 62.8272L59.6318 62.3626L59.6842 62.3087C59.9099 62.0766 60.0904 61.891 60.1033 61.891C60.1102 61.891 60.1241 61.898 60.1241 61.9118C60.1241 61.9188 59.9092 62.1337 59.188 62.8272Z" fill="#051C2C" fill-opacity="0.5"/>
<path d="M34.8639 64.8034C34.85 65.0184 34.8361 64.8589 34.8361 64.4567C34.8361 64.0615 34.85 63.8881 34.8639 64.0753C34.8777 64.2695 34.8777 64.5954 34.8639 64.8034Z" fill="#051C2C" fill-opacity="0.5"/>
<path d="M43.9473 64.8381C43.5313 64.8381 43.5105 64.8312 43.5035 64.6647C43.4897 64.5191 43.4966 64.5191 43.5174 64.6509C43.5451 64.7896 43.5937 64.8104 44.3841 64.8381H43.9473Z" fill="#051C2C" fill-opacity="0.5"/>
<path d="M80.8565 66.6618C80.7178 66.6757 80.4682 66.6757 80.3018 66.6618C80.1284 66.6479 80.2324 66.6341 80.5445 66.6341C80.8496 66.6341 80.9882 66.641 80.8565 66.6618Z" fill="#051C2C" fill-opacity="0.5"/>
<path d="M116.67 66.6618C116.511 66.6757 116.233 66.6757 116.046 66.6618C115.852 66.6479 115.977 66.6341 116.323 66.6341C116.663 66.6341 116.823 66.6479 116.67 66.6618Z" fill="#051C2C" fill-opacity="0.5"/>
<path d="M127.626 66.7311C127.473 66.745 127.251 66.745 127.14 66.7311C127.022 66.7103 127.147 66.7034 127.418 66.7034C127.681 66.7034 127.771 66.7103 127.626 66.7311Z" fill="#051C2C" fill-opacity="0.5"/>
<path d="M110.998 67.0432C110.645 67.0293 110.215 67.0155 110.048 67.0016C109.875 66.9877 110.159 66.9738 110.686 66.9669C111.213 66.96 111.643 66.9808 111.643 67.0085C111.643 67.0363 111.352 67.0501 110.998 67.0432Z" fill="#051C2C" fill-opacity="0.5"/>
<path d="M51.0337 67.0917L47.7609 67.0779L44.4812 67.0571H51.0684L51.1031 67.9932L50.6593 68.014C50.4166 68.0209 50.2294 68.0071 50.2433 67.9793C50.2641 67.9516 50.4444 67.9238 51.0337 67.9238V67.0917Z" fill="#051C2C" fill-opacity="0.5"/>
<path d="M86.4522 67.6881C86.4383 67.8406 86.4244 67.7436 86.4244 67.48C86.4244 67.2096 86.4383 67.0848 86.4522 67.2027C86.466 67.3136 86.466 67.5355 86.4522 67.6881Z" fill="#051C2C" fill-opacity="0.5"/>
<path d="M107.739 67.6881C107.725 67.8406 107.712 67.7436 107.712 67.48C107.712 67.2096 107.725 67.0848 107.739 67.2027C107.753 67.3136 107.753 67.5355 107.739 67.6881Z" fill="#051C2C" fill-opacity="0.5"/>
<path d="M133.741 67.6881C133.728 67.8406 133.714 67.7436 133.714 67.48C133.714 67.2096 133.728 67.0848 133.741 67.2027C133.755 67.3136 133.755 67.5355 133.741 67.6881Z" fill="#051C2C" fill-opacity="0.5"/>
<path d="M42.5813 71.1205C42.5605 71.1205 41.7839 70.3508 40.8478 69.4216C39.9118 68.4855 39.1698 67.7227 39.2045 67.7227C39.2322 67.7227 40.0088 68.4855 40.938 69.4216C41.8602 70.3508 42.6021 71.1205 42.5813 71.1205Z" fill="#051C2C" fill-opacity="0.5"/>
<path d="M59.8953 69.803C59.8883 70.1636 59.8745 69.8793 59.8745 69.1789C59.8745 68.4717 59.8883 68.1735 59.8953 68.5202C59.9092 68.86 59.9092 69.4355 59.8953 69.803Z" fill="#051C2C" fill-opacity="0.5"/>
<path d="M98.2259 69.4216L98.7807 68.8461C99.0858 68.5341 99.3423 68.2775 99.3492 68.2775C99.3631 68.2775 99.37 68.2844 99.37 68.2914C99.37 68.3052 99.1135 68.5618 98.2259 69.4216Z" fill="#051C2C" fill-opacity="0.5"/>
<path d="M138.131 69.3176C138.11 69.3176 138.332 69.0819 138.616 68.7976C138.9 68.5063 139.15 68.2775 139.164 68.2775C139.185 68.2775 138.97 68.5063 138.685 68.7976C138.401 69.0819 138.151 69.3176 138.131 69.3176Z" fill="#051C2C" fill-opacity="0.5"/>
<path d="M56.983 70.0804C56.9761 70.3647 56.9622 70.1636 56.9622 69.6297C56.9622 69.0957 56.9692 68.86 56.983 69.1096C56.9969 69.3523 56.9969 69.7892 56.983 70.0804Z" fill="#051C2C" fill-opacity="0.5"/>
<path d="M88.3937 75.0731C88.3867 76.1964 88.3798 75.288 88.3798 73.0621C88.3798 70.8293 88.3867 69.907 88.3937 71.0165C88.4075 72.1191 88.4075 73.9428 88.3937 75.0731Z" fill="#051C2C" fill-opacity="0.5"/>
<path d="M103.926 75.0731C103.919 76.0786 103.912 75.2672 103.912 73.2702C103.912 71.2662 103.919 70.441 103.926 71.4326C103.939 72.4242 103.939 74.0607 103.926 75.0731Z" fill="#051C2C" fill-opacity="0.5"/>
<path d="M106.144 76.876C106.034 76.876 106.027 76.668 106.04 73.3534L106.061 69.8377L106.082 73.3048C106.096 75.9399 106.117 76.7789 106.186 76.8205C106.242 76.8529 106.228 76.8714 106.144 76.876Z" fill="#051C2C" fill-opacity="0.5"/>
<path d="M96.1596 75.3088C96.1458 76.2658 96.1388 75.4545 96.1388 73.5059C96.1388 71.5643 96.1458 70.7808 96.1596 71.7724C96.1666 72.764 96.1666 74.3589 96.1596 75.3088Z" fill="#051C2C" fill-opacity="0.5"/>
<path d="M90.6819 75.3435C90.668 76.238 90.661 75.5238 90.661 73.7486C90.661 71.9735 90.668 71.2454 90.6819 72.1191C90.6888 72.9997 90.6888 74.449 90.6819 75.3435Z" fill="#051C2C" fill-opacity="0.5"/>
<path d="M138.11 75.4475C138.096 76.3629 138.089 75.6278 138.089 73.818C138.089 72.0081 138.096 71.2592 138.11 72.1538C138.117 73.0483 138.117 74.5322 138.11 75.4475Z" fill="#051C2C" fill-opacity="0.5"/>
<path d="M33.3384 74.1647C33.3245 74.3381 33.3107 74.2132 33.3107 73.8873C33.3107 73.5614 33.3245 73.4227 33.3384 73.5753C33.3523 73.7278 33.3523 73.9913 33.3384 74.1647Z" fill="#051C2C" fill-opacity="0.5"/>
<path d="M72.73 74.1092C72.4734 74.1231 72.2792 74.1092 72.3 74.0815C72.3139 74.0537 72.5497 74.026 72.8132 74.026C73.2223 74.026 73.2916 74.0468 73.2916 74.1508C73.2916 74.234 73.2777 74.2479 73.2431 74.1786C73.2084 74.1162 73.0558 74.0954 72.73 74.1092Z" fill="#051C2C" fill-opacity="0.5"/>
<path d="M66.6697 77.8953C66.4409 77.9092 66.0873 77.9092 65.8723 77.8953C65.6643 77.8815 65.8515 77.8676 66.2883 77.8676C66.7321 77.8676 66.8985 77.8815 66.6697 77.8953Z" fill="#051C2C" fill-opacity="0.5"/>
<path d="M101.929 79.0187L101.943 78.5541L101.956 78.0826L101.998 78.9493H108.03L108.079 78.1519L108.065 78.984L101.929 79.0187Z" fill="#051C2C" fill-opacity="0.5"/>
<path d="M141.868 79.0256L141.882 78.5541L141.896 78.0895L141.937 78.9563H148.039L148.081 78.0895L148.108 79.0256H141.868Z" fill="#051C2C" fill-opacity="0.5"/>
<path d="M86.4314 79.0534L86.4244 78.6026V78.1519L86.466 79.0187H92.5679L92.6095 78.1519L92.6372 79.088L86.4314 79.0534Z" fill="#051C2C" fill-opacity="0.5"/>
<path d="M98.9055 79.0048C98.0665 79.0118 96.6658 79.0118 95.7852 79.0048C94.9115 78.991 95.598 78.984 97.3107 78.984C99.0303 78.984 99.7445 78.991 98.9055 79.0048Z" fill="#051C2C" fill-opacity="0.5"/>
<path d="M51.2695 79.0742C50.8535 79.0811 50.1809 79.0811 49.7787 79.0742C49.3835 79.0603 49.7232 79.0464 50.5414 79.0464C51.3666 79.0464 51.6925 79.0603 51.2695 79.0742Z" fill="#051C2C" fill-opacity="0.5"/>
<path d="M116.206 79.3446C116.039 79.3654 115.769 79.3654 115.616 79.3446C115.464 79.3307 115.609 79.3238 115.928 79.3238C116.254 79.3238 116.379 79.3307 116.206 79.3446Z" fill="#051C2C" fill-opacity="0.5"/>
<path d="M39.7939 79.4902C39.5512 79.5041 39.156 79.5041 38.9271 79.4902C38.6983 79.4763 38.9063 79.4625 39.3778 79.4625C39.8563 79.4625 40.0435 79.4763 39.7939 79.4902Z" fill="#051C2C" fill-opacity="0.5"/>
<path d="M107.677 84.8435L107.691 84.3789L107.705 83.9074L107.746 84.7741L114.16 84.8088L107.677 84.8435Z" fill="#051C2C" fill-opacity="0.5"/>
<path d="M80.808 67.7019C80.6554 67.7158 80.4266 67.7158 80.2879 67.7019C80.1562 67.6881 80.281 67.6742 80.5653 67.6742C80.8565 67.6742 80.9605 67.6881 80.808 67.7019Z" fill="#051C2C" fill-opacity="0.5"/>
<path d="M112.031 74.1023C112.017 74.6501 112.011 74.234 112.011 73.1662C112.011 72.0983 112.017 71.6406 112.031 72.1607C112.045 72.6738 112.045 73.5475 112.031 74.1023Z" fill="#051C2C" fill-opacity="0.5"/>
<path d="M40.6953 72.9928C40.6814 72.9928 40.2862 72.6183 39.8285 72.1607C39.3709 71.703 39.0242 71.3286 39.0519 71.3286C39.0797 71.3286 39.4749 71.703 39.9187 72.1607C40.3694 72.6183 40.7161 72.9928 40.6953 72.9928Z" fill="#051C2C" fill-opacity="0.5"/>
<path d="M76.9458 72.5767C76.925 72.7085 76.918 72.5837 76.918 72.2994C76.918 72.0081 76.925 71.9041 76.9458 72.0567C76.9596 72.2092 76.9596 72.4381 76.9458 72.5767Z" fill="#051C2C" fill-opacity="0.5"/>
<path d="M76.9458 73.8249C76.925 73.9567 76.918 73.8318 76.918 73.5475C76.918 73.2563 76.925 73.1523 76.9458 73.3048C76.9596 73.4574 76.9596 73.6862 76.9458 73.8249Z" fill="#051C2C" fill-opacity="0.5"/>
<path d="M80.912 78.2421C80.7802 78.2559 80.5306 78.2559 80.3573 78.2421C80.1908 78.2282 80.2948 78.2143 80.5999 78.2143C80.905 78.2143 81.0506 78.2282 80.912 78.2421Z" fill="#051C2C" fill-opacity="0.5"/>
</svg>
