<svg width="160" height="120" viewBox="0 0 160 120" fill="none" xmlns="http://www.w3.org/2000/svg">
<path d="M110.424 54.3066C110.397 54.192 109.623 54.1853 95.499 54.1651L80.5942 54.1516H95.5125C110.377 54.1516 110.431 54.1516 110.444 54.2864C110.453 54.3807 110.446 54.3874 110.424 54.3066Z" fill="white" fill-opacity="0.5"/>
<path d="M110.99 61.4554C110.976 61.9203 110.97 61.5564 110.97 60.6468C110.97 59.744 110.976 59.3599 110.99 59.8046C111.003 60.2493 111.003 60.9972 110.99 61.4554Z" fill="white" fill-opacity="0.5"/>
<path d="M92.1921 66.4615C89.1882 66.4548 85.3492 66.4346 83.6654 66.4278C81.9749 66.4144 84.4265 66.4009 89.1007 66.3942C93.7748 66.3874 97.6138 66.4009 97.634 66.4278C97.6475 66.4548 95.1959 66.4683 92.1921 66.4615Z" fill="white" fill-opacity="0.5"/>
<path d="M92.9936 74.6277L93.5593 74.0415C93.8759 73.7181 94.1385 73.4486 94.152 73.4486C94.1587 73.4486 94.1722 73.4621 94.1722 73.4688C94.1722 73.4756 93.9028 73.7451 92.9936 74.6277Z" fill="white" fill-opacity="0.5"/>
<path d="M107.407 76.2111C107.386 76.2111 107.467 76.0157 107.582 75.7799C107.703 75.5373 107.811 75.3554 107.818 75.3756C107.831 75.3891 107.75 75.5845 107.642 75.8068C107.528 76.0292 107.42 76.2111 107.407 76.2111Z" fill="white" fill-opacity="0.5"/>
<path d="M103.352 82.073C103.285 82.1336 103.419 81.9584 103.662 81.6889C103.898 81.4194 104.1 81.1971 104.113 81.1971C104.133 81.1971 103.999 81.3722 103.81 81.5879C103.628 81.8035 103.426 82.0191 103.352 82.073Z" fill="white" fill-opacity="0.5"/>
<path d="M101.547 83.9259L102.382 83.0702L102.485 82.9664C102.902 82.5425 103.232 82.2077 103.244 82.2077C103.251 82.2077 103.265 82.2212 103.265 82.2279C103.265 82.2347 102.874 82.6255 101.547 83.9259Z" fill="white" fill-opacity="0.5"/>
<path d="M81.2005 28.2924C80.8638 28.3059 80.3384 28.3059 80.0219 28.2924C79.7053 28.2857 79.9815 28.2722 80.628 28.2722C81.2746 28.2722 81.5373 28.2857 81.2005 28.2924Z" fill="white" fill-opacity="0.6"/>
<path d="M101.743 36.5395L101.507 36.2834L101.271 36.0274L101.81 36.5327L97.2638 41.0875C93.0274 45.3323 92.7108 45.6287 92.6165 45.5142C92.529 45.4064 92.529 45.3997 92.6165 45.4738C92.7041 45.5412 93.4449 44.8337 101.743 36.5395Z" fill="white" fill-opacity="0.6"/>
<path d="M57.1562 38.7225L58.3012 37.5636C58.9343 36.9235 59.4529 36.398 59.4664 36.398C59.4731 36.398 59.4798 36.4047 59.4798 36.4182C59.4798 36.4249 58.9612 36.9505 57.1562 38.7225Z" fill="white" fill-opacity="0.6"/>
<path d="M66.7874 47.2121L67.6293 46.3564C68.094 45.8848 68.4779 45.494 68.4914 45.494C68.4981 45.494 68.5049 45.5007 68.5049 45.5142C68.5049 45.5209 68.121 45.905 66.7874 47.2121Z" fill="white" fill-opacity="0.6"/>
<path d="M49.0269 60.4519C49.0135 60.7685 49 60.526 49 59.9128C49 59.2997 49.0135 59.0437 49.0269 59.3401C49.0337 59.6366 49.0337 60.1352 49.0269 60.4519Z" fill="white" fill-opacity="0.6"/>
<path d="M61.9583 60.3508C61.9449 60.6136 61.9314 60.4114 61.9314 59.9128C61.9314 59.4142 61.9449 59.1986 61.9583 59.4412C61.9718 59.6838 61.9718 60.0948 61.9583 60.3508Z" fill="white" fill-opacity="0.6"/>
<path d="M63.9269 68.4027C63.7787 68.1062 63.6575 67.8434 63.6575 67.8165C63.6575 67.7828 63.6642 67.7761 63.6845 67.7963C63.6979 67.8165 63.8326 68.0793 63.9875 68.3892C64.1357 68.6924 64.2502 68.9417 64.23 68.9417C64.2098 68.9417 64.0751 68.6991 63.9269 68.4027Z" fill="white" fill-opacity="0.1"/>
<path d="M54.4433 77.6527C54.302 77.4374 54.161 77.2224 54.1341 77.182C54.1004 77.1348 54.1004 77.0944 54.1273 77.0944C54.1543 77.0944 54.3092 77.31 54.4708 77.5661C54.6325 77.8288 54.7537 78.0377 54.7335 78.0377C54.7133 78.0377 54.5853 77.8625 54.4439 77.6537L54.4433 77.6527Z" fill="white" fill-opacity="0.1"/>
<path d="M81.2698 78.9608C80.9331 78.9743 80.4077 78.9743 80.0912 78.9608C79.7746 78.954 80.0508 78.9406 80.6973 78.9406C81.3439 78.9406 81.6066 78.954 81.2698 78.9608Z" fill="white" fill-opacity="0.1"/>
<path d="M58 81.9456C57.9798 81.9456 57.771 81.7502 57.5286 81.5077C57.2861 81.2651 57.1177 81.0697 57.1447 81.0697C57.1783 81.0697 57.3871 81.2651 57.6161 81.5077C57.8451 81.7502 58.0202 81.9456 58 81.9456Z" fill="white" fill-opacity="0.1"/>
<path d="M59.5491 83.4953C59.5289 83.4953 59.2258 83.2056 58.8756 82.8552C58.5254 82.5049 58.2627 82.2151 58.2896 82.2151C58.3166 82.2151 58.6197 82.5049 58.9631 82.8552C59.3066 83.2056 59.5693 83.4953 59.5491 83.4953Z" fill="white" fill-opacity="0.1"/>
<path d="M81.2025 91.5604C80.8657 91.5739 80.3404 91.5739 80.0238 91.5604C79.7073 91.5537 79.9834 91.5402 80.63 91.5402C81.2765 91.5402 81.5392 91.5537 81.2025 91.5604Z" fill="white" fill-opacity="0.1"/>
<path d="M76.6887 28.5477C77.1668 28.487 77.8808 28.4129 78.2714 28.386C78.662 28.3523 79.6588 28.3253 80.494 28.3186C81.3291 28.3186 82.4337 28.3456 82.9523 28.3792C83.4709 28.4197 84.3667 28.514 84.9392 28.5881C85.5116 28.6622 86.4411 28.8105 86.9934 28.9183C87.5524 29.0261 88.4414 29.2349 88.9802 29.3832C89.519 29.5314 90.4148 29.8077 90.9671 30.003C91.5261 30.1917 92.4016 30.5286 92.9202 30.7509C93.4389 30.9733 94.2605 31.3573 94.7387 31.5999C95.2169 31.8425 96.0858 32.3276 96.6582 32.6779C97.2307 33.0216 98.0053 33.5269 98.3757 33.7897C98.7461 34.0525 99.4735 34.605 99.9921 35.0227C100.511 35.4404 101.117 35.9458 101.743 36.5252L92.7182 45.5606L92.0447 44.9879C91.6743 44.6645 90.9469 44.1254 90.4283 43.7818C89.9097 43.4314 89.088 42.9531 88.6098 42.7105C88.1316 42.4747 87.4311 42.1647 87.0607 42.0233C86.6903 41.8885 86.2054 41.7133 85.9831 41.6459C85.7608 41.5786 85.2624 41.4505 84.8718 41.3562C84.4812 41.2686 83.8481 41.1406 83.4574 41.08C83.0668 41.0193 82.2653 40.9452 81.6726 40.9115C81.0328 40.8778 80.1572 40.8846 79.5174 40.9183C78.9247 40.9587 78.0896 41.0463 77.6652 41.1204C77.2409 41.1945 76.4866 41.3562 76.0017 41.4842C75.51 41.6122 74.7355 41.8615 74.2842 42.03C73.8262 42.2052 73.0786 42.5286 72.6139 42.7577C72.1492 42.9868 71.4824 43.3506 71.1322 43.5662C70.782 43.7818 70.2836 44.112 70.0209 44.3006C69.7582 44.4825 69.2464 44.8868 68.8759 45.19C68.5055 45.4932 67.8253 46.1333 67.3673 46.6117C66.9025 47.0901 66.3166 47.7571 66.0607 48.0873C65.798 48.4174 65.3467 49.0575 65.0504 49.5022C64.7608 49.9469 64.2557 50.843 63.9324 51.4898C63.6158 52.1367 63.2589 52.9317 63.1511 53.2619C62.9962 53.7133 62.9288 53.8413 62.848 53.8076C62.7941 53.7874 60.4571 51.9952 57.662 49.8256C54.8669 47.656 52.5366 45.8436 52.4894 45.8031C52.4288 45.7425 52.5298 45.5067 52.9676 44.7184C53.2774 44.1659 53.7556 43.3439 54.0385 42.8992C54.3214 42.4545 54.8332 41.7133 55.1767 41.2484C55.5135 40.7835 56.086 40.0558 56.4362 39.6313C56.7932 39.2069 57.5542 38.3781 58.1267 37.7852C58.7059 37.199 59.4805 36.4578 59.8509 36.1344C60.2213 35.811 60.8746 35.272 61.2989 34.9351C61.7233 34.605 62.4506 34.0727 62.9154 33.756C63.3801 33.4393 64.2018 32.9205 64.7541 32.5971C65.2996 32.2804 66.0405 31.8694 66.3974 31.6875C66.7611 31.5056 67.4414 31.1889 67.9195 30.98C68.391 30.7712 69.0847 30.4882 69.4619 30.3399C69.8458 30.1984 70.553 29.9491 71.0312 29.7942C71.5094 29.6392 72.3782 29.3966 72.9507 29.2484C73.5232 29.1069 74.4055 28.9183 74.9039 28.8239C75.4023 28.7363 76.2105 28.6083 76.6887 28.5477Z" fill="white"/>
<path d="M51.2773 48.2573C51.4659 47.7924 51.8027 47.0378 52.0249 46.5796L52.429 45.7441L52.6715 45.9395C52.8062 46.0473 55.1567 47.8733 57.8979 50.0024C60.9961 52.4078 62.8819 53.9103 62.8752 53.9777C62.8684 54.0383 62.7876 54.3415 62.6933 54.6582C62.599 54.9749 62.4509 55.5813 62.3498 56.0058C62.2555 56.4303 62.1276 57.1579 62.0602 57.6228C61.9861 58.2023 61.9457 58.9165 61.9457 59.9137C61.9457 60.9109 61.9861 61.6251 62.0602 62.2045C62.1276 62.6694 62.2555 63.3971 62.3498 63.8216C62.4509 64.2461 62.599 64.8525 62.6933 65.1692C62.7876 65.4858 62.8684 65.789 62.8752 65.8497C62.8819 65.9171 62.37 66.3483 61.5686 66.9681C60.8479 67.5206 58.6051 69.259 56.5846 70.8356C54.5641 72.4055 52.7995 73.7868 52.4088 74.0967L52.0115 73.2545C51.7959 72.7896 51.4659 72.035 51.2773 71.5701C51.0955 71.1051 50.7857 70.2562 50.5971 69.6835C50.4018 69.1108 50.1122 68.0934 49.9505 67.4263C49.7821 66.7593 49.5733 65.7756 49.4858 65.2365C49.3915 64.6975 49.2635 63.8014 49.1962 63.2489C49.1019 62.4538 49.075 61.7329 49.075 59.88C49.0817 58.0271 49.1019 57.3129 49.1962 56.5448C49.2635 56.0058 49.3915 55.1299 49.4858 54.5908C49.5733 54.0518 49.7889 53.0546 49.9572 52.3674C50.1256 51.6801 50.4152 50.6627 50.6038 50.1102C50.7857 49.551 51.0887 48.7222 51.2773 48.2573Z" fill="white"/>
<path d="M80.6274 66.3802V60.2825V54.1848H110.397L110.43 54.3667C110.45 54.4745 110.504 54.8586 110.565 55.2292C110.619 55.5997 110.706 56.3409 110.767 56.8799C110.834 57.4526 110.895 58.7193 110.915 59.9456C110.942 61.2527 110.922 62.4655 110.875 63.1798C110.828 63.8131 110.733 64.7968 110.659 65.3695C110.592 65.9422 110.45 66.8384 110.356 67.3572C110.262 67.876 110.067 68.7991 109.912 69.4122C109.763 70.0253 109.481 71.0091 109.285 71.602C109.09 72.1949 108.787 73.0439 108.612 73.4886C108.437 73.9333 108.06 74.7822 107.777 75.3751C107.487 75.9681 107.069 76.7901 106.834 77.1943C106.598 77.5986 106.127 78.36 105.783 78.8788C105.44 79.3976 104.928 80.1253 104.638 80.4958C104.348 80.8664 103.83 81.4863 103.486 81.8771C103.143 82.2679 102.564 82.881 101.54 83.885L97.903 81.0618C95.9027 79.5054 93.606 77.7266 92.8045 77.1067C92.003 76.4869 91.343 75.9681 91.3363 75.9478C91.3363 75.9276 91.6595 75.6716 92.0569 75.3751C92.461 75.0787 93.1345 74.4925 93.5656 74.0613C93.9899 73.6368 94.5085 73.0776 94.7173 72.8148C94.9193 72.552 95.2763 72.0534 95.512 71.703C95.741 71.3527 96.1384 70.652 96.3808 70.1534C96.63 69.6548 96.9533 68.8664 97.1082 68.4015C97.2631 67.9366 97.445 67.31 97.5123 67.0001C97.5797 66.6969 97.6201 66.4274 97.5999 66.4071C97.5797 66.3937 93.7542 66.3802 80.6274 66.3802Z" fill="white"/>
<path d="M56.6001 70.8283C58.9035 69.0293 61.2608 67.2034 61.8333 66.7654C62.4058 66.3342 62.884 65.9838 62.8974 65.9906C62.9042 66.004 63.0995 66.4622 63.3218 67.0215C63.5507 67.574 63.901 68.3488 64.1098 68.7396C64.3186 69.1304 64.6553 69.7166 64.8641 70.0535C65.0661 70.3836 65.477 70.9833 65.7801 71.3808C66.0764 71.7783 66.6085 72.4252 66.9587 72.8227C67.3089 73.2135 67.9286 73.8334 68.3394 74.1972C68.7502 74.5543 69.3227 75.0327 69.6191 75.255C69.9154 75.4774 70.4475 75.8479 70.7977 76.077C71.1479 76.3061 71.8753 76.7171 72.4141 76.9866C72.953 77.2629 73.8016 77.6402 74.3 77.8221C74.7984 78.0108 75.5594 78.2533 75.9837 78.3679C76.4081 78.4824 77.1085 78.6307 77.5328 78.7048C77.9571 78.7789 78.6576 78.8732 79.0819 78.9136C79.5062 78.9473 80.2201 78.981 80.6646 78.981C81.1092 78.981 81.8702 78.9541 82.3484 78.9136C82.8266 78.8732 83.6752 78.7721 84.2342 78.6778C84.7865 78.5835 85.6217 78.4083 86.0864 78.2803C86.5511 78.1523 87.2314 77.9434 87.6018 77.8019C87.9722 77.6672 88.6996 77.3505 89.2182 77.1012C89.7368 76.8519 90.4103 76.488 90.7134 76.2994C91.03 76.0972 91.3061 75.9692 91.3533 75.9962C91.4004 76.0231 92.0335 76.5015 92.7542 77.0608C93.4748 77.62 95.7041 79.3449 97.7045 80.8945C99.7048 82.4442 101.389 83.7581 101.442 83.8053C101.53 83.8794 101.496 83.9333 101.18 84.2163C100.978 84.3915 100.466 84.8227 100.035 85.1663C99.6038 85.5167 98.7821 86.1096 98.2096 86.4936C97.6371 86.8777 96.8289 87.3763 96.4248 87.6121C96.0207 87.8479 95.2866 88.2253 94.8084 88.4543C94.3302 88.6834 93.596 89.0068 93.1919 89.1753C92.7878 89.3437 91.9998 89.6335 91.4408 89.8221C90.8885 90.0108 89.9591 90.2803 89.3866 90.4285C88.8141 90.5767 87.9655 90.7721 87.5008 90.8665C87.0361 90.9608 86.3221 91.0821 85.918 91.1427C85.5139 91.2034 84.7529 91.2977 84.2342 91.3516C83.7156 91.4055 82.4764 91.4661 81.4729 91.4931C80.3009 91.52 79.257 91.5066 78.5431 91.4527C77.9302 91.4055 76.9805 91.3112 76.4215 91.237C75.8693 91.1629 75.0947 91.0416 74.7041 90.9675C74.3134 90.8934 73.512 90.7115 72.9193 90.5633C72.3266 90.415 71.4173 90.1523 70.8987 89.9838C70.3801 89.8154 69.5921 89.5324 69.1476 89.3572C68.7031 89.182 67.9892 88.8788 67.5649 88.6902C67.1406 88.4948 66.4266 88.1444 65.9821 87.9153C65.5376 87.6795 64.8102 87.2685 64.3657 86.999C63.9212 86.7295 63.1803 86.2511 62.7156 85.9344C62.2509 85.611 61.4359 84.9979 60.8971 84.5666C60.3583 84.1354 59.5097 83.3943 59.0113 82.9159C58.5129 82.4442 57.8461 81.7772 57.5363 81.4403C57.2198 81.1102 56.6877 80.497 56.3509 80.0928C56.0074 79.6885 55.5225 79.0619 55.2598 78.7115C55.0039 78.3611 54.6065 77.8019 54.3843 77.465C54.162 77.1281 53.8051 76.5689 53.5895 76.2185C53.374 75.8682 53.0238 75.2415 52.4109 74.0961L56.6001 70.8283Z" fill="white"/>
</svg>
