<svg width="160" height="120" viewBox="0 0 160 120" fill="none" xmlns="http://www.w3.org/2000/svg">
<g clip-path="url(#clip0_1613_31860)">
<path d="M52.6204 60.3311C52.6204 59.486 52.7745 58.6409 53.071 57.7958C53.3794 56.9507 53.8182 56.2008 54.4112 55.5224C55.0042 54.8558 55.7158 54.3083 56.5697 53.9036C57.4117 53.487 58.3724 53.2847 59.4516 53.2847C60.7325 53.2847 61.8354 53.5703 62.7486 54.1417C63.6618 54.713 64.3497 55.451 64.8123 56.3675L63.0689 57.5458C62.8672 57.1173 62.63 56.7603 62.3573 56.4746C62.0845 56.177 61.7761 55.9509 61.4441 55.7723C61.112 55.6057 60.7681 55.4748 60.4123 55.4033C60.0565 55.3319 59.7125 55.2962 59.3805 55.2962C58.6451 55.2962 57.9929 55.451 57.4354 55.7485C56.878 56.0461 56.4155 56.4389 56.036 56.9388C55.6565 57.4268 55.3718 57.9862 55.1821 58.5933C54.9923 59.2003 54.8974 59.8192 54.8974 60.4263C54.8974 61.1166 55.0042 61.7713 55.2295 62.4021C55.4549 63.0211 55.7632 63.5805 56.1664 64.0566C56.5697 64.5327 57.0441 64.9136 57.6015 65.1993C58.1589 65.4849 58.7637 65.6278 59.4279 65.6278C59.7718 65.6278 60.1276 65.5801 60.4834 65.4968C60.8511 65.4135 61.195 65.2707 61.5389 65.0802C61.871 64.8898 62.1912 64.6398 62.4759 64.3542C62.7605 64.0566 62.9977 63.7114 63.1756 63.2948L65.0257 64.3542C64.8004 64.8898 64.4802 65.354 64.0769 65.7587C63.6619 66.1634 63.1993 66.5086 62.6893 66.7823C62.1675 67.0561 61.622 67.2703 61.0527 67.4251C60.4716 67.5679 59.9141 67.6393 59.3567 67.6393C58.3605 67.6393 57.4592 67.4251 56.6408 66.9966C55.8225 66.5681 55.1109 66.0205 54.5179 65.3302C53.9249 64.6517 53.4624 63.8662 53.1303 62.9973C52.7864 62.1165 52.6204 61.2238 52.6204 60.3311Z" fill="white"/>
<path d="M72.6495 58.9747C71.8074 58.9986 71.0484 59.2009 70.3961 59.558C69.7438 59.927 69.2694 60.4388 68.9967 61.1172V67.4852H66.8145V57.0703H68.8425V59.4032C69.1983 58.6891 69.6608 58.1178 70.2419 57.6774C70.8231 57.2489 71.4398 57.0108 72.0921 56.9751C72.2225 56.9751 72.3293 56.9751 72.4241 56.9751C72.5072 56.9751 72.5902 56.987 72.6495 56.9989V58.9747Z" fill="white"/>
<path d="M74.5871 69.9485C74.7887 69.9842 74.9785 70.02 75.1682 70.0438C75.358 70.0676 75.5122 70.0795 75.6308 70.0795C75.7968 70.0795 75.951 70.0438 76.0814 69.9723C76.2119 69.9009 76.3305 69.77 76.4728 69.5796C76.6033 69.3891 76.7456 69.1273 76.8761 68.794C77.0184 68.4607 77.1726 68.0203 77.3623 67.4847L73.0928 57.0698H75.3343L78.5483 65.5564L81.4065 57.0698H83.4701L78.7618 69.889C78.5483 70.4842 78.1806 70.9841 77.6588 71.3888C77.137 71.7935 76.461 71.9958 75.6426 71.9958C75.4885 71.9958 75.3224 71.9839 75.1445 71.9601C74.9666 71.9363 74.7769 71.9006 74.5634 71.8292V69.9485H74.5871Z" fill="white"/>
<path d="M90.9749 67.6991C90.1447 67.6991 89.4094 67.4967 88.769 67.1039C88.1285 66.6992 87.6304 66.1874 87.2628 65.5447V71.7341H85.0806V57.0819H87.0019V58.9506C87.3932 58.3316 87.9151 57.8317 88.5436 57.4627C89.1722 57.0938 89.8838 56.9033 90.6784 56.9033C91.39 56.9033 92.0423 57.0462 92.6471 57.3437C93.2401 57.6413 93.762 58.0222 94.2008 58.5221C94.6396 59.0101 94.9835 59.5814 95.2207 60.2361C95.4698 60.8907 95.5884 61.5692 95.5884 62.2833C95.5884 63.0451 95.4816 63.7474 95.2563 64.402C95.031 65.0567 94.7107 65.628 94.3075 66.116C93.8924 66.604 93.4062 66.9849 92.8487 67.2706C92.2676 67.5562 91.6509 67.6991 90.9749 67.6991ZM90.2633 65.8184C90.7258 65.8184 91.1409 65.7232 91.5204 65.5209C91.9 65.3185 92.2202 65.0567 92.493 64.7234C92.7657 64.3901 92.9673 64.0092 93.1215 63.5926C93.2638 63.1641 93.335 62.7237 93.335 62.2833C93.335 61.8072 93.252 61.3549 93.0859 60.9264C92.9199 60.4979 92.6946 60.129 92.4099 59.8076C92.1253 59.4862 91.7814 59.2362 91.39 59.0458C90.9986 58.8554 90.5598 58.772 90.0973 58.772C89.8245 58.772 89.528 58.8197 89.2196 58.9268C88.9113 59.0339 88.6266 59.1767 88.3657 59.3672C88.1048 59.5576 87.8676 59.7719 87.666 60.0099C87.4644 60.2599 87.3339 60.5217 87.2509 60.8193V63.545C87.3814 63.8664 87.5593 64.164 87.7727 64.4377C87.9862 64.7115 88.2234 64.9614 88.4725 65.1519C88.7334 65.3542 89.0062 65.509 89.3145 65.628C89.6347 65.7589 89.9431 65.8184 90.2633 65.8184Z" fill="white"/>
<path d="M103.179 66.9613C102.906 67.0922 102.515 67.247 102.029 67.4136C101.543 67.5803 101.021 67.6636 100.463 67.6636C100.119 67.6636 99.7991 67.616 99.4908 67.5207C99.1824 67.4255 98.9215 67.2827 98.6843 67.1042C98.4471 66.9137 98.2692 66.6757 98.1387 66.3781C98.0083 66.0805 97.9371 65.7234 97.9371 65.2949V58.7842H96.5732V57.094H97.9371V53.666H100.119V57.094H102.385V58.7842H100.119V64.6046C100.143 64.9736 100.262 65.2473 100.463 65.414C100.665 65.5806 100.926 65.6639 101.222 65.6639C101.531 65.6639 101.815 65.6163 102.1 65.5092C102.373 65.4021 102.586 65.3187 102.717 65.2473L103.179 66.9613Z" fill="white"/>
<path d="M109.099 67.6997C108.28 67.6997 107.545 67.5569 106.881 67.2593C106.229 66.9737 105.671 66.5809 105.209 66.081C104.746 65.593 104.39 65.0097 104.141 64.3551C103.892 63.7004 103.762 63.0101 103.762 62.2959C103.762 61.5817 103.892 60.8914 104.141 60.2367C104.39 59.5821 104.758 59.0108 105.22 58.5109C105.695 58.0228 106.252 57.6301 106.905 57.3325C107.557 57.0349 108.292 56.8921 109.099 56.8921C109.905 56.8921 110.64 57.0349 111.293 57.3325C111.945 57.6301 112.514 58.0109 112.977 58.5109C113.451 58.9989 113.807 59.5821 114.056 60.2367C114.305 60.8914 114.436 61.5817 114.436 62.2959C114.436 63.0101 114.305 63.7004 114.056 64.3551C113.807 65.0097 113.439 65.5811 112.977 66.081C112.502 66.569 111.945 66.9618 111.293 67.2593C110.64 67.545 109.905 67.6997 109.099 67.6997ZM106.003 62.3197C106.003 62.8196 106.086 63.2838 106.24 63.7123C106.395 64.1408 106.62 64.5098 106.893 64.8193C107.165 65.1288 107.498 65.3787 107.877 65.5572C108.257 65.7358 108.66 65.831 109.099 65.831C109.537 65.831 109.941 65.7358 110.32 65.5572C110.7 65.3787 111.02 65.1288 111.305 64.8074C111.577 64.486 111.803 64.117 111.957 63.6885C112.111 63.26 112.194 62.7958 112.194 62.2959C112.194 61.8079 112.111 61.3437 111.957 60.9152C111.803 60.4867 111.577 60.1058 111.305 59.7844C111.032 59.4631 110.7 59.2131 110.32 59.0346C109.941 58.856 109.537 58.7608 109.099 58.7608C108.672 58.7608 108.28 58.856 107.901 59.0346C107.521 59.225 107.201 59.475 106.916 59.7963C106.644 60.1177 106.418 60.4867 106.252 60.9271C106.086 61.3675 106.003 61.8317 106.003 62.3197Z" fill="white"/>
<path d="M116.522 67.4964V53.356H118.74V65.5205H126.294V67.4964H116.522V67.4964Z" fill="white"/>
<path d="M132.068 67.6997C131.25 67.6997 130.514 67.5569 129.85 67.2593C129.198 66.9737 128.641 66.5809 128.178 66.081C127.716 65.593 127.36 65.0097 127.111 64.3551C126.862 63.7004 126.731 63.0101 126.731 62.2959C126.731 61.5817 126.862 60.8914 127.111 60.2367C127.36 59.5821 127.727 59.0108 128.19 58.5109C128.664 58.0228 129.222 57.6301 129.874 57.3325C130.526 57.0349 131.262 56.8921 132.068 56.8921C132.875 56.8921 133.61 57.0349 134.262 57.3325C134.914 57.6301 135.484 58.0109 135.946 58.5109C136.421 58.9989 136.776 59.5821 137.026 60.2367C137.275 60.8914 137.405 61.5817 137.405 62.2959C137.405 63.0101 137.275 63.7004 137.026 64.3551C136.776 65.0097 136.409 65.5811 135.946 66.081C135.472 66.569 134.914 66.9618 134.262 67.2593C133.61 67.545 132.875 67.6997 132.068 67.6997ZM128.973 62.3197C128.973 62.8196 129.056 63.2838 129.21 63.7123C129.364 64.1408 129.589 64.5098 129.862 64.8193C130.135 65.1288 130.467 65.3787 130.847 65.5572C131.226 65.7358 131.629 65.831 132.068 65.831C132.507 65.831 132.91 65.7358 133.29 65.5572C133.669 65.3787 133.989 65.1288 134.274 64.8074C134.547 64.486 134.772 64.117 134.926 63.6885C135.081 63.26 135.164 62.7958 135.164 62.2959C135.164 61.8079 135.081 61.3437 134.926 60.9152C134.772 60.4867 134.547 60.1058 134.274 59.7844C134.001 59.4631 133.669 59.2131 133.29 59.0346C132.91 58.856 132.507 58.7608 132.068 58.7608C131.641 58.7608 131.25 58.856 130.87 59.0346C130.491 59.225 130.171 59.475 129.886 59.7963C129.613 60.1177 129.388 60.4867 129.222 60.9271C129.056 61.3675 128.973 61.8317 128.973 62.3197Z" fill="white"/>
<path d="M138.677 62.2833C138.677 61.5573 138.808 60.8669 139.057 60.2123C139.306 59.5576 139.673 58.9863 140.136 58.4983C140.61 58.0103 141.168 57.6175 141.832 57.3318C142.496 57.0462 143.231 56.9033 144.05 56.9033C145.117 56.9033 146.042 57.1414 146.813 57.6056C147.584 58.0817 148.165 58.7006 148.545 59.4862L146.422 60.1647C146.173 59.7243 145.829 59.391 145.414 59.141C144.987 58.8911 144.524 58.772 144.002 58.772C143.563 58.772 143.16 58.8554 142.781 59.0339C142.401 59.2124 142.081 59.4505 141.796 59.76C141.524 60.0694 141.298 60.4384 141.144 60.8669C140.99 61.2954 140.907 61.7596 140.907 62.2833C140.907 62.7832 140.99 63.2594 141.156 63.6879C141.322 64.1164 141.547 64.4972 141.832 64.8186C142.117 65.14 142.449 65.3899 142.828 65.5685C143.208 65.747 143.611 65.8422 144.026 65.8422C144.287 65.8422 144.56 65.8065 144.821 65.7351C145.082 65.6637 145.331 65.5566 145.544 65.4256C145.758 65.2947 145.959 65.14 146.125 64.9733C146.291 64.8067 146.41 64.6163 146.493 64.4139L148.639 65.0567C148.296 65.8422 147.714 66.485 146.908 66.973C146.101 67.4729 145.153 67.7229 144.05 67.7229C143.243 67.7229 142.508 67.58 141.844 67.2825C141.18 66.9968 140.622 66.5921 140.148 66.0922C139.673 65.5923 139.318 65.021 139.057 64.3663C138.808 63.6998 138.677 63.0094 138.677 62.2833Z" fill="white"/>
<path d="M157.675 67.4966L154.366 62.6998L152.635 64.3304V67.4966H150.453V52.9634H152.635V62.188L157.402 57.1055H159.786L155.754 61.4619L160 67.4966H157.675Z" fill="white"/>
<path d="M45.9553 55.0586C45.3979 52.6543 44.4728 50.369 43.2156 48.286L43.2275 48.2741C43.1919 48.2146 43.1682 48.167 43.1445 48.1193L43.1326 48.1074C43.014 47.8813 42.8361 47.548 42.5515 47.2028C42.4566 47.0957 42.3736 46.9886 42.2787 46.8696C40.8437 44.8342 39.0766 43.0131 37.0485 41.5134C35.6728 40.5016 34.214 39.6565 32.6723 38.9781C31.1186 38.2639 29.5176 37.7402 27.8809 37.4069C26.434 37.1213 24.9515 36.9903 23.4335 37.0022C22.5914 36.9903 21.7494 37.026 20.9073 37.1094C14.9063 37.6926 9.79468 40.335 5.7149 44.9413L5.51328 45.1675L5.56072 45.2151C5.13377 45.715 4.71867 46.2387 4.33916 46.7862C1.76558 50.3809 0.271241 54.6658 0.0340442 59.1531C-0.084554 61.4027 0.105203 63.6762 0.627035 65.902C1.18445 68.3063 2.10951 70.5916 3.36665 72.6746L3.35479 72.6865C3.39037 72.746 3.41409 72.7936 3.43781 72.8412L3.44967 72.8531C3.56827 73.0793 3.74617 73.4126 4.0308 73.7577C4.12568 73.8649 4.2087 73.972 4.30358 74.091C5.73862 76.1264 7.50573 77.9356 9.53376 79.4472C10.8976 80.4589 12.3683 81.304 13.8982 81.9825C15.4518 82.6967 17.0529 83.2323 18.7014 83.5536C20.1602 83.8512 21.6545 83.9821 23.1726 83.9702C24.0027 83.9821 24.8448 83.9464 25.6868 83.8631C31.6998 83.2799 36.8113 80.6494 40.8793 76.0431L41.0809 75.8169L41.0334 75.7693C41.4604 75.2694 41.8755 74.7457 42.255 74.1981C44.8286 70.5916 46.3229 66.3186 46.5601 61.8312C46.655 59.5459 46.4652 57.2844 45.9553 55.0586ZM41.8043 61.5456C41.6146 65.1283 40.4286 68.5325 38.3768 71.401C36.2895 74.3291 33.3957 76.543 30.0157 77.8046C27.5963 78.7093 25.248 79.1616 22.9709 79.1854C20.5278 79.1377 18.1321 78.614 15.9262 77.6618C13.9812 76.7691 12.1073 75.5074 10.3165 73.853C9.67608 73.2697 9.10681 72.5318 8.4901 71.7581C8.34778 71.5795 8.1936 71.3891 8.05128 71.1987C6.72298 69.2823 5.76234 67.116 5.24051 64.8188C4.82541 63.0334 4.67123 61.2123 4.76611 59.4031C4.95587 55.8204 6.14185 52.4162 8.1936 49.5477C10.2809 46.6196 13.1747 44.4057 16.5548 43.144C18.9742 42.2394 21.3343 41.7752 23.5995 41.7633C26.0426 41.8109 28.4265 42.3227 30.6324 43.2749C32.5774 44.1677 34.4512 45.4412 36.2421 47.0838C36.8825 47.667 37.4518 48.405 38.0685 49.1787C38.2108 49.3691 38.365 49.5477 38.5192 49.7381C39.8475 51.6544 40.8081 53.8088 41.3299 56.106C41.7332 57.9153 41.8992 59.7364 41.8043 61.5456Z" fill="white"/>
<path d="M34.6724 68.9371C34.6606 68.949 34.6606 68.949 34.6724 68.9371L34.6606 68.949C33.4983 70.4368 32.2293 71.6033 30.7468 72.5198C26.9636 74.8646 22.3975 75.3764 18.211 73.9243C14.0126 72.4602 10.7393 69.2108 9.23313 65.0092C8.62828 63.3309 8.33179 61.5812 8.36736 59.8077C8.42666 56.4035 9.67195 53.0827 11.8897 50.476C14.1787 47.786 17.3571 46.0363 20.832 45.5364C26.4417 44.7389 31.2924 46.7623 34.8622 51.4044L31.1026 54.3086C28.5765 51.0235 25.4336 49.6904 21.508 50.2617C19.1717 50.595 17.0369 51.7734 15.4951 53.5826C13.9889 55.3442 13.1469 57.5938 13.1113 59.891C13.0876 61.0813 13.2892 62.2596 13.6924 63.3904C14.7242 66.2351 16.9302 68.4371 19.7646 69.4251C22.5991 70.413 25.6827 70.0678 28.2444 68.4728C29.2406 67.8539 30.1183 67.0445 30.9247 66.009C30.9603 65.9733 30.9959 65.9257 31.0315 65.8781L34.6724 68.9371Z" fill="white"/>
<path fill-rule="evenodd" clip-rule="evenodd" d="M26.294 65.4144C23.9102 65.4144 21.6806 65.4144 19.3086 65.4144C20.2692 63.9384 21.1706 62.5577 22.0838 61.177C19.9727 59.9034 19.2849 58.6775 19.7355 57.0706C20.1506 55.6066 21.3959 54.6782 22.9377 54.6901C24.3727 54.702 25.6299 55.678 25.9975 57.0587C26.4482 58.7132 25.7485 59.951 23.673 61.1532C24.4439 62.6172 25.5824 63.8432 26.294 65.4144Z" fill="white"/>
</g>
<defs>
<clipPath id="clip0_1613_31860">
<rect width="160" height="120" fill="white"/>
</clipPath>
</defs>
</svg>
