<svg width="160" height="120" viewBox="0 0 160 120" fill="none" xmlns="http://www.w3.org/2000/svg">
<g clip-path="url(#clip0_1607_31395)">
<g clip-path="url(#clip1_1607_31395)">
<path d="M78.944 58.1182H68.896V50.6077H65.856V69.68H68.896V60.6425H78.944V69.68H81.952V50.6077H78.944M49.296 50.5454C48.192 50.5142 45.952 50.5142 43.968 50.5142V69.6644H47.04V62.4032C47.808 62.4032 49.392 62.3409 50.672 62.3097C52.464 62.2786 57.136 61.406 57.104 56.1549C57.152 50.2337 50.416 50.5454 49.296 50.5454ZM49.136 59.8634H47.104V52.9606H48.832C49.632 52.9606 54.352 52.6178 54.496 56.186C54.688 59.692 50.96 59.8634 49.136 59.8634ZM20.944 50.5142L20.976 69.6644H33.312V67.1713H24.048V60.6736H30.608C30.608 60.1282 30.576 59.3336 30.608 58.2896H24.048V53.0696H33.312C33.28 51.5582 33.312 50.5142 33.312 50.5142H20.944ZM3.008 55.1888C3.008 52.0568 7.264 51.9322 9.776 53.9422C10.64 51.527 10.704 51.3556 10.704 51.3556C3.376 47.9276 0.032 52.4619 0.032 55.3602C0.032 62.2941 10.128 60.8139 8.672 65.691C8.16 67.4673 4.912 68.4802 1.168 66.2675C0.896 67.0155 0.448 67.9192 0 68.823C4.944 71.3472 11.36 70.1318 11.568 64.9275C11.856 58.3831 3.008 58.8505 3.008 55.1888ZM132.672 55.89C132.224 50.2026 126.56 50.6389 125.312 50.5765C124.272 50.5454 122.064 50.5142 120.16 50.5142V69.6332H123.232V61.5929C124.272 61.5929 124.608 61.593 126.176 61.5306L131.776 69.6332H135.504L129.312 61.032C130.976 60.4399 132.912 59.0531 132.672 55.89ZM125.136 59.3492C124.448 59.3492 123.92 59.3492 123.232 59.318V52.8515H124.848C125.616 52.8515 129.648 52.6178 130 55.7497C130.432 59.4582 125.968 59.3492 125.136 59.3492ZM152.944 50.5454H149.392L142.96 69.6955H146C146.96 66.2364 147.28 65.2547 147.28 65.2547L155.232 65.2235C156.16 67.779 156.848 69.7267 156.848 69.7267H160L152.944 50.5454ZM147.984 63.0576L151.088 53.5994H151.12L154.368 63.0265L147.984 63.0576ZM101.024 50C94.768 50 90.688 54.5032 90.688 60.0971C90.688 65.691 94.768 70.1942 101.024 70.1942C107.28 70.1942 111.36 65.691 111.36 60.0971C111.36 54.5032 107.28 50 101.024 50ZM101.024 67.4362C96.432 67.4362 93.84 64.1795 93.84 60.0971C93.84 56.0614 96.432 52.758 101.024 52.758C105.584 52.758 108.208 56.0146 108.208 60.0971C108.208 64.1328 105.616 67.4362 101.024 67.4362Z" fill="white"/>
</g>
</g>
<defs>
<clipPath id="clip0_1607_31395">
<rect width="160" height="120" fill="white"/>
</clipPath>
<clipPath id="clip1_1607_31395">
<rect width="160" height="20.1942" fill="white" transform="translate(0 50)"/>
</clipPath>
</defs>
</svg>
