<svg width="160" height="120" viewBox="0 0 160 120" fill="none" xmlns="http://www.w3.org/2000/svg">
<path fill-rule="evenodd" clip-rule="evenodd" d="M9.72229 37.0901H16.4943V51.4727C16.4943 60.6638 16.5073 66.0556 16.527 66.4195C16.5466 66.7333 16.5924 67.2341 16.6284 67.5379C16.6644 67.8417 16.7331 68.2757 16.7789 68.5061C16.8214 68.7364 16.9097 69.1204 16.9686 69.3574C17.0308 69.5944 17.1453 69.9884 17.2238 70.2254C17.3023 70.4625 17.4463 70.8464 17.5379 71.0768C17.6327 71.3071 17.8094 71.6877 17.9304 71.9281C18.0515 72.1685 18.2412 72.5124 18.3557 72.696C18.467 72.8796 18.6502 73.16 18.7614 73.3203C18.8726 73.4772 19.0918 73.7643 19.2456 73.9546C19.4026 74.1449 19.6807 74.4554 19.8672 74.6457C20.0536 74.836 20.3579 75.1198 20.5444 75.28C20.7308 75.4369 21.0024 75.654 21.1496 75.7608C21.2968 75.871 21.552 76.0412 21.7123 76.1447C21.8726 76.2449 22.167 76.4151 22.3666 76.522C22.5661 76.6288 22.8966 76.7891 23.1027 76.8792C23.3088 76.9693 23.6196 77.0929 23.7897 77.1496C23.9598 77.2097 24.2182 77.2932 24.3622 77.3333C24.5061 77.3767 24.6991 77.4301 24.7875 77.4501C24.8791 77.4735 25.0917 77.5202 25.2618 77.5569C25.432 77.5937 25.7853 77.6538 26.047 77.6905C26.3185 77.7272 26.8289 77.7639 27.2411 77.7739C27.6664 77.7873 28.1538 77.7806 28.4352 77.7573C28.6969 77.7372 29.0633 77.6972 29.2531 77.6704C29.4428 77.6404 29.7143 77.597 29.8583 77.567C30.0022 77.5369 30.2509 77.4802 30.4144 77.4367C30.578 77.3933 30.8561 77.3099 31.036 77.2531C31.2159 77.1964 31.5333 77.0829 31.7394 76.9994C31.9455 76.9159 32.3282 76.739 32.59 76.6054C32.8517 76.4719 33.2573 76.2382 33.4896 76.0846C33.7219 75.9344 34.0327 75.7174 34.1766 75.6039C34.3206 75.4937 34.5856 75.27 34.7655 75.1131C34.9454 74.9529 35.2202 74.6891 35.374 74.5289C35.5278 74.3653 35.7535 74.1149 35.8745 73.9746C35.9923 73.8311 36.1951 73.5673 36.326 73.3904C36.4569 73.2101 36.6793 72.8763 36.82 72.6459C36.9607 72.4155 37.1995 71.9815 37.3467 71.6777C37.4939 71.3739 37.6902 70.9332 37.7818 70.6928C37.8734 70.4558 38.0141 70.0351 38.0959 69.758C38.1809 69.4843 38.2922 69.0536 38.3445 68.8065C38.4001 68.5595 38.4721 68.1689 38.5081 67.9385C38.5441 67.7081 38.5997 67.2975 38.6324 67.0204C38.6847 66.553 38.688 65.5781 38.7044 37.0901H45.4796V83.1958H38.7731V81.0758C38.7731 79.9106 38.7633 78.9558 38.7502 78.9558C38.7338 78.9558 38.5931 79.0927 38.4296 79.2596C38.266 79.4265 37.9421 79.7303 37.7098 79.9373C37.4776 80.1443 37.0915 80.4615 36.8593 80.6451C36.627 80.8254 36.2508 81.0958 36.025 81.2461C35.7993 81.3963 35.4983 81.5899 35.3544 81.6767C35.2104 81.7635 34.8735 81.9538 34.6019 82.0974C34.3337 82.241 33.9182 82.4413 33.6859 82.5481C33.4536 82.6516 33.1298 82.7885 32.9662 82.8519C32.8026 82.9153 32.4558 83.0422 32.1908 83.1324C31.9226 83.2225 31.4744 83.356 31.193 83.4295C30.9084 83.5063 30.4112 83.6164 30.0873 83.6799C29.7634 83.74 29.3054 83.8168 29.0731 83.8435C28.8408 83.8735 28.4712 83.9136 28.2552 83.9303C28.0393 83.9503 27.5453 83.9737 27.1593 83.9837C26.6653 84.0004 26.2237 83.9904 25.6708 83.9503C25.2389 83.9203 24.6632 83.8668 24.3949 83.8335C24.1234 83.7967 23.7275 83.7366 23.5116 83.6966C23.2957 83.6565 23.0176 83.6031 22.89 83.5764C22.7624 83.5497 22.4844 83.4829 22.2684 83.4262C22.0525 83.3727 21.7057 83.2726 21.4996 83.2091C21.2935 83.1457 20.9893 83.0456 20.829 82.9888C20.6687 82.932 20.299 82.7885 20.0111 82.6716C19.7232 82.5548 19.239 82.3311 18.9315 82.1775C18.624 82.0239 18.1693 81.7736 17.9174 81.6233C17.6655 81.4731 17.3056 81.2427 17.1158 81.1159C16.9261 80.9857 16.5826 80.7353 16.347 80.555C16.1115 80.378 15.7451 80.0742 15.5292 79.8839C15.3133 79.697 14.9305 79.3297 14.6786 79.0726C14.4267 78.8156 14.057 78.4116 13.8607 78.1712C13.6612 77.9309 13.3896 77.587 13.2522 77.4034C13.1181 77.2197 12.912 76.9259 12.7942 76.7523C12.6764 76.5787 12.4998 76.3016 12.3984 76.1347C12.2969 75.9678 12.1497 75.714 12.0712 75.5671C11.9894 75.4203 11.8651 75.1866 11.7931 75.0497C11.7179 74.9128 11.5641 74.5889 11.4464 74.3319C11.3319 74.0748 11.1552 73.6541 11.0538 73.3971C10.9556 73.14 10.815 72.7494 10.743 72.529C10.6677 72.3087 10.5565 71.9415 10.4911 71.7111C10.4257 71.4807 10.3373 71.1369 10.2915 70.9432C10.2457 70.7496 10.1836 70.4591 10.1476 70.2922C10.1149 70.1253 10.0625 69.8649 10.0364 69.708C10.0102 69.551 9.95784 69.2072 9.92185 68.9401C9.88259 68.673 9.82698 68.2156 9.79753 67.9218C9.74519 67.4277 9.74192 66.2893 9.7321 52.2372L9.72229 37.0901ZM50.5177 37.0934H57.028V53.8531L57.4467 53.4524C57.6757 53.2354 58.0094 52.9316 58.1893 52.7747C58.3693 52.6211 58.6931 52.3607 58.9091 52.1938C59.125 52.0269 59.4947 51.7631 59.7269 51.6062C59.9625 51.4493 60.3518 51.2056 60.5939 51.062C60.836 50.9185 61.2776 50.6814 61.5753 50.5379C61.873 50.391 62.2394 50.2174 62.3932 50.1539C62.5469 50.0905 62.8414 49.9736 63.0475 49.8969C63.2536 49.8167 63.6462 49.6832 63.9144 49.5997C64.186 49.5163 64.6178 49.3961 64.8795 49.3326C65.1412 49.2692 65.524 49.1857 65.7301 49.149C65.9362 49.1123 66.2699 49.0589 66.4662 49.0288C66.6657 49.0021 67.0093 48.9587 67.235 48.9353C67.4738 48.912 68.0856 48.8953 68.7072 48.8953C69.332 48.8953 69.9667 48.912 70.2448 48.9387C70.5065 48.9621 70.971 49.0188 71.2753 49.0656C71.5828 49.1123 72.0441 49.1924 72.3058 49.2458C72.5675 49.2993 72.9797 49.3994 73.2218 49.4628C73.4639 49.5296 73.9219 49.6698 74.236 49.7767C74.55 49.8835 75.0015 50.0471 75.2338 50.1439C75.4693 50.2407 75.8521 50.4077 76.0844 50.5178C76.3199 50.628 76.7125 50.8283 76.9611 50.9652C77.2065 51.1021 77.6121 51.3391 77.8608 51.496C78.1061 51.6496 78.5216 51.93 78.7833 52.1203C79.045 52.3106 79.4049 52.5877 79.5848 52.7346C79.7615 52.8782 80.0494 53.1253 80.2228 53.2788C80.3929 53.4357 80.756 53.7863 81.0243 54.0667C81.2958 54.3438 81.6426 54.7211 81.7964 54.9047C81.9501 55.0883 82.1791 55.3654 82.3002 55.5224C82.4212 55.6759 82.6568 55.9998 82.8236 56.2401C82.9905 56.4772 83.2358 56.8511 83.3699 57.0748C83.5041 57.2951 83.6807 57.5956 83.7625 57.7425C83.8443 57.8861 83.9948 58.1732 84.0995 58.3768C84.2009 58.5771 84.3776 58.9511 84.4921 59.2115C84.6066 59.4685 84.793 59.9393 84.9108 60.2631C85.0286 60.5836 85.1693 61.0043 85.2281 61.1979C85.287 61.3882 85.3885 61.7722 85.4572 62.0493C85.5291 62.323 85.6207 62.7437 85.6665 62.9841C85.7123 63.2211 85.781 63.6184 85.8137 63.8688C85.8497 64.1158 85.8955 64.4764 85.9152 64.67C85.9348 64.8603 85.9642 65.3277 85.9839 65.705C86.0035 66.0789 86.01 66.6298 85.9969 66.9236C85.9871 67.214 85.9544 67.7182 85.9282 68.042C85.9021 68.3625 85.8432 68.8566 85.8007 69.1437C85.7581 69.4275 85.6763 69.8782 85.624 70.1453C85.5684 70.4091 85.4768 70.7997 85.4244 71.0133C85.3688 71.2237 85.2707 71.5609 85.2085 71.7645C85.1464 71.9648 85.0253 72.3187 84.9435 72.5491C84.8617 72.7761 84.6916 73.2068 84.5673 73.5006C84.443 73.791 84.2238 74.2651 84.0766 74.5522C83.9326 74.836 83.7036 75.2567 83.5662 75.487C83.4321 75.714 83.2227 76.0546 83.1017 76.2382C82.9806 76.4218 82.7353 76.769 82.5586 77.0094C82.382 77.2498 82.0777 77.6337 81.888 77.8607C81.6982 78.0878 81.3809 78.445 81.1846 78.652C80.9883 78.8623 80.6448 79.2029 80.4191 79.4098C80.1933 79.6135 79.804 79.9507 79.5521 80.1577C79.3002 80.3613 78.8946 80.6718 78.6525 80.8421C78.4104 81.0157 77.9753 81.2995 77.6874 81.4764C77.3995 81.6567 76.876 81.9472 76.526 82.1241C76.176 82.3044 75.682 82.5348 75.4301 82.6416C75.1781 82.7484 74.694 82.932 74.3505 83.0489C74.0102 83.1657 73.5686 83.306 73.369 83.3594C73.1727 83.4128 72.8096 83.5029 72.5675 83.5597C72.3254 83.6131 71.9492 83.6899 71.7333 83.7266C71.5174 83.7667 71.164 83.8201 70.9481 83.8468C70.7322 83.8769 70.2382 83.9236 69.8522 83.9503C69.4661 83.977 68.9492 83.997 68.7072 83.997C68.4651 83.997 67.9645 83.977 67.5948 83.9503C67.2252 83.9236 66.705 83.8702 66.4335 83.8301C66.1652 83.7934 65.7236 83.7166 65.452 83.6632C65.1838 83.6064 64.7421 83.5029 64.4706 83.4328C64.2023 83.3594 63.7738 83.2292 63.5219 83.1457C63.2699 83.0589 62.9035 82.9254 62.704 82.8452C62.5077 82.7651 62.2263 82.6516 62.0824 82.5882C61.9385 82.5247 61.5917 82.3578 61.3136 82.2142C61.0355 82.0707 60.6168 81.8437 60.3812 81.7034C60.149 81.5632 59.7204 81.2895 59.4325 81.0891C59.1446 80.8922 58.7193 80.575 58.4838 80.3814C58.2515 80.1911 57.944 79.9307 57.8066 79.8038C57.6692 79.6803 57.4205 79.4499 56.9625 79.0259V83.1991H50.5177V37.0934ZM66.2699 54.9848C66.054 55.0249 65.6778 55.1084 65.4357 55.1685C65.1936 55.2319 64.8239 55.3421 64.6178 55.4155C64.4117 55.489 64.1303 55.5925 63.9962 55.6459C63.8621 55.7026 63.5807 55.8295 63.3746 55.9263C63.1685 56.0265 62.8381 56.2034 62.6385 56.3203C62.4423 56.4371 62.1315 56.6308 61.9515 56.7509C61.7749 56.8745 61.4804 57.0915 61.2972 57.2317C61.1173 57.3753 60.7967 57.6557 60.5841 57.8493C60.3714 58.0463 60.0475 58.3802 59.8643 58.5872C59.6811 58.7975 59.4161 59.118 59.2722 59.305C59.1315 59.4919 58.9091 59.8091 58.7815 60.0127C58.6506 60.213 58.4707 60.5135 58.3791 60.6804C58.2842 60.844 58.1239 61.1679 58.0159 61.3982C57.908 61.6253 57.7706 61.9491 57.7051 62.116C57.643 62.2796 57.5448 62.55 57.4925 62.717C57.4369 62.8806 57.3486 63.1877 57.2929 63.4014C57.2373 63.6117 57.1621 63.9356 57.1261 64.1192C57.0901 64.3028 57.028 64.6834 56.9887 64.9705C56.9298 65.4045 56.9167 65.6416 56.9167 66.4562C56.9167 67.1907 56.9298 67.5279 56.9756 67.8584C57.0051 68.0954 57.0607 68.456 57.0967 68.6596C57.1359 68.86 57.2079 69.1971 57.2602 69.4108C57.3158 69.6211 57.4042 69.935 57.4598 70.1119C57.5154 70.2855 57.6332 70.616 57.7215 70.8464C57.8131 71.0734 57.9832 71.464 58.1043 71.7144C58.2253 71.9615 58.4314 72.3454 58.5623 72.5658C58.6964 72.7828 58.9189 73.13 59.0595 73.3336C59.2002 73.534 59.4619 73.8712 59.6386 74.0848C59.8185 74.2952 60.162 74.6624 60.4041 74.9028C60.6462 75.1398 61.0192 75.4737 61.2351 75.6439C61.4477 75.8142 61.7487 76.0412 61.9025 76.1481C62.0562 76.2549 62.3147 76.4218 62.475 76.5186C62.6385 76.6155 62.9624 76.7924 63.1947 76.9126C63.4302 77.0328 63.7967 77.1997 64.0126 77.2899C64.2285 77.3767 64.5687 77.5002 64.765 77.567C64.9646 77.6304 65.2721 77.7205 65.452 77.7673C65.632 77.814 65.9329 77.8808 66.1227 77.9175C66.3124 77.9542 66.6723 78.011 66.9242 78.0444C67.271 78.0911 67.5981 78.1045 68.2655 78.1045C68.91 78.1011 69.2633 78.0878 69.5741 78.0444C69.8096 78.011 70.1531 77.9576 70.3429 77.9175C70.5326 77.8808 70.8565 77.8073 71.0626 77.7506C71.2687 77.6972 71.5926 77.597 71.7823 77.5336C71.9721 77.4668 72.2796 77.3499 72.4694 77.2732C72.6591 77.193 72.9961 77.0361 73.2218 76.9226C73.4475 76.8058 73.7845 76.6188 73.9742 76.5019C74.164 76.3884 74.4813 76.1781 74.6776 76.0345C74.8772 75.8943 75.1912 75.6506 75.381 75.4904C75.5707 75.3334 75.9371 74.9862 76.1989 74.7191C76.4606 74.4521 76.8008 74.0748 76.9513 73.8778C77.1051 73.6842 77.3144 73.4071 77.4158 73.2602C77.5173 73.1166 77.6939 72.8495 77.8052 72.6659C77.9197 72.4823 78.1094 72.1351 78.2337 71.8981C78.3548 71.6577 78.5281 71.2804 78.6198 71.0634C78.7146 70.8431 78.8488 70.4892 78.9207 70.2788C78.9894 70.0652 79.0974 69.6979 79.1595 69.4609C79.2217 69.2205 79.3002 68.8666 79.3362 68.6763C79.3722 68.4827 79.4278 68.1221 79.4605 67.8751C79.5063 67.5279 79.5194 67.194 79.5194 66.4562C79.5194 65.705 79.5063 65.3845 79.4605 65.0373C79.4278 64.7869 79.3722 64.4263 79.3362 64.236C79.3002 64.0424 79.2348 63.7352 79.189 63.5516C79.1432 63.368 79.0549 63.0508 78.9894 62.8505C78.9273 62.6469 78.7997 62.293 78.7114 62.066C78.623 61.8356 78.4562 61.4583 78.3449 61.2313C78.2304 61.001 78.0374 60.6404 77.9164 60.4301C77.7921 60.2164 77.5729 59.8725 77.4257 59.6622C77.2784 59.4485 77.0331 59.128 76.8826 58.9444C76.7321 58.7608 76.4704 58.4603 76.297 58.28C76.1269 58.0964 75.8259 57.8059 75.6263 57.6323C75.4301 57.4587 75.1356 57.215 74.972 57.0915C74.8117 56.968 74.5304 56.7676 74.3505 56.6508C74.1705 56.5306 73.863 56.3436 73.6635 56.2301C73.4672 56.12 73.1269 55.9464 72.911 55.8462C72.6951 55.7427 72.332 55.5925 72.103 55.509C71.874 55.4222 71.5337 55.3087 71.3505 55.2553C71.164 55.2018 70.8827 55.1284 70.7191 55.0883C70.5588 55.0516 70.2938 54.9982 70.1302 54.9715C69.9699 54.9414 69.6297 54.898 69.3778 54.8713C69.0997 54.8413 68.6385 54.8213 68.2001 54.8246C67.8042 54.8246 67.2971 54.848 67.0714 54.8713C66.8457 54.8947 66.4858 54.9448 66.2699 54.9848ZM142.152 49.346V55.5224H140.755C139.986 55.5224 139.149 55.5357 138.897 55.5557C138.645 55.5724 138.308 55.6125 138.144 55.6425C137.984 55.6692 137.709 55.7293 137.539 55.7727C137.369 55.8161 137.081 55.9029 136.901 55.9697C136.721 56.0365 136.414 56.17 136.214 56.2702C136.018 56.3703 135.743 56.5206 135.609 56.6107C135.475 56.6975 135.216 56.8845 135.036 57.028C134.857 57.1683 134.556 57.4487 134.363 57.6457C134.173 57.846 133.908 58.1598 133.774 58.3434C133.64 58.5271 133.45 58.8108 133.352 58.9778C133.257 59.1414 133.083 59.4719 132.972 59.7123C132.861 59.9493 132.704 60.3399 132.622 60.5803C132.544 60.8173 132.432 61.2013 132.377 61.4316C132.324 61.6586 132.256 61.9992 132.226 62.1828C132.194 62.3664 132.148 62.7403 132.125 63.0174C132.082 63.4381 132.076 65.054 132.076 83.1991H125.566V49.6131H132.01L132.027 53.6895L132.269 53.3289C132.403 53.1286 132.625 52.8248 132.76 52.6512C132.897 52.4776 133.178 52.1604 133.384 51.9467C133.591 51.7331 133.901 51.446 134.071 51.3091C134.242 51.1689 134.516 50.9652 134.677 50.855C134.84 50.7449 135.118 50.5712 135.298 50.4678C135.478 50.3676 135.802 50.204 136.018 50.1105C136.234 50.017 136.564 49.8868 136.754 49.8234C136.944 49.76 137.209 49.6798 137.343 49.6465C137.477 49.6097 137.752 49.5496 137.948 49.5129C138.148 49.4729 138.491 49.4228 138.717 49.3961C138.995 49.366 139.607 49.3493 142.152 49.346ZM105.757 48.9621C106.539 48.9721 106.954 48.9921 107.392 49.0422C107.716 49.0789 108.194 49.149 108.456 49.1958C108.717 49.2425 109.1 49.3193 109.306 49.366C109.512 49.4128 109.915 49.5163 110.199 49.5964C110.481 49.6798 110.939 49.8267 111.214 49.9269C111.488 50.0237 111.874 50.1773 112.071 50.2641C112.27 50.3476 112.637 50.5212 112.889 50.648C113.14 50.7716 113.53 50.9852 113.755 51.1154C113.981 51.249 114.335 51.4693 114.541 51.6062C114.747 51.7431 115.139 52.0235 115.408 52.2305C115.679 52.4375 116.039 52.7313 116.209 52.8815C116.379 53.0351 116.723 53.3623 116.971 53.6127C117.22 53.8631 117.59 54.2637 117.793 54.5041C117.999 54.7411 118.309 55.1317 118.486 55.3721C118.663 55.6092 118.941 56.0165 119.108 56.2735C119.271 56.5306 119.503 56.9112 119.618 57.1249C119.736 57.3352 119.935 57.7191 120.063 57.9762C120.187 58.2333 120.367 58.6239 120.462 58.8442C120.557 59.0646 120.694 59.4151 120.773 59.6288C120.851 59.8391 120.982 60.2297 121.064 60.4968C121.149 60.7606 121.27 61.1812 121.329 61.4316C121.391 61.6787 121.466 61.9858 121.493 62.116C121.522 62.2429 121.574 62.5 121.607 62.6836C121.643 62.8672 121.699 63.2278 121.738 63.4848C121.774 63.7419 121.826 64.1693 121.856 64.4363C121.898 64.8069 121.915 65.3444 121.934 68.5762H95.1735L95.1931 68.7164C95.2029 68.7932 95.2552 69.0469 95.3043 69.2773C95.3567 69.5043 95.4614 69.8949 95.5333 70.1453C95.6086 70.3924 95.7329 70.7529 95.8049 70.9466C95.8801 71.1369 96.0764 71.5742 96.24 71.9147C96.4068 72.2519 96.6882 72.7561 96.8681 73.0332C97.0448 73.3069 97.3392 73.7243 97.5224 73.958C97.7056 74.1917 98.0589 74.5923 98.3075 74.8427C98.5529 75.0964 98.9095 75.4336 99.0992 75.5872C99.289 75.7441 99.5671 75.9644 99.7208 76.078C99.8746 76.1881 100.162 76.3818 100.359 76.5053C100.558 76.6255 100.971 76.8525 101.275 77.0027C101.582 77.1563 102.037 77.3566 102.289 77.4501C102.541 77.5402 102.947 77.6704 103.189 77.7372C103.431 77.8007 103.784 77.8841 103.974 77.9208C104.164 77.9576 104.51 78.0143 104.743 78.0444C105.063 78.0878 105.403 78.1045 106.1 78.1045C106.784 78.1045 107.157 78.0878 107.491 78.0444C107.743 78.0143 108.119 77.9576 108.325 77.9208C108.531 77.8841 108.894 77.8007 109.126 77.7406C109.362 77.6771 109.692 77.5803 109.862 77.5202C110.033 77.4635 110.307 77.3633 110.468 77.2965C110.631 77.2331 110.955 77.0862 111.187 76.9693C111.423 76.8558 111.806 76.6422 112.038 76.4986C112.274 76.3551 112.62 76.1214 112.807 75.9811C112.997 75.8409 113.297 75.6005 113.477 75.447C113.657 75.2934 113.981 74.9862 114.197 74.7692C114.416 74.5489 114.727 74.2083 114.887 74.018C115.051 73.8244 115.264 73.5607 115.359 73.4338C115.457 73.3036 115.538 73.1934 115.545 73.1901C115.552 73.1867 116.458 73.8611 117.56 74.6958C118.663 75.5271 119.716 76.325 119.906 76.4686C120.096 76.6121 120.253 76.7323 120.259 76.7423C120.262 76.749 120.092 76.976 119.88 77.2465C119.667 77.5169 119.337 77.9108 119.147 78.1245C118.957 78.3348 118.591 78.7188 118.332 78.9758C118.074 79.2329 117.73 79.5601 117.567 79.7003C117.406 79.8405 117.112 80.0842 116.912 80.2445C116.716 80.4014 116.353 80.6685 116.111 80.8421C115.869 81.0124 115.457 81.2828 115.195 81.443C114.933 81.5999 114.492 81.8503 114.214 81.9939C113.935 82.1375 113.53 82.3344 113.314 82.4279C113.098 82.5247 112.761 82.6683 112.561 82.7451C112.365 82.8252 111.966 82.9654 111.678 83.0589C111.39 83.1524 111.007 83.2659 110.828 83.3126C110.648 83.3594 110.34 83.4362 110.141 83.4796C109.944 83.523 109.663 83.5831 109.519 83.6131C109.375 83.6398 109.051 83.6932 108.799 83.73C108.547 83.7667 108.076 83.8234 107.752 83.8535C107.334 83.8935 106.846 83.9102 106.068 83.9102C105.269 83.9102 104.811 83.8969 104.383 83.8535C104.059 83.8201 103.588 83.7633 103.336 83.7266C103.084 83.6899 102.619 83.6064 102.305 83.543C101.991 83.4796 101.563 83.3827 101.357 83.326C101.15 83.2726 100.81 83.1758 100.604 83.109C100.398 83.0456 100.081 82.9387 99.9008 82.8753C99.7208 82.8085 99.3675 82.6716 99.1156 82.5715C98.8637 82.4713 98.3632 82.241 98.0033 82.0607C97.6434 81.8804 97.1887 81.64 96.9891 81.5232C96.7928 81.403 96.4821 81.2127 96.3021 81.0925C96.1222 80.9756 95.7983 80.752 95.5824 80.595C95.3665 80.4381 95.0295 80.1777 94.83 80.0141C94.6337 79.8539 94.2869 79.5501 94.0612 79.3431C93.8354 79.1361 93.505 78.8089 93.3251 78.6186C93.1451 78.4283 92.8998 78.1612 92.782 78.0243C92.661 77.8841 92.3992 77.5636 92.1997 77.3065C91.9969 77.0495 91.6501 76.5587 91.4276 76.2215C91.2084 75.881 90.9173 75.4069 90.7864 75.1699C90.6555 74.9295 90.42 74.4654 90.263 74.1349C90.1092 73.801 89.9129 73.3603 89.8311 73.15C89.7493 72.9364 89.6283 72.6058 89.5629 72.4155C89.4942 72.2219 89.3993 71.9214 89.3469 71.7478C89.2946 71.5709 89.1997 71.2337 89.1408 70.9966C89.0787 70.7563 88.9936 70.3723 88.9446 70.1453C88.8988 69.9149 88.8399 69.5911 88.8137 69.4275C88.7875 69.2606 88.7417 68.9468 88.7156 68.7264C88.6894 68.5061 88.6501 68.1221 88.6338 67.8751C88.6174 67.6247 88.5912 67.174 88.5814 66.8735C88.5683 66.5697 88.5749 65.9921 88.5945 65.5882C88.6174 65.1842 88.6632 64.6033 88.6992 64.3028C88.7352 63.999 88.7843 63.6151 88.8137 63.4515C88.8399 63.2845 88.8922 63.0008 88.9282 62.8171C88.9642 62.6335 89.0362 62.3097 89.0885 62.0993C89.1408 61.8857 89.2357 61.5251 89.3011 61.2981C89.3666 61.0677 89.4974 60.6704 89.5858 60.4134C89.6774 60.1563 89.8573 59.6889 89.9882 59.3784C90.119 59.0646 90.2957 58.6673 90.3807 58.4937C90.4658 58.3167 90.6359 57.9962 90.757 57.7759C90.878 57.5555 91.0547 57.2451 91.1495 57.0915C91.2444 56.9346 91.4113 56.6708 91.5225 56.5072C91.6304 56.3403 91.8365 56.0398 91.9838 55.8395C92.131 55.6359 92.3665 55.3287 92.5072 55.1551C92.6511 54.9782 92.8965 54.6944 93.0503 54.5208C93.2073 54.3438 93.5181 54.02 93.7406 53.7963C93.963 53.5726 94.3261 53.2288 94.5519 53.0318C94.7776 52.8348 95.1538 52.5277 95.3861 52.3474C95.6217 52.1704 96.024 51.88 96.2858 51.7064C96.5475 51.5328 96.9302 51.2924 97.1364 51.1722C97.3425 51.052 97.7089 50.855 97.9477 50.7348C98.1865 50.6113 98.5824 50.4244 98.831 50.3175C99.0763 50.2073 99.5082 50.0371 99.7863 49.9369C100.064 49.8334 100.447 49.7066 100.637 49.6498C100.827 49.593 101.157 49.5029 101.373 49.4461C101.589 49.3927 101.913 49.3159 102.093 49.2792C102.273 49.2425 102.603 49.1824 102.829 49.149C103.054 49.1123 103.473 49.0589 103.761 49.0322C104.049 49.0055 104.379 48.9754 104.497 48.9687C104.615 48.9587 105.181 48.9554 105.757 48.9621ZM103.99 54.8413C103.774 54.868 103.437 54.9281 103.238 54.9715C103.041 55.0149 102.747 55.0883 102.583 55.1351C102.423 55.1852 102.099 55.292 101.864 55.3788C101.631 55.4623 101.173 55.6692 100.849 55.8362C100.526 56.0031 100.071 56.2702 99.8353 56.4271C99.6031 56.5874 99.2694 56.8311 99.0992 56.9713C98.9291 57.1115 98.6412 57.3652 98.4613 57.5355C98.2814 57.7058 97.9739 58.0363 97.7743 58.27C97.578 58.5037 97.2901 58.8743 97.1364 59.0946C96.9826 59.3116 96.7667 59.6455 96.6554 59.8358C96.5442 60.0227 96.3512 60.39 96.2269 60.6471C96.0993 60.9041 95.9161 61.3248 95.8179 61.5819C95.7198 61.8389 95.5922 62.1995 95.5399 62.3831C95.4843 62.5667 95.409 62.8438 95.3698 63.0008C95.3305 63.1543 95.3043 63.2879 95.3109 63.2912C95.3174 63.2946 99.8288 63.2946 105.338 63.2912L115.355 63.2845C115.179 62.5834 115.074 62.2229 115.012 62.0326C114.946 61.8389 114.829 61.5151 114.747 61.3148C114.665 61.1111 114.511 60.7673 114.403 60.5469C114.295 60.3266 114.148 60.0394 114.073 59.9126C114.001 59.7824 113.854 59.542 113.746 59.3784C113.638 59.2115 113.441 58.9344 113.314 58.7608C113.183 58.5838 112.925 58.27 112.738 58.0597C112.548 57.846 112.202 57.5021 111.966 57.2918C111.73 57.0781 111.393 56.801 111.217 56.6708C111.04 56.5406 110.762 56.3503 110.599 56.2502C110.438 56.15 110.163 55.9898 109.993 55.8996C109.823 55.8095 109.506 55.6559 109.29 55.5624C109.074 55.4656 108.766 55.3421 108.603 55.2853C108.443 55.2286 108.119 55.1351 107.883 55.0716C107.651 55.0082 107.275 54.9281 107.049 54.8914C106.823 54.8546 106.486 54.8079 106.297 54.7879C106.107 54.7678 105.652 54.7545 105.282 54.7578C104.913 54.7612 104.559 54.7678 104.497 54.7745C104.435 54.7812 104.206 54.8112 103.99 54.8413Z" fill="white"/>
</svg>
