<svg width="160" height="120" viewBox="0 0 160 120" fill="none" xmlns="http://www.w3.org/2000/svg">
<path fill-rule="evenodd" clip-rule="evenodd" d="M12.2775 41.0235C14.1468 41.0612 16.0416 41.0863 16.4994 41.1114C16.9571 41.124 17.3768 41.124 17.4531 41.1114C17.5167 41.0989 17.682 41.0863 17.7964 41.0989C17.9236 41.0989 18.0253 41.1616 18.0253 41.237C18.0253 41.2998 17.9618 41.3374 17.8982 41.2998C17.8219 41.2621 17.771 41.6514 17.771 43.4973H18.7883L18.7502 42.3671C18.7375 41.7393 18.6866 41.237 18.623 41.237C18.5722 41.237 18.5086 41.2872 18.4704 41.3626C18.4323 41.4253 18.3433 41.463 18.2797 41.4253C18.2034 41.3877 18.1525 41.2872 18.1652 41.1993C18.1652 41.1114 18.2034 41.124 18.2415 41.237C18.2924 41.3751 18.3305 41.3877 18.3941 41.2747C18.4323 41.1868 18.6993 41.1114 18.9791 41.0989C19.2588 41.0989 20.0727 41.0989 20.7848 41.0989C21.5733 41.1114 22.0946 41.1616 22.0946 41.237C22.0946 41.2998 22.0311 41.3374 21.9675 41.2998C21.8912 41.2621 21.8403 41.6514 21.8403 43.4973H22.8576V42.3671C22.8576 41.3751 22.8322 41.237 22.6287 41.2244C22.5143 41.2119 22.5779 41.1742 22.794 41.124C22.9975 41.0863 26.0368 41.0486 35.8921 41.0486V52.2245L35.5233 53.8569C35.3326 54.7485 34.9765 56.0796 34.7349 56.8079C34.4933 57.5362 33.9592 58.8045 33.5395 59.6332C33.1326 60.462 32.4713 61.6173 32.0644 62.2075C31.6702 62.7976 30.9581 63.7269 30.4876 64.2794C30.0171 64.8319 29.0379 65.849 28.313 66.5397C27.5882 67.2303 26.3801 68.2475 25.6426 68.8C24.8923 69.3525 23.8495 70.0557 22.3235 70.9347L21.9293 70.6961C21.7004 70.5705 20.9756 70.1059 20.3143 69.6664C19.6531 69.2395 18.6993 68.5614 18.2161 68.1721C17.7201 67.7954 16.7283 66.9038 16.0034 66.1881C15.2913 65.4849 14.3503 64.4803 13.9306 63.9655C13.4982 63.4506 12.8624 62.5967 12.5191 62.0819C12.163 61.567 11.5653 60.5499 11.1965 59.8216C10.8278 59.0933 10.281 57.7371 9.96304 56.8079C9.65785 55.8786 9.26363 54.4974 9.11103 53.7314C8.83127 52.4254 8.81855 52.0361 8.7804 46.8375C8.76769 43.8112 8.7804 41.2495 8.81855 41.1491C8.86942 40.9984 9.40351 40.9733 12.2775 41.0235V41.0235ZM55.5392 43.9368C56.0733 43.9619 56.9762 44.1377 58.7438 44.6902L58.9854 44.4014C59.1253 44.2507 59.316 44.1502 59.4177 44.1879C59.583 44.2381 59.6085 44.5897 59.6085 46.3226C59.6085 47.8923 59.5703 48.3946 59.4432 48.3946C59.3669 48.3946 59.1125 47.93 58.8836 47.3523C58.6039 46.6366 58.286 46.1092 57.8663 45.6445C57.5357 45.2804 57.027 44.8534 56.7473 44.7028C56.3658 44.5144 56.0097 44.4516 55.3484 44.4516C54.6109 44.4516 54.3438 44.5144 53.7716 44.8158C53.3901 45.0292 52.8941 45.4185 52.6525 45.6948C52.4109 45.971 52.0294 46.5863 51.7878 47.0761C51.5589 47.5658 51.3046 48.2564 51.2283 48.608C51.152 48.9722 51.0884 49.801 51.0884 50.4288C51.0884 51.0692 51.1774 51.9482 51.2791 52.3752C51.3809 52.8147 51.6098 53.4426 51.7878 53.7942C51.9658 54.1332 52.3728 54.6857 52.7034 54.9996C53.0722 55.3387 53.5808 55.6652 53.975 55.8159C54.4201 55.9665 54.9797 56.0544 55.6282 56.0544C56.175 56.0544 56.8236 55.9917 57.0652 55.9163C57.3068 55.8284 57.7391 55.6149 58.0189 55.4266C58.3495 55.2131 58.6547 54.849 58.8836 54.4095C59.0744 54.0327 59.2779 53.5179 59.3287 53.2542C59.3923 52.9277 59.4813 52.7896 59.6339 52.7896C59.8247 52.7896 59.8501 52.8649 59.7865 53.2542C59.7356 53.5179 59.5958 54.0076 59.4686 54.3592C59.3414 54.6983 59.0617 55.2006 58.8455 55.4517C58.6166 55.7405 58.1334 56.0796 57.6628 56.3056C57.2305 56.5191 56.5056 56.7451 56.0478 56.8204C55.59 56.8958 54.8271 56.9083 54.3311 56.8707C53.8352 56.8204 53.123 56.6823 52.7415 56.5693C52.36 56.4563 51.7878 56.2051 51.4699 56.0293C51.152 55.8535 50.6306 55.414 50.2872 55.0624C49.9566 54.7108 49.5243 54.0704 49.3081 53.6309C49.1046 53.204 48.8757 52.5384 48.7994 52.1617C48.7231 51.785 48.6722 51.0441 48.6722 50.5293C48.6722 50.0144 48.7613 49.2233 48.8757 48.7713C48.9774 48.3192 49.2572 47.5909 49.4988 47.1389C49.7531 46.6617 50.2364 46.0464 50.6433 45.6571C51.0248 45.3055 51.6988 44.8409 52.1311 44.6274C52.5762 44.4265 53.3011 44.1628 53.7589 44.0623C54.2675 43.9493 54.9542 43.8991 55.5392 43.9368V43.9368ZM69.0187 43.9368C69.5783 43.9619 70.3158 44.1 70.7991 44.2758C71.2568 44.4391 71.9308 44.7655 72.3123 45.0041C72.6938 45.2427 73.2915 45.7576 73.6476 46.1468C74.0036 46.5236 74.4487 47.1137 74.6395 47.4653C74.8302 47.8044 75.0718 48.4197 75.1735 48.8341C75.288 49.2485 75.377 49.9265 75.377 50.3409C75.377 50.7553 75.288 51.4334 75.1735 51.8478C75.0718 52.2622 74.7921 52.9403 74.5759 53.3421C74.347 53.7565 73.9655 54.3216 73.7111 54.5978C73.4568 54.8866 72.7701 55.4015 72.1852 55.7531C71.6002 56.1172 70.8245 56.5065 70.4811 56.6195C70.0361 56.7828 69.4638 56.8455 68.5737 56.8455C67.5945 56.8455 67.1112 56.7702 66.4754 56.5567C66.0176 56.406 65.3309 56.0921 64.9494 55.8661C64.5679 55.6401 63.9575 55.1503 63.6142 54.7611C63.2581 54.3843 62.8003 53.7188 62.5842 53.2793C62.368 52.8398 62.1136 52.1743 62.0373 51.8101C61.961 51.4585 61.8975 50.8432 61.8975 50.4665C61.8975 50.0898 61.961 49.4745 62.0373 49.1103C62.1136 48.7587 62.3807 48.0681 62.635 47.5784C62.9148 47.0384 63.398 46.398 63.894 45.9082C64.4662 45.3557 64.9876 44.9916 65.7379 44.64C66.3228 44.3637 67.0731 44.0875 67.4292 44.0121C67.7725 43.9368 68.4974 43.9117 69.0187 43.9368V43.9368ZM80.3619 44.2507C82.8543 44.2507 83.2613 44.2758 83.2613 44.4391C83.2613 44.5395 83.1468 44.6274 83.0069 44.6274C82.8671 44.6274 82.5492 44.7153 82.3075 44.8158C82.0532 44.9288 81.7734 45.1799 81.6463 45.406C81.4555 45.7576 81.4174 46.2724 81.3792 48.9596C81.3538 50.68 81.3919 52.664 81.4555 53.3547C81.5191 54.0453 81.6717 54.7987 81.7862 55.0122C81.9006 55.2382 82.1804 55.5522 82.3966 55.7028C82.6636 55.8786 83.1595 56.0168 83.7699 56.0921C84.5584 56.1926 84.8508 56.1675 85.4231 55.9917C85.8046 55.8786 86.3133 55.6526 86.5549 55.5019C86.7965 55.3638 87.1271 54.9871 87.3179 54.6732C87.4959 54.3592 87.7248 53.7942 87.8392 53.4174C87.9664 52.9905 88.119 52.7268 88.2334 52.7268C88.3606 52.7268 88.4115 52.8775 88.4115 53.2542C88.4115 53.5556 88.3988 54.4095 88.3479 56.5567H82.8798C78.0984 56.5567 77.4117 56.5316 77.4117 56.3684C77.4117 56.2428 77.577 56.1549 77.8822 56.1047C78.1492 56.067 78.4417 55.9791 78.518 55.9163C78.607 55.8535 78.7469 55.8284 78.8105 55.8661C78.8741 55.9038 78.9249 55.8912 78.9122 55.8284C78.8995 55.7782 78.9504 55.4894 79.0394 55.1754C79.1665 54.7485 79.192 53.4802 79.1665 50.0898C79.1411 46.3226 79.0902 45.519 78.9376 45.2804C78.8359 45.1297 78.5562 44.9162 78.3273 44.8158C78.1111 44.7153 77.7804 44.6274 77.6024 44.6274C77.4244 44.6274 77.2718 44.5772 77.2591 44.527C77.2463 44.4642 77.2845 44.3763 77.3481 44.3386C77.4117 44.2884 78.7596 44.2507 80.3619 44.2507V44.2507ZM92.3536 44.2507C94.9224 44.2507 95.342 44.2758 95.342 44.4391C95.342 44.5646 95.164 44.6525 94.7698 44.6902C94.3374 44.7404 94.1212 44.8409 93.8796 45.1297C93.7016 45.3306 93.5235 45.6948 93.4854 45.9082C93.4472 46.1343 93.4345 48.1309 93.46 50.3409C93.4981 54.1834 93.5108 54.3843 93.7779 54.8615C93.9178 55.1378 94.2102 55.5145 94.4137 55.7028C94.6044 55.8912 94.9351 56.1047 95.1513 56.18C95.3547 56.2679 95.9906 56.3307 96.5501 56.3307C97.3131 56.3307 97.7582 56.2554 98.3304 56.0419C98.75 55.8786 99.2841 55.5773 99.5258 55.3764C99.7674 55.1629 100.034 54.7987 100.136 54.5727C100.263 54.2713 100.301 53.204 100.301 50.027C100.301 46.6617 100.263 45.8078 100.111 45.4687C99.9963 45.2176 99.7547 44.9916 99.4495 44.8534C99.1824 44.7404 98.8645 44.6274 98.7373 44.6023C98.6102 44.5772 98.5084 44.5018 98.5084 44.4391C98.5211 44.3637 99.3477 44.3009 100.658 44.2758C102.489 44.2507 102.794 44.2758 102.819 44.4391C102.832 44.5646 102.73 44.6274 102.489 44.6274C102.298 44.6274 101.942 44.753 101.7 44.9162C101.433 45.0795 101.192 45.3808 101.103 45.632C101.001 45.9334 100.95 47.277 100.95 49.8638C100.937 52.2747 100.886 53.9072 100.785 54.3216C100.683 54.7862 100.505 55.1378 100.174 55.4894C99.9073 55.7656 99.3604 56.1423 98.9535 56.3307C98.5339 56.5191 97.7454 56.7325 97.1859 56.8204C96.4229 56.9209 95.8761 56.9209 95.0241 56.8079C94.3883 56.7325 93.6253 56.5567 93.3074 56.4186C92.9894 56.2805 92.5444 56.0293 92.3155 55.8535C92.0993 55.6903 91.7814 55.3136 91.6161 55.0122C91.349 54.4974 91.3363 54.3341 91.2727 50.1526C91.2218 47.1765 91.1455 45.7073 91.0438 45.4687C90.9548 45.2804 90.764 45.0418 90.5987 44.9413C90.4461 44.8283 90.1028 44.7028 89.8357 44.6525C89.5814 44.6023 89.3652 44.4893 89.3652 44.4014C89.3652 44.2884 90.0519 44.2507 92.3536 44.2507V44.2507ZM108.376 44.2507L108.72 45.092C108.911 45.5692 109.737 47.616 110.576 49.6503C111.403 51.6845 112.128 53.3547 112.179 53.3547C112.242 53.3547 112.967 51.7473 113.806 49.7759C114.646 47.8044 115.51 45.7576 116.134 44.2381L118.066 44.2507C119.707 44.2507 120.012 44.2758 120.012 44.4391C120.012 44.5395 119.898 44.6274 119.758 44.6274C119.618 44.6274 119.3 44.7153 119.058 44.8158C118.804 44.9288 118.512 45.1799 118.384 45.406C118.194 45.7827 118.168 46.2724 118.168 50.4037C118.168 54.7611 118.181 55.0122 118.423 55.4015C118.562 55.6275 118.88 55.8786 119.147 55.9917C119.414 56.0921 119.72 56.18 119.821 56.18C119.923 56.18 120.012 56.2679 120.012 56.3684C120.012 56.5316 119.592 56.5567 117.024 56.5567C114.722 56.5567 114.035 56.5191 114.035 56.3935C114.035 56.3181 114.264 56.2051 114.544 56.1423C114.824 56.0921 115.243 55.8912 115.879 55.3261L115.905 50.8809C115.93 47.3398 115.905 46.511 115.778 46.7496C115.688 46.9254 114.709 49.1857 113.59 51.7724C112.357 54.6104 111.467 56.5065 111.365 56.5316C111.225 56.5567 110.564 55.1629 106.787 46.5738L106.85 55.3261L107.257 55.6903C107.486 55.8912 107.906 56.0921 108.186 56.1423C108.465 56.2051 108.682 56.293 108.656 56.3684C108.631 56.4437 107.741 56.5065 106.431 56.5191C104.752 56.5442 104.244 56.5191 104.244 56.3935C104.244 56.3181 104.472 56.2051 104.752 56.1423C105.032 56.0921 105.401 55.9289 105.592 55.7656C105.77 55.6149 105.96 55.2633 106.024 54.9871C106.087 54.7108 106.151 52.6138 106.151 50.3409C106.151 47.9802 106.1 45.9961 106.024 45.7199C105.948 45.4562 105.744 45.1423 105.541 44.9916C105.35 44.8534 104.981 44.7028 104.714 44.6525C104.46 44.6023 104.244 44.4893 104.244 44.4014C104.244 44.2884 104.74 44.2507 108.376 44.2507ZM125.455 44.2507C128.202 44.2507 129.384 44.2884 129.804 44.4139C130.122 44.5018 130.567 44.7153 130.808 44.8786C131.063 45.0544 131.381 45.4562 131.546 45.8203C131.711 46.172 131.839 46.6994 131.839 47.0133C131.839 47.3272 131.775 47.7793 131.699 48.0179C131.61 48.2564 131.393 48.6583 131.203 48.8969C131.012 49.1354 130.681 49.4243 130.452 49.5247C130.236 49.6252 130.045 49.7507 130.058 49.801C130.058 49.8638 130.16 49.9014 130.274 49.9014C130.402 49.9014 130.783 50.0396 131.139 50.1902C131.482 50.3535 131.928 50.68 132.118 50.9186C132.309 51.1571 132.576 51.5966 132.716 51.9106C132.869 52.2496 132.983 52.7519 132.983 53.1663C132.983 53.543 132.894 54.1081 132.792 54.422C132.678 54.7359 132.449 55.1754 132.271 55.3889C132.106 55.6149 131.661 55.954 130.63 56.4939H126.154C123.255 56.4939 121.665 56.4437 121.653 56.3684C121.653 56.293 121.881 56.18 122.161 56.1172C122.454 56.0419 122.835 55.841 123.382 55.301V45.519L123.001 45.1297C122.784 44.9162 122.428 44.7153 122.174 44.6651C121.932 44.6274 121.691 44.5772 121.627 44.5521C121.576 44.527 121.564 44.4391 121.602 44.3763C121.653 44.3009 123.064 44.2507 125.455 44.2507V44.2507ZM137.815 44.2507C139.99 44.2507 140.766 44.2884 140.829 44.4014C140.905 44.5144 140.867 44.527 140.702 44.4642C140.588 44.4139 140.486 44.4265 140.486 44.5018C140.486 44.5646 140.346 44.64 140.168 44.6525C139.99 44.6776 139.786 44.6274 139.697 44.5646C139.604 44.4725 139.587 44.4809 139.646 44.5897C139.685 44.6776 139.634 44.8534 139.532 44.9665C139.43 45.092 139.265 45.4185 139.163 45.6948C139.011 46.0966 138.973 47.0258 138.96 50.3409C138.96 53.0784 139.011 54.6606 139.112 54.9871C139.189 55.2633 139.392 55.6149 139.545 55.7656C139.71 55.9289 140.079 56.0921 140.359 56.1423C140.638 56.2051 140.867 56.3181 140.867 56.3935C140.867 56.5191 140.181 56.5567 137.879 56.5567C135.577 56.5567 134.891 56.5191 134.891 56.3935C134.891 56.3181 135.107 56.2051 135.361 56.1549C135.628 56.1047 135.997 55.954 136.188 55.8159C136.391 55.6652 136.595 55.3512 136.671 55.075C136.747 54.8113 136.798 52.7896 136.798 50.4037C136.798 48.0179 136.747 45.9961 136.671 45.7199C136.595 45.4562 136.391 45.1423 136.188 44.9916C135.997 44.8534 135.628 44.7028 135.361 44.6525C135.107 44.6023 134.891 44.4893 134.891 44.4014C134.891 44.2758 135.539 44.2507 137.815 44.2507V44.2507ZM148.332 44.2758C148.65 44.3135 148.802 44.64 150.913 49.6503C152.134 52.5887 153.291 55.1754 153.457 55.3889C153.635 55.6149 153.889 55.8535 154.029 55.9163C154.169 55.9791 154.499 56.067 154.754 56.1047C155.059 56.1549 155.237 56.2428 155.237 56.3684C155.237 56.5316 154.83 56.5567 152.16 56.5191C150.265 56.5065 149.069 56.4437 149.044 56.3684C149.019 56.293 149.247 56.2051 149.54 56.1549C149.871 56.0921 150.214 55.9289 150.405 55.728C150.621 55.5145 150.723 55.2759 150.697 55.0122C150.697 54.7862 150.405 53.9448 149.451 51.6469L145.661 51.7222L145.178 52.9779C144.924 53.6686 144.67 54.4346 144.619 54.6732C144.555 55.0122 144.606 55.2131 144.835 55.5522C145.038 55.8535 145.293 56.0293 145.611 56.1172C145.878 56.18 146.081 56.3181 146.081 56.3935C146.081 56.5191 145.56 56.5567 143.919 56.5567C142.279 56.5567 141.757 56.5191 141.757 56.3935C141.757 56.3181 141.999 56.18 142.292 56.0921C142.711 55.9791 142.953 55.8033 143.309 55.3387C143.563 55.0122 143.894 54.4471 144.046 54.1081C144.199 53.7565 145.064 51.6092 145.954 49.3364C146.844 47.0635 147.671 44.979 147.785 44.7153C147.963 44.3135 148.052 44.2381 148.332 44.2758V44.2758ZM7.02552 57.6366C7.2417 57.6743 7.61048 57.7999 7.85209 57.9129C8.09371 58.0259 8.72954 58.5282 9.25091 59.0179C9.96304 59.696 10.2937 60.1104 10.5734 60.7132C10.8914 61.4289 10.9168 61.567 10.7896 61.9814C10.6625 62.4335 10.5989 62.4712 9.73414 62.7223C9.22548 62.873 8.58965 63.1241 8.33532 63.2874C8.06828 63.4506 7.82666 63.639 7.78851 63.7143C7.75036 63.7771 7.99198 64.2794 8.30989 64.8068C8.64052 65.3468 9.13647 66.1002 9.42895 66.4769C9.70871 66.8536 10.37 67.607 10.9041 68.1596C11.4254 68.6995 12.2012 69.4153 12.6208 69.7292C13.0404 70.0557 13.7271 70.5329 14.1468 70.784C14.5664 71.0352 15.3421 71.4119 15.8635 71.6253C16.3849 71.8388 17.5421 72.1904 18.445 72.4164C19.3351 72.6425 20.06 72.8559 20.06 72.9062C20.06 72.969 20.0218 73.0066 19.971 73.0066C19.9074 73.0066 19.0935 72.8057 18.1525 72.5546C17.2115 72.316 15.9144 71.8765 15.2913 71.5751C14.6682 71.2863 13.689 70.7463 13.1422 70.3696C12.5954 69.9929 11.6925 69.2395 11.1457 68.6995C10.5862 68.1721 9.74686 67.2052 9.26363 66.5648C8.7804 65.9369 8.10643 64.9324 7.7758 64.3422C7.43245 63.752 6.94922 62.8353 6.7076 62.3079C6.46599 61.768 6.22437 61.341 6.16079 61.3285C6.10993 61.3285 5.94461 61.5168 5.79201 61.7303C5.65213 61.9563 5.3978 62.2451 5.25792 62.3581C5.10532 62.4837 4.54579 62.7976 3.99898 63.0488C3.15968 63.4506 3.0198 63.5636 3.0961 63.7771C3.13425 63.9152 3.46488 64.6812 3.83366 65.4723C4.20244 66.2634 4.82555 67.4187 5.21977 68.0465C5.60126 68.6618 6.30067 69.6287 6.74575 70.1813C7.19083 70.7338 8.04284 71.6253 8.6278 72.1653C9.21277 72.7053 10.1538 73.4461 10.7133 73.8228C11.2728 74.187 12.163 74.7144 12.6844 74.9907C13.2058 75.2669 14.2358 75.7064 14.9734 75.9576C15.7109 76.2087 17.0843 76.6105 18.0253 76.8366C18.9664 77.0752 19.7675 77.2761 19.8057 77.2761C19.8438 77.2761 19.9837 76.9245 20.1109 76.4975C20.2507 76.058 20.4033 75.6436 20.4669 75.5808C20.5305 75.5055 20.5687 75.5306 20.5687 75.6436C20.5687 75.7441 20.4033 76.3719 20.1999 77.0249C19.971 77.7532 19.8565 78.2932 19.9201 78.4062C19.9837 78.5067 20.3398 78.7327 20.7085 78.8959C21.2172 79.122 21.6368 79.2099 22.2854 79.2099C22.7686 79.2099 23.4044 79.1471 23.6842 79.0592C23.964 78.9838 24.3582 78.7704 24.9559 78.3058L24.7397 77.6402C24.6252 77.2635 24.3836 76.4724 23.875 74.7646L23.4553 74.9781C23.2391 75.0911 22.7559 75.1916 22.3871 75.2041C22.0183 75.2041 21.6496 75.1288 21.5605 75.0534C21.4334 74.9279 21.5351 74.9028 22.0946 74.9655C22.6033 75.0283 22.9339 74.9907 23.2773 74.84C23.5316 74.727 23.7478 74.5637 23.7478 74.4758C23.7605 74.4005 23.6333 74.2121 23.4935 74.074C23.3536 73.9359 23.2264 73.7224 23.2391 73.5968C23.2391 73.4838 23.3663 73.308 23.5189 73.2075C23.6842 73.1071 24.8414 72.768 26.1004 72.4541C27.4229 72.1151 28.8217 71.663 29.4067 71.3993C29.9662 71.1356 30.8818 70.6208 31.4413 70.2441C32.0008 69.8673 32.9164 69.1013 33.476 68.5488C34.0355 67.9963 34.8239 67.1173 35.2054 66.6025C35.5996 66.0876 36.1846 65.2337 36.5025 64.7189C36.8331 64.1789 37.0366 63.7269 36.973 63.6515C36.9221 63.5762 36.5915 63.3753 36.2609 63.1869C35.9175 63.0111 35.3453 62.7851 35.0019 62.6972C34.6459 62.6218 34.2644 62.4586 34.1372 62.3456C33.9973 62.22 33.921 61.9689 33.921 61.6424C33.921 61.3661 34.0482 60.889 34.2135 60.575C34.3661 60.2611 34.7858 59.696 35.1418 59.3193C35.4979 58.9426 36.0193 58.478 36.2863 58.2771C36.5534 58.0887 37.0239 57.8501 37.3164 57.7497C37.736 57.6115 37.9776 57.5864 38.3337 57.6869C38.6007 57.7497 38.9059 57.8627 39.0077 57.9255C39.1094 58.0008 39.1603 58.0761 39.0967 58.1138C39.0458 58.1515 38.8296 58.1013 38.6262 58.0008C38.4227 57.9004 38.0921 57.8124 37.8886 57.8124C37.6979 57.8124 37.2909 57.938 36.973 58.0887C36.6551 58.2394 36.0193 58.7542 35.536 59.2189C35.0655 59.6835 34.5823 60.2862 34.4424 60.5374C34.3152 60.8011 34.1754 61.1652 34.1245 61.3536C34.0864 61.5545 34.0991 61.8307 34.1499 61.9814C34.2135 62.1447 34.3534 62.3079 34.4678 62.3581C34.595 62.4209 34.9511 62.3958 35.2944 62.3205C35.6251 62.2577 36.388 61.9438 36.9984 61.6298C37.6724 61.3033 38.2574 61.0899 38.4608 61.1024C38.7025 61.1275 38.9314 61.3159 39.2366 61.7052C39.4782 62.0191 39.7707 62.3205 39.9105 62.3958C40.1013 62.4963 40.2284 62.4335 40.5972 62.0819C40.8388 61.8433 41.0423 61.6047 41.0423 61.5419C41.0423 61.4917 40.966 61.454 40.877 61.454C40.8007 61.454 40.381 61.3033 39.9614 61.1401C39.5418 60.9643 38.9822 60.6629 38.7152 60.4746C38.4481 60.2862 38.1938 59.9974 38.1302 59.8216C38.0666 59.6458 38.0794 59.3821 38.1302 59.2189C38.1938 59.0682 38.2701 58.9426 38.3082 58.9426C38.3464 58.9426 38.6389 59.1435 38.9822 59.3947C39.5799 59.8593 39.5799 59.8593 39.6181 59.5579C39.6435 59.3947 39.7198 59.1937 39.7834 59.131C39.8597 59.0556 39.8978 59.1561 39.8978 59.4072C39.8978 59.696 39.7834 59.9346 39.1348 60.575L39.6181 60.7759C39.8724 60.889 40.3175 61.0522 40.5972 61.1527C40.877 61.2531 41.3602 61.4917 41.6781 61.6675C41.996 61.8433 42.5556 62.22 43.6111 63.0237L44.0434 62.5465C44.3613 62.2075 44.4758 61.9689 44.4758 61.6424C44.4758 61.4038 44.3868 61.0271 44.285 60.8262C44.1451 60.5374 43.9671 60.4243 43.5602 60.3239C43.255 60.2485 42.7845 60.1355 42.5047 60.0602C42.2249 59.9848 41.6909 59.7588 41.3348 59.5579C40.966 59.357 40.6608 59.131 40.6608 59.0682C40.6608 58.9928 40.8516 59.0556 41.0805 59.2063C41.2966 59.3444 41.6909 59.5453 41.9325 59.6584C42.1741 59.7588 42.7463 59.9346 43.2041 60.0225C43.6619 60.123 44.107 60.2737 44.2087 60.3616C44.2977 60.4369 44.4631 60.6629 44.5521 60.8513C44.6538 61.0522 44.7301 61.3912 44.7301 61.6047C44.7301 61.8307 44.6157 62.1823 44.4885 62.3958C44.3613 62.5967 44.0943 62.873 43.9163 62.986C43.5856 63.212 43.5856 63.212 42.7972 62.6344C42.3521 62.3205 41.818 61.9689 41.6146 61.8684C41.2458 61.6926 41.2203 61.7052 40.8134 62.107C40.5845 62.333 40.4065 62.5465 40.4065 62.5842C40.4065 62.6218 40.7498 62.8102 41.1695 63.0237C41.5891 63.2246 41.9325 63.4506 41.9325 63.526C41.9325 63.5887 41.7799 64.0157 41.6018 64.4678C41.4238 64.9198 41.0042 65.7863 40.699 66.4141C40.381 67.0294 39.7707 68.0465 39.351 68.6744C38.9441 69.2897 38.3337 70.1185 38.0031 70.4826C37.6851 70.8594 37.0747 71.5123 36.6551 71.9267C36.2227 72.3537 35.5106 72.969 35.0655 73.3206C34.6077 73.6596 33.6921 74.2749 33.0309 74.6767C32.3696 75.066 31.2506 75.6185 30.5511 75.8948C29.8517 76.1585 28.3639 76.6105 27.2448 76.8994C26.1258 77.1882 25.1339 77.4393 25.0449 77.477C24.9304 77.5147 24.9304 77.6026 25.0576 77.8914C25.1848 78.2179 25.1848 78.2932 24.9559 78.5318C24.816 78.6825 24.4726 78.9211 24.1929 79.0717C23.8495 79.2475 23.3536 79.348 22.6669 79.3857C22.0438 79.4233 21.4461 79.3857 21.1409 79.2852C20.8611 79.1973 20.4161 78.9964 20.1617 78.8332C19.7166 78.5569 19.6785 78.4941 19.7421 77.477L17.8982 77.0124C16.8808 76.7612 15.5965 76.3971 15.0369 76.2087C14.4774 76.0203 13.5364 75.6185 12.9387 75.3297C12.341 75.0409 11.3491 74.4507 10.7133 74.0363C10.0775 73.6219 9.0093 72.7555 8.30989 72.1151C7.6232 71.4621 6.66945 70.4199 6.19894 69.8045C5.72843 69.1767 5.0163 68.1093 4.60937 67.4187C4.21516 66.728 3.6302 65.5853 3.325 64.8696C3.0198 64.1664 2.76547 63.5511 2.76547 63.4883C2.75275 63.4381 3.12153 63.2246 3.57933 63.0237C4.26603 62.7097 4.38047 62.6218 4.24059 62.4586C4.16429 62.3581 3.93539 62.1447 3.4013 61.7052L2.93079 61.9814C2.66374 62.1196 2.18051 62.4586 1.84988 62.7349C1.50653 62.9986 1.20133 63.212 1.15047 63.212C1.08689 63.2246 0.832555 62.9986 0.578223 62.7097C0.311176 62.4335 0.0568447 62.0191 0.018695 61.7931C-0.0321712 61.5168 0.018695 61.228 0.196727 60.889C0.349325 60.5876 0.578224 60.3239 0.807122 60.236C1.01059 60.1606 1.49382 60.0225 1.87531 59.9346C2.25681 59.8593 2.68917 59.7337 2.82905 59.6584C2.96894 59.5956 3.54118 59.244 4.10071 58.8798C4.66024 58.5157 5.30878 58.1264 5.53768 58.0008C5.76658 57.8752 6.10993 57.7245 6.30067 57.6743C6.49142 57.6241 6.80934 57.599 7.02552 57.6366V57.6366ZM49.9439 62.333C51.8895 62.333 52.2329 62.3581 52.2329 62.5214C52.2329 62.6218 52.1057 62.7349 51.9531 62.7725C51.7878 62.8102 51.5462 62.8353 51.4063 62.8353C51.2664 62.8353 51.0248 62.9609 50.8595 63.1241C50.5797 63.4004 50.567 63.4381 50.5797 66.6025C50.5797 69.4153 50.6179 69.8673 50.8213 70.3068C50.9485 70.5831 51.2537 70.9975 51.508 71.211C51.7751 71.437 52.2202 71.6881 52.5254 71.7635C52.8178 71.8514 53.4028 71.9142 53.8224 71.9142C54.2421 71.9142 54.8143 71.8137 55.0941 71.7007C55.3739 71.5751 55.7426 71.3616 55.908 71.211C56.0733 71.0603 56.3149 70.7087 56.4421 70.4324C56.5819 70.131 56.7345 69.3399 56.8236 68.486C56.8999 67.6824 56.9253 66.4016 56.8871 65.5979C56.8236 64.4426 56.7473 64.0408 56.5184 63.5887C56.3276 63.2371 56.1114 62.986 55.908 62.9358C55.7426 62.8855 55.4502 62.8102 55.2467 62.7725C55.0432 62.7349 54.9161 62.6344 54.9288 62.5214C54.9415 62.3581 55.234 62.333 57.0397 62.3581C58.5912 62.3833 59.1507 62.4335 59.1888 62.5465C59.2143 62.647 59.049 62.7349 58.7565 62.7851C58.4894 62.8228 58.1842 62.873 58.0825 62.8981C57.9808 62.9358 57.8154 63.1116 57.7137 63.2999C57.5738 63.5636 57.5102 64.4426 57.4467 66.8536C57.3704 69.6915 57.3322 70.131 57.0906 70.7463C56.938 71.1482 56.6328 71.6253 56.3403 71.889C56.0733 72.1276 55.5137 72.4541 55.0941 72.6174C54.4328 72.8685 54.1531 72.8936 52.9959 72.8559C51.915 72.8183 51.5462 72.7555 51.0884 72.5169C50.7705 72.3537 50.3508 72.0774 50.1601 71.889C49.9566 71.7132 49.6641 71.3365 49.5243 71.0603C49.2572 70.5831 49.2445 70.3696 49.1809 63.526L48.863 63.1744C48.6595 62.9609 48.4179 62.8353 48.2017 62.8353C47.9983 62.8353 47.7566 62.7851 47.6549 62.7223C47.5405 62.6595 47.5023 62.5591 47.5659 62.4712C47.6295 62.3833 48.4179 62.333 49.9439 62.333V62.333ZM61.3634 62.333C61.694 62.333 62.2662 62.3833 63.3344 62.5214L66.2211 65.849C67.7979 67.6824 69.3239 69.4404 69.591 69.7794C69.8707 70.1059 70.1378 70.3696 70.2014 70.3696C70.2522 70.3696 70.265 68.9381 70.2395 67.1927C70.2141 65.2463 70.1505 63.865 70.0488 63.6139C69.9725 63.3878 69.7563 63.1367 69.5655 63.0362C69.3621 62.9483 68.9933 62.8353 68.739 62.7851C68.4338 62.7349 68.2557 62.647 68.2557 62.5214C68.2557 62.3581 68.5864 62.333 70.4811 62.333C72.1979 62.333 72.6938 62.3707 72.6684 62.4837C72.643 62.5716 72.5158 62.6721 72.3759 62.6846C72.2487 62.7097 71.9563 62.8102 71.7528 62.9107C71.5493 62.9986 71.2568 63.2623 71.117 63.4883C70.8754 63.8776 70.8626 64.1789 70.7991 68.3479C70.7609 71.1482 70.6846 72.8183 70.6083 72.8434C70.5447 72.8559 68.8789 71.0226 66.9205 68.7497C64.9622 66.4769 63.3217 64.6059 63.2709 64.6059C63.2073 64.5933 63.1818 66.1127 63.2327 71.3491L63.5506 71.6881C63.7286 71.8639 64.161 72.1151 64.5044 72.2406C64.8604 72.3788 65.1529 72.542 65.1783 72.6174C65.191 72.7178 64.5679 72.7555 63.1055 72.7555C61.7957 72.7555 61.0073 72.7053 61.0073 72.6299C61.0073 72.5671 61.3252 72.3662 61.7067 72.1904C62.1645 71.9895 62.4443 71.7635 62.5333 71.5626C62.6096 71.3742 62.6605 69.7418 62.6605 63.9655L62.1264 63.4004C61.7618 63.0237 61.4439 62.8144 61.1726 62.7725C60.9183 62.7349 60.753 62.6344 60.753 62.5214C60.753 62.3833 60.9056 62.333 61.3634 62.333V62.333ZM76.8649 62.3707C78.7088 62.3581 79.1411 62.3958 79.1665 62.5339C79.1793 62.647 79.0139 62.7349 78.6452 62.7976C78.3527 62.8353 78.0093 62.986 77.8822 63.1116C77.6914 63.3125 77.666 63.7018 77.666 67.381C77.666 71.01 77.6914 71.4747 77.8949 71.8137C78.0729 72.1276 78.2255 72.2155 78.7088 72.2909C79.103 72.3537 79.3064 72.429 79.281 72.5295C79.2428 72.655 78.6452 72.7053 76.9284 72.7178C74.9447 72.7555 74.614 72.7304 74.614 72.5671C74.614 72.4416 74.7793 72.3537 75.0845 72.316C75.3516 72.2783 75.6695 72.1779 75.7967 72.09C75.9238 72.0146 76.0764 71.7132 76.14 71.437C76.2036 71.1607 76.2545 69.6036 76.2545 67.9838C76.2545 66.3639 76.2036 64.631 76.14 64.1538C76.0637 63.6013 75.9365 63.1869 75.7967 63.0613C75.6695 62.9358 75.3261 62.8102 75.0209 62.7725C74.7285 62.7349 74.4741 62.6595 74.4614 62.6093C74.4487 62.5465 74.4741 62.4712 74.525 62.446C74.5632 62.4084 75.6186 62.3833 76.8649 62.3707V62.3707ZM83.2613 62.333C85.0289 62.333 85.5375 62.3707 85.5121 62.4837C85.4867 62.5716 85.3595 62.6595 85.2196 62.6846C85.0925 62.6972 84.8508 62.7474 84.6982 62.7725C84.5329 62.8102 84.3168 62.9734 84.215 63.1492C84.037 63.4381 84.0624 63.5762 84.711 65.2463C85.0925 66.2383 85.741 67.8833 86.8855 70.7715L87.1017 70.2817C87.2288 70.018 87.7248 68.8125 88.2334 67.607C88.7294 66.4016 89.2381 65.0831 89.3779 64.6812C89.5051 64.292 89.6196 63.8776 89.6196 63.7771C89.6196 63.6766 89.5305 63.4129 89.4288 63.212C89.2762 62.9232 89.1236 62.8102 88.7294 62.7349C88.4496 62.6846 88.2207 62.5716 88.2207 62.4837C88.2207 62.3707 88.6912 62.333 90.1282 62.333C91.7432 62.333 92.0357 62.3581 92.0357 62.5214C92.0357 62.6344 91.8322 62.76 91.527 62.8353C91.2346 62.9107 90.8912 63.1116 90.7259 63.3125C90.5733 63.5008 89.556 65.7611 88.4751 68.3354C87.3942 70.897 86.4531 72.9941 86.3895 72.9815C86.326 72.9564 86.1352 72.5797 85.9699 72.1276C85.8046 71.6756 85.0289 69.792 84.2532 67.921C83.4902 66.05 82.7017 64.2166 82.4983 63.8399C82.2058 63.2497 82.0659 63.1116 81.4937 62.8604C81.1376 62.7097 80.8706 62.5214 80.9087 62.4586C80.9596 62.3833 81.8752 62.333 83.2613 62.333V62.333ZM97.542 62.3833C99.8182 62.3958 101.726 62.446 101.789 62.4963C101.84 62.5591 101.891 63.1241 101.891 63.7394C101.891 64.5431 101.84 64.8947 101.738 64.9324C101.649 64.9449 101.433 64.7063 101.268 64.3673C101.103 64.0408 100.747 63.5762 100.034 62.8981L96.5501 62.8102L96.4483 63.6139C96.3975 64.0534 96.3593 64.9575 96.3593 65.623C96.3593 66.4895 96.4102 66.8787 96.5246 66.929C96.6009 66.9666 97.0206 66.929 97.4402 66.8536C97.8599 66.7783 98.3558 66.6025 98.5593 66.4643C98.7755 66.3137 98.9535 66.0374 99.0298 65.7235C99.0934 65.4472 99.2333 65.2212 99.3096 65.2212C99.4367 65.2212 99.4749 65.7235 99.4749 67.2931C99.4749 69.1767 99.4495 69.365 99.246 69.365C99.0807 69.365 99.0298 69.2646 99.0298 68.9507C99.0298 68.7372 98.9535 68.4107 98.8645 68.2349C98.7882 68.0591 98.4576 67.7954 98.1396 67.6322C97.7836 67.4564 97.3385 67.3559 96.3593 67.3559V69.2395C96.3593 70.5329 96.4102 71.2486 96.5246 71.5249C96.6264 71.7509 96.779 72.0021 96.8807 72.09C96.9824 72.1653 97.6564 72.2658 98.394 72.3034C99.1315 72.3411 100.022 72.3285 100.365 72.2658C100.886 72.1653 101.09 72.0523 101.51 71.6002C101.789 71.2863 102.107 70.784 102.222 70.4826C102.336 70.1813 102.501 69.9301 102.603 69.9301C102.743 69.9301 102.794 70.2315 102.845 72.7555H98.0761C93.3964 72.7555 93.3074 72.7555 93.3074 72.5043C93.3074 72.3034 93.3964 72.2532 93.727 72.2532C93.9432 72.2532 94.2484 72.2155 94.3883 72.1904C94.5663 72.1402 94.6935 71.9393 94.8079 71.5249C94.9351 71.0979 94.9732 69.9301 94.9732 67.2303C94.9732 63.7771 94.9605 63.5008 94.7316 63.212C94.5663 62.986 94.3374 62.8855 93.9941 62.8604C93.727 62.8353 93.4472 62.7851 93.3837 62.7349C93.3328 62.6846 93.3074 62.5842 93.3455 62.5088C93.3837 62.4209 94.7443 62.3833 97.542 62.3833V62.3833ZM107.957 62.3581C109.534 62.3456 111.085 62.3833 111.454 62.4586C111.912 62.5465 112.28 62.7223 112.598 62.986C112.853 63.212 113.158 63.6264 113.285 63.9027C113.412 64.1789 113.527 64.7063 113.527 65.0579C113.527 65.4221 113.45 65.8742 113.349 66.0625C113.247 66.2634 113.005 66.5648 112.802 66.7532C112.611 66.9415 112.23 67.1801 111.963 67.2806C111.708 67.3936 111.314 67.4815 111.111 67.4815C110.907 67.4815 110.704 67.5191 110.678 67.5694C110.64 67.6322 110.831 67.7452 111.085 67.8205C111.339 67.9084 111.734 68.0842 111.937 68.2098C112.141 68.3354 112.484 68.7121 112.687 69.0637C112.891 69.4027 113.272 70.2441 113.972 72.1904L114.519 72.316C114.811 72.3788 115.053 72.5169 115.053 72.5922C115.053 72.7178 114.722 72.7555 113.806 72.7555C112.954 72.768 112.522 72.7178 112.42 72.6048C112.344 72.5169 112.179 72.0146 112.077 71.4998C111.963 70.9849 111.785 70.2566 111.683 69.8924C111.568 69.5032 111.301 69.026 111.009 68.7121C110.754 68.4358 110.246 68.0591 109.902 67.9084C109.521 67.7201 109.025 67.607 108.059 67.607V69.5785C108.046 71.3616 108.071 71.5877 108.3 71.8765C108.44 72.0523 108.758 72.2532 109.025 72.316C109.279 72.3788 109.521 72.5169 109.546 72.5922C109.572 72.7178 109.076 72.7555 107.359 72.7555C105.464 72.7555 105.134 72.7304 105.134 72.5671C105.134 72.4416 105.261 72.3788 105.515 72.3788C105.757 72.3788 106.024 72.2658 106.202 72.09C106.418 71.889 106.52 71.6002 106.596 70.9975C106.647 70.5454 106.66 68.6995 106.596 63.6013L106.215 63.212C105.935 62.9358 105.719 62.8353 105.414 62.8353C105.172 62.8353 104.994 62.7725 104.981 62.6721C104.968 62.5716 104.994 62.4712 105.045 62.446C105.083 62.4209 106.393 62.3833 107.957 62.3581V62.3581ZM120.851 62.3707C121.767 62.3958 121.945 62.446 122.53 62.7976C123.191 63.212 123.191 63.212 123.407 62.9609C123.535 62.8102 123.738 62.6972 123.853 62.7097C124.056 62.7097 124.081 62.8479 124.043 64.0534C124.031 64.9952 123.967 65.397 123.853 65.4347C123.776 65.4598 123.547 65.171 123.369 64.8068C123.191 64.4552 122.899 63.9655 122.733 63.7394C122.568 63.526 122.187 63.212 121.881 63.0613C121.538 62.8855 121.118 62.7851 120.712 62.7851C120.292 62.7851 119.91 62.8855 119.592 63.0613C119.338 63.212 119.033 63.5134 118.931 63.7143C118.829 63.9152 118.74 64.3045 118.74 64.5557C118.74 64.8194 118.855 65.2212 118.995 65.4347C119.173 65.7235 119.503 65.9621 120.038 66.2132C120.483 66.4016 121.271 66.6904 121.792 66.8536C122.314 67.0043 122.975 67.2429 123.255 67.381C123.535 67.5191 123.954 67.808 124.183 68.034C124.463 68.2851 124.666 68.6618 124.806 69.1139C124.933 69.5785 124.972 69.9929 124.908 70.3696C124.857 70.6836 124.73 71.1105 124.628 71.3114C124.527 71.5123 124.285 71.8514 124.094 72.0397C123.916 72.2281 123.446 72.5043 123.064 72.6425C122.555 72.8308 122.085 72.8936 121.347 72.8936C120.47 72.8811 120.203 72.8183 119.465 72.4667C118.613 72.0774 118.588 72.0648 118.219 72.2783C118.016 72.4039 117.774 72.4792 117.685 72.4541C117.571 72.4164 117.545 72.0523 117.558 71.0477C117.571 70.2943 117.596 69.6413 117.596 69.5785C117.596 69.5283 117.685 69.4906 117.787 69.4906C117.901 69.4906 118.13 69.8171 118.334 70.2692C118.537 70.7087 118.868 71.2486 119.071 71.4872C119.275 71.7132 119.656 72.0146 119.91 72.1402C120.177 72.2783 120.635 72.4164 120.928 72.4541C121.233 72.5043 121.691 72.5043 121.945 72.4541C122.212 72.4164 122.606 72.2281 122.822 72.0272C123.051 71.8388 123.331 71.4747 123.458 71.211C123.598 70.9598 123.7 70.5705 123.7 70.3696C123.7 70.1687 123.624 69.8045 123.535 69.5785C123.433 69.365 123.204 69.0762 123.026 68.9507C122.835 68.8376 121.894 68.4735 120.928 68.147C119.974 67.8205 119.02 67.4312 118.817 67.2931C118.601 67.155 118.257 66.7908 118.054 66.502C117.749 66.0751 117.647 65.7737 117.609 65.2463C117.583 64.7315 117.634 64.3673 117.812 63.9655C117.939 63.6515 118.27 63.2246 118.524 63.0237C118.779 62.8228 119.186 62.5716 119.414 62.4963C119.643 62.4084 120.279 62.3581 120.851 62.3707V62.3707ZM129.753 62.3833C131.444 62.3958 132.017 62.4335 132.055 62.5465C132.08 62.647 131.915 62.7349 131.61 62.7725C131.355 62.8102 130.999 62.9358 130.503 63.3125V67.3182C130.516 70.8091 130.541 71.3742 130.732 71.776C130.885 72.1276 131.025 72.2532 131.228 72.2532C131.393 72.2532 131.648 72.2783 131.8 72.316C131.966 72.3537 132.093 72.4667 132.093 72.5671C132.093 72.7304 131.75 72.7555 129.74 72.7555C127.947 72.7555 127.388 72.7178 127.388 72.5922C127.388 72.5169 127.604 72.4039 127.858 72.3537C128.125 72.3034 128.481 72.1527 128.659 72.0146C128.952 71.7886 128.99 71.663 129.054 70.4701C129.104 69.7543 129.104 67.9838 129.079 66.5397C129.041 65.0831 128.965 63.7143 128.901 63.4883C128.837 63.2748 128.685 63.0362 128.558 62.9734C128.443 62.9232 128.125 62.8353 127.858 62.7851C127.604 62.7474 127.375 62.6595 127.362 62.6093C127.35 62.5465 127.388 62.4712 127.426 62.446C127.477 62.4084 128.52 62.3833 129.753 62.3833V62.3833ZM143.309 62.3581C143.652 62.3456 144.008 62.3581 144.11 62.3958C144.263 62.446 144.301 62.7349 144.301 63.9655C144.301 65.3844 144.288 65.4723 144.046 65.4723C143.856 65.4723 143.767 65.3468 143.678 64.9324C143.601 64.6436 143.372 64.1664 143.169 63.865C142.953 63.5762 142.546 63.2246 142.266 63.0865C141.897 62.8981 141.503 62.8353 139.85 62.8353L139.875 67.4187C139.914 71.3365 139.939 72.0272 140.104 72.1276C140.206 72.1904 140.562 72.2909 140.905 72.3411C141.249 72.4039 141.503 72.5043 141.503 72.5922C141.503 72.7178 140.931 72.7555 139.087 72.7555C137.027 72.7555 136.671 72.7304 136.671 72.5671C136.671 72.429 136.849 72.3537 137.268 72.316C137.612 72.2783 137.993 72.1653 138.133 72.0774C138.375 71.9016 138.388 71.7384 138.451 62.8353H137.332C136.378 62.8353 136.162 62.873 135.781 63.1241C135.484 63.325 135.166 63.7436 134.827 64.3798C134.547 64.9073 134.242 65.3468 134.153 65.3468C134.038 65.3468 134 64.97 134 62.4586L138.349 62.4209C140.753 62.4084 142.978 62.3833 143.309 62.3581V62.3581ZM148.001 62.3707C149.629 62.3958 150.201 62.4335 150.239 62.5465C150.265 62.647 150.087 62.7349 149.794 62.7851C149.54 62.8353 149.247 62.9358 149.158 63.0111C149.069 63.0865 148.993 63.325 149.006 63.526C149.006 63.7394 149.489 64.8696 150.087 66.0625C150.684 67.2554 151.206 68.2349 151.257 68.2349C151.32 68.2349 151.829 67.2931 152.414 66.1379C152.986 64.97 153.457 63.8776 153.457 63.6766C153.457 63.4883 153.393 63.2246 153.33 63.0865C153.253 62.9358 153.012 62.7976 152.694 62.7349C152.414 62.6846 152.185 62.5716 152.185 62.4837C152.185 62.3707 152.656 62.333 154.093 62.333C155.708 62.333 156 62.3581 156 62.5214C156 62.6344 155.835 62.7349 155.58 62.7725C155.364 62.8102 154.957 63.0237 154.703 63.2497C154.36 63.5385 153.902 64.3171 151.676 68.6744L151.689 69.7418C151.689 70.332 151.74 71.0603 151.804 71.3742C151.867 71.6881 151.994 72.0146 152.083 72.09C152.172 72.1779 152.503 72.2909 152.808 72.3411C153.113 72.4039 153.393 72.5169 153.419 72.5922C153.444 72.7178 152.91 72.7555 151.041 72.7555C148.98 72.7555 148.624 72.7304 148.624 72.5671C148.624 72.429 148.802 72.3662 149.26 72.316C149.782 72.2658 149.934 72.1904 150.112 71.9016C150.278 71.6253 150.316 71.3365 150.201 69.1767L148.701 66.2885C147.874 64.6938 147.137 63.325 147.048 63.2371C146.971 63.1492 146.679 63.0111 146.399 62.9358C146.119 62.8604 145.839 62.76 145.776 62.7223C145.725 62.6846 145.7 62.5842 145.75 62.4963C145.801 62.3958 146.437 62.3581 148.001 62.3707ZM6.61859 64.9324C6.68217 64.9575 6.73304 65.0203 6.72032 65.0705C6.72032 65.1207 6.45327 65.284 6.13536 65.4347C5.81745 65.5979 5.53768 65.7235 5.49953 65.7235C5.46138 65.7235 5.43595 65.6607 5.43595 65.5979C5.43595 65.5226 5.67756 65.3468 5.97004 65.1835C6.26252 65.0203 6.55501 64.9073 6.61859 64.9324ZM6.83477 65.4723C6.89835 65.4723 6.96194 65.5728 6.96194 65.6858C6.96194 65.8114 6.91107 66.1127 6.83477 66.3513C6.77119 66.5899 6.73304 66.8034 6.74575 66.8285C6.75847 66.8411 6.92379 66.7406 7.11453 66.6025C7.41973 66.389 7.48331 66.3764 7.53418 66.5397C7.57233 66.6401 7.55961 66.7029 7.49603 66.6653C7.44516 66.6401 7.19083 66.7532 6.92379 66.9164C6.66945 67.0922 6.42784 67.2178 6.38969 67.1927C6.35154 67.1801 6.41512 66.8787 6.51686 66.5397C6.61859 66.1881 6.7076 65.8993 6.7076 65.8742C6.7076 65.8616 6.52957 65.9621 6.32611 66.1002C6.10993 66.2383 5.86831 66.3137 5.7793 66.276C5.69028 66.2258 5.84288 66.1002 6.16079 65.9621C6.46599 65.8239 6.7076 65.6607 6.7076 65.5979C6.7076 65.5226 6.75847 65.4723 6.83477 65.4723ZM8.19544 67.5191C8.33532 67.6447 8.30989 67.6949 8.01741 67.8331C7.82666 67.921 7.57233 68.0717 7.4706 68.1721C7.30528 68.3354 7.30528 68.3856 7.53418 68.6116C7.67406 68.7497 7.72493 68.8628 7.66135 68.8628C7.58505 68.8628 7.45788 68.7623 7.36887 68.6367C7.27985 68.5237 7.15268 68.3228 7.0891 68.1972C7.00432 68.0549 7.00432 68.0047 7.0891 68.0465C7.15268 68.0842 7.3943 67.9461 7.6232 67.7452C7.94111 67.4564 8.05556 67.4061 8.19544 67.5191ZM8.65324 68.0842C8.71682 68.1344 8.66595 68.3605 8.56422 68.5739C8.44977 68.8 8.37347 69.0134 8.38619 69.0511C8.41162 69.0762 8.6278 69.0511 8.86942 68.9883C9.26363 68.8753 9.33993 68.9004 9.51796 69.1516C9.70871 69.3902 9.70871 69.4781 9.37808 70.3696L9.88674 70.1813C10.2047 70.0683 10.4208 70.0431 10.459 70.1185C10.4971 70.1813 10.3191 70.445 10.0775 70.6836C9.83588 70.9221 9.60698 71.0603 9.56883 70.9975C9.53068 70.9221 9.65784 70.7338 10.2047 70.2566L9.69599 70.3822C9.41623 70.445 9.17462 70.4952 9.1619 70.4701C9.14918 70.445 9.18733 70.2315 9.3908 69.5534L9.06017 69.8673C8.88213 70.0431 8.71682 70.1436 8.67867 70.0808C8.64052 70.0306 8.81855 69.8422 9.04745 69.6413C9.36536 69.4027 9.45438 69.252 9.36536 69.139C9.27635 69.026 9.12375 69.026 8.61509 69.1767C8.25902 69.2771 7.99198 69.3148 8.00469 69.2646C8.03013 69.2144 8.15729 68.9004 8.29717 68.5865C8.43706 68.26 8.60237 68.034 8.65324 68.0842V68.0842ZM10.9295 70.5329C10.9931 70.5454 11.044 70.5831 11.0567 70.6208C11.0694 70.6584 10.8914 70.9221 10.6752 71.211C10.3191 71.6756 10.2428 71.7258 10.1029 71.5626C9.97576 71.3993 9.97576 71.3616 10.1029 71.3742C10.1919 71.3742 10.3954 71.1733 10.548 70.9347C10.7133 70.6961 10.8786 70.5077 10.9295 70.5329V70.5329ZM11.489 70.9849C11.6289 71.0854 11.7179 71.2863 11.7052 71.4872C11.6925 71.663 11.7306 71.9267 11.7942 72.0648C11.8832 72.2909 11.9087 72.2783 12.0613 71.9016C12.2012 71.5751 12.2647 71.5249 12.3665 71.6505C12.4682 71.776 12.3792 71.9393 12.0231 72.316C11.5653 72.7932 11.5399 72.8057 11.5399 72.5043C11.5399 72.3285 11.5145 71.9895 11.3873 71.3114L11.1202 71.7132C10.9677 71.9393 10.8023 72.1025 10.7388 72.0648C10.6879 72.0272 10.8278 71.8137 11.0312 71.5877C11.2601 71.3491 11.3873 71.1105 11.3364 70.9975C11.2728 70.8342 11.2983 70.8342 11.489 70.9849V70.9849ZM12.8624 71.9644C12.9387 72.0146 13.1295 72.1276 13.2821 72.2155C13.4474 72.3034 13.5491 72.4416 13.511 72.5043C13.4728 72.5797 13.3711 72.5295 13.2693 72.4039C13.1422 72.2532 13.0404 72.2281 12.9387 72.316C12.8497 72.3788 12.8243 72.5169 12.8624 72.5922C12.9006 72.6801 12.9896 72.7304 13.0659 72.6927C13.1295 72.655 13.193 72.6927 13.193 72.7555C13.193 72.8183 13.1295 72.9062 13.0659 72.9438C12.9896 72.9815 12.9387 72.9438 12.9387 72.8811C12.9387 72.8183 12.8497 72.7555 12.748 72.7555C12.6462 72.7555 12.5318 72.8434 12.4936 72.9438C12.4555 73.0443 12.5318 73.1824 12.6462 73.2578C12.7734 73.3206 12.9006 73.3582 12.9387 73.3457C12.9769 73.3331 12.9642 73.3833 12.9133 73.4461C12.8624 73.5215 12.6844 73.4587 12.0486 73.0066L12.3029 72.7178C12.4555 72.5671 12.6081 72.316 12.6462 72.1653C12.6844 72.0021 12.7734 71.9142 12.8624 71.9644ZM14.9988 73.1322C15.7491 73.4587 15.7999 73.5089 15.8254 73.9359C15.8508 74.187 15.9017 74.3879 15.9525 74.3879C16.0161 74.4005 16.1687 74.2498 16.3086 74.074C16.4485 73.8982 16.6011 73.7601 16.652 73.7601C16.7028 73.7601 16.5248 73.9861 16.2705 74.2623C16.0161 74.5386 15.7618 74.7646 15.6982 74.7646C15.6473 74.7646 15.6092 74.4758 15.6092 74.1368C15.6092 73.647 15.5583 73.4964 15.3803 73.4461C15.2658 73.4085 15.1005 73.3582 15.0369 73.3206C14.9606 73.2829 14.8335 73.4336 14.7318 73.6596C14.63 73.8856 14.541 74.1368 14.541 74.2247C14.5283 74.3251 14.452 74.3251 14.274 74.2372C14.1214 74.1619 14.0705 74.074 14.1595 74.0238C14.2358 73.9861 14.363 73.8228 14.452 73.6596C14.5283 73.5089 14.5919 73.2954 14.5919 73.195C14.5919 73.0945 14.5029 73.0066 14.4011 73.0066C14.2994 73.0066 14.2104 72.9564 14.1977 72.8936C14.1977 72.8183 14.5537 72.9313 14.9988 73.1322V73.1322ZM17.3641 73.8982C17.3768 73.8856 17.2751 74.0363 17.1352 74.2247C16.9953 74.4256 16.8681 74.6516 16.8808 74.727C16.8808 74.8149 16.9699 74.9781 17.0716 75.0786C17.1733 75.179 17.1988 75.2669 17.1352 75.2669C17.0589 75.2669 16.919 75.179 16.8173 75.0786C16.7155 74.9781 16.6265 74.7897 16.6265 74.6642C16.6265 74.5512 16.6901 74.3628 16.7791 74.2498C16.8681 74.1368 17.0334 74.0112 17.1352 73.9735C17.2369 73.9359 17.3386 73.8982 17.3641 73.8982ZM17.6438 74.0363C17.7456 74.074 17.9236 74.2372 18.0253 74.4256C18.2034 74.7144 18.1907 74.7646 17.9618 75.0158C17.8219 75.1539 17.6566 75.2795 17.5803 75.2669C17.5167 75.2669 17.5294 75.1916 17.6184 75.1037C17.7074 75.0283 17.771 74.8149 17.771 74.6391C17.771 74.4633 17.7074 74.2498 17.6184 74.1493C17.4785 74.0112 17.4912 73.9861 17.6438 74.0363V74.0363ZM15.6731 41.2367C15.7494 41.2367 15.7112 41.2995 15.6095 41.3622C15.4569 41.4627 15.4696 41.4878 15.7112 41.4878C15.8638 41.4878 15.9656 41.4376 15.9274 41.3622C15.8893 41.2869 16.1054 41.2367 16.4742 41.2367C16.8049 41.2367 17.1482 41.2995 17.2372 41.3874C17.3389 41.4878 17.3898 41.9022 17.3898 43.497H16.9447C16.6395 43.497 16.4742 43.4342 16.4234 43.2709C16.3343 43.07 16.3343 43.07 16.2326 43.2709C16.1563 43.4216 15.9698 43.497 15.6731 43.497C15.3043 43.497 15.1899 43.4342 15.0245 43.0826C14.8719 42.8063 14.8465 42.5301 14.8974 42.191C14.9482 41.9022 15.1136 41.5883 15.2662 41.4627C15.4187 41.3371 15.5968 41.2367 15.6731 41.2367V41.2367ZM20.251 41.2492C20.6707 41.2492 21.1158 41.2618 21.2429 41.2995C21.421 41.3497 21.4591 41.5255 21.4591 43.497H21.014C20.7088 43.497 20.5435 43.4342 20.4927 43.2709C20.4036 43.07 20.4036 43.07 20.3019 43.2709C20.2256 43.4091 20.0476 43.497 19.8314 43.497C19.6406 43.497 19.4245 43.4467 19.3482 43.3965C19.2719 43.3463 19.1447 43.183 19.0557 43.0198C18.9794 42.8691 18.9158 42.5928 18.9158 42.3919C18.9158 42.2036 18.9921 41.9148 19.0811 41.739C19.1701 41.5632 19.3354 41.425 19.4499 41.425C19.5516 41.425 19.6152 41.3874 19.5643 41.3497C19.5262 41.312 19.8314 41.2618 20.251 41.2492V41.2492ZM23.2394 41.2618L24.2186 41.2492L24.2568 43.497H23.2394V41.2618ZM25.0325 41.2367C25.1596 41.2367 25.2741 41.2995 25.2868 41.3874C25.2868 41.5129 25.2995 41.5129 25.3504 41.3874C25.3758 41.2995 25.503 41.2367 25.6174 41.2367C25.8082 41.2367 25.8209 41.2492 25.6556 41.3622C25.5284 41.4376 25.5157 41.4794 25.6174 41.4878C25.7319 41.4878 25.7827 41.7641 25.7827 43.497H24.7654L24.7781 42.3668C24.7909 41.3497 24.8163 41.2367 25.0325 41.2367ZM26.0116 41.2367H27.0544V41.9273C27.0544 42.5301 27.0798 42.618 27.3087 42.618C27.5249 42.618 27.5631 42.5301 27.5631 41.2367L28.644 41.2869L28.5804 42.844C28.5168 44.3132 28.4914 44.4011 28.1989 44.6397C27.9573 44.828 27.6902 44.8782 26.2914 44.8782V44.4387C26.2914 44.0118 26.3041 43.9992 26.7746 43.9992C27.0417 43.9992 27.3214 43.9239 27.4105 43.836C27.4995 43.7481 27.5631 43.5597 27.5631 43.3965C27.5631 43.1454 27.5376 43.1328 27.3596 43.3086C27.2451 43.4091 27.0035 43.497 26.8255 43.497C26.6348 43.4844 26.3931 43.4342 26.2914 43.3714C26.1515 43.2835 26.0879 42.9696 26.0498 42.2412L26.0116 41.2367ZM14.5922 42.9947C14.6685 42.9947 14.7575 43.1077 14.7829 43.2458C14.8211 43.3839 14.9355 43.497 15.0373 43.497C15.1517 43.497 15.2153 43.5849 15.1899 43.723C15.1771 43.836 15.0881 43.9239 14.9991 43.9113C14.9228 43.8862 14.8465 43.9741 14.8465 44.0997C14.8465 44.2127 14.9355 44.4011 15.0373 44.5015C15.1517 44.602 15.2407 44.8029 15.2407 44.941C15.2407 45.0792 15.1644 45.2675 15.0754 45.3429C14.9482 45.4684 14.9482 45.5187 15.1008 45.5689C15.2153 45.6191 15.6985 45.5312 16.1817 45.3805C16.6777 45.2424 17.3008 45.1294 17.5806 45.1294C17.8603 45.1294 18.1782 45.2047 18.2927 45.2926C18.4071 45.3805 18.5597 45.5689 18.6488 45.7321C18.7251 45.8828 18.7886 46.1591 18.7886 46.36C18.7886 46.5484 18.5597 47.1511 18.28 47.7036C18.0002 48.2561 17.7713 48.8338 17.7713 49.2733L14.6303 49.2481C11.5911 49.2105 11.4766 49.1979 11.4385 48.9593C11.413 48.8212 11.1714 48.2185 10.9044 47.6157C10.5102 46.7618 10.4211 46.4102 10.472 46.1089C10.5229 45.8828 10.65 45.5689 10.7772 45.4182C10.9425 45.1922 11.1206 45.1294 11.6165 45.1294C11.9598 45.1294 12.6211 45.2424 13.0662 45.3805C13.524 45.5312 13.9691 45.6066 14.0581 45.5689C14.1852 45.5187 14.1852 45.4433 14.0581 45.2047C13.9182 44.941 13.9309 44.8406 14.1217 44.5769C14.2361 44.4011 14.3378 44.1625 14.3378 44.062C14.3378 43.9616 14.2743 43.8862 14.1852 43.9113C14.1089 43.9239 14.0199 43.836 13.9945 43.723C13.9818 43.5849 14.0454 43.497 14.1471 43.497C14.2615 43.497 14.3633 43.3839 14.4014 43.2458C14.4269 43.1077 14.5159 42.9947 14.5922 42.9947V42.9947ZM29.5977 42.9947C29.7376 42.9947 29.852 43.0826 29.852 43.183C29.852 43.2835 29.9411 43.3714 30.0428 43.3714C30.1572 43.3714 30.2335 43.4844 30.2335 43.6225C30.2335 43.7607 30.1572 43.8737 30.0428 43.8737C29.9411 43.8737 29.852 43.949 29.852 44.0369C29.852 44.1123 29.9411 44.2755 30.0428 44.376C30.1572 44.4764 30.2463 44.6899 30.2463 44.8531C30.2463 45.0038 30.1827 45.1545 30.1064 45.1922C30.0428 45.2299 29.9792 45.3178 29.9792 45.3805C29.9792 45.4559 30.1064 45.5061 30.2717 45.5061C30.4243 45.5061 30.8948 45.3931 31.3144 45.255C31.8485 45.0666 32.2555 45.0038 32.6497 45.054C32.9676 45.0917 33.3237 45.2173 33.4508 45.3429C33.578 45.4684 33.7052 45.7698 33.756 46.0084C33.8196 46.36 33.7306 46.6739 33.3109 47.578C33.0185 48.2059 32.7896 48.8086 32.7896 48.9342C32.7768 49.1351 32.548 49.1477 26.4186 49.1477V48.8714C26.4186 48.7082 26.1897 48.0803 25.8972 47.4525C25.4903 46.5735 25.3885 46.2344 25.4521 45.9205C25.503 45.6819 25.681 45.4057 25.8845 45.255C26.0752 45.1043 26.4313 44.9913 26.6729 45.0038C26.9272 45.0038 27.4995 45.1168 27.9446 45.255C28.4024 45.3931 28.8729 45.5061 29 45.5061C29.1145 45.5061 29.2162 45.481 29.2162 45.4433C29.2162 45.4057 29.1526 45.2675 29.0636 45.1294C28.9364 44.9159 28.9364 44.8029 29.1272 44.5015C29.2416 44.2881 29.3434 44.0746 29.3434 43.9992C29.3434 43.9365 29.2671 43.8737 29.1526 43.8737C29.0509 43.8737 28.9619 43.7607 28.9619 43.6225C28.9619 43.4844 29.0509 43.3714 29.1526 43.3714C29.2671 43.3714 29.3434 43.2835 29.3434 43.183C29.3434 43.0826 29.4578 42.9947 29.5977 42.9947V42.9947ZM68.574 44.376C68.8537 44.376 69.4005 44.4639 69.782 44.5769C70.278 44.7276 70.6722 44.9661 71.1046 45.368C71.4861 45.7321 71.8803 46.2721 72.1473 46.8246C72.3762 47.3143 72.656 48.1431 72.7704 48.6831C72.8722 49.2105 72.9612 50.0895 72.9612 50.6294C72.9612 51.1568 72.8722 51.9605 72.7704 52.4126C72.656 52.8646 72.3889 53.5678 72.16 53.9696C71.9438 54.3715 71.5751 54.9114 71.3589 55.1626C71.1427 55.4137 70.6595 55.7779 70.278 55.9788C69.7184 56.2927 69.4387 56.3555 68.7011 56.3555C67.989 56.3681 67.6711 56.2927 67.0861 56.0165C66.5647 55.7779 66.196 55.4891 65.8272 55.0244C65.5474 54.6603 65.1659 54.0952 65.0006 53.7687C64.8353 53.4297 64.6191 52.8144 64.5174 52.3874C64.4029 51.9479 64.3266 51.1192 64.3266 50.529C64.3266 49.9388 64.4029 49.0723 64.5047 48.5826C64.6064 48.1054 64.8989 47.3143 65.1405 46.8246C65.3821 46.3474 65.8272 45.707 66.1197 45.4057C66.463 45.0666 66.9335 44.7778 67.3659 44.6271C67.7601 44.489 68.2942 44.376 68.574 44.376V44.376ZM125.76 44.7276L126.93 44.7778C127.884 44.8029 128.164 44.8657 128.507 45.1043C128.736 45.255 129.041 45.6191 129.181 45.9205C129.334 46.2093 129.486 46.699 129.524 47.013C129.575 47.3897 129.529 47.7664 129.385 48.1431C129.257 48.457 129.067 48.8338 128.952 48.9844C128.825 49.1226 128.494 49.3486 128.215 49.4616C127.935 49.5872 127.261 49.7128 125.735 49.8383L125.76 44.7276ZM147.569 47.0255C147.582 47.0506 147.951 47.9171 148.383 48.9593C148.815 49.989 149.184 50.9182 149.21 50.9936C149.248 51.1192 148.879 51.1568 147.607 51.1568C146.59 51.1568 145.954 51.1066 145.954 51.0313C145.954 50.9559 146.259 50.1271 146.641 49.1728C147.01 48.231 147.366 47.3395 147.429 47.2139C147.48 47.0883 147.544 47.0004 147.569 47.0255V47.0255ZM22.2857 48.1431L27.6648 53.4422C30.6278 56.3681 33.1075 58.8544 33.1711 58.9674C33.2601 59.1432 33.1456 59.4697 32.7133 60.2859C32.3954 60.9012 31.8104 61.843 30.7168 63.4001L22.4129 55.1626L18.2418 59.3441C14.2743 63.3247 14.0708 63.5131 13.8928 63.2745C13.791 63.1364 13.3714 62.5462 12.9772 61.956C12.583 61.3658 12.0234 60.4743 11.2223 59.0427L22.2857 48.1431ZM26.4313 49.5244L29.6359 49.5495C32.7514 49.5872 32.8404 49.5997 32.8404 49.8383C32.8404 50.0895 32.7514 50.0895 26.4186 50.1523L26.4313 49.5244ZM14.643 49.65C17.7713 49.65 17.8603 49.6625 17.8476 49.9011C17.8476 50.1523 17.7586 50.1523 14.6303 50.1523C11.5148 50.1523 11.4258 50.1523 11.4258 49.9011C11.4258 49.6625 11.5148 49.65 14.643 49.65V49.65ZM125.773 50.2527L127.197 50.3029C128.405 50.3406 128.711 50.3908 129.245 50.6545C129.728 50.9057 129.931 51.1066 130.186 51.5963C130.402 51.9982 130.529 52.5005 130.567 52.9776C130.593 53.392 130.542 53.9571 130.453 54.2333C130.364 54.5096 130.173 54.9114 130.02 55.1123C129.868 55.3133 129.461 55.6146 129.117 55.7653C128.672 55.9662 128.24 56.0541 127.681 56.0541C127.235 56.0541 126.727 55.9788 126.511 55.8658C126.294 55.7653 126.04 55.4891 125.938 55.2379C125.786 54.8989 125.748 54.2961 125.76 52.5256L125.773 50.2527ZM6.84779 57.8247C7.02582 57.8247 7.3946 57.9251 7.67437 58.0507C7.95413 58.1763 8.60268 58.666 9.11134 59.1432C9.67087 59.6706 10.1668 60.2733 10.3576 60.6501C10.5229 60.9891 10.6628 61.4537 10.6628 61.6797C10.6628 61.9686 10.5737 62.1444 10.3703 62.2825C10.1414 62.4332 9.97606 62.4457 9.45468 62.3327C9.09862 62.2574 8.33563 61.9434 7.73795 61.6421C7.14027 61.3281 6.54259 61.077 6.40271 61.077C6.25011 61.077 5.90676 61.3533 5.53798 61.7676C5.20735 62.1569 4.86401 62.4583 4.77499 62.4583C4.68598 62.4583 4.40621 62.2574 4.13916 62.0188C3.84668 61.7425 3.71952 61.5667 3.82125 61.5291C3.91027 61.4914 4.2409 61.3784 4.55881 61.2654C4.87672 61.1649 5.35995 60.9389 5.63972 60.7882C5.91948 60.6249 6.27554 60.3236 6.44086 60.1352C6.59346 59.9343 6.72062 59.658 6.72062 59.5199C6.72062 59.3818 6.66976 59.1809 6.60618 59.0804C6.50444 58.9172 6.37728 58.9674 5.84318 59.3567C5.28365 59.7711 5.18192 59.7962 5.13105 59.6078C5.09291 59.4822 5.11834 59.2185 5.19464 59.0176C5.27094 58.8042 5.41082 58.5279 5.49983 58.3898C5.58885 58.2642 5.8559 58.0758 6.09751 57.9879C6.32641 57.9 6.66976 57.8247 6.84779 57.8247V57.8247ZM5.15649 58.4526C5.1692 58.4526 5.11834 58.5656 5.05476 58.7037C4.99117 58.8418 4.94031 59.1558 4.94031 59.4195C4.94031 59.6832 5.00389 59.9845 5.09291 60.0975C5.18192 60.2106 5.35995 60.3487 5.48712 60.4115C5.66515 60.4994 5.58885 60.5747 5.04204 60.8133C4.67326 60.9765 3.91027 61.3281 3.35074 61.5918C2.79121 61.8555 2.07908 62.2825 1.77388 62.5462C1.3288 62.9355 1.17621 62.9982 1.01089 62.8978C0.896441 62.8224 0.68026 62.5587 0.514944 62.3327C0.362346 62.0941 0.222464 61.7425 0.23518 61.5542C0.23518 61.3658 0.336913 61.0393 0.451362 60.8259C0.60396 60.5873 0.832858 60.4115 1.12534 60.3236C1.36695 60.2608 1.634 60.2106 1.72302 60.2106C1.81203 60.2106 2.18081 60.0975 2.54959 59.972C2.91837 59.8464 3.65593 59.4446 4.17731 59.093C4.69869 58.7414 5.14377 58.4526 5.15649 58.4526ZM22.5527 58.9548C22.6545 58.9548 22.7435 59.0302 22.7435 59.1432C22.7435 59.2437 22.8579 59.3567 22.9978 59.3943C23.1377 59.4195 23.2521 59.5074 23.2521 59.5827C23.2521 59.6455 23.1377 59.7334 22.9978 59.7711C22.8579 59.7962 22.7435 59.8966 22.7308 59.9845C22.7308 60.0724 22.8198 60.2231 22.947 60.3361C23.0996 60.4743 23.1377 60.6375 23.0741 60.9891C23.036 61.2528 23.036 61.4788 23.0868 61.5165C23.1377 61.5416 23.6209 61.4286 24.1423 61.2654C24.6637 61.1021 25.2741 60.964 25.503 60.964C25.7573 60.964 26.0625 61.077 26.3041 61.2779C26.6093 61.5291 26.6856 61.6797 26.6856 62.1192C26.6856 62.4708 26.5585 62.8852 26.3168 63.3498C26.1134 63.7266 25.8718 64.2791 25.6047 65.1079H19.4372L19.31 64.6307C19.2464 64.367 19.0175 63.827 18.8014 63.4126C18.547 62.9103 18.4199 62.4708 18.4199 62.1192C18.4199 61.73 18.4962 61.5165 18.6996 61.3281C18.8649 61.19 19.132 61.0393 19.31 60.9891C19.488 60.9514 19.9967 61.0142 20.4545 61.1398C20.9123 61.2654 21.4591 61.3909 21.688 61.416C22.1077 61.4663 22.1077 61.4537 22.0314 60.9891C21.9678 60.6375 22.0059 60.4743 22.1585 60.3361C22.273 60.2231 22.3747 60.0724 22.362 59.9845C22.362 59.8966 22.2475 59.7962 22.1077 59.7711C21.9678 59.7334 21.8533 59.6455 21.8533 59.5827C21.8533 59.5074 21.9678 59.4195 22.1077 59.3943C22.2475 59.3567 22.362 59.2437 22.362 59.1432C22.362 59.0302 22.451 58.9548 22.5527 58.9548V58.9548ZM6.44086 59.4571C6.45358 59.6329 6.37728 59.859 6.25011 59.9845C6.12295 60.1101 5.89405 60.2106 5.72873 60.2106C5.57613 60.2106 5.42354 60.1478 5.38539 60.085C5.34724 60.0096 5.4744 59.8715 5.66515 59.7836C5.8559 59.6832 6.11023 59.5074 6.21196 59.3818C6.38999 59.1683 6.40271 59.1683 6.44086 59.4571V59.4571ZM38.6901 59.4195C38.8426 59.545 39.097 59.7585 39.275 59.8715C39.5802 60.0599 39.5802 60.0724 39.3386 60.1603C39.1987 60.198 38.9571 60.198 38.7918 60.1603C38.6392 60.1101 38.4484 59.9469 38.3721 59.7962C38.2958 59.6455 38.2831 59.432 38.334 59.3441C38.423 59.1934 38.4866 59.206 38.6901 59.4195V59.4195ZM38.6519 61.3407C38.7155 61.3407 38.9444 61.6044 39.1733 61.9309C39.5166 62.4206 39.771 62.5964 40.6357 62.9982C41.2206 63.2619 41.6912 63.5382 41.6912 63.6261C41.6784 63.714 41.4495 64.3168 41.1571 64.9823C40.8773 65.6353 40.3814 66.6273 40.0634 67.1798C39.7455 67.7323 39.1733 68.6364 38.7918 69.1889C38.3976 69.7414 37.4184 70.8465 36.6045 71.6501C35.6126 72.6296 34.7225 73.3705 33.8705 73.9355C33.1711 74.3876 32.1156 74.9778 31.5179 75.254C30.9202 75.5303 29.8902 75.9321 29.2289 76.1582C28.5677 76.3716 27.3342 76.7107 26.4949 76.9116C25.6556 77.1125 24.9307 77.2255 24.8799 77.1878C24.8417 77.1376 24.6128 76.4721 24.3966 75.7187C24.1677 74.9527 23.8753 74.2244 23.7354 74.0862C23.5955 73.9481 23.5065 73.7221 23.5319 73.5839C23.5701 73.3705 23.9134 73.2449 25.859 72.7426C27.118 72.4287 28.5804 71.9892 29.1018 71.7757C29.6231 71.5622 30.5642 71.06 31.2 70.6456C31.8231 70.2437 32.8277 69.4652 33.4127 68.9127C33.9976 68.3727 34.8624 67.4184 35.3329 66.8031C35.8034 66.1752 36.4646 65.2209 36.7953 64.6684C37.1259 64.1158 37.66 63.1364 37.9652 62.496C38.2831 61.8555 38.5883 61.3407 38.6519 61.3407V61.3407ZM108.072 62.8476H109.305C110.259 62.8476 110.653 62.8978 110.996 63.0736C111.276 63.2117 111.543 63.5005 111.721 63.8521C111.887 64.1661 112.014 64.6307 112.014 64.9195C112.014 65.1958 111.874 65.6729 111.721 65.9743C111.569 66.2757 111.238 66.6649 110.996 66.8282C110.64 67.0542 110.297 67.1421 108.072 67.3054V62.8476ZM19.31 65.4846H25.7955V66.1124H19.31V65.4846Z" fill="#FEFEFF"/>
<path d="M15.8775 42.3544C15.8775 42.2163 15.9665 41.94 16.081 41.7266C16.2082 41.5257 16.3226 41.3499 16.3353 41.3499C16.3608 41.3499 16.3862 41.6387 16.3862 41.9777C16.3862 42.5177 16.348 42.6056 16.1319 42.6056C15.9623 42.6056 15.8775 42.5219 15.8775 42.3544Z" fill="#FEFEFF"/>
<path d="M19.9468 42.3544C19.9468 42.2163 20.0358 41.94 20.1503 41.7266C20.2775 41.5257 20.3919 41.3499 20.4046 41.3499C20.43 41.3499 20.4555 41.6387 20.4555 41.9777C20.4555 42.5177 20.4173 42.6056 20.2012 42.6056C20.0316 42.6056 19.9468 42.5219 19.9468 42.3544Z" fill="#FEFEFF"/>
<path d="M26.0253 46.2597C26.0126 45.996 26.1016 45.8328 26.3178 45.6946C26.4831 45.5816 26.7629 45.4937 26.9409 45.4937C27.1062 45.5063 27.6022 45.6318 28.0218 45.7951C28.7467 46.0713 28.7848 46.109 29.0137 46.762C29.1663 47.2015 29.2172 47.6033 29.1663 47.8796C29.1282 48.1182 29.0264 48.3944 28.9374 48.4823C28.8484 48.5702 28.7085 48.6456 28.6195 48.6456C28.5305 48.633 28.3652 48.5326 28.2507 48.4195C28.06 48.2061 28.06 48.1935 28.3143 48.1056C28.4669 48.0428 28.5686 47.9298 28.5432 47.8545C28.5178 47.7666 28.3779 47.6787 28.2253 47.6661C28.0727 47.641 27.9583 47.5405 27.9583 47.4401C27.9583 47.3396 27.8438 47.2517 27.7039 47.2517C27.5344 47.2517 27.4708 47.3145 27.5132 47.4401C27.5556 47.5657 27.492 47.6284 27.3224 47.6284C27.1698 47.6284 27.0681 47.7163 27.0681 47.8168C27.0681 47.9173 27.208 48.0303 27.386 48.0679C27.5979 48.1098 27.7039 48.2144 27.7039 48.3819C27.7039 48.52 27.6276 48.633 27.5386 48.633C27.4496 48.633 27.2207 48.4823 27.0427 48.294C26.8519 48.1056 26.5467 47.641 26.3687 47.2894C26.1906 46.9252 26.0381 46.4606 26.0253 46.2597Z" fill="#FEFEFF"/>
<path d="M30.2345 46.7494C30.4634 46.0839 30.4888 46.0462 31.2137 45.7825C31.6206 45.6318 32.142 45.5063 32.3709 45.5063C32.6252 45.4937 32.8796 45.5942 33.0449 45.7449C33.1848 45.883 33.2992 46.0965 33.2992 46.222C33.2992 46.335 33.1339 46.7746 32.9177 47.1889C32.7142 47.6033 32.3963 48.0931 32.2183 48.294C32.0403 48.4823 31.8114 48.633 31.7096 48.633C31.5952 48.633 31.5189 48.52 31.5189 48.3819C31.5189 48.2144 31.6249 48.1098 31.8368 48.0679C32.0021 48.0303 32.1547 47.9173 32.1547 47.8168C32.1547 47.7163 32.0403 47.6284 31.9004 47.6284C31.7308 47.6284 31.6672 47.5657 31.7096 47.4401C31.752 47.3145 31.6884 47.2517 31.5189 47.2517C31.3663 47.2517 31.2646 47.3396 31.2646 47.4401C31.2646 47.5405 31.1501 47.6284 31.0102 47.6284C30.8407 47.6284 30.7559 47.7122 30.7559 47.8796C30.7559 48.0177 30.8449 48.1433 30.9594 48.1684C31.1628 48.1935 31.1628 48.2061 30.9594 48.4195C30.8322 48.5326 30.6542 48.633 30.5524 48.633C30.4507 48.633 30.2854 48.4698 30.1836 48.2563C30.0692 48.0554 29.9929 47.7791 29.9929 47.6661C30.0056 47.5405 30.1074 47.1262 30.2345 46.7494Z" fill="#FEFEFF"/>
<path d="M11.0071 46.3099C11.0071 46.0839 11.0961 45.8704 11.2487 45.7825C11.3759 45.6946 11.6556 45.6193 11.8591 45.6193C12.0753 45.6193 12.5967 45.7323 13.0163 45.883C13.7539 46.1341 13.7793 46.1718 13.9955 46.7997C14.1099 47.1513 14.2117 47.5657 14.2117 47.7289C14.2117 47.8796 14.1481 48.1433 14.0591 48.3191C13.97 48.4949 13.8174 48.6707 13.7157 48.7084C13.6013 48.7335 13.4105 48.6456 13.0163 48.2437L13.2961 48.1935C13.4487 48.1558 13.5885 48.0805 13.5885 48.0052C13.5885 47.9424 13.4868 47.8419 13.3596 47.8042C13.2325 47.754 13.0544 47.6033 12.9527 47.4652C12.8383 47.3271 12.6857 47.2517 12.5966 47.302C12.5076 47.3396 12.4695 47.4652 12.5076 47.5657C12.55 47.6912 12.4864 47.754 12.3169 47.754C12.1643 47.754 12.0626 47.8419 12.0626 47.9424C12.0626 48.0554 12.177 48.1307 12.3805 48.1307C12.6094 48.1307 12.6984 48.1935 12.6984 48.3819C12.6984 48.52 12.6348 48.6581 12.5712 48.6958C12.4949 48.7335 12.3042 48.6581 12.1516 48.5326C11.999 48.3944 11.6683 47.9298 11.4394 47.4903C11.1978 47.0508 11.0071 46.5234 11.0071 46.3099Z" fill="#FEFEFF"/>
<path d="M15.3943 46.1844L16.1064 45.9081C16.5006 45.7574 17.0729 45.6318 17.3654 45.6318C17.785 45.6193 17.9503 45.6821 18.1029 45.9081C18.2386 46.0923 18.281 46.3099 18.2301 46.5611C18.1792 46.7746 17.963 47.2392 17.7341 47.6159C17.518 47.9926 17.1873 48.407 17.022 48.5326C16.8101 48.6916 16.6617 48.7293 16.5769 48.6456C16.5006 48.5702 16.4879 48.4321 16.5388 48.3191C16.5896 48.2186 16.755 48.1307 16.8948 48.1307C17.0347 48.1307 17.1492 48.0428 17.1492 47.9424C17.1492 47.8419 17.0347 47.754 16.8948 47.754C16.7295 47.754 16.6405 47.6787 16.6659 47.5531C16.6787 47.4401 16.6278 47.3271 16.5388 47.302C16.4498 47.2768 16.348 47.3647 16.3226 47.5029C16.2845 47.6536 16.1446 47.754 16.0047 47.754C15.8351 47.754 15.7504 47.8377 15.7504 48.0052C15.7504 48.1726 15.8139 48.2354 15.9411 48.1935C16.0428 48.1558 16.1319 48.1684 16.1319 48.2312C16.1319 48.2814 16.0174 48.4321 15.8775 48.5702C15.6486 48.7963 15.5978 48.7963 15.407 48.633C15.2926 48.5326 15.1527 48.3065 15.0891 48.1307C15.0001 47.9173 15.0255 47.5782 15.3943 46.1844Z" fill="#FEFEFF"/>
<path d="M18.9041 62.2073C18.8913 61.9436 18.9804 61.7804 19.1965 61.6422C19.3619 61.5292 19.6162 61.4413 19.7561 61.4413C19.896 61.4413 20.3665 61.5543 20.7988 61.6925C21.5364 61.9311 21.6127 61.9813 21.8543 62.5087C21.9942 62.8226 22.1086 63.3123 22.1086 63.6137C22.1086 63.9904 22.0323 64.2165 21.8416 64.3923C21.6508 64.5806 21.5237 64.6057 21.3711 64.5178C21.2693 64.455 21.1549 64.3169 21.1295 64.2416C21.104 64.1537 21.1676 64.0783 21.2821 64.0783C21.3838 64.0783 21.4728 63.9904 21.4728 63.89C21.4728 63.7895 21.3202 63.6514 21.1549 63.576C20.9769 63.5133 20.837 63.4002 20.837 63.3249C20.837 63.2621 20.748 63.1993 20.6462 63.1993C20.5318 63.1993 20.4555 63.2872 20.4555 63.3877C20.4555 63.4881 20.341 63.6012 20.2012 63.6388C20.0613 63.6765 19.9723 63.7644 20.0104 63.8272C20.0358 63.9025 20.2139 64.0155 20.3919 64.0783C20.5572 64.1537 20.7098 64.2667 20.7098 64.3295C20.7098 64.4048 20.6208 64.4927 20.5063 64.5555C20.3707 64.6141 20.2054 64.5388 20.0104 64.3295C19.8324 64.1537 19.5272 63.6891 19.311 63.2998C19.0948 62.898 18.9168 62.4082 18.9041 62.2073Z" fill="#FEFEFF"/>
<path d="M23.215 62.5589C23.4312 62.0064 23.482 61.9562 24.2069 61.7176C24.6265 61.5795 25.1097 61.4539 25.2878 61.4539C25.4531 61.4413 25.7329 61.5292 25.8855 61.6297C26.0804 61.7553 26.1779 61.9436 26.1779 62.1948C26.1779 62.4082 25.9999 62.898 25.7837 63.2998C25.5675 63.6891 25.2623 64.1537 25.097 64.3295C24.8936 64.5388 24.724 64.6141 24.5884 64.5555C24.4866 64.4927 24.3976 64.3671 24.3976 64.2667C24.3976 64.1662 24.4612 64.0783 24.5502 64.0783C24.6392 64.0783 24.83 64.003 24.9699 63.89C25.2115 63.7142 25.2115 63.7016 24.9317 63.6388C24.7791 63.6012 24.6519 63.4881 24.6519 63.3877C24.6519 63.2872 24.5629 63.1993 24.4612 63.1993C24.3467 63.1993 24.2704 63.2621 24.2704 63.3249C24.2704 63.4002 24.1179 63.5133 23.9525 63.576C23.7745 63.6514 23.6346 63.7895 23.6346 63.89C23.6346 63.9904 23.7109 64.0783 23.8254 64.0783C23.9271 64.0783 23.9907 64.1537 23.9653 64.2416C23.9398 64.3169 23.8254 64.455 23.7236 64.5178C23.571 64.6057 23.4439 64.5806 23.2531 64.3923C23.0624 64.2165 22.9861 63.9904 22.9861 63.6388C22.9988 63.3626 23.1005 62.8728 23.215 62.5589Z" fill="#FEFEFF"/>
<path d="M38.8691 63.8146C38.8563 63.777 38.8945 63.7142 38.9454 63.6639C38.9962 63.6263 39.1107 63.6765 39.2124 63.777C39.3141 63.8774 39.4667 63.9528 39.5558 63.9528C39.6448 63.9528 39.8355 64.0281 39.9754 64.1286C40.2043 64.2918 40.1789 64.3169 38.8309 64.7439L39.2124 64.9071C39.4159 64.995 39.6321 65.0327 39.6829 65.0076C39.7338 64.9824 39.7847 64.995 39.7847 65.0578C39.7847 65.108 39.7592 65.1834 39.7211 65.2461C39.6829 65.2964 39.454 65.221 39.2124 65.0829C38.9581 64.9448 38.6783 64.8569 38.5766 64.8945C38.4367 64.9448 38.4113 64.9071 38.4748 64.769C38.5257 64.656 38.7673 64.5053 39.0217 64.4299C39.2633 64.3546 39.5176 64.2541 39.5939 64.1913C39.6702 64.116 39.5558 64.0407 39.3014 63.9904C39.0725 63.9276 38.8691 63.8523 38.8691 63.8146Z" fill="#FEFEFF"/>
<path d="M38.3858 65.7108C38.602 65.8238 38.6274 65.7987 38.6274 65.5601C38.6274 65.3968 38.6656 65.3215 38.7292 65.3717C38.78 65.4345 38.8309 65.5977 38.8309 65.7484C38.8309 65.9117 38.9072 66.0247 39.0089 66.0247C39.1107 66.0247 39.2251 65.8866 39.2633 65.7108C39.3141 65.5015 39.3692 65.4512 39.4286 65.5601C39.4795 65.6354 39.4286 65.874 39.0852 66.414L38.4494 66.0749C38.0552 65.874 37.8645 65.7108 37.9662 65.6605C38.0552 65.6229 38.2459 65.648 38.3858 65.7108Z" fill="#FEFEFF"/>
<path d="M37.8136 66.753C37.6991 66.5898 37.6356 66.3763 37.6737 66.2758C37.7119 66.1251 37.8009 66.1628 38.0806 66.414C38.2841 66.5772 38.5003 66.7279 38.5766 66.7404H38.5766C38.6402 66.7404 38.7419 66.7404 38.7928 66.7279C38.8436 66.7279 38.8309 66.8284 38.7673 66.9665C38.6529 67.1674 38.602 67.1925 38.4748 67.0544C38.3858 66.9665 38.2078 66.8158 38.0679 66.7153C37.839 66.5395 37.839 66.5647 38.0933 67.0042C38.2587 67.2553 38.3858 67.4939 38.3858 67.5316C38.3858 67.5692 38.1696 67.5567 37.9026 67.5064C37.4575 67.4311 37.4448 67.4437 37.6228 67.6446C37.7246 67.7576 37.8772 67.858 37.9662 67.858C38.0552 67.8455 38.0933 67.9083 38.0679 67.9711C38.0298 68.0464 37.8136 67.9585 37.5847 67.7827C37.3558 67.6195 37.1015 67.4688 37.0124 67.4688C36.9234 67.4688 36.8598 67.5316 36.8598 67.5943C36.8598 67.6697 36.9743 67.9459 37.1142 68.2222C37.2541 68.4985 37.3431 68.7496 37.3304 68.7873C37.3176 68.8249 36.9997 68.7747 36.6437 68.6994C36.1732 68.5864 36.0078 68.4859 36.0714 68.3729C36.135 68.2473 36.2622 68.2599 37.1778 68.6366L36.8853 68.1845C36.6055 67.7325 36.6055 67.7074 36.8217 67.4185C37.0124 67.1674 37.1142 67.1423 37.5211 67.2051C37.8136 67.2553 38.0043 67.2302 38.0043 67.1548C38.0043 67.0921 37.9153 66.9037 37.8136 66.753Z" fill="#FEFEFF"/>
<path d="M35.4865 69.2393C35.2957 69.2393 35.283 69.2142 35.4483 69.0384C35.6136 68.8626 35.6772 68.8752 36.046 69.2519C36.3893 69.6035 36.4911 69.6412 36.6564 69.5156C36.7708 69.4277 36.809 69.2896 36.7581 69.2017C36.6988 69.0928 36.72 69.0719 36.8217 69.1389C36.9361 69.2017 36.9107 69.3272 36.6945 69.6035C36.5419 69.817 36.3893 69.9802 36.3766 69.9802C36.3639 69.9802 36.1986 69.817 36.0333 69.6035C35.8552 69.4026 35.6136 69.2268 35.4865 69.2393Z" fill="#FEFEFF"/>
<path d="M34.3928 70.3318C34.2784 70.1811 34.2911 70.0807 34.4183 69.93C34.52 69.817 34.6726 69.7291 34.7743 69.7291C34.8633 69.7291 34.9524 69.7918 34.9524 69.8546C34.9524 69.93 34.8761 69.9676 34.787 69.9551C34.698 69.93 34.6344 70.0053 34.6344 70.1058C34.6344 70.2313 34.7362 70.2816 34.9524 70.2565C35.1177 70.2313 35.3339 70.2941 35.4229 70.382C35.5119 70.4825 35.55 70.6332 35.4865 70.7713C35.4356 70.8969 35.3084 71.0224 35.2067 71.0601C35.0922 71.0852 34.9524 71.0601 34.8888 70.9722C34.787 70.8843 34.8252 70.8466 35.0032 70.8843C35.1685 70.9094 35.2703 70.8466 35.2957 70.7085C35.3211 70.5327 35.2448 70.495 34.9269 70.5202C34.6726 70.5327 34.4818 70.4699 34.3928 70.3318Z" fill="#FEFEFF"/>
<path d="M34.1512 71.1103C34.1004 70.9345 34.0241 70.696 33.9732 70.5829C33.9223 70.4448 33.9478 70.3569 34.0495 70.3569C34.1385 70.3569 34.2402 70.6332 34.3038 71.0224C34.3674 71.374 34.3928 71.688 34.3674 71.7131C34.3293 71.7256 34.0495 71.6001 33.7443 71.4243C33.4264 71.2485 33.1975 71.0601 33.2356 70.9848C33.2611 70.9094 33.49 70.9848 34.2275 71.4243L34.1512 71.1103Z" fill="#FEFEFF"/>
<path d="M32.7015 72.027C32.6634 71.8261 32.6761 71.5624 32.7397 71.4368C32.8414 71.2108 32.8796 71.2359 33.1593 71.688C33.3246 71.9517 33.5281 72.2154 33.6044 72.253C33.6807 72.3033 33.6553 72.3661 33.5154 72.4163C33.3882 72.454 33.2865 72.454 33.2865 72.4037C33.2865 72.3409 33.1848 72.1777 33.0703 72.027C32.8541 71.7508 32.8541 71.7508 32.9559 72.8056L32.0275 72.2405L32.1802 72.5544C32.2692 72.7302 32.3836 72.8809 32.4345 72.8683C32.4853 72.8683 32.5362 72.9311 32.5362 72.9939C32.5362 73.0693 32.4853 73.1195 32.4345 73.1195C32.3836 73.1195 32.1802 72.8558 31.9894 72.5544C31.7859 72.2279 31.6969 71.9642 31.7732 71.9266C31.8368 71.8889 32.0657 71.9768 32.2819 72.1149C32.4853 72.253 32.6888 72.3661 32.727 72.3661C32.7524 72.3661 32.7524 72.2154 32.7015 72.027Z" fill="#FEFEFF"/>
<path d="M31.29 72.906C31.1374 72.6046 31.0484 72.3409 31.0865 72.3033C31.1374 72.2656 31.2264 72.2405 31.3027 72.2405C31.3663 72.2405 31.4426 72.3786 31.468 72.5544C31.4935 72.7302 31.6333 72.9814 31.7732 73.1195C32.0021 73.3581 32.0021 73.3706 31.7987 73.4334C31.6715 73.4711 31.5825 73.4837 31.5825 73.4711C31.5825 73.446 31.4426 73.1948 31.29 72.906Z" fill="#FEFEFF"/>
<path d="M29.853 73.1195C29.8149 73.1195 29.8785 73.0316 29.9802 72.9311C30.0946 72.8181 30.3108 72.7553 30.4634 72.7679C30.6287 72.793 30.7686 72.8683 30.7813 72.9311C30.794 73.0065 30.9212 73.1572 31.3281 73.4962L30.9721 73.8101C30.7813 73.9859 30.5779 74.1241 30.527 74.1241C30.4761 74.1366 30.3235 73.898 30.1836 73.6218C30.0438 73.3455 29.8912 73.1195 29.853 73.1195Z" fill="#FEFEFF"/>
<path d="M28.7467 73.4334C28.7594 73.4209 28.9247 73.3581 29.1027 73.2827C29.2681 73.1948 29.4588 73.1321 29.5097 73.1321C29.5605 73.1195 29.6114 73.1823 29.6114 73.2451C29.6114 73.3204 29.497 73.3706 29.3571 73.3706C29.2045 73.3706 29.1027 73.4585 29.1027 73.559C29.1027 73.6595 29.1536 73.7725 29.2299 73.8101C29.2935 73.8478 29.3825 73.8227 29.4207 73.7474C29.4461 73.6846 29.5351 73.6469 29.6114 73.6846C29.675 73.7222 29.7386 73.8101 29.7386 73.8729C29.7386 73.9483 29.6368 73.9608 29.5224 73.9106C29.3571 73.8353 29.3189 73.8604 29.3698 74.0487C29.3952 74.1869 29.4842 74.3124 29.5733 74.3375C29.6623 74.3627 29.8149 74.2873 29.9293 74.1869C30.0946 74.0236 30.1201 74.0236 30.1201 74.1869C30.1201 74.2873 29.9293 74.438 29.7004 74.5008C29.4715 74.5636 29.2808 74.6138 29.2681 74.5887C29.2681 74.5761 29.1282 74.3124 28.9883 73.9985C28.8357 73.6846 28.734 73.4334 28.7467 73.4334Z" fill="#FEFEFF"/>
<path d="M27.4369 74.6264C27.2588 74.0864 27.2588 74.0487 27.5005 73.9106C27.6403 73.8227 27.882 73.7599 28.0218 73.7599C28.1617 73.7599 28.3779 73.8478 28.4923 73.9734C28.6195 74.0864 28.7212 74.2873 28.7212 74.4129C28.7212 74.5259 28.5941 74.7268 28.4542 74.8524C28.3143 74.9654 28.0727 75.1035 27.9201 75.1286C27.6785 75.1914 27.6022 75.1286 27.4369 74.6264Z" fill="#FEFEFF"/>
<path d="M26.7502 75.1663C26.7247 74.9654 26.6612 74.664 26.6103 74.4757C26.5467 74.2371 26.5721 74.1241 26.6739 74.1241C26.7629 74.1241 26.9028 74.4003 26.9791 74.7519C27.0935 75.2417 27.0935 75.3923 26.9664 75.4426C26.8646 75.4802 26.7883 75.3798 26.7502 75.1663Z" fill="#FEFEFF"/>
<path d="M25.9109 75.317L25.9872 74.7896C26.0381 74.4506 26.1398 74.2496 26.2542 74.2496C26.3644 74.2496 26.3814 74.3041 26.3051 74.4129C26.2415 74.4882 26.1398 74.8022 26.0889 75.1035C26.0253 75.3923 25.949 75.6309 25.9236 75.6435C25.8855 75.6435 25.6693 75.3798 25.4404 75.0659C25.2115 74.7519 25.097 74.5008 25.186 74.5008C25.2751 74.5008 25.4785 74.6891 25.9109 75.317Z" fill="#FEFEFF"/>
<path d="M30.4253 73.4712C30.3108 73.2577 30.2345 73.0191 30.2472 72.9689C30.2599 72.9061 30.3235 72.881 30.4125 72.9061C30.4888 72.9438 30.5524 73.0442 30.5524 73.1447C30.5524 73.2452 30.6542 73.3582 30.7686 73.4084C30.8958 73.4712 30.9721 73.5968 30.934 73.6972C30.8958 73.7977 30.8068 73.8856 30.7432 73.8856C30.6669 73.8856 30.527 73.6972 30.4253 73.4712Z" fill="#FEFEFF"/>
<path d="M27.6909 74.5762C27.6146 74.3376 27.5891 74.0739 27.6273 74.0111C27.6781 73.9358 27.7926 73.8856 27.8816 73.8856C27.9834 73.8856 28.1614 73.9735 28.2632 74.0739C28.3649 74.1744 28.4539 74.3627 28.4539 74.4758C28.4539 74.6013 28.3904 74.7771 28.3013 74.8525C28.2123 74.9404 28.0724 75.0157 27.9834 75.0157C27.8944 75.0157 27.7545 74.8148 27.6909 74.5762Z" fill="#FEFEFF"/>
</svg>
