<svg width="160" height="120" viewBox="0 0 160 120" fill="none" xmlns="http://www.w3.org/2000/svg">
<path fill-rule="evenodd" clip-rule="evenodd" d="M49.4907 26.577V29.184H30.807C30.5463 30.7048 30.416 33.0946 30.3725 35.4843C30.3725 37.8741 30.416 40.177 30.5898 40.6115C30.7636 41.2198 31.3719 41.3502 34.2831 41.3502H37.7591C37.7591 35.8754 37.846 35.7016 38.7585 35.7016C39.2799 35.6582 46.0581 35.6582 53.8358 35.6582C59.9624 35.6582 65.4688 35.6851 67.8067 35.6966C68.4367 35.6996 68.8366 35.7016 68.9566 35.7016C69.8256 35.7016 69.9125 35.8754 69.9125 38.5259V41.3502H76.8645V29.184H58.6153V23.97H49.4907V26.577ZM84.0164 28.8385L84.016 28.84C83.4686 30.9933 82.6867 34.0687 81.9048 37.2224C80.5578 42.4799 79.4716 46.8249 79.4716 46.9118C79.4716 46.9553 80.5578 46.9987 81.8613 46.9987H84.2511L84.4684 73.2863L92.5067 73.5035V43.9572C89.1176 43.9572 88.5962 43.7834 88.5962 43.3054C88.5962 42.9578 89.5955 38.7431 90.7687 33.9636C91.9853 29.184 92.9412 25.0562 92.9412 24.839C92.9412 24.5783 91.3335 24.4045 89.0307 24.4045H85.1636L84.7291 26.0121C84.6422 26.3771 84.3815 27.4026 84.0165 28.8382L84.0164 28.8385ZM106.411 28.7061V26.5335V24.361H115.101V28.7061H127.702V34.7891H93.8102V28.7061H106.411ZM95.5482 40.8722V43.9137H125.964V37.8307H95.5482V40.8722ZM38.6281 66.9425V53.2556V39.5687H69.0435V66.9425H77.299V73.0256H29.5035V66.9425H38.6281ZM95.5482 49.1278V52.1693H125.964V46.0863H95.5482V49.1278ZM95.5482 73.4601V63.901V54.3419H125.964V73.4601H95.5482ZM23.6377 78.6307C22.6818 79.0652 21.2045 80.1949 20.3355 81.1074C19.2927 82.2371 18.5974 83.584 18.2933 84.9744C17.9022 86.669 17.9022 87.6684 18.2933 89.3629C18.5974 90.5796 19.3361 92.2307 19.9444 93.0562C20.5527 93.8818 21.9431 95.0115 22.9859 95.5329C24.3764 96.2281 25.7233 96.4888 27.7655 96.4888C29.2863 96.5323 31.5022 96.2281 32.6319 95.8805C34.6307 95.2288 34.7176 95.1419 34.7176 93.4473V91.7093C31.8498 93.0562 30.1118 93.5776 29.069 93.708C27.5482 93.9687 26.6358 93.7949 25.0281 93.0997C23.7681 92.5348 22.6383 91.6224 22.1169 90.7534C21.5521 89.8409 21.2479 88.5808 21.2479 87.147C21.2479 85.6262 21.5521 84.5834 22.2038 83.6275C22.7687 82.8454 23.6812 81.9329 24.2895 81.5853C24.8543 81.2377 26.0275 80.8467 26.8965 80.6729C27.7655 80.4991 29.3732 80.6729 30.807 81.1074C32.1105 81.455 33.4575 81.8026 33.8051 81.846C34.1093 81.9329 34.4569 81.5419 34.5003 81.0639C34.5872 80.6294 34.5003 79.9342 34.2831 79.5431C34.1093 79.1955 33.1968 78.6741 32.2409 78.37C31.3284 78.0658 29.4166 77.8486 27.9827 77.8486C26.3751 77.8486 24.6805 78.1527 23.6377 78.6307ZM69.0435 82.8454V80.3252V77.8051H72.085V96.0543L68.2613 95.9674C65.4371 95.8371 64.1335 95.6198 63.0907 94.9681C62.3086 94.4901 61.3527 93.5342 60.9182 92.7955C60.4837 92.0569 60.1796 90.623 60.223 89.3629C60.223 88.0594 60.5272 86.5821 61.0051 85.7566C61.4396 84.931 62.3955 83.9316 63.1342 83.4537C64.1335 82.8019 65.046 82.5847 69.0435 82.8454ZM75.1265 79.3259C75.1265 80.8467 75.17 80.8901 76.5169 80.7598C77.777 80.6729 77.9508 80.5425 77.9508 79.3693C77.9508 78.2396 77.777 78.0658 76.5604 77.9355C75.2569 77.8051 75.17 77.8486 75.1265 79.3259ZM90.7687 96.0978V86.9732V77.8486H102.066V80.8901H94.2447L94.462 85.3221L101.849 85.4524L102.066 88.2767H94.2447V93.0562H102.5V96.0978H90.7687ZM81.8179 82.4978C80.4275 83.8882 79.2978 85.1917 79.3412 85.3655C79.4281 85.5393 79.9495 85.6697 80.5578 85.6697C81.6006 85.6697 81.6441 85.7131 81.6441 89.5802C81.6441 91.7093 81.7744 93.7949 81.9482 94.186C82.122 94.577 82.8173 95.1853 83.469 95.4895C84.1208 95.8371 85.207 96.0978 85.8588 96.0978C86.5105 96.0978 87.5099 96.0109 88.0313 95.8805C88.8134 95.7067 89.0307 95.3591 89.0307 94.1425V92.6217C86.8147 93.4038 85.8588 93.4907 85.4243 93.3169C84.7725 93.0997 84.6856 92.4914 84.6856 89.3629V85.6697C88.5527 85.6697 88.5962 85.6697 88.5962 84.1489C88.5962 82.6281 88.5527 82.6281 86.6409 82.6281C84.7725 82.6281 84.6856 82.5847 84.5118 81.2812L84.3815 79.9342L81.8179 82.4978ZM75.1265 96.0978V89.1022L75.17 82.1502L77.9508 82.4109V95.8805L75.1265 96.0978ZM37.2812 89.3195V96.0543H40.3227C40.3227 87.9725 40.453 87.0601 41.0613 86.4952C41.4524 86.1476 42.0173 85.7131 42.278 85.5828C42.4952 85.4524 43.2773 85.4959 43.9291 85.7131C44.9719 86.0607 45.1891 85.9304 45.6671 84.7572C46.1016 83.6275 46.1016 83.3233 45.5367 83.0192C45.1891 82.8019 44.2767 82.6281 43.4946 82.6281C42.7125 82.6281 41.6696 82.8019 41.1917 83.0192C40.6124 83.3088 40.3227 83.3088 40.3227 83.0192C40.3227 82.8019 39.6709 82.5847 38.8019 82.5847H37.2812V89.3195ZM47.9265 84.7137C48.5348 83.9751 49.4907 83.2364 50.0121 83.0192C50.5336 82.8019 51.7936 82.6281 52.8364 82.6281C54.3137 82.6281 54.9655 82.8888 56.2256 84.0185C57.2394 84.9455 57.8912 86.0317 58.1808 87.2773C58.3981 88.2767 58.485 89.3195 58.3546 89.5368C58.2243 89.7974 56.269 89.9713 53.7923 89.9713C51.4026 89.9713 49.4473 90.1451 49.4473 90.3189C49.4473 90.4927 49.8383 91.1879 50.3163 91.8396C50.8377 92.5348 51.7936 93.1431 52.6192 93.3169C53.5751 93.4907 54.6613 93.2735 58.1374 91.7093V93.23C58.1374 94.577 57.9636 94.8377 56.6166 95.4026C55.7911 95.7936 54.1834 96.0978 53.0537 96.0978C51.6198 96.0978 50.5335 95.7936 49.4907 95.0984C48.5783 94.4901 47.6658 93.3604 47.1444 92.1438C46.5361 90.7099 46.4058 89.6671 46.5796 88.1463C46.7534 86.8863 47.2748 85.5393 47.9265 84.7137ZM104.89 83.4971C103.978 84.1923 103.717 84.7572 103.717 85.8869L103.76 87.3642C105.629 86.0607 106.802 85.5828 107.584 85.4524C108.757 85.2352 109.105 85.409 109.626 86.278C110.017 86.8863 110.235 87.538 110.148 87.7118C110.017 87.8856 109.018 88.3201 107.888 88.6677C106.758 89.0588 105.325 89.7975 104.803 90.3189C104.238 90.8403 103.76 91.6224 103.717 92.0569C103.717 92.4914 103.717 93.1866 103.76 93.6645C103.804 94.1425 104.238 94.9246 104.76 95.3157C105.281 95.7502 106.281 96.0978 106.932 96.0978C107.584 96.0978 108.54 95.8805 109.105 95.6198C109.8 95.2722 110.191 95.2722 110.495 95.6198C110.756 95.8805 111.364 96.0978 111.929 96.0978C112.885 96.0543 112.885 95.9674 112.885 90.623V85.1917C110.495 82.8019 109.93 82.5847 108.192 82.5847C106.715 82.5847 105.716 82.8888 104.89 83.4971ZM115.101 85.8435C115.101 85.2351 115.579 84.2358 116.144 83.6709C116.882 82.9323 117.665 82.5847 118.838 82.5847C119.75 82.5847 121.141 82.8019 121.923 83.0192C123.139 83.4102 123.313 83.6709 123.313 86.4952L121.705 85.8435C120.793 85.4524 119.663 85.1917 119.185 85.2786C118.707 85.3655 118.316 85.7131 118.316 86.0607C118.316 86.4083 119.316 87.3642 120.489 88.1463C121.705 88.9284 122.922 89.8844 123.226 90.3189C123.53 90.7534 123.791 91.6224 123.748 92.2741C123.748 92.9259 123.617 93.7949 123.443 94.186C123.27 94.577 122.574 95.1419 121.923 95.4895C121.271 95.7936 120.098 96.0978 119.316 96.0978C118.534 96.0978 117.273 95.8805 116.491 95.6633C115.188 95.2288 115.058 95.055 115.058 91.7093L116.491 92.6217C117.273 93.0997 118.447 93.4473 119.185 93.3604C120.054 93.2735 120.532 92.9693 120.619 92.4914C120.677 91.97 119.909 91.2023 118.316 90.1885C117.013 89.3629 115.753 88.2767 115.492 87.7987C115.275 87.3208 115.058 86.4518 115.101 85.8435ZM128.658 83.0192C128.136 83.2364 127.18 83.9751 126.572 84.7137C125.92 85.5393 125.399 86.8863 125.225 88.1463C125.051 89.6671 125.181 90.7099 125.79 92.1438C126.311 93.3604 127.224 94.4901 128.136 95.0984C129.179 95.7936 130.265 96.0978 131.699 96.0978C132.829 96.0978 134.436 95.7936 135.262 95.4026C136.609 94.8377 136.783 94.577 136.783 93.23V91.7093C133.307 93.2735 132.22 93.4907 131.265 93.3169C130.439 93.1431 129.483 92.5348 128.962 91.8396C128.484 91.1879 128.093 90.4927 128.093 90.3189C128.093 90.1451 130.091 89.9278 132.568 89.8844L137 89.754C136.783 87.0601 136.435 85.8 136.088 85.1917C135.74 84.6268 134.871 83.8013 134.176 83.3668C133.481 82.9323 132.134 82.6281 131.265 82.6281C130.352 82.6281 129.179 82.8019 128.658 83.0192ZM46.2288 45.5191C46.055 45.6929 45.8812 46.6054 45.9246 47.5179L46.0116 49.169H61.6537L61.4365 45.4757C49.9655 45.3019 46.4461 45.3888 46.2288 45.5191ZM46.0985 56.2514L46.2288 58.0763L61.6537 58.2936V54.383H45.9681L46.0985 56.2514ZM101.845 67.2444L101.715 63.8552L101.585 60.5096H119.877V67.4616L101.845 67.2444ZM46.0116 65.2457V66.9837H61.6537V63.5076H46.0116V65.2457ZM49.7483 87.3185C49.9221 87.0144 50.3566 86.406 50.7042 86.015C51.0518 85.5805 51.8774 85.2329 52.4857 85.2329C53.094 85.2329 53.9195 85.4501 54.3106 85.7543C54.7016 86.0584 55.1362 86.6667 55.31 87.1012C55.5272 87.753 55.223 87.8399 52.5291 87.8399C50.2262 87.8399 49.5745 87.7096 49.7483 87.3185ZM64.4346 86.2757C63.3917 87.1447 63.1745 87.6661 63.1745 89.3607C63.1745 91.0118 63.3917 91.5766 64.3476 92.4457C65.2167 93.1843 66.0857 93.4885 67.3023 93.4885H69.0403L68.823 85.4501C66.0857 85.2329 65.347 85.4501 64.4346 86.2757ZM128.394 87.3185C128.567 87.0144 129.002 86.406 129.35 86.015C129.697 85.5805 130.566 85.2329 131.218 85.2329C131.913 85.2329 132.869 85.6239 133.347 86.1019C133.825 86.5798 134.216 87.1447 134.216 87.4054C134.216 87.6661 132.912 87.8399 131.174 87.8399C128.872 87.8399 128.22 87.7096 128.394 87.3185ZM107.755 90.8814C106.973 91.3594 106.321 91.9677 106.321 92.2719C106.364 92.576 106.625 93.0974 106.929 93.4016C107.233 93.7057 107.885 93.923 108.363 93.923C108.884 93.923 109.493 93.6623 109.797 93.4016C110.101 93.0974 110.318 92.185 110.318 91.4463C110.318 90.5773 110.101 90.0124 109.753 90.0124C109.493 90.0124 108.58 90.4035 107.755 90.8814Z" fill="white"/>
</svg>
