<svg width="160" height="120" viewBox="0 0 160 120" fill="none" xmlns="http://www.w3.org/2000/svg">
<g clip-path="url(#clip0_1607_31758)">
<path d="M93.6078 65.4836C93.6078 77.3097 87.0567 78.8036 80.5055 78.8036C69.2929 78.8036 66.8992 73.0772 66.8992 64.9857V41.956H62.7417V39.7152H78.4897V41.956H74.0803V64.2388C74.0803 72.0814 76.096 76.0649 81.8913 76.0649C87.6866 76.0649 90.5842 73.2017 90.5842 64.9857V41.956H86.4267V39.7152H97.6393V41.956H93.8598L93.6078 65.4836ZM104.568 76.0649V41.956H100.159V39.7152H117.545C124.978 39.7152 128.631 43.8232 128.631 48.6782C128.631 53.9065 123.844 56.7697 119.687 57.6411C127.876 58.388 130.143 63.6164 130.143 67.4754C130.143 75.318 123.34 78.3056 116.789 78.3056H99.9071V76.0649H104.568ZM121.576 49.1761C121.576 45.566 119.687 41.956 115.529 41.956H110.994V56.7697H115.025C119.561 56.7697 121.576 53.1596 121.576 49.1761ZM123.088 67.5999C123.088 62.496 120.82 59.0104 115.655 59.0104H111.246V76.1894H114.899C120.316 76.0649 123.088 72.8283 123.088 67.5999ZM147.655 41.458C143.498 41.458 140.852 43.8232 140.852 48.0557C140.852 51.7903 145.009 53.6576 149.041 55.0269C151.435 55.8983 154.458 57.0187 156.6 58.8859C158.868 61.0022 160.128 63.8653 160.002 67.4754C159.876 74.1976 155.088 78.8036 146.647 78.8036C143.498 78.8036 138.584 78.0566 135.687 76.4383L135.309 66.355H137.828C138.08 73.2017 141.23 76.6873 146.899 76.6873C151.435 76.6873 153.954 73.6997 153.954 69.0937C153.954 65.1102 150.679 63.4919 145.639 61.7491C144.002 61.2512 140.726 60.0063 138.458 57.7656C136.442 55.7738 135.435 53.1596 135.435 50.5454C135.435 42.7029 141.104 39.2173 148.159 39.2173C150.931 39.2173 155.088 40.2132 157.608 41.5825L157.86 50.4209H155.34C154.962 44.1967 152.191 41.458 147.655 41.458Z" fill="white"/>
<path d="M42.9606 47.557L41.9528 48.4284L43.0866 52.0385L39.811 50.2957L38.6772 51.1671L42.3307 53.1588L38.4252 56.271L37.4173 54.9016L38.8032 53.7813L37.7953 52.5364L36.4095 53.6568L35.2756 52.163L36.6614 51.0426L35.6535 49.6733L28.5984 55.5241L35.4016 60.8769L36.6614 59.3831C37.5433 59.3831 38.1732 60.13 38.5512 60.8769L37.2913 62.3707L38.0472 62.9932C39.685 61.4993 41.9528 60.5035 44.2205 60.5035C49.0079 60.5035 52.6614 64.3625 52.6614 69.0929C52.6614 70.5868 52.2835 72.3295 51.4016 73.6989L52.6614 74.6948C52.6614 75.5662 51.7795 76.562 50.8976 76.811L49.6378 75.8151C48 77.4334 45.7323 78.3048 43.4646 78.3048C38.6772 78.3048 35.0236 74.5703 35.0236 69.8398C35.0236 68.346 35.5276 66.7277 36.1575 65.3584L35.2756 64.736L34.0158 66.3543C33.1339 66.2298 32.378 65.6074 32.126 64.736L33.3858 63.3666L27.7165 58.6362V66.1053H29.6063C29.8583 66.4787 29.9843 66.8522 29.9843 67.2257C29.9843 67.5991 29.8583 68.0971 29.6063 68.4705H27.7165V69.3419C31.874 70.0888 35.4016 73.5744 35.4016 77.8069C35.4016 82.1639 32 85.6495 27.7165 86.3964V87.8902C27.3386 88.1392 26.8346 88.2636 26.3307 88.2636C25.8268 88.2636 25.1969 88.1392 24.8189 87.8902V86.3964C20.5354 85.7739 17.2598 82.1639 17.2598 77.8069C17.2598 73.5744 20.5354 70.0888 24.8189 69.4664V68.4705H22.8032C22.5512 68.0971 22.4252 67.7236 22.4252 67.2257C22.4252 66.7277 22.5512 66.3543 22.8032 65.9808H24.8189V58.5117L19.0236 63.2421L20.2835 64.6115C20.0315 65.4829 19.2756 66.1053 18.3937 66.2298L17.1339 64.6115L16.378 65.3584C17.1339 66.7277 17.6378 68.2215 17.6378 69.8398C17.6378 74.5703 13.8583 78.3048 9.19685 78.3048C6.92913 78.3048 4.66142 77.4334 3.02362 75.8151L1.76378 76.811C1.00787 76.562 0.125984 75.5662 0 74.6948L1.25984 73.6989C0.503937 72.3295 0 70.7112 0 69.0929C0 64.3625 3.65354 60.5035 8.44095 60.5035C10.7087 60.5035 12.9764 61.4993 14.6142 62.9932L15.3701 62.4952L14.1102 61.0014C14.3622 60.2545 15.1181 59.6321 16 59.5076L17.2598 61.0014L24.063 55.6485L17.0079 49.7977L16 51.1671L17.3858 52.2874L16.378 53.6568L14.9921 52.5364L13.9843 53.7813L15.1181 54.6527L14.1102 56.022L10.3307 52.9099L13.8583 50.9181L12.8504 50.0467L9.5748 51.7895L10.5827 48.4284L9.5748 47.557L8.31496 51.416L4.40945 48.3039L5.41732 47.0591L6.80315 48.1794L7.93701 46.9346L6.55118 45.6897L7.55906 44.4449L8.94488 45.4408L9.95276 44.1959L6.92913 41.9552C7.1811 40.9593 7.81102 40.2124 8.8189 39.59L24.8189 52.5364V43.9469H23.1811V45.5652H21.5433V43.9469H19.9055V45.5652H18.2677V40.7103L22.0472 42.3286V40.9593L18.5197 39.4655L22.0472 38.0961V36.8513L18.2677 38.3451V33.3657H19.9055V35.1085H21.5433V33.3657H23.1811V35.1085H24.8189V31.2495C25.3228 31.125 25.8268 31.0005 26.3307 31.0005C26.8346 31.0005 27.3386 31.125 27.7165 31.2495V52.5364L43.7165 39.59C44.5984 40.2124 45.2284 40.9593 45.6063 41.9552L42.5827 44.3204L43.5906 45.5652L44.9764 44.5694L45.9843 45.8142L44.5984 47.0591L45.6063 48.3039L46.9921 47.1836L48 48.4284L44.0945 51.5405L42.9606 47.557ZM10.3307 70.9602C10.3307 72.3295 11.3386 73.2009 12.5984 73.3254L10.5827 74.8193C9.19685 74.3213 7.93701 72.703 7.93701 71.2092C7.93701 70.7112 8.06299 70.4623 8.18898 70.0888H7.81102C5.92126 70.0888 4.40945 68.346 4.0315 66.6032L6.17323 64.9849V65.6074C6.17323 66.7277 7.30709 67.7236 8.44095 67.7236C9.70079 67.7236 10.8346 66.7277 10.8346 65.4829C10.8346 63.989 9.70079 62.9932 8.18898 62.9932C5.41732 62.9932 2.64567 65.7318 2.64567 69.2174C2.64567 70.2133 2.89764 71.2092 3.27559 72.0806L4.53543 71.0847C5.41732 71.4582 6.04724 72.3295 6.29921 73.3254L5.03937 74.3213C6.29921 75.3172 7.81102 75.8151 9.32284 75.8151C12.5984 75.8151 15.1181 73.2009 15.1181 70.9602C15.1181 69.5909 14.2362 68.4705 12.8504 68.4705C11.3386 68.7195 10.3307 69.7154 10.3307 70.9602ZM27.4646 75.9396C27.4646 77.1845 28.4724 78.1804 29.7323 78.1804C30.6142 78.1804 30.9921 77.8069 31.6221 77.309V79.9231C30.9921 80.2966 30.3622 80.4211 29.6063 80.4211C28.2205 80.4211 27.0866 80.0476 26.3307 78.8028C25.5748 80.0476 24.315 80.4211 22.9291 80.4211C22.2992 80.4211 21.5433 80.2966 20.9134 79.9231V77.309C21.5433 77.9314 21.9213 78.1804 22.8032 78.1804C24.063 78.1804 25.0709 77.1845 25.0709 75.9396C25.0709 74.6948 24.315 73.6989 22.9291 73.6989C20.5354 73.6989 19.5276 75.9396 19.5276 78.0559C19.5276 81.0435 21.7953 83.6577 24.6929 84.1556V82.6618C25.1969 82.4128 25.7008 82.4128 26.0787 82.4128C26.5827 82.4128 27.0866 82.4128 27.5906 82.6618V84.1556C30.3622 83.7822 32.7559 80.919 32.7559 78.0559C32.7559 75.9396 31.874 73.6989 29.3543 73.6989C28.3465 73.5744 27.4646 74.6948 27.4646 75.9396ZM41.8268 65.6074C41.8268 66.7277 43.0866 67.8481 44.2205 67.8481C45.3543 67.8481 46.4882 66.8522 46.4882 65.7318V65.1094L48.5039 66.7277C48.126 68.7195 46.3622 70.3378 44.3465 70.2133C44.4724 70.5868 44.4724 70.9602 44.4724 71.3337C44.4724 72.8275 43.2126 74.4458 41.8268 74.9437L39.937 73.3254C41.1969 73.2009 42.2047 72.3295 42.2047 70.9602C42.2047 69.5909 41.0709 68.7195 39.811 68.7195C38.4252 68.7195 37.5433 69.8398 37.5433 71.2092C37.5433 72.8275 39.5591 76.0641 43.4646 76.0641C44.9764 76.0641 46.4882 75.5662 47.6221 74.5703L46.3622 73.5744C46.6142 72.5785 47.2441 71.7071 48.126 71.3337L49.3858 72.3296C49.8898 71.4582 50.1417 70.4623 50.1417 69.4664C50.1417 66.7277 48 63.2421 44.5984 63.2421C43.0866 63.2421 41.8268 64.1135 41.8268 65.6074Z" fill="white"/>
</g>
<defs>
<clipPath id="clip0_1607_31758">
<rect width="160" height="57.2632" fill="white" transform="translate(0 31)"/>
</clipPath>
</defs>
</svg>
