<svg width="160" height="120" viewBox="0 0 160 120" fill="none" xmlns="http://www.w3.org/2000/svg">
<g clip-path="url(#clip0_1608_31820)">
<path d="M76.2631 21.4309C73.1857 22.2505 70.6639 23.6093 68.6551 25.5505L67.3942 26.7799V31.0936C67.3942 36.8093 67.0522 36.3995 71.818 36.4858C73.7841 36.5289 80.0672 36.5073 85.7305 36.421C96.0313 36.2701 96.074 36.2701 96.6297 35.774C97.3776 35.1269 97.3349 34.3289 96.4587 32.0426C94.8559 27.8583 91.3938 24.1916 87.3119 22.3583C84.2345 20.9995 79.426 20.5897 76.2631 21.4309Z" fill="white"/>
<path d="M52.5421 77.1224C52.478 77.2734 52.4566 81.0479 52.478 85.491L52.5421 93.5793L53.4824 93.644C54.0167 93.6871 54.6578 93.6655 54.9356 93.5793L55.4272 93.4714L55.3844 85.2106L55.3203 76.9714L53.974 76.9067C53.0336 76.8636 52.6062 76.9283 52.5421 77.1224Z" fill="white"/>
<path d="M124.282 85.2086L124.346 93.5772L124.859 93.6419C125.116 93.6851 125.586 93.6635 125.864 93.5988C126.355 93.4694 126.355 93.4047 126.419 90.6007L126.483 87.7537L128.706 90.7302L130.929 93.6851H131.954C132.831 93.6851 133.002 93.6204 133.002 93.2968C133.002 93.0811 131.976 91.5713 130.736 89.9321L128.45 86.9556L130.523 84.8635C131.655 83.7204 132.574 82.6204 132.574 82.4047C132.574 82.1027 132.382 82.038 131.527 82.038H130.48L128.428 84.3027L126.377 86.5458L126.334 81.7576L126.27 76.9694L125.244 76.9047L124.24 76.84L124.282 85.2086Z" fill="white"/>
<path d="M58.2903 77.8327C57.8629 78.5014 58.0125 79.8602 58.5681 80.2484C58.7604 80.3994 59.3375 80.5288 59.8504 80.5288C61.0471 80.5288 61.6242 79.968 61.6242 78.8249C61.6242 77.6386 61.1967 77.2935 59.8076 77.2935C58.8032 77.2935 58.5895 77.3582 58.2903 77.8327Z" fill="white"/>
<path d="M27.2802 78.1774C27.0665 78.3931 27.0024 80.248 27.0024 85.9421C27.0024 94.3107 26.8742 93.6852 28.6052 93.6852C30.2294 93.6852 30.208 93.7284 30.208 90.8813V88.3578L31.9391 88.2284C35.1233 88.0127 37.0467 86.5244 37.4528 83.9793C37.8588 81.4774 37.004 79.6009 34.9951 78.5872C34.0548 78.0911 33.6488 78.048 30.7423 77.9833C28.3274 77.9186 27.4725 77.9833 27.2802 78.1774ZM32.8794 80.8303C33.777 81.2186 34.0548 81.7362 34.0548 83.095C34.0548 84.497 33.4564 85.2303 32.1314 85.5107C30.0798 85.8989 30.208 86.0499 30.208 83.1166V80.5284H31.1697C31.704 80.5284 32.4733 80.6578 32.8794 80.8303Z" fill="white"/>
<path d="M86.691 78.0703C86.4773 78.1566 86.4132 79.9036 86.4132 85.7056C86.4132 92.9311 86.4346 93.2546 86.8193 93.4703C87.3749 93.7507 90.9225 93.7507 92.5039 93.4487C96.5644 92.6938 98.7015 89.4585 98.2955 84.6703C98.0604 81.6723 96.4789 79.3213 94.1281 78.4585C93.4229 78.1997 92.2902 78.0703 90.0463 78.0272C88.3366 77.984 86.8193 78.0056 86.691 78.0703ZM92.6749 80.1409C93.9785 80.5291 95.2822 81.9095 95.6882 83.3115C96.3934 85.7272 95.966 88.7036 94.7051 90.1487C93.8076 91.184 92.8459 91.5507 90.5378 91.6801L88.5503 91.8095V85.835V79.8821H90.1745C91.0721 79.8821 92.2047 80.0115 92.6749 80.1409Z" fill="white"/>
<path d="M42.7741 81.9093C39.7608 82.5779 38.0939 85.7054 38.735 89.4152C39.2266 92.2191 40.7225 93.5995 43.5862 93.8368C47.6253 94.1819 50.083 91.8309 50.083 87.6681C50.083 85.9211 49.6128 84.2171 48.9076 83.3544C47.7536 81.974 45.1463 81.3701 42.7741 81.9093ZM45.8088 84.8211C47.1552 85.7917 47.2407 89.4152 45.937 90.6446C44.8044 91.723 42.8596 91.3348 42.2612 89.9113C41.8766 88.9622 41.8766 86.5034 42.2612 85.7485C43.0306 84.2387 44.4624 83.872 45.8088 84.8211Z" fill="white"/>
<path d="M67.3499 81.9095C65.9394 82.2978 64.9563 83.1389 64.2511 84.5625C63.7168 85.6625 63.6527 86.0507 63.6527 87.8625C63.6527 90.3429 64.0588 91.6154 65.2555 92.6723C66.7088 94.0311 69.8717 94.2684 71.4959 93.1684C72.1584 92.737 72.2011 92.6076 72.2652 91.3566C72.3293 89.8037 72.1584 89.6958 70.8975 90.5586C70.064 91.1409 68.7604 91.2703 68.0124 90.8821C67.2858 90.4723 66.8797 89.3723 66.8797 87.7546C66.8797 86.288 67.0934 85.5762 67.7773 84.7782C68.2475 84.2605 69.8075 84.3037 70.812 84.8644C71.966 85.5115 72.308 85.3174 72.308 84.0233C72.308 82.7723 71.966 82.3625 70.47 81.9095C69.2733 81.5429 68.6749 81.5429 67.3499 81.9095Z" fill="white"/>
<path d="M58.5895 82.0597C58.2476 82.2538 58.2048 82.7714 58.2048 87.7106C58.2048 91.6793 58.2689 93.2322 58.4613 93.4263C58.7177 93.6851 60.4915 93.7714 61.0685 93.5557C61.3677 93.4479 61.4105 92.7146 61.4105 87.7538V82.0812L60.9403 81.9518C60.1923 81.7577 58.9956 81.8008 58.5895 82.0597Z" fill="white"/>
<path d="M73.441 81.9517C73.2914 82.0164 73.1632 82.2536 73.1632 82.4909C73.1632 83.0085 76.9886 93.3399 77.2237 93.4262C77.3092 93.4693 77.0741 94.3105 76.668 95.3026C76.262 96.3164 75.9414 97.2654 75.9414 97.4379C75.9414 98.0419 78.6342 98.1713 79.1898 97.6105C79.4249 97.3732 84.2761 82.9654 84.2761 82.4693C84.2761 82.2536 84.1265 82.0164 83.9342 81.9517C83.3572 81.736 81.5406 81.8007 81.3697 82.0811C81.2842 82.2105 80.7072 83.936 80.0874 85.8987C79.0189 89.3066 78.9547 89.4575 78.7197 88.8321C78.5914 88.4654 77.993 86.8477 77.4374 85.187C76.8604 83.5477 76.3261 82.1458 76.262 82.0811C76.091 81.9085 73.7616 81.8007 73.441 81.9517Z" fill="white"/>
<path d="M104.002 82.125C102.078 82.7505 100.903 84.2171 100.497 86.525C100.198 88.2289 100.561 90.5152 101.288 91.6799C103.403 94.9367 108.981 94.4407 110.584 90.8387C111.268 89.3289 111.311 85.8348 110.691 84.6269C109.451 82.2544 106.801 81.2622 104.002 82.125ZM107.314 84.0446C107.635 84.174 108.105 84.7348 108.404 85.2524C109.067 86.4818 109.131 89.1779 108.511 90.2563C107.827 91.4211 107.058 91.8524 105.647 91.8524C104.621 91.8524 104.301 91.7661 103.831 91.3132C102.976 90.5152 102.655 89.5877 102.655 87.8191C102.655 86.6975 102.783 86.0289 103.104 85.3387C103.873 83.721 105.583 83.2034 107.314 84.0446Z" fill="white"/>
<path d="M116.356 82.147C115.16 82.5137 114.347 83.3117 113.728 84.7137C113.322 85.6195 113.236 86.1803 113.236 87.8627C113.236 90.2568 113.535 91.2489 114.561 92.4137C115.929 93.9235 118.408 94.247 120.502 93.1901C121.55 92.6725 121.678 92.4999 121.678 91.4646C121.678 90.8176 121.592 90.6666 121.272 90.6666C121.037 90.6666 120.78 90.7744 120.716 90.8823C120.46 91.2921 118.921 91.9607 118.258 91.9607C116.442 91.9607 115.48 90.5372 115.48 87.8627C115.48 86.0078 115.972 84.6705 116.848 84.0882C117.596 83.5921 119.348 83.7431 120.182 84.3901C120.524 84.6274 120.994 84.8431 121.25 84.8431C121.592 84.8431 121.678 84.7137 121.678 84.0882C121.678 82.2764 119.006 81.3058 116.356 82.147Z" fill="white"/>
<path d="M62.1973 27.7729C60.3594 28.4415 58.4147 29.7141 57.0042 31.1808C54.7602 33.5317 54.2473 34.9337 55.3159 35.9906L55.8288 36.5298H60.5304C65.1893 36.5298 65.232 36.5298 65.8304 36.0121C66.4288 35.4945 66.4288 35.4729 66.4929 32.518C66.5356 30.9004 66.5143 29.218 66.4288 28.8298C66.1296 27.169 64.826 26.8455 62.1973 27.7729Z" fill="white"/>
<path d="M99.553 36.2495C99.2111 36.3142 98.6982 36.5515 98.4417 36.8103L97.9502 37.2417V50.0319V62.8221L98.4631 63.426C98.976 64.0299 99.0187 64.0299 101.305 64.0083C105.131 63.9652 107.781 63.0162 110.452 60.7515C115.517 56.4593 116.842 49.3632 113.701 43.324C113.295 42.5691 112.311 41.2966 111.307 40.2828C109.939 38.8809 109.234 38.3417 107.781 37.6299C105.131 36.3358 102.289 35.8613 99.553 36.2495Z" fill="white"/>
<path d="M51.5783 37.975C50.9372 38.2986 49.6763 39.2692 48.7787 40.1319C47.4323 41.426 46.9408 42.0947 46.1501 43.7123C44.6755 46.6672 44.2694 49.0182 44.7396 52.0594C45.338 55.9417 47.4965 59.3496 50.6807 61.5064C53.5872 63.4692 55.4251 63.9437 60.7678 64.0731C64.294 64.1594 64.8069 64.1162 65.4694 63.7711C65.961 63.5123 66.2602 63.1672 66.367 62.6927C66.4739 62.3045 66.5166 56.6966 66.4953 50.2045L66.4311 38.428L65.8328 37.9103L65.2344 37.3927H58.9727H52.7323L51.5783 37.975Z" fill="white"/>
<path d="M76.0274 37.3928C68.804 37.5006 68.2698 37.5222 67.8423 37.9104C67.3936 38.3202 67.3936 38.3849 67.3936 50.6575V62.9947L67.9492 63.5124L68.5048 64.03H82.2891H96.0734L96.5863 63.4261L97.0992 62.8006L97.0565 50.5281L96.9923 38.2771L96.5008 37.781C96.0306 37.2849 95.9879 37.2849 89.8758 37.2849C86.4992 37.2849 80.2589 37.3281 76.0274 37.3928Z" fill="white"/>
</g>
<defs>
<clipPath id="clip0_1608_31820">
<rect width="106" height="77" fill="white" transform="translate(27 21)"/>
</clipPath>
</defs>
</svg>
