<svg width="324" height="91" viewBox="0 0 324 91" fill="none" xmlns="http://www.w3.org/2000/svg">
<g clip-path="url(#clip0_2567_158)">
<path d="M83.5832 48.4752C83.5832 44.9287 86.4084 42.0914 89.9399 42.0914C93.4713 42.0914 96.2964 44.9287 96.2964 48.4752C96.2964 52.0218 93.4713 54.8589 89.9399 54.8589C86.4084 54.8589 83.5832 51.9036 83.5832 48.4752Z" fill="white"/>
<path d="M121.958 63.9593C121.722 65.969 121.487 67.9787 120.898 69.8702C119.132 76.6086 115.248 82.7561 108.891 86.1844C100.18 90.6768 89.8213 89.0217 81.1103 85.5932C73.9298 90.6768 73.9298 90.6768 73.9298 90.6768C72.2817 91.7407 70.1629 89.9673 71.1046 88.1941C69.1035 88.5487 68.5149 86.6572 69.1035 85.1205C67.4554 86.4209 66.0428 84.0565 66.9845 82.6378C67.573 81.6922 68.5149 80.6281 69.2211 79.8006C59.0975 74.0078 49.9158 66.9147 40.6163 59.9398C45.9136 63.25 67.1023 74.1261 72.2817 76.3723C77.6966 78.7367 83.1115 81.101 88.7618 82.4015C93.4705 83.4654 99.4739 84.0565 103.829 81.3373C107.832 78.973 109.362 74.1261 109.951 69.7521C111.363 60.2945 108.067 49.6548 103.123 41.616C97.9437 33.2225 89.4682 25.6565 79.8156 23.174C76.284 22.2282 72.7526 22.2282 69.4566 22.8193C61.8051 24.1196 54.8598 28.8485 49.5628 34.7592C41.9113 43.2711 36.614 53.7926 31.7877 64.1958C28.4916 71.1707 23.9008 88.1941 13.071 81.4557C8.24453 78.3821 5.1841 73.0622 3.06513 67.8605C0.710889 62.3042 -0.937159 54.8565 0.593056 48.8274C3.88915 36.178 21.5465 47.4086 27.55 51.4282C27.1967 51.3099 13.071 44.808 7.89144 49.8913C5.5372 52.2557 5.65483 56.5116 6.00813 59.5852C6.71432 65.1415 9.42185 73.4169 14.6013 76.4905C21.3111 80.3918 24.7248 68.2152 26.4905 63.9593C29.4333 56.7481 32.2585 49.5367 35.5545 42.4436C39.2037 34.6411 43.5591 26.9569 49.5628 20.6913C48.2678 19.1546 46.3843 17.263 46.2667 15.2533C46.0312 13.0071 48.2678 10.5246 50.622 11.7067C47.9147 8.63304 51.5639 4.02249 55.0953 5.7957C53.4472 3.19506 56.0369 -0.115072 58.7444 0.00307525C60.2747 0.00307525 61.8051 1.3035 62.9822 2.13093C66.0428 4.14064 69.1035 6.26869 72.2817 8.2784C101.593 3.66785 124.547 37.1238 121.958 63.9593Z" fill="white"/>
<path d="M120.9 69.8722C119.134 76.6106 115.25 82.7581 108.893 86.1864C100.182 90.6788 89.8235 89.0237 81.1125 85.5955C73.932 90.6788 73.932 90.6788 73.932 90.6788C72.2839 91.7427 70.165 89.9695 71.1068 88.1961C69.1057 88.5508 68.5169 86.6594 69.1057 85.1225C67.4576 86.4229 66.045 84.0585 66.9867 82.64C67.5752 81.6942 68.5169 80.6303 69.2233 79.8026C59.0997 74.01 49.918 66.9168 40.6185 59.9419C45.9156 63.252 67.1043 74.1282 72.2839 76.3744C77.6988 78.7387 83.1137 81.1031 88.764 82.4035C93.4727 83.4674 99.4761 84.0585 103.831 81.3395C107.834 78.9752 109.364 74.1282 109.953 69.7541C111.365 60.2965 108.069 49.6568 103.125 41.618C97.9459 33.2245 89.4704 25.6585 79.8176 23.176C76.2862 22.2302 72.7546 22.2302 69.4588 22.8213C82.6427 18.8017 108.069 24.1218 117.016 44.5735C121.253 54.622 122.077 62.6608 120.9 69.8722Z" fill="white"/>
<path d="M210.575 77.9391L185.752 47.7915H176.51L205.382 13.4002H217.441L191.298 44.4319L190.682 38.2432L223.515 77.9391H210.575ZM169.468 77.9391V13.4002H180.031V77.9391H169.468Z" fill="white"/>
<path d="M249.61 79.5304C245.443 79.5304 241.775 78.8526 238.607 77.497C235.438 76.0825 232.768 74.2259 230.596 71.9272C228.425 69.6286 226.782 67.0352 225.667 64.1472C224.552 61.2002 223.995 58.1648 223.995 55.041V53.2728C223.995 50.149 224.552 47.1136 225.667 44.1667C226.841 41.2197 228.513 38.5969 230.684 36.2982C232.914 33.9406 235.614 32.084 238.783 30.7284C241.951 29.3728 245.56 28.695 249.61 28.695C253.659 28.695 257.238 29.3728 260.348 30.7284C263.517 32.084 266.217 33.9406 268.447 36.2982C270.677 38.5969 272.349 41.2197 273.464 44.1667C274.638 47.1136 275.224 50.149 275.224 53.2728V55.041C275.224 58.1648 274.667 61.2002 273.552 64.1472C272.437 67.0352 270.794 69.6286 268.623 71.9272C266.451 74.2259 263.781 76.0825 260.613 77.497C257.444 78.8526 253.776 79.5304 249.61 79.5304ZM249.61 70.5127C252.837 70.5127 255.595 69.8054 257.884 68.3909C260.172 66.9174 261.904 64.9429 263.077 62.4674C264.309 59.992 264.926 57.2218 264.926 54.1569C264.926 51.0331 264.309 48.2335 263.077 45.758C261.845 43.2826 260.084 41.3376 257.796 39.923C255.507 38.4495 252.778 37.7128 249.61 37.7128C246.441 37.7128 243.712 38.4495 241.423 39.923C239.135 41.3376 237.374 43.2826 236.142 45.758C234.91 48.2335 234.293 51.0331 234.293 54.1569C234.293 57.2218 234.88 59.992 236.054 62.4674C237.286 64.9429 239.047 66.9174 241.335 68.3909C243.624 69.8054 246.382 70.5127 249.61 70.5127Z" fill="white"/>
<path d="M287.524 77.9391V30.2864H297.823V77.9391H287.524ZM280.571 38.2432V30.2864H297.823V38.2432H280.571ZM290.869 23.6557C288.757 23.6557 287.172 23.0958 286.116 21.9759C285.118 20.856 284.62 19.412 284.62 17.6438C284.62 15.9346 285.118 14.52 286.116 13.4002C287.172 12.2214 288.757 11.632 290.869 11.632C293.041 11.632 294.625 12.2214 295.623 13.4002C296.679 14.52 297.207 15.9346 297.207 17.6438C297.207 19.412 296.679 20.856 295.623 21.9759C294.625 23.0958 293.041 23.6557 290.869 23.6557Z" fill="white"/>
<path d="M313.701 77.9391V30.2864H324V77.9391H313.701ZM306.747 38.2432V30.2864H324V38.2432H306.747ZM317.046 23.6557C314.934 23.6557 313.349 23.0958 312.293 21.9759C311.295 20.856 310.796 19.412 310.796 17.6438C310.796 15.9346 311.295 14.52 312.293 13.4002C313.349 12.2214 314.934 11.632 317.046 11.632C319.217 11.632 320.802 12.2214 321.799 13.4002C322.856 14.52 323.384 15.9346 323.384 17.6438C323.384 19.412 322.856 20.856 321.799 21.9759C320.802 23.0958 319.217 23.6557 317.046 23.6557Z" fill="white"/>
</g>
<defs>
<clipPath id="clip0_2567_158">
<rect width="324" height="91" fill="white"/>
</clipPath>
</defs>
</svg>
