<svg width="385" height="34" viewBox="0 0 385 34" fill="none" xmlns="http://www.w3.org/2000/svg">
<g clip-path="url(#clip0_2567_161)">
<path fill-rule="evenodd" clip-rule="evenodd" d="M11.7993 5.3045C8.72339 8.22234 4.80951 11.9874 3.10309 13.6717L0 16.7344L8.71618 25.1784C13.5097 29.823 17.8894 33.6305 18.4489 33.6393C19.0075 33.6488 25.1977 28.3063 32.2051 21.7667L44.9464 9.87734L52.2595 16.4915L45.1841 23.7788L37.9222 17.327L35.481 19.7159C34.138 21.0292 33.0399 22.325 33.0399 22.5942C33.0399 22.8635 35.7444 25.5399 39.0507 28.5419L45.0616 34L63.773 16.8946L55.4306 8.99643C50.842 4.65186 46.4591 0.80482 45.6907 0.447041C44.5502 -0.0841403 41.9465 2.00035 31.5231 11.7877L18.753 23.7788L11.0501 16.8281L18.6057 9.92197L25.0232 15.6501L27.4308 13.5415C28.7546 12.3818 29.8383 11.0736 29.8383 10.6353C29.8383 9.63882 19.2837 0 18.1927 0C17.7525 0 14.8751 2.38666 11.7993 5.3045Z" fill="white"/>
<path fill-rule="evenodd" clip-rule="evenodd" d="M89.9554 6.13482L102.345 6.29116C117.222 6.47895 116.87 6.35264 116.87 11.4988C116.87 16.205 117.03 16.1454 104.211 16.1983L93.7143 16.2421L94.118 10.2605L92.4173 9.58225C91.4824 9.20953 90.546 8.81632 90.3362 8.7086C90.1265 8.60088 89.9554 13.2494 89.9554 19.0385V29.5638L91.3519 29.5567C93.9545 29.5428 94.1327 29.153 93.9408 23.892L93.764 19.0485L104.037 19.0981C116.86 19.1596 116.501 18.9913 116.87 25.1112L117.124 29.3255H118.647C120.17 29.3255 120.171 29.3236 120.319 26.2055C120.521 21.9359 119.617 19.5299 117.45 18.57L115.747 17.815L117.451 17.3636C120.498 16.5562 121.716 12.462 120.258 7.92789C119.026 4.0982 115.79 3.35848 100.239 3.35324L89.9554 3.34942V6.13482ZM131.861 3.86895C129.187 4.48332 127.249 6.30641 126.566 8.8492C126.261 9.98881 126.012 13.4534 126.014 16.5486C126.02 28.8212 127.436 29.775 145.226 29.4871C156.604 29.3031 157.797 28.9761 159.731 25.5125C160.674 23.8233 160.795 22.791 160.795 16.4566C160.795 10.1223 160.674 9.0899 159.731 7.40074C157.763 3.8761 156.691 3.60061 144.546 3.49623C138.681 3.44618 132.973 3.61395 131.861 3.86895ZM167.144 3.55056C167.144 3.66161 173.562 9.57081 181.405 16.6825L195.667 29.6129L200.407 29.3255V3.58774L197.124 3.29032L196.852 26.1598L184.182 14.7546C171.654 3.47716 171.487 3.34942 169.328 3.34942C168.127 3.34942 167.144 3.43998 167.144 3.55056ZM204.839 4.14873C204.979 4.6263 207.425 10.5403 210.276 17.2907L215.459 29.5638H217.441C219.856 29.5638 219.507 30.152 224.792 17.1716C226.98 11.7976 228.844 7.31161 228.935 7.20199C229.282 6.7816 229.769 7.83304 234.133 18.4165L238.63 29.3255H243.035L253.934 3.58774L252.62 3.43093C251.897 3.34418 251.025 3.55866 250.682 3.90755C250.339 4.25597 248.042 9.31344 245.578 15.1459C243.113 20.9788 240.967 25.7508 240.808 25.7508C240.649 25.7508 238.71 21.3001 236.5 15.8608C231.155 2.71027 231.532 3.34942 229.119 3.34942H227.134L222.443 14.5501C219.863 20.7105 217.62 25.748 217.459 25.7441C217.297 25.7408 215.085 20.7539 212.543 14.6626L207.921 3.58774L206.253 3.43379C204.847 3.30367 204.625 3.41568 204.839 4.14873ZM257.664 3.66495C257.315 3.79745 257.029 4.42374 257.029 5.05717V6.20918H284.276L283.828 3.34942L271.064 3.38708C264.042 3.40757 258.013 3.53293 257.664 3.66495ZM295.116 15.8327C290.786 22.6961 287.171 28.5934 287.08 28.9375C286.968 29.3655 287.483 29.5638 288.71 29.5638C290.38 29.5638 290.622 29.3641 292.176 26.7026L293.846 23.8415L316.141 24.0826L317.873 26.8232C319.455 29.3269 319.759 29.5638 321.38 29.5638C322.86 29.5638 323.099 29.4251 322.818 28.7297C322.632 28.2707 319.009 22.3773 314.765 15.633L307.049 3.3704L302.987 3.35371L295.116 15.8327ZM320.732 4.18352C320.915 4.64203 324.311 10.5479 328.276 17.3069L335.487 29.5962L339.55 29.3255L347.027 16.6949C351.139 9.74812 354.51 3.89039 354.517 3.6783C354.525 3.46572 353.694 3.35848 352.672 3.43998L350.812 3.58774L344.653 14.0735C341.265 19.8407 338.257 24.9482 337.968 25.4238C337.528 26.1469 336.336 24.4072 330.702 14.8189L323.962 3.34942H322.18C320.694 3.34942 320.453 3.48812 320.732 4.18352ZM357.832 6.20679L384.824 6.20918L384.373 3.32273L357.726 3.4071L357.832 6.20679ZM80.3068 29.5638H83.8615V5.82692L80.3068 3.85798V29.5638ZM154.779 6.87121C156.732 7.45317 157.137 9.09991 157.137 16.4566C157.137 23.8333 156.733 25.4596 154.756 26.0487C154.177 26.2212 148.801 26.3618 142.811 26.3609L131.919 26.359L130.742 25.075C129.623 23.8543 129.565 23.4349 129.565 16.5362C129.565 8.88781 129.919 7.53801 132.128 6.77064C133.294 6.36551 153.381 6.45464 154.779 6.87121ZM309.573 13.5592C311.955 17.3393 313.905 20.5032 313.905 20.5894C313.905 20.6757 309.906 20.7462 305.018 20.7462C300.13 20.7462 296.131 20.6671 296.131 20.5699C296.131 20.4016 302.584 9.9912 304.072 7.75821C304.466 7.16815 304.89 6.6858 305.014 6.6858C305.139 6.6858 307.191 9.77862 309.573 13.5592ZM257.036 18.193C257.03 27.7998 257.121 29.0186 257.869 29.2878C258.331 29.4542 264.616 29.5714 271.834 29.5476L284.959 29.5047V26.7041H261.21L261.051 17.1716H283.943V14.7884H261.091V12.4177C261.091 10.2233 260.969 9.98738 259.441 9.2529C258.533 8.81632 257.623 8.22101 257.417 7.92979C257.212 7.63905 257.041 12.2571 257.036 18.193ZM166.753 18.9589L166.89 29.3255H169.937L170.214 11.2886L168.838 9.9402C168.081 9.19905 167.272 8.5923 167.039 8.5923C166.807 8.5923 166.678 13.2575 166.753 18.9589ZM358.085 18.324C358.085 23.6765 357.952 28.3823 357.789 28.7812C357.528 29.4184 359.155 29.5114 371.246 29.5486L385 29.5905V26.7041H361.721V17.1716H384.492V14.7884H361.564L361.706 12.6217C361.833 10.6804 361.691 10.3582 360.347 9.52649C359.522 9.01602 358.676 8.59707 358.466 8.59564C358.257 8.59373 358.085 12.9715 358.085 18.324Z" fill="white"/>
</g>
<defs>
<clipPath id="clip0_2567_161">
<rect width="385" height="34" fill="white"/>
</clipPath>
</defs>
</svg>
