<svg width="332" height="78" viewBox="0 0 332 78" fill="none" xmlns="http://www.w3.org/2000/svg">
<g clip-path="url(#clip0_2567_131)">
<path d="M144.37 1.12952e-06H107.147C100.397 1.12952e-06 94.7602 2.26276 90.2376 6.78826C85.715 11.3138 83.4528 16.9508 83.451 23.6994V54.3006C83.451 61.051 85.7132 66.689 90.2376 71.2145C94.7639 75.7382 100.4 78 107.147 78H144.37C144.647 78 144.912 77.8901 145.108 77.6944C145.303 77.4988 145.413 77.2334 145.413 76.9567V63.466C145.413 63.1893 145.303 62.9239 145.108 62.7283C144.912 62.5326 144.647 62.4227 144.37 62.4227H107.147C104.182 62.4227 102.068 61.8296 100.806 60.6433C99.6203 59.3814 99.0273 57.2671 99.0273 54.3006V47.0834H131.798C132.13 47.0834 132.402 46.8122 132.402 46.4773V32.0789C132.4 31.9194 132.336 31.7667 132.223 31.6539C132.111 31.5411 131.958 31.4771 131.798 31.4756H99.0273V23.6994C99.0273 20.7328 99.6203 18.6195 100.806 17.3595C102.068 16.1714 104.182 15.5773 107.147 15.5773H144.37C144.647 15.5773 144.912 15.4674 145.108 15.2717C145.303 15.0761 145.413 14.8107 145.413 14.534V1.04328C145.413 0.766589 145.303 0.501226 145.108 0.305572C144.912 0.109918 144.647 1.12952e-06 144.37 1.12952e-06ZM40.7641 1.12952e-06H23.6605C16.9209 1.12952e-06 11.2926 2.25907 6.77557 6.77719C2.25668 11.2972 -0.00184077 16.9259 3.67941e-06 23.6634V47.8776C3.67941e-06 48.4532 0.46757 48.9181 1.04027 48.9181H14.5084C14.6452 48.9185 14.7808 48.8918 14.9073 48.8397C15.0339 48.7876 15.1489 48.711 15.2458 48.6143C15.3427 48.5177 15.4195 48.4028 15.472 48.2764C15.5244 48.15 15.5514 48.0145 15.5514 47.8776V23.6607C15.5514 20.6978 16.1435 18.6241 17.3276 17.4397C18.5855 16.1815 20.6965 15.5524 23.6605 15.5524H40.7641C43.7262 15.5524 45.8003 16.1815 46.9863 17.4397C48.2442 18.6241 48.8732 20.6978 48.8732 23.6607V76.727C48.8732 77.2999 49.3407 77.7675 49.9162 77.7675H63.3843C63.6602 77.7675 63.9248 77.6579 64.1199 77.4628C64.315 77.2676 64.4246 77.003 64.4246 76.727V23.6607C64.4246 16.9213 62.1652 11.2926 57.6463 6.77443C53.1329 2.2563 47.5037 -0.00184376 40.7641 1.12952e-06ZM14.5112 53.9298H1.04027C0.903427 53.9298 0.767929 53.9568 0.641537 54.0092C0.515146 54.0617 0.400345 54.1386 0.303711 54.2355C0.207077 54.3324 0.130509 54.4474 0.0783938 54.574C0.0262784 54.7006 -0.000360264 54.8362 3.67941e-06 54.973V76.7298C3.67941e-06 77.3026 0.46757 77.7703 1.04027 77.7703H14.5084C14.6452 77.7707 14.7808 77.744 14.9073 77.6919C15.0339 77.6398 15.1489 77.5632 15.2458 77.4665C15.3427 77.3699 15.4195 77.255 15.472 77.1286C15.5244 77.0022 15.5514 76.8667 15.5514 76.7298V54.9703C15.5514 54.8334 15.5244 54.6979 15.472 54.5714C15.4195 54.445 15.3427 54.3302 15.2458 54.2335C15.1489 54.1369 15.0339 54.0603 14.9073 54.0082C14.7808 53.956 14.648 53.9294 14.5112 53.9298ZM220.929 37.7215C216.403 33.3436 210.802 31.1546 204.127 31.1546H186.996C184.029 31.1546 181.915 30.5984 180.655 29.4859C179.465 28.3734 178.871 26.4455 178.873 23.7022C178.873 20.7338 179.467 18.6564 180.655 17.4702C181.917 16.2083 184.03 15.5773 186.996 15.5773H222.982C223.258 15.5766 223.523 15.4663 223.718 15.2708C223.913 15.0752 224.023 14.8102 224.023 14.534V1.04328C224.023 0.767068 223.913 0.502123 223.718 0.306549C223.523 0.110974 223.258 0.000733801 222.982 1.12952e-06H186.996C180.246 1.12952e-06 174.609 2.26276 170.086 6.78826C165.564 11.3138 163.302 16.9508 163.3 23.6994C163.3 30.3041 165.562 35.7936 170.086 40.1678C174.685 44.5457 180.321 46.7347 186.996 46.7347H204.127C207.093 46.7347 209.17 47.2909 210.358 48.4034C211.62 49.5159 212.249 51.4438 212.248 54.1871C212.248 57.1574 211.618 59.2725 210.358 60.5326C209.17 61.7189 207.093 62.312 204.127 62.312H168.41C168.133 62.312 167.868 62.4219 167.672 62.6176C167.477 62.8132 167.367 63.0786 167.367 63.3553V76.846C167.367 77.4216 167.834 77.8893 168.41 77.8893H204.127C210.878 77.8893 216.515 75.6265 221.037 71.101C225.56 66.5755 227.822 60.9385 227.824 54.1899C227.824 47.5852 225.528 42.0957 220.929 37.7215ZM330.722 1.12952e-06L327.72 7.33343H327.618L324.619 1.12952e-06H323.343V8.83055H324.342V2.12254H324.43L327.189 8.83055H328.154L330.913 2.12254H330.998V8.82779H332V1.12952e-06H330.722ZM314.946 0.949196H317.721V8.82779H318.792V0.949196H321.57V1.12952e-06H314.946V0.949196ZM288.682 1.12952e-06H271.551C264.8 1.12952e-06 259.165 2.26276 254.644 6.78826C250.118 11.3119 247.855 16.949 247.855 23.6994V76.8488C247.855 77.4244 248.325 77.8921 248.9 77.8921H262.388C262.665 77.8921 262.93 77.7822 263.125 77.5865C263.321 77.3908 263.431 77.1255 263.431 76.8488V23.6994C263.431 20.7328 264.025 18.6564 265.213 17.4702C266.472 16.2083 268.585 15.5773 271.551 15.5773H288.682C291.65 15.5773 293.728 16.2083 294.916 17.4702C296.175 18.6583 296.805 20.7347 296.805 23.6994V35.2918H270.038C269.761 35.2918 269.496 35.4017 269.3 35.5973C269.105 35.793 268.995 36.0584 268.995 36.3351V49.8258C268.995 50.4042 269.462 50.8691 270.038 50.8691H296.805V76.846C296.805 77.4216 297.273 77.8893 297.848 77.8893H311.339C311.615 77.8893 311.88 77.7794 312.076 77.5837C312.272 77.3881 312.382 77.1227 312.382 76.846V23.6994C312.382 16.9508 310.119 11.3138 305.595 6.78826C301.069 2.26276 295.431 1.12952e-06 288.682 1.12952e-06Z" fill="white"/>
</g>
<defs>
<clipPath id="clip0_2567_131">
<rect width="332" height="78" fill="white"/>
</clipPath>
</defs>
</svg>
