<svg width="355" height="96" viewBox="0 0 355 96" fill="none" xmlns="http://www.w3.org/2000/svg">
<g clip-path="url(#clip0_2567_128)">
<path fill-rule="evenodd" clip-rule="evenodd" d="M112.083 8.43032V16.8606H121.791H131.5V8.43032V0H121.791H112.083V8.43032ZM260.415 43.5832V83.9851H270.123H279.831V43.5832V3.18125H270.123H260.415V43.5832ZM11.1296 10.1921C11.0647 12.0862 10.875 13.4774 10.6636 13.6119C10.4672 13.7363 10.2015 15.1269 10.0722 16.7016C9.94331 18.2763 9.71763 19.6398 9.57089 19.732C9.42415 19.824 9.20356 21.6134 9.0807 23.7086C8.95592 25.8388 8.70573 27.6161 8.51347 27.7405C8.32408 27.863 8.11463 29.0439 8.04811 30.3651C7.95802 32.1459 7.81224 32.7669 7.48406 32.7669C7.13392 32.7669 7.0413 33.4668 7.0413 36.1072C7.0413 38.8644 6.9579 39.4475 6.56383 39.4475C6.16818 39.4475 6.08637 40.0494 6.08637 42.9568C6.08637 45.783 5.99343 46.502 5.60891 46.6493C5.23681 46.7921 5.13145 47.4239 5.13145 49.5124C5.13145 51.6012 5.02609 52.233 4.65398 52.3755C4.27202 52.5222 4.17652 53.2179 4.17652 55.8491C4.17652 58.3381 4.06798 59.2015 3.73025 59.394C3.40876 59.5776 3.25343 60.5163 3.17322 62.762C3.10796 64.5963 2.9157 65.969 2.70562 66.1023C2.50604 66.2292 2.28514 67.5679 2.20429 69.1391C2.12471 70.6846 1.9108 72.0446 1.72873 72.1613C1.54698 72.2781 1.29297 73.8766 1.16469 75.7138C1.03641 77.551 0.822509 79.1257 0.689138 79.2132C0.555766 79.3007 0.346002 80.4103 0.223453 81.6787L0 83.9851H10.3272H20.6544L20.8463 83.2693C20.9517 82.8758 21.0402 82.2313 21.0424 81.8377C21.0449 81.4442 21.1678 81.122 21.3158 81.122C21.4638 81.122 21.6787 79.162 21.7939 76.7662C21.9088 74.3704 22.1428 72.3239 22.3137 72.2183C22.4847 72.1127 22.7212 70.7444 22.8389 69.1776C22.9567 67.6108 23.2104 66.2273 23.4027 66.1026C23.6124 65.9668 23.7951 64.4077 23.8594 62.2056C23.9441 59.3046 24.0609 58.5351 24.4165 58.5351C24.7812 58.5351 24.8666 57.7515 24.8666 54.3994C24.8666 50.9354 24.9442 50.2638 25.344 50.2638C25.733 50.2638 25.8215 49.7335 25.8215 47.4007C25.8215 45.0679 25.91 44.5375 26.2989 44.5375C26.6742 44.5375 26.7764 44.0957 26.7764 42.4697C26.7764 41.0035 26.8948 40.4019 27.1832 40.4019C27.9026 40.4019 28.6964 41.6607 28.8967 43.1187C29.0189 44.0101 29.2525 44.5375 29.5253 44.5375C29.764 44.5375 29.9595 44.7523 29.9595 45.0147C29.9595 45.2772 30.0913 45.4919 30.2527 45.4919C30.4137 45.4919 30.6461 45.9491 30.7686 46.5077C30.8915 47.0666 31.1894 47.721 31.4307 47.9622C31.672 48.2033 31.8693 48.8914 31.8693 49.4911C31.8693 50.2485 32.0151 50.5819 32.3468 50.5819C32.6651 50.5819 32.8243 50.9 32.8243 51.5363C32.8243 52.1726 32.9834 52.4907 33.3017 52.4907C33.62 52.4907 33.7792 52.8088 33.7792 53.4451C33.7792 54.0813 33.9383 54.3994 34.2566 54.3994C34.6103 54.3994 34.7341 54.7707 34.7341 55.831C34.7341 56.8913 34.8579 57.2626 35.2116 57.2626C35.4742 57.2626 35.689 57.4817 35.689 57.7496C35.689 58.0178 35.887 58.3127 36.1289 58.4056C36.3709 58.4985 36.6592 59.1382 36.7694 59.8273C36.8795 60.5163 37.1049 61.0801 37.2701 61.0801C37.435 61.0801 37.6641 61.5811 37.779 62.1935C37.8987 62.8313 38.1769 63.3069 38.43 63.3069C38.7053 63.3069 38.8721 63.654 38.8721 64.2273C38.8721 64.7519 39.0774 65.2265 39.3496 65.3308C39.6122 65.4314 39.827 65.8863 39.827 66.3418C39.827 66.7974 40.0419 67.3847 40.3045 67.6471C40.5671 67.9096 40.782 68.4004 40.782 68.7376C40.782 69.0752 40.9968 69.3513 41.2594 69.3513C41.5777 69.3513 41.7369 69.6694 41.7369 70.3057C41.7369 70.9419 41.896 71.2601 42.2144 71.2601C42.568 71.2601 42.6918 71.6313 42.6918 72.6916C42.6918 73.7519 42.8156 74.1232 43.1693 74.1232C43.4876 74.1232 43.6467 74.4413 43.6467 75.0776C43.6467 75.7138 43.8059 76.0319 44.1242 76.0319C44.4406 76.0319 44.6017 76.3482 44.6017 76.9704C44.6017 77.4931 44.8235 78.0333 45.102 78.1892C45.3774 78.3431 45.6826 79.0659 45.7807 79.7954C45.8787 80.5252 46.0831 81.122 46.2352 81.122C46.3871 81.122 46.5115 81.3367 46.5115 81.5991C46.5115 81.8616 46.7149 82.0763 46.9638 82.0763C47.2124 82.0763 47.5104 82.5058 47.6256 83.0307L47.8354 83.9851H51.1521H54.4692V83.0307C54.4692 82.3945 54.6284 82.0763 54.9467 82.0763C55.265 82.0763 55.4241 81.7582 55.4241 81.122C55.4241 80.4857 55.5833 80.1676 55.9016 80.1676C56.2209 80.1676 56.3791 79.8485 56.3791 79.2033C56.3791 78.6396 56.5774 78.1628 56.8565 78.0559C57.1249 77.9528 57.334 77.4794 57.334 76.9749C57.334 76.4815 57.5313 75.8802 57.7726 75.6391C58.0139 75.3979 58.3118 74.7435 58.4347 74.1846C58.5572 73.626 58.7782 73.1688 58.9255 73.1688C59.0729 73.1688 59.2878 72.7394 59.403 72.2144C59.5182 71.6895 59.8162 71.2601 60.0648 71.2601C60.3576 71.2601 60.5171 70.9152 60.5171 70.2831C60.5171 69.7455 60.7319 69.0911 60.9945 68.8286C61.2571 68.5662 61.472 68.0753 61.472 67.7381C61.472 67.4006 61.6869 67.1244 61.9495 67.1244C62.2678 67.1244 62.4269 66.8063 62.4269 66.1701C62.4269 65.5338 62.5861 65.2157 62.9044 65.2157C63.258 65.2157 63.3818 64.8444 63.3818 63.7841C63.3818 62.7238 63.5057 62.3526 63.8593 62.3526C64.1776 62.3526 64.3368 62.0344 64.3368 61.3982C64.3368 60.7619 64.4959 60.4438 64.8142 60.4438C65.1335 60.4438 65.2917 60.1247 65.2917 59.4796C65.2917 58.9159 65.49 58.439 65.7692 58.3321C66.0318 58.2312 66.2466 57.8018 66.2466 57.3777C66.2466 56.9533 66.4529 56.5274 66.7047 56.4307C66.9564 56.334 67.2544 55.8377 67.3664 55.3271C67.4788 54.8168 67.6835 54.3994 67.8216 54.3994C67.9598 54.3994 68.1526 53.8026 68.2507 53.0729C68.3487 52.3434 68.654 51.6206 68.9293 51.4666C69.2043 51.3127 69.4297 50.8511 69.4297 50.441C69.4297 50.0309 69.6446 49.6132 69.9072 49.5124C70.1863 49.4055 70.3846 48.9286 70.3846 48.3649C70.3846 47.7198 70.5428 47.4007 70.8621 47.4007C71.1804 47.4007 71.3396 47.0825 71.3396 46.4463C71.3396 45.81 71.4987 45.4919 71.817 45.4919C72.1353 45.4919 72.2945 45.1738 72.2945 44.5375C72.2945 43.9013 72.4536 43.5832 72.7719 43.5832C73.1055 43.5832 73.2494 43.2472 73.2494 42.4697C73.2494 41.6922 73.3933 41.3563 73.7269 41.3563C73.9895 41.3563 74.2043 41.1416 74.2043 40.8791C74.2043 40.1302 75.0634 40.3214 75.277 41.1177C75.3824 41.5112 75.4709 42.6447 75.4731 43.6363C75.4756 44.6829 75.6275 45.4887 75.835 45.5581C76.0601 45.6329 76.2533 47.0867 76.3564 49.4815C76.4535 51.7269 76.6645 53.3782 76.8714 53.5112C77.0643 53.635 77.275 54.9234 77.3393 56.3744C77.4202 58.1947 77.5937 59.0911 77.8992 59.2667C78.2433 59.464 78.3423 60.4785 78.3423 63.8C78.3423 67.3913 78.419 68.0788 78.8198 68.0788C79.2123 68.0788 79.2973 68.6444 79.2973 71.2601C79.2973 73.8757 79.3822 74.4413 79.7747 74.4413C80.1688 74.4413 80.2522 75.0244 80.2522 77.7816C80.2522 80.5388 80.3356 81.122 80.7296 81.122C81.0833 81.122 81.2071 81.4932 81.2071 82.5535V83.9851H91.5521H101.897V81.5991C101.897 79.6904 101.802 79.2132 101.42 79.2132C101.038 79.2132 100.942 78.7398 100.942 76.8613C100.942 75.0642 100.83 74.4661 100.465 74.3262C100.082 74.1795 99.9873 73.4774 99.9873 70.7927C99.9873 68.027 99.9039 67.4426 99.5098 67.4426C99.1132 67.4426 99.0324 66.8241 99.0324 63.7841C99.0324 60.8637 98.9426 60.1257 98.5877 60.1257C98.2503 60.1257 98.1156 59.4697 98.0307 57.4099C97.9673 55.8838 97.763 54.5948 97.5634 54.4672C97.3667 54.3415 97.1047 52.7522 96.9755 50.9C96.8472 49.0629 96.6218 47.4853 96.4744 47.394C96.3274 47.3027 96.1055 45.728 95.9814 43.8946C95.8576 42.0613 95.6411 40.4856 95.5007 40.393C95.36 40.3007 95.1446 39.2271 95.0223 38.0071C94.8998 36.7874 94.6741 35.707 94.521 35.6065C94.3676 35.506 94.1524 33.5018 94.0429 31.1527C93.9254 28.6396 93.7004 26.789 93.4964 26.6564C93.3057 26.5326 93.0969 25.2442 93.0326 23.7932C92.9517 21.9729 92.7782 21.0764 92.4727 20.9008C92.1461 20.7135 92.0296 19.8978 92.0296 17.7991C92.0296 15.4803 91.9411 14.9519 91.5521 14.9519C91.1568 14.9519 91.0747 14.351 91.0747 11.4525C91.0747 8.55407 90.9925 7.95313 90.5972 7.95313C90.3346 7.95313 90.1197 7.7384 90.1197 7.47594C90.1197 7.06143 88.758 6.99876 79.7747 6.99876H69.4297V7.95313C69.4297 8.58938 69.2706 8.90751 68.9522 8.90751C68.6339 8.90751 68.4748 9.22563 68.4748 9.86188C68.4748 10.4981 68.3156 10.8163 67.9973 10.8163C67.6656 10.8163 67.5199 11.1497 67.5199 11.9071C67.5199 12.5068 67.3225 13.1949 67.0812 13.436C66.84 13.6772 66.542 14.3315 66.4191 14.8905C66.2966 15.4491 66.0757 15.9063 65.9283 15.9063C65.7809 15.9063 65.5661 16.3357 65.4509 16.8606C65.3356 17.3855 65.1208 17.815 64.9734 17.815C64.826 17.815 64.6051 18.2722 64.4826 18.8308C64.3597 19.3897 64.0618 20.0441 63.8205 20.2853C63.5792 20.5264 63.3818 21.1429 63.3818 21.6551C63.3818 22.2713 63.2201 22.5869 62.9044 22.5869C62.5708 22.5869 62.4269 22.9228 62.4269 23.7003C62.4269 24.4778 62.283 24.8138 61.9495 24.8138C61.6312 24.8138 61.472 25.1319 61.472 25.7681C61.472 26.4044 61.3128 26.7225 60.9945 26.7225C60.661 26.7225 60.5171 27.0585 60.5171 27.836C60.5171 28.6135 60.3732 28.9494 60.0396 28.9494C59.6942 28.9494 59.5622 29.3041 59.5622 30.2318C59.5622 31.0783 59.3998 31.5765 59.0847 31.6974C58.8125 31.8017 58.6072 32.2764 58.6072 32.8009C58.6072 33.407 58.4443 33.7213 58.1298 33.7213C57.8115 33.7213 57.6523 34.0394 57.6523 34.6757C57.6523 35.2712 57.4884 35.63 57.2169 35.63C56.9453 35.63 56.7133 36.1371 56.6006 36.9751C56.5013 37.715 56.2721 38.3697 56.0913 38.4299C55.9105 38.4903 55.6705 39.0302 55.5578 39.6298C55.4416 40.2498 55.1625 40.72 54.9114 40.72C54.6322 40.72 54.4692 41.0722 54.4692 41.6744C54.4692 42.3107 54.3101 42.6288 53.9918 42.6288C53.6381 42.6288 53.5143 43 53.5143 44.0604C53.5143 45.1207 53.3905 45.4919 53.0368 45.4919C52.7185 45.4919 52.5594 45.81 52.5594 46.4463C52.5594 47.0441 52.3958 47.4007 52.1217 47.4007C51.8811 47.4007 51.5981 47.8301 51.493 48.355C51.2979 49.3295 50.6495 49.6963 50.6495 48.8322C50.6495 48.5698 50.4512 48.355 50.2093 48.355C49.7481 48.355 49.3881 47.4223 49.3807 46.2077C49.3782 45.8142 49.2445 45.4919 49.0831 45.4919C48.9221 45.4919 48.6986 45.0745 48.5862 44.5643C48.4742 44.0537 48.1763 43.5574 47.9245 43.4607C47.6727 43.364 47.4664 42.9126 47.4664 42.457C47.4664 42.0015 47.2516 41.4142 46.989 41.1517C46.7264 40.8893 46.5115 40.2705 46.5115 39.7771C46.5115 39.2726 46.3024 38.7992 46.0341 38.6961C45.7549 38.5892 45.5566 38.1124 45.5566 37.5487C45.5566 36.9035 45.3984 36.5844 45.0791 36.5844C44.7608 36.5844 44.6017 36.2663 44.6017 35.63C44.6017 34.9938 44.4425 34.6757 44.1242 34.6757C43.7706 34.6757 43.6467 34.3044 43.6467 33.2441C43.6467 32.1838 43.5229 31.8125 43.1693 31.8125C42.9067 31.8125 42.6918 31.5364 42.6918 31.1989C42.6918 30.8616 42.5012 30.395 42.2681 30.1621C42.0348 29.9289 41.7372 29.3117 41.6061 28.7903C41.4752 28.2689 41.2254 27.7542 41.0509 27.6464C40.8765 27.5385 40.654 26.8571 40.5569 26.1321C40.4471 25.3148 40.2144 24.8138 39.9442 24.8138C39.6762 24.8138 39.5087 24.46 39.5087 23.8934C39.5087 23.3688 39.3034 22.8942 39.0313 22.7899C38.7687 22.6893 38.5538 22.2344 38.5538 21.7789C38.5538 21.3233 38.339 20.736 38.0763 20.4736C37.8137 20.2111 37.5989 19.5055 37.5989 18.9059C37.5989 18.1484 37.4531 17.815 37.1214 17.815C36.8031 17.815 36.644 17.4969 36.644 16.8606C36.644 16.2244 36.4848 15.9063 36.1665 15.9063C35.8329 15.9063 35.689 15.5703 35.689 14.7928C35.689 14.0153 35.5452 13.6794 35.2116 13.6794C34.8933 13.6794 34.7341 13.3613 34.7341 12.725C34.7341 12.1295 34.5702 11.7706 34.2987 11.7706C34.0284 11.7706 33.7957 11.2696 33.6859 10.4523C33.5888 9.72731 33.3663 9.0459 33.1919 8.93805C33.0175 8.83021 32.7762 8.34983 32.6559 7.87042L32.4369 6.99876H21.8379H11.2388L11.1296 10.1921ZM317.635 23.289C317.557 23.5241 316.621 23.7229 315.221 23.8021C313.546 23.8966 312.935 24.049 312.935 24.3725C312.935 24.69 312.489 24.8138 311.344 24.8138C310.141 24.8138 309.752 24.9305 309.752 25.291C309.752 25.6091 309.434 25.7681 308.797 25.7681C308.161 25.7681 307.843 25.9272 307.843 26.2453C307.843 26.5635 307.524 26.7225 306.888 26.7225C306.251 26.7225 305.933 26.8816 305.933 27.1997C305.933 27.4622 305.656 27.6769 305.319 27.6769C304.981 27.6769 304.49 27.8916 304.228 28.1541C303.965 28.4165 303.525 28.6313 303.25 28.6313C302.975 28.6313 302.75 28.8346 302.75 29.0833C302.75 29.3318 302.32 29.6296 301.795 29.7447C301.065 29.9047 300.84 30.1303 300.84 30.6991C300.84 31.2679 300.614 31.4935 299.885 31.6535C299.36 31.7686 298.93 32.0664 298.93 32.3148C298.93 32.5636 298.715 32.7669 298.452 32.7669C298.19 32.7669 297.975 32.9829 297.975 33.2473C297.975 33.5113 297.689 33.9726 297.338 34.2723C296.988 34.5719 296.702 34.9998 296.702 35.2235C296.702 35.4471 296.559 35.63 296.383 35.63C296.208 35.63 296.065 35.8448 296.065 36.1072C296.065 36.3697 295.862 36.5844 295.613 36.5844C295.364 36.5844 295.069 37.0018 294.957 37.5121C294.845 38.0227 294.547 38.5189 294.295 38.6156C294.043 38.7124 293.837 39.1383 293.837 39.5627C293.837 39.9868 293.622 40.4162 293.36 40.5171C293.08 40.624 292.882 41.1008 292.882 41.6646C292.882 42.3097 292.724 42.6288 292.405 42.6288C292.051 42.6288 291.927 43 291.927 44.0604C291.927 45.1207 291.803 45.4919 291.45 45.4919C291.074 45.4919 290.972 45.9338 290.972 47.5597C290.972 49.1857 290.87 49.6275 290.495 49.6275C290.092 49.6275 290.017 50.3659 290.017 54.3654C290.017 58.2834 290.1 59.135 290.495 59.2865C290.846 59.421 290.972 59.9762 290.972 61.3883C290.972 62.8816 291.078 63.3069 291.45 63.3069C291.81 63.3069 291.927 63.6957 291.927 64.8976C291.927 66.0994 292.044 66.4882 292.405 66.4882C292.72 66.4882 292.882 66.8038 292.882 67.42C292.882 67.9322 293.097 68.5662 293.36 68.8286C293.622 69.0911 293.837 69.5307 293.837 69.8059C293.837 70.0808 294.04 70.3057 294.289 70.3057C294.538 70.3057 294.836 70.7352 294.951 71.2601C295.066 71.785 295.281 72.2144 295.429 72.2144C295.576 72.2144 295.791 72.6439 295.906 73.1688C296.021 73.6937 296.319 74.1232 296.568 74.1232C296.817 74.1232 297.02 74.3379 297.02 74.6004C297.02 74.8628 297.235 75.0776 297.498 75.0776C297.76 75.0776 297.975 75.2923 297.975 75.5548C297.975 75.8172 298.19 76.0319 298.452 76.0319C298.715 76.0319 298.93 76.2467 298.93 76.5091C298.93 76.7716 299.145 76.9863 299.407 76.9863C299.67 76.9863 299.885 77.2011 299.885 77.4635C299.885 77.726 300.1 77.9407 300.362 77.9407C300.627 77.9407 300.84 78.2235 300.84 78.577C300.84 78.9304 301.052 79.2132 301.317 79.2132C301.58 79.2132 301.795 79.4279 301.795 79.6904C301.795 80.0085 302.113 80.1676 302.75 80.1676C303.386 80.1676 303.705 80.3266 303.705 80.6448C303.705 80.9098 303.988 81.122 304.341 81.122C304.695 81.122 304.978 81.3341 304.978 81.5991C304.978 81.9173 305.296 82.0763 305.933 82.0763C306.569 82.0763 306.888 82.2354 306.888 82.5535C306.888 82.8716 307.206 83.0307 307.843 83.0307C308.479 83.0307 308.797 83.1898 308.797 83.5079C308.797 83.826 309.116 83.9851 309.752 83.9851C310.352 83.9851 310.707 84.1483 310.707 84.4241C310.707 84.7346 311.284 84.9048 312.679 85.0056C313.785 85.0855 314.704 85.3117 314.774 85.521C314.94 86.0176 329.38 86.0564 329.546 85.5604C329.607 85.3769 330.512 85.1389 331.557 85.0311C332.602 84.9232 333.648 84.6436 333.882 84.4101C334.116 84.1763 334.799 83.9851 335.399 83.9851C336.157 83.9851 336.49 83.8394 336.49 83.5079C336.49 83.1898 336.809 83.0307 337.445 83.0307C338.082 83.0307 338.4 82.8716 338.4 82.5535C338.4 82.2354 338.718 82.0763 339.355 82.0763C339.992 82.0763 340.31 81.9173 340.31 81.5991C340.31 81.3341 340.593 81.122 340.947 81.122C341.3 81.122 341.583 80.9098 341.583 80.6448C341.583 80.348 341.884 80.1676 342.379 80.1676C342.874 80.1676 343.175 79.9872 343.175 79.6904C343.175 79.4279 343.373 79.2132 343.615 79.2132C343.857 79.2132 344.13 78.9269 344.222 78.577C344.313 78.227 344.617 77.9407 344.896 77.9407C345.175 77.9407 345.403 77.726 345.403 77.4635C345.403 77.2011 345.618 76.9863 345.88 76.9863C346.143 76.9863 346.358 76.7716 346.358 76.5091C346.358 76.2467 346.573 76.0319 346.835 76.0319C347.098 76.0319 347.313 75.8172 347.313 75.5548C347.313 75.2923 347.528 75.0776 347.79 75.0776C348.053 75.0776 348.268 74.8628 348.268 74.6004C348.268 74.3379 348.483 74.1232 348.745 74.1232C349.063 74.1232 349.223 73.8051 349.223 73.1688C349.223 72.5326 349.382 72.2144 349.7 72.2144C349.963 72.2144 350.178 71.9953 350.178 71.7274C350.178 71.4592 350.392 71.1576 350.655 71.0571C350.918 70.9563 351.132 70.5268 351.132 70.1027C351.132 69.6783 351.347 69.2489 351.61 69.1484C351.878 69.0453 352.087 68.5719 352.087 68.0674C352.087 67.5739 352.302 66.9552 352.565 66.6927C352.827 66.4303 353.042 65.8475 353.042 65.3973V64.5794H343.488H333.933L332.561 66.011C331.806 66.7984 331.02 67.4426 330.815 67.4426C330.61 67.4426 330.442 67.6573 330.442 67.9198C330.442 68.1822 330.228 68.3969 329.965 68.3969C329.702 68.3969 329.487 68.5287 329.487 68.6899C329.487 68.8509 329.03 69.0831 328.471 69.2056C327.912 69.3284 327.247 69.637 326.992 69.8912C326.623 70.2602 325.673 70.3324 322.267 70.25C319.637 70.1861 317.917 70.013 317.778 69.798C317.653 69.6061 317.157 69.3529 316.676 69.2352C316.194 69.1175 315.8 68.8805 315.8 68.709C315.8 68.5372 315.581 68.3969 315.313 68.3969C315.045 68.3969 314.743 68.1822 314.642 67.9198C314.541 67.6573 314.259 67.4426 314.015 67.4426C313.772 67.4426 313.572 67.2278 313.572 66.9654C313.572 66.7029 313.357 66.4882 313.095 66.4882C312.829 66.4882 312.617 66.2054 312.617 65.8519C312.617 65.4985 312.405 65.2157 312.14 65.2157C311.821 65.2157 311.662 64.8976 311.662 64.2613C311.662 63.6251 311.503 63.3069 311.185 63.3069C310.831 63.3069 310.707 62.9357 310.707 61.8754C310.707 60.8151 310.583 60.4438 310.23 60.4438C309.481 60.4438 309.672 59.5852 310.469 59.3717C310.862 59.2664 320.889 59.178 332.75 59.1758C351.141 59.1719 354.316 59.1048 354.316 58.7205C354.316 58.4727 354.469 58.2188 354.656 58.1565C355.086 58.0133 355.127 49.9352 354.699 49.6603C354.535 49.5547 354.333 48.6321 354.25 47.61C354.167 46.5879 353.928 45.6456 353.719 45.5164C353.509 45.3873 353.249 44.7205 353.141 44.0346C353.032 43.349 352.818 42.7048 352.664 42.603C352.509 42.5015 352.295 41.8573 352.187 41.1715C352.079 40.4859 351.798 39.8102 351.562 39.6702C351.326 39.5303 351.132 39.2697 351.132 39.0909C351.132 38.9121 350.918 38.5511 350.655 38.2886C350.392 38.0262 350.178 37.5353 350.178 37.1981C350.178 36.8605 349.963 36.5844 349.7 36.5844C349.382 36.5844 349.223 36.2663 349.223 35.63C349.223 34.9938 349.063 34.6757 348.745 34.6757C348.483 34.6757 348.268 34.4609 348.268 34.1985C348.268 33.936 348.053 33.7213 347.79 33.7213C347.528 33.7213 347.313 33.5065 347.313 33.2441C347.313 32.9816 347.098 32.7669 346.835 32.7669C346.573 32.7669 346.358 32.5522 346.358 32.2897C346.358 32.0273 346.139 31.8125 345.871 31.8125C345.602 31.8125 345.3 31.5978 345.2 31.3353C345.099 31.0729 344.817 30.8582 344.573 30.8582C344.329 30.8582 344.13 30.6434 344.13 30.381C344.13 30.1185 343.915 29.9038 343.652 29.9038C343.39 29.9038 343.175 29.7046 343.175 29.4609C343.175 29.2176 342.799 28.9243 342.34 28.8091C341.882 28.694 341.299 28.392 341.045 28.1385C340.791 27.8846 340.306 27.6769 339.969 27.6769C339.631 27.6769 339.355 27.4622 339.355 27.1997C339.355 26.8816 339.037 26.7225 338.4 26.7225C337.764 26.7225 337.445 26.5635 337.445 26.2453C337.445 25.9272 337.127 25.7681 336.49 25.7681C335.854 25.7681 335.535 25.6091 335.535 25.291C335.535 24.9305 335.146 24.8138 333.944 24.8138C332.799 24.8138 332.352 24.69 332.352 24.3725C332.352 24.049 331.741 23.8966 330.066 23.8021C328.667 23.7229 327.731 23.5241 327.653 23.289C327.56 23.0113 326.173 22.905 322.644 22.905C319.115 22.905 317.728 23.0113 317.635 23.289ZM111.965 25.5296C111.714 26.4648 111.714 82.334 111.965 83.2693L112.157 83.9851H121.829H131.5V54.3994V24.8138H121.829H112.157L111.965 25.5296ZM143.596 33.5479V42.2817L144.63 42.4751C145.199 42.5814 149.369 42.6056 153.896 42.5286C158.423 42.4516 162.398 42.4592 162.729 42.5458C163.484 42.743 163.596 44.5375 162.853 44.5375C162.588 44.5375 162.376 44.8204 162.376 45.1738C162.376 45.5272 162.163 45.81 161.898 45.81C161.636 45.81 161.421 46.0136 161.421 46.2627C161.421 46.5118 161.018 47.1201 160.527 47.6148C160.036 48.1094 159.539 48.7648 159.423 49.0708C159.307 49.3769 159.065 49.6275 158.884 49.6275C158.704 49.6275 158.556 49.8423 158.556 50.1047C158.556 50.3672 158.341 50.5819 158.079 50.5819C157.816 50.5819 157.601 50.7967 157.601 51.0591C157.601 51.3216 157.386 51.5363 157.124 51.5363C156.861 51.5363 156.646 51.7523 156.646 52.0167C156.646 52.2807 156.36 52.742 156.01 53.0417C155.659 53.3413 155.373 53.7692 155.373 53.9929C155.373 54.2165 155.158 54.3994 154.895 54.3994C154.633 54.3994 154.418 54.6142 154.418 54.8766C154.418 55.1391 154.203 55.3538 153.941 55.3538C153.675 55.3538 153.463 55.6366 153.463 55.9901C153.463 56.3435 153.251 56.6263 152.986 56.6263C152.723 56.6263 152.508 56.841 152.508 57.1035C152.508 57.3659 152.293 57.5807 152.031 57.5807C151.734 57.5807 151.553 57.881 151.553 58.376C151.553 58.871 151.373 59.1713 151.076 59.1713C150.811 59.1713 150.598 59.4541 150.598 59.8076C150.598 60.4098 150.811 60.4438 154.577 60.4438C158.492 60.4438 158.556 60.4553 158.552 61.1596C158.544 62.3742 158.184 63.3069 157.723 63.3069C157.481 63.3069 157.283 63.5217 157.283 63.7841C157.283 64.0466 157.068 64.2613 156.805 64.2613C156.54 64.2613 156.328 64.5441 156.328 64.8976C156.328 65.251 156.116 65.5338 155.85 65.5338C155.553 65.5338 155.373 65.8341 155.373 66.3291C155.373 66.8241 155.192 67.1244 154.895 67.1244C154.63 67.1244 154.418 67.4073 154.418 67.7607C154.418 68.1141 154.206 68.3969 153.941 68.3969C153.678 68.3969 153.463 68.6117 153.463 68.8741C153.463 69.1366 153.248 69.3513 152.986 69.3513C152.667 69.3513 152.508 69.6694 152.508 70.3057C152.508 70.9419 152.349 71.2601 152.031 71.2601C151.768 71.2601 151.553 71.4748 151.553 71.7373C151.553 71.9997 151.338 72.2144 151.076 72.2144C150.813 72.2144 150.598 72.4336 150.598 72.7015C150.598 72.9697 150.383 73.2713 150.121 73.3718C149.858 73.4726 149.643 73.7558 149.643 74.0014C149.643 74.2466 149.357 74.6926 149.007 74.9923C148.657 75.292 148.37 75.7199 148.37 75.9435C148.37 76.1671 148.23 76.3501 148.058 76.3501C147.886 76.3501 147.658 76.6975 147.552 77.1225C147.445 77.5472 147.156 77.9722 146.909 78.0667C146.662 78.1615 146.46 78.458 146.46 78.7261C146.46 78.994 146.245 79.2132 145.983 79.2132C145.72 79.2132 145.505 79.4279 145.505 79.6904C145.505 79.9528 145.291 80.1676 145.028 80.1676C144.71 80.1676 144.55 80.4857 144.55 81.122C144.55 81.7582 144.391 82.0763 144.073 82.0763C143.81 82.0763 143.596 82.2911 143.596 82.5535C143.596 82.816 143.381 83.0307 143.118 83.0307C142.853 83.0307 142.641 83.3135 142.641 83.667C142.641 84.0204 142.428 84.3032 142.163 84.3032C141.866 84.3032 141.686 84.6035 141.686 85.0985C141.686 85.5935 141.505 85.8938 141.208 85.8938C140.946 85.8938 140.731 86.113 140.731 86.3809C140.731 86.6491 140.516 86.9506 140.253 87.0512C139.991 87.152 139.776 87.4352 139.776 87.6807C139.776 87.926 139.489 88.372 139.139 88.6717C138.789 88.9714 138.503 89.3993 138.503 89.6229C138.503 89.8465 138.288 90.0295 138.025 90.0295C137.763 90.0295 137.548 90.2442 137.548 90.5067C137.548 90.7691 137.333 90.9838 137.07 90.9838C136.752 90.9838 136.593 91.302 136.593 91.9382C136.593 92.5745 136.434 92.8926 136.115 92.8926C135.853 92.8926 135.638 93.1073 135.638 93.3698C135.638 93.6322 135.423 93.847 135.16 93.847C134.895 93.847 134.683 94.1298 134.683 94.4832C134.683 94.8367 134.471 95.1195 134.205 95.1195C133.943 95.1195 133.728 95.3495 133.728 95.6307C133.728 95.9663 133.901 96.0754 134.232 95.9488C134.508 95.8426 134.938 95.7557 135.186 95.7557C135.435 95.7557 135.638 95.541 135.638 95.2785C135.638 95.0161 135.853 94.8013 136.115 94.8013C136.378 94.8013 136.593 94.5866 136.593 94.3242C136.593 94.0617 136.808 93.847 137.07 93.847C137.333 93.847 137.548 93.6322 137.548 93.3698C137.548 93.1073 137.763 92.8926 138.025 92.8926C138.288 92.8926 138.503 92.6779 138.503 92.4154C138.503 92.1504 138.786 91.9382 139.139 91.9382C139.493 91.9382 139.776 91.726 139.776 91.461C139.776 91.1642 140.076 90.9838 140.572 90.9838C141.067 90.9838 141.367 90.8035 141.367 90.5067C141.367 90.2442 141.582 90.0295 141.845 90.0295C142.107 90.0295 142.322 89.8147 142.322 89.5523C142.322 89.2898 142.542 89.0751 142.81 89.0751C143.078 89.0751 143.38 88.8604 143.48 88.5979C143.581 88.3354 143.863 88.1207 144.107 88.1207C144.351 88.1207 144.55 87.906 144.55 87.6435C144.55 87.3811 144.765 87.1663 145.028 87.1663C145.291 87.1663 145.505 86.963 145.505 86.7143C145.505 86.4658 145.935 86.1681 146.46 86.0529C146.985 85.9377 147.415 85.64 147.415 85.3915C147.415 85.1427 147.63 84.9395 147.893 84.9395C148.155 84.9395 148.37 84.7247 148.37 84.4623C148.37 84.1998 148.57 83.9851 148.814 83.9851C149.057 83.9851 149.339 83.7703 149.44 83.5079C149.541 83.2454 149.843 83.0307 150.111 83.0307C150.379 83.0307 150.598 82.816 150.598 82.5535C150.598 82.2567 150.899 82.0763 151.394 82.0763C151.889 82.0763 152.19 81.896 152.19 81.5991C152.19 81.3367 152.405 81.122 152.667 81.122C152.93 81.122 153.145 80.9072 153.145 80.6448C153.145 80.3798 153.428 80.1676 153.781 80.1676C154.135 80.1676 154.418 79.9554 154.418 79.6904C154.418 79.4279 154.633 79.2132 154.895 79.2132C155.158 79.2132 155.373 78.9985 155.373 78.736C155.373 78.4736 155.588 78.2588 155.85 78.2588C156.113 78.2588 156.328 78.0555 156.328 77.8068C156.328 77.5583 156.758 77.2605 157.283 77.1454C157.808 77.0302 158.238 76.7325 158.238 76.484C158.238 76.2352 158.453 76.0319 158.715 76.0319C158.978 76.0319 159.193 75.8172 159.193 75.5548C159.193 75.2923 159.392 75.0776 159.636 75.0776C159.88 75.0776 160.162 74.8628 160.263 74.6004C160.363 74.3379 160.665 74.1232 160.933 74.1232C161.201 74.1232 161.421 73.9085 161.421 73.646C161.421 73.3836 161.636 73.1688 161.898 73.1688C162.161 73.1688 162.376 72.9541 162.376 72.6916C162.376 72.3735 162.694 72.2144 163.331 72.2144C163.967 72.2144 164.286 72.0554 164.286 71.7373C164.286 71.4748 164.5 71.2601 164.763 71.2601C165.026 71.2601 165.24 71.0453 165.24 70.7829C165.24 70.5204 165.455 70.3057 165.718 70.3057C165.981 70.3057 166.195 70.091 166.195 69.8285C166.195 69.5661 166.41 69.3513 166.673 69.3513C166.935 69.3513 167.15 69.1366 167.15 68.8741C167.15 68.6117 167.333 68.3969 167.557 68.3969C167.781 68.3969 168.209 68.1106 168.509 67.7607C168.809 67.4108 169.27 67.1244 169.534 67.1244C169.799 67.1244 170.015 66.9097 170.015 66.6473C170.015 66.3823 170.298 66.1701 170.652 66.1701C171.005 66.1701 171.288 65.9579 171.288 65.6929C171.288 65.4304 171.503 65.2157 171.766 65.2157C172.028 65.2157 172.243 65.001 172.243 64.7385C172.243 64.476 172.458 64.2613 172.721 64.2613C172.983 64.2613 173.198 64.0466 173.198 63.7841C173.198 63.466 173.516 63.3069 174.153 63.3069C174.678 63.3069 175.108 63.1469 175.108 62.9513C175.108 62.5568 177.441 60.1257 177.819 60.1257C177.951 60.1257 178.391 59.7678 178.797 59.3304C179.202 58.8929 179.684 58.5351 179.867 58.5351C180.051 58.5351 180.201 58.3318 180.201 58.083C180.201 57.8345 180.631 57.5368 181.156 57.4216C181.681 57.3065 182.111 57.0087 182.111 56.7602C182.111 56.5115 182.326 56.3082 182.588 56.3082C182.851 56.3082 183.066 56.0934 183.066 55.831C183.066 55.5685 183.281 55.3538 183.543 55.3538C183.806 55.3538 184.021 55.1391 184.021 54.8766C184.021 54.6116 184.304 54.3994 184.657 54.3994C185.011 54.3994 185.294 54.1872 185.294 53.9222C185.294 53.6598 185.509 53.4451 185.771 53.4451C186.034 53.4451 186.249 53.2303 186.249 52.9679C186.249 52.6711 186.549 52.4907 187.045 52.4907C187.547 52.4907 187.84 52.3109 187.84 52.0036C187.84 51.7354 188.055 51.4339 188.318 51.3333C189.667 50.8157 188.329 50.5819 184.021 50.5819C179.458 50.5819 179.246 50.5536 179.246 49.9457C179.246 49.5957 179.378 49.3094 179.539 49.3094C179.7 49.3094 179.927 48.88 180.042 48.355C180.157 47.8301 180.372 47.4007 180.519 47.4007C180.667 47.4007 180.881 46.9712 180.997 46.4463C181.112 45.9214 181.41 45.4919 181.658 45.4919C181.949 45.4919 182.111 45.1499 182.111 44.5375C182.111 43.9013 182.27 43.5832 182.588 43.5832C182.853 43.5832 183.066 43.3004 183.066 42.9469C183.066 42.5935 183.278 42.3107 183.543 42.3107C183.842 42.3107 184.021 42.0091 184.021 41.5055C184.021 41.0623 184.222 40.6227 184.469 40.5279C184.716 40.4334 185.006 40.0084 185.112 39.5837C185.219 39.1587 185.447 38.8113 185.618 38.8113C185.79 38.8113 185.93 38.525 185.93 38.175C185.93 37.8251 186.134 37.5388 186.383 37.5388C186.631 37.5388 186.929 37.1093 187.045 36.5844C187.16 36.0595 187.375 35.63 187.522 35.63C187.669 35.63 187.884 35.2006 188 34.6757C188.115 34.1508 188.341 33.7213 188.502 33.7213C188.663 33.7213 188.795 33.5384 188.795 33.3147C188.795 33.0911 189.082 32.6632 189.432 32.3635C189.782 32.0638 190.069 31.531 190.069 31.1795C190.069 30.8232 190.28 30.54 190.546 30.54C190.864 30.54 191.023 30.2219 191.023 29.5857C191.023 28.9494 191.183 28.6313 191.501 28.6313C191.763 28.6313 191.978 28.4165 191.978 28.1541C191.978 27.8916 192.193 27.6769 192.456 27.6769C192.774 27.6769 192.933 27.3588 192.933 26.7225C192.933 26.0863 193.092 25.7681 193.411 25.7681C193.673 25.7681 193.888 25.5534 193.888 25.291C193.888 24.8707 190.882 24.8138 168.742 24.8138H143.596V33.5479ZM200.891 33.7213V42.6288H210.918H220.944L220.94 43.3446C220.933 44.5592 220.573 45.4919 220.111 45.4919C219.869 45.4919 219.671 45.7782 219.671 46.1282C219.671 46.4816 219.459 46.7644 219.194 46.7644C218.897 46.7644 218.716 47.0647 218.716 47.5597C218.716 48.0547 218.536 48.355 218.239 48.355C217.92 48.355 217.761 48.6732 217.761 49.3094C217.761 49.9457 217.602 50.2638 217.284 50.2638C217.019 50.2638 216.806 50.5466 216.806 50.9C216.806 51.2535 216.594 51.5363 216.329 51.5363C216.011 51.5363 215.851 51.8544 215.851 52.4907C215.851 53.1031 215.689 53.4451 215.399 53.4451C215.151 53.4451 214.853 53.8745 214.737 54.3994C214.622 54.9243 214.396 55.3538 214.235 55.3538C214.073 55.3538 213.942 55.573 213.942 55.8409C213.942 56.109 213.74 56.4055 213.493 56.5003C213.246 56.5948 212.953 57.0373 212.841 57.483C212.729 57.929 212.429 58.5013 212.175 58.7552C211.921 59.0091 211.713 59.4929 211.713 59.8301C211.713 60.1677 211.499 60.4438 211.236 60.4438C210.973 60.4438 210.759 60.6585 210.759 60.921C210.759 61.1834 210.544 61.3982 210.281 61.3982C209.963 61.3982 209.804 61.7163 209.804 62.3526C209.804 62.9888 209.644 63.3069 209.326 63.3069C209.008 63.3069 208.849 63.6251 208.849 64.2613C208.849 64.8976 208.69 65.2157 208.371 65.2157C208.106 65.2157 207.894 65.4985 207.894 65.8519C207.894 66.2054 207.681 66.4882 207.416 66.4882C207.098 66.4882 206.939 66.8063 206.939 67.4426C206.939 68.0788 206.78 68.3969 206.461 68.3969C206.163 68.3969 205.984 68.6985 205.984 69.2021C205.984 69.6453 205.769 70.09 205.506 70.1905C205.244 70.2914 205.029 70.5732 205.029 70.8169C205.029 71.0606 204.826 71.2601 204.577 71.2601C204.328 71.2601 204.03 71.6895 203.915 72.2144C203.8 72.7394 203.585 73.1688 203.437 73.1688C203.29 73.1688 203.075 73.5983 202.96 74.1232C202.845 74.6481 202.614 75.0776 202.447 75.0776C202.281 75.0776 202.049 75.3283 201.933 75.6343C201.817 75.9403 201.535 76.3803 201.307 76.6112C201.078 76.8425 200.891 77.3079 200.891 77.6452C200.891 77.9827 200.676 78.2588 200.414 78.2588C200.095 78.2588 199.936 78.577 199.936 79.2132C199.936 79.8256 199.774 80.1676 199.484 80.1676C199.235 80.1676 198.937 80.597 198.822 81.122C198.707 81.6469 198.48 82.0763 198.319 82.0763C198.158 82.0763 198.026 82.5058 198.026 83.0307V83.9851H223.65H249.274V75.2366V66.4882L238.69 66.4837C232.869 66.4815 227.784 66.3931 227.39 66.2878C226.586 66.0724 226.416 65.5338 227.151 65.5338C227.485 65.5338 227.629 65.1979 227.629 64.4204C227.629 63.6429 227.773 63.3069 228.106 63.3069C228.369 63.3069 228.584 63.0922 228.584 62.8297C228.584 62.5673 228.799 62.3526 229.061 62.3526C229.38 62.3526 229.539 62.0344 229.539 61.3982C229.539 60.7619 229.698 60.4438 230.016 60.4438C230.279 60.4438 230.494 60.1677 230.494 59.8301C230.494 59.4929 230.681 59.0275 230.909 58.7962C231.138 58.5653 231.42 58.1253 231.536 57.8193C231.652 57.5132 231.883 57.2626 232.05 57.2626C232.217 57.2626 232.447 56.8331 232.563 56.3082C232.678 55.7833 232.893 55.3538 233.04 55.3538C233.187 55.3538 233.402 54.9243 233.518 54.3994C233.633 53.8745 233.931 53.4451 234.179 53.4451C234.428 53.4451 234.632 53.2456 234.632 53.0019C234.632 52.7582 234.847 52.4764 235.109 52.3755C235.388 52.2686 235.587 51.7918 235.587 51.228C235.587 50.5829 235.745 50.2638 236.064 50.2638C236.327 50.2638 236.542 50.0491 236.542 49.7866C236.542 49.5242 236.756 49.3094 237.019 49.3094C237.337 49.3094 237.496 48.9913 237.496 48.355C237.496 47.7188 237.656 47.4007 237.974 47.4007C238.292 47.4007 238.451 47.0825 238.451 46.4463C238.451 45.81 238.611 45.4919 238.929 45.4919C239.247 45.4919 239.406 45.1738 239.406 44.5375C239.406 43.9013 239.565 43.5832 239.884 43.5832C240.146 43.5832 240.361 43.364 240.361 43.0961C240.361 42.8279 240.576 42.5264 240.839 42.4258C241.101 42.325 241.316 41.8955 241.316 41.4715C241.316 41.0471 241.531 40.6176 241.794 40.5171C242.056 40.4162 242.271 40.1331 242.271 39.8875C242.271 39.6422 242.558 39.1962 242.908 38.8965C243.258 38.5969 243.544 38.169 243.544 37.9454C243.544 37.7217 243.676 37.5388 243.837 37.5388C243.999 37.5388 244.225 37.1093 244.34 36.5844C244.455 36.0595 244.753 35.63 245.002 35.63C245.292 35.63 245.454 35.288 245.454 34.6757C245.454 34.0394 245.613 33.7213 245.932 33.7213C246.25 33.7213 246.409 33.4032 246.409 32.7669C246.409 32.1307 246.568 31.8125 246.887 31.8125C247.152 31.8125 247.364 31.5297 247.364 31.1763C247.364 30.8228 247.576 30.54 247.841 30.54C248.14 30.54 248.319 30.2384 248.319 29.7349C248.319 29.2917 248.534 28.847 248.796 28.7464C249.059 28.6456 249.274 28.3637 249.274 28.1201C249.274 27.8764 249.489 27.6769 249.751 27.6769C250.071 27.6769 250.229 27.3578 250.229 26.7127C250.229 26.1489 250.427 25.6721 250.706 25.5652C250.969 25.4643 251.184 25.2541 251.184 25.0979C251.184 24.9337 240.581 24.8138 226.037 24.8138H200.891V33.7213ZM326.527 38.922C326.667 39.1581 327.354 39.4409 328.053 39.5509C328.752 39.6607 329.372 39.8971 329.432 40.0762C329.492 40.2553 329.743 40.4019 329.991 40.4019C330.239 40.4019 330.442 40.6166 330.442 40.8791C330.442 41.1416 330.622 41.3588 330.84 41.3617C331.325 41.3684 332.671 42.7417 332.671 43.2304C332.671 43.4244 332.885 43.5832 333.148 43.5832C333.466 43.5832 333.626 43.9013 333.626 44.5375C333.626 45.1887 333.783 45.4919 334.12 45.4919C334.512 45.4919 334.595 45.8065 334.518 47.003L334.421 48.5141L323.599 48.606C317.646 48.6563 312.311 48.614 311.742 48.5119C310.757 48.3353 310.707 48.2577 310.707 46.9092C310.707 45.8616 310.832 45.4919 311.185 45.4919C311.503 45.4919 311.662 45.1738 311.662 44.5375C311.662 43.9013 311.821 43.5832 312.14 43.5832C312.402 43.5832 312.617 43.3684 312.617 43.106C312.617 42.8435 312.832 42.6288 313.095 42.6288C313.357 42.6288 313.572 42.47 313.572 42.276C313.572 41.6432 314.987 40.4131 315.721 40.4073C316.143 40.4042 316.437 40.2059 316.437 39.9247C316.437 39.5913 316.773 39.4475 317.551 39.4475C318.329 39.4475 318.665 39.3037 318.665 38.9704C318.665 38.3052 326.134 38.2593 326.527 38.922ZM176.381 66.7812C176.381 66.9422 175.964 67.1655 175.453 67.2778C174.942 67.3898 174.446 67.6875 174.349 67.9392C174.252 68.1908 173.954 68.3969 173.686 68.3969C173.417 68.3969 173.198 68.6117 173.198 68.8741C173.198 69.1366 172.983 69.3513 172.721 69.3513C172.458 69.3513 172.243 69.5661 172.243 69.8285C172.243 70.091 172.028 70.3057 171.766 70.3057C171.503 70.3057 171.288 70.5204 171.288 70.7829C171.288 71.0453 171.073 71.2601 170.811 71.2601C170.548 71.2601 170.333 71.4748 170.333 71.7373C170.333 72.0554 170.015 72.2144 169.378 72.2144C168.742 72.2144 168.424 72.3735 168.424 72.6916C168.424 72.9541 168.209 73.1688 167.946 73.1688C167.683 73.1688 167.469 73.3836 167.469 73.646C167.469 73.9085 167.254 74.1232 166.991 74.1232C166.729 74.1232 166.514 74.3379 166.514 74.6004C166.514 74.8628 166.294 75.0776 166.026 75.0776C165.758 75.0776 165.456 75.2923 165.356 75.5548C165.255 75.8172 164.973 76.0319 164.729 76.0319C164.485 76.0319 164.286 76.2352 164.286 76.484C164.286 76.7325 163.856 77.0302 163.331 77.1454C162.805 77.2605 162.376 77.5583 162.376 77.8068C162.376 78.0555 162.161 78.2588 161.898 78.2588C161.636 78.2588 161.421 78.4736 161.421 78.736C161.421 78.9985 161.206 79.2132 160.943 79.2132C160.681 79.2132 160.466 79.4279 160.466 79.6904C160.466 79.9554 160.183 80.1676 159.829 80.1676C159.476 80.1676 159.193 80.3798 159.193 80.6448C159.193 80.9416 158.892 81.122 158.397 81.122C157.902 81.122 157.601 81.3023 157.601 81.5991C157.601 81.8641 157.318 82.0763 156.964 82.0763C156.611 82.0763 156.328 82.2885 156.328 82.5535C156.328 82.816 156.113 83.0307 155.85 83.0307C155.588 83.0307 155.373 83.2454 155.373 83.5079C155.373 83.9265 157.619 83.9851 173.676 83.9851H191.978V75.2366V66.4882H184.18C179.642 66.4882 176.381 66.6107 176.381 66.7812Z" fill="white"/>
</g>
<defs>
<clipPath id="clip0_2567_128">
<rect width="355" height="96" fill="white"/>
</clipPath>
</defs>
</svg>
