<svg width="432" height="73" viewBox="0 0 432 73" fill="none" xmlns="http://www.w3.org/2000/svg">
<g clip-path="url(#clip0_2567_122)">
<path fill-rule="evenodd" clip-rule="evenodd" d="M79 19.0676H94.6379V62.9273H104.863V19.0676H121.102V10.0553H79V19.0676ZM131.327 62.9273H140.95V40.5913L150.596 40.7944C158.358 40.9578 160.353 41.1735 160.812 41.8987C161.125 42.3943 161.385 47.3289 161.391 52.8636L161.4 62.9273H171.625V52.8594C171.625 42.2069 171.205 39.5044 169.224 37.3979C168.012 36.1092 168.011 36.0809 169.162 35.0409C171.982 32.4911 172.433 21.1188 169.908 16.2143C169.16 14.7609 167.517 12.9494 166.095 12.0085L163.596 10.3557L131.327 10V62.9273ZM183.169 32.1354C183.373 56.6391 183.287 56.0924 187.516 59.8013C190.545 62.4581 192.964 62.9207 203.803 62.9183C212.645 62.9159 213.67 62.8011 216.433 61.5046C219.898 59.8788 221.132 58.6555 222.425 55.5649C223.199 53.7131 223.35 49.8271 223.35 31.704V10.0553H213.771L213.598 31.1326C213.434 51.1969 213.37 52.2514 212.258 53.0625C211.391 53.6963 209.06 53.915 203.179 53.915C196.279 53.915 195.141 53.7745 194.272 52.8162C193.386 51.8386 193.277 49.4269 193.277 30.8863V10.0553H182.984L183.169 32.1354ZM242.296 11.1908C239.384 12.5331 237.552 14.4353 236.31 17.4045C235.547 19.2292 235.379 22.5913 235.379 36.0821C235.379 47.1005 235.612 53.2085 236.084 54.5765C237.125 57.5909 238.787 59.5856 241.598 61.1946C243.924 62.526 244.838 62.6413 254.556 62.8282C265.741 63.0433 268.216 62.6065 271.808 59.7838C275.09 57.2045 275.649 54.7231 275.664 42.6497L275.677 31.6848H255.227V40.697H266.053V46.1044C266.053 53.8369 265.949 53.915 255.643 53.915C249.684 53.915 247.34 53.6975 246.471 53.0631C245.38 52.267 245.291 51.2552 245.122 37.607C245.022 29.5753 245.09 22.4069 245.273 21.6781C246.006 18.7587 246.943 18.4667 255.571 18.4667C265.118 18.4667 266.053 18.9228 266.053 23.5737V26.2774H275.677V22.7115C275.677 18.483 274.969 16.3669 272.781 14.0555C269.336 10.4152 267.789 10.0541 255.702 10.0685C246.296 10.0799 244.353 10.2421 242.296 11.1908ZM296.011 16.8572C292.143 20.5732 288.692 24.3656 288.342 25.2848C287.947 26.3248 287.706 33.7516 287.706 44.9418V62.9273H297.329V46.1044H318.38V62.9273H328.004V45.184C328.004 31.4252 327.817 27.0062 327.173 25.5071C326.716 24.4437 323.239 20.5323 319.447 16.8145L312.55 10.0553L303.043 10.1009L296.011 16.8572ZM340.033 62.9273H349.656V40.5895L358.95 40.7931C365.53 40.9379 368.472 41.2251 369.024 41.7767C369.587 42.3385 369.858 45.4063 369.995 52.7416L370.185 62.9273H379.729L379.719 51.9624C379.71 41.7202 379.62 40.8406 378.361 38.6194L377.012 36.2408L378.371 33.5605C379.503 31.3249 379.727 29.9249 379.716 25.1244C379.697 16.922 377.788 13.2456 372.372 10.9854C370.563 10.2301 367.317 10.0553 355.088 10.0553H340.033V62.9273ZM391.758 63L407.546 62.8137C422.621 62.6353 423.45 62.565 425.89 61.263C427.296 60.5132 429.191 58.7763 430.101 57.4034L431.755 54.907L431.943 37.7386C432.145 19.3451 431.927 17.4303 429.258 14.2616C425.89 10.2638 424.808 10.0553 407.42 10.0553H391.758V63ZM160.455 19.4106C161.635 20.5894 161.814 29.8294 160.678 30.9638C160.178 31.4636 157.043 31.6848 150.453 31.6848H140.95V18.4667H150.23C157.864 18.4667 159.677 18.6344 160.455 19.4106ZM368.98 19.4605C369.522 20.1124 369.805 22.0416 369.805 25.0757C369.805 31.8109 370.013 31.6848 358.905 31.6848H349.656V18.4667H358.905C366.775 18.4667 368.277 18.6151 368.98 19.4605ZM313.118 24.1307L318.38 29.1745V37.6929H297.329V29.1349L302.247 24.1012C304.953 21.3326 307.321 19.0718 307.51 19.0772C307.7 19.082 310.223 21.3561 313.118 24.1307ZM421.333 20.0619C422.343 20.9752 422.433 22.2946 422.433 36.284C422.433 50.7109 422.369 51.5749 421.23 52.7134C420.13 53.8117 419.225 53.915 410.704 53.915H401.382V19.0676H410.807C418.734 19.0676 420.407 19.2256 421.333 20.0619Z" fill="white"/>
<path fill-rule="evenodd" clip-rule="evenodd" d="M30.3132 0.349953C29.2145 0.821182 28.8757 1.48497 28.6601 3.58701L28.4841 5.30314L15.4939 10.7159C7.44123 14.0716 2.2103 16.3952 1.7322 16.8295C1.30794 17.2149 0.721373 18.0538 0.428892 18.6938C-0.0229542 19.6825 -0.0757246 20.1791 0.0774819 21.9956C0.557185 27.6886 1.99871 34.7169 3.83582 40.3215C8.58357 54.8046 16.7056 65.5644 27.5328 71.7147C29.6099 72.8946 29.9396 73 31.5504 73C33.1392 73 33.4954 72.8904 35.3141 71.8423C41.5896 68.2251 47.6792 62.2537 51.7367 55.7386C57.394 46.654 61.3056 35.321 62.7417 23.8517C63.1826 20.3331 63.0897 19.2662 62.2245 17.9148C61.2303 16.3617 62.0703 16.7825 49.6435 11.6103C46.108 10.1388 43.0062 8.81834 42.7504 8.67623C42.4946 8.53385 42.1504 8.41737 41.9857 8.41737C41.821 8.41737 41.0659 8.11017 40.3079 7.73483C39.55 7.35922 38.901 7.05889 38.8656 7.06708C38.7041 7.10511 37.768 6.7443 36.8287 6.28231C36.2625 6.00391 35.5824 5.77595 35.3173 5.77595C34.7154 5.77595 34.5105 5.26563 34.5105 3.76478C34.5105 2.01722 33.9015 0.810355 32.7878 0.351541C31.6511 -0.116782 31.4017 -0.117049 30.3132 0.349953ZM28.4354 15.5518C28.3148 15.6604 24.5836 17.2606 20.1438 19.1077C11.3517 22.7658 10.6599 23.1084 9.97071 24.1454C9.40048 25.0039 9.42003 27.4129 10.0286 31.2622C12.1276 44.5403 18.1835 55.0669 27.0857 60.9116C29.4593 62.4697 29.9356 62.681 31.267 62.7656C32.652 62.8535 32.9477 62.7616 35.0451 61.5912C38.7638 59.5158 43.8555 54.2771 46.3121 49.9991C50.2641 43.1169 53.0089 34.3701 53.4404 27.2832C53.6027 24.6219 53.6025 24.6217 52.8284 23.7854C52.2566 23.1681 50.5148 22.2927 46.1683 20.4379C42.9312 19.0567 40.1815 17.9265 40.0583 17.9265C39.9351 17.9265 39.209 17.6444 38.4446 17.2997C36.5472 16.4436 36.0337 16.2428 35.6853 16.2206C34.9969 16.1768 34.5105 15.4478 34.5105 14.4604C34.5105 13.3563 34.5475 13.3169 35.2508 13.6688C36.3514 14.2195 38.2006 14.9858 39.127 15.275C39.6774 15.447 40.1968 15.6979 40.2812 15.8326C40.3655 15.9673 40.5999 16.0775 40.8018 16.0775C41.0038 16.0775 41.9308 16.4203 42.8618 16.839C43.7928 17.2579 46.3022 18.3377 48.4382 19.2387C53.3328 21.303 54.1363 21.8405 55.0336 23.6488C55.6817 24.9555 55.7267 25.2503 55.5617 27.1146C55.3051 30.0131 54.688 33.3988 53.7985 36.7883C50.5949 48.9961 44.4635 58.1714 36.1869 63.1422C32.4656 65.3771 30.9279 65.4458 27.6072 63.5258C20.169 59.2255 14.246 51.7884 10.8372 42.4702C9.11416 37.7595 7.45864 29.7664 7.45864 26.1577C7.45864 24.614 8.46438 22.4951 9.58502 21.6781C10.2447 21.1971 15.6401 18.8576 26.6092 14.2961L28.4841 13.5164L28.5693 14.4356C28.6162 14.9411 28.5559 15.4435 28.4354 15.5518ZM28.4354 27.1735C28.3148 27.2816 26.542 28.0682 24.496 28.9214C22.1248 29.91 20.6332 30.6872 20.3827 31.0641C20.0493 31.566 20.0367 32.0538 20.3003 34.289C20.9541 39.8344 22.8153 44.2646 25.8518 47.5029C27.8349 49.6179 30.4648 51.4725 31.4807 51.4725C32.4425 51.4725 34.5022 50.3454 36.0525 48.9705C39.5679 45.8536 42.2302 39.6933 42.9333 33.048C43.0954 31.5176 43.0597 31.3533 42.4459 30.8028C42.0813 30.4764 40.7796 29.7996 39.5532 29.2991C34.3477 27.1756 34.5105 27.2787 34.5105 26.1072C34.5105 25.0733 34.6943 24.8496 35.1935 25.2752C35.3333 25.3945 37.1622 26.1878 39.2575 27.0383C43.968 28.9502 44.7345 29.605 44.8987 31.857C45.1194 34.8889 43.6637 40.8315 41.8079 44.4727C39.0274 49.9283 33.6869 54.1202 30.5899 53.2781C28.2232 52.6347 24.3864 49.3628 22.3431 46.2459C19.7713 42.3231 17.9872 36.213 18.2213 32.1296C18.3643 29.6327 18.8606 29.2021 24.2083 26.934L28.4841 25.1206L28.5693 26.0488C28.6162 26.5591 28.5559 27.0652 28.4354 27.1735Z" fill="white"/>
<path fill-rule="evenodd" clip-rule="evenodd" d="M30.3132 0.349953C29.2153 0.820918 28.8757 1.48444 28.6601 3.58094L28.4841 5.29072L25.1361 6.69438C23.2947 7.46646 18.5941 9.42983 14.6903 11.0577C10.7866 12.6854 6.44754 14.499 5.04807 15.0877C2.14575 16.3089 0.959755 17.2674 0.325509 18.9054C-0.0652702 19.9147 -0.0810784 20.4113 0.19212 23.0706C1.19947 32.8674 3.97751 42.5297 8.13386 50.6911C12.8521 59.9559 19.4831 67.1421 27.5328 71.7147C29.6099 72.8946 29.9396 73 31.5504 73C33.1893 73 33.4627 72.9078 35.6888 71.6048C46.1597 65.4751 54.2614 54.4808 59.0889 39.8502C61.3337 33.047 62.9831 24.842 62.9322 20.7327C62.9108 19.0018 62.0502 17.1972 60.888 16.4465C60.531 16.2156 56.9958 14.6836 53.032 13.0422C49.0685 11.4006 45.4189 9.88362 44.922 9.67072C44.4255 9.45809 43.6573 9.1287 43.2154 8.93905C42.7734 8.74913 42.2613 8.55419 42.077 8.50559C41.893 8.45699 41.5917 8.37775 41.4074 8.32915C40.7429 8.15402 39.4613 7.49789 39.2687 7.23402C39.1605 7.08583 39.0703 7.05546 39.0678 7.16613C39.0657 7.27707 38.6235 7.18647 38.0851 6.96459C37.547 6.74298 37.0663 6.6014 37.017 6.65C36.9674 6.6986 36.8566 7.62151 36.7703 8.70053C36.6841 9.77955 36.5734 11.1082 36.525 11.6531C36.4762 12.1978 36.5453 12.7099 36.6787 12.7913C36.8121 12.8724 36.9211 13.0578 36.9211 13.2031C36.9211 13.3484 36.8006 13.3938 36.6533 13.304C36.1762 13.0132 36.3702 13.8347 36.8732 14.2359C37.3231 14.5946 37.6785 14.7391 38.4052 14.8579C38.5587 14.883 39.138 15.1678 39.6927 15.4906C40.2477 15.8133 40.8118 16.0775 40.9467 16.0775C41.0815 16.0775 41.8279 16.3659 42.6055 16.7183C43.3828 17.0706 46.0076 18.1948 48.4382 19.2163C53.291 21.2554 54.2806 21.8828 54.9993 23.3762C55.7139 24.8615 55.776 26.2073 55.2851 29.5624C54.3278 36.1036 52.4259 42.3509 49.7791 47.6485C46.3108 54.5899 42.425 59.1244 36.8349 62.7534C32.814 65.3642 31.046 65.514 27.6227 63.5347C20.1682 59.225 14.2489 51.7966 10.8372 42.4702C9.11416 37.7595 7.45864 29.7664 7.45864 26.1577C7.45864 24.6299 8.51151 22.3897 9.58368 21.6369C10.2024 21.2024 15.568 18.889 26.6912 14.2612L28.6483 13.4469L28.4841 15.6136L20.128 19.108C11.2397 22.825 10.6561 23.1139 9.97741 24.1354C9.1688 25.3525 9.66189 30.8126 11.0884 36.437C13.8815 47.4483 19.3706 55.8461 27.0857 60.9116C29.4593 62.4697 29.9356 62.681 31.267 62.7656C32.6517 62.8535 32.9479 62.7616 35.0462 61.5912C37.7991 60.0555 42.7282 55.363 44.8749 52.2337C46.7661 49.4771 49.5452 43.7511 50.6924 40.2464C52.2847 35.3828 53.524 29.3065 53.5261 26.3521C53.528 23.6253 53.1426 23.3358 45.0902 20.0211C44.6483 19.8391 43.6841 19.4294 42.9475 19.1109C41.3517 18.4207 40.631 18.1338 40.2691 18.0451C40.1218 18.0091 39.3986 17.7115 38.6621 17.3839C37.9255 17.0561 37.0872 16.7442 36.7987 16.6903C36.5105 16.6364 36.1811 16.4467 36.0664 16.269C35.9328 16.0616 35.8468 16.1829 35.8267 16.6058C35.7426 18.3784 35.5763 19.2358 35.0818 20.4429L34.5437 21.7565L34.5373 12.1967C34.5301 1.42211 34.4746 1.0465 32.7878 0.351541C31.6511 -0.116782 31.4017 -0.117049 30.3132 0.349953ZM28.618 26.1244C28.618 27.1466 28.5658 27.2116 27.3458 27.7127C22.466 29.717 20.7556 30.5419 20.3961 31.0643C20.0466 31.5731 20.0332 32.0224 20.3003 34.289C20.9541 39.8344 22.8153 44.2646 25.8518 47.5029C27.8349 49.6179 30.4648 51.4725 31.4807 51.4725C31.8311 51.4725 32.6916 51.1856 33.3931 50.8351C38.335 48.3656 41.9833 41.4623 42.9325 32.7858C43.127 31.0081 42.8966 30.7777 39.4506 29.3065C37.9858 28.6813 36.4371 28.0043 36.0094 27.8025C35.5816 27.6007 35.0695 27.4356 34.8711 27.4356C34.6222 27.4356 34.5105 27.0671 34.5105 26.2469C34.5105 24.9732 34.54 24.9352 35.2508 25.2915C35.8562 25.5953 36.6672 25.9368 38.796 26.7842C45.2121 29.3387 45.6152 29.9795 44.5594 35.9512C43.6136 41.2993 41.4696 46.0459 38.6363 49.0638C35.6687 52.2247 32.6091 53.8273 30.5899 53.2781C28.2232 52.6347 24.3864 49.3628 22.3431 46.2459C19.7713 42.3231 17.9872 36.213 18.2213 32.1296C18.364 29.6388 18.8611 29.2058 24.2083 26.9181C26.56 25.912 28.5144 25.0818 28.5511 25.0734C28.5878 25.0652 28.618 25.538 28.618 26.1244Z" fill="white"/>
<path fill-rule="evenodd" clip-rule="evenodd" d="M30.3132 0.349953C29.2153 0.820918 28.8757 1.48444 28.6601 3.58094L28.4841 5.29072L25.1361 6.69438C23.2947 7.46646 18.5941 9.42983 14.6903 11.0577C10.7866 12.6854 6.44754 14.499 5.04807 15.0877C2.14575 16.3089 0.959755 17.2674 0.325509 18.9054C-0.0652702 19.9147 -0.0810784 20.4113 0.19212 23.0706C1.19947 32.8674 3.97751 42.5297 8.13386 50.6911C12.8521 59.9559 19.4831 67.1421 27.5328 71.7147C29.6099 72.8946 29.9396 73 31.5504 73C33.1893 73 33.4627 72.9078 35.6888 71.6048C46.1597 65.4751 54.2614 54.4808 59.0889 39.8502C61.3337 33.047 62.9831 24.842 62.9322 20.7327C62.9108 19.0018 62.0502 17.1972 60.888 16.4465C60.531 16.2156 56.9958 14.6836 53.032 13.0422C49.0685 11.4006 45.4189 9.88362 44.922 9.67072C44.4255 9.45809 43.6573 9.1287 43.2154 8.93905C42.7734 8.74913 42.2613 8.55419 42.077 8.50559C41.893 8.45699 41.5917 8.37775 41.4074 8.32915C40.7429 8.15402 39.4613 7.49789 39.2687 7.23402C39.1605 7.08583 39.0703 7.05546 39.0678 7.16613C39.0657 7.27707 38.6235 7.18647 38.0851 6.96459C37.547 6.74298 37.0663 6.6014 37.017 6.65C36.9674 6.6986 36.8566 7.62151 36.7703 8.70053C36.6841 9.77955 36.5734 11.1082 36.525 11.6531C36.4762 12.1978 36.5453 12.7099 36.6787 12.7913C36.8121 12.8724 36.9211 13.0578 36.9211 13.2031C36.9211 13.3484 36.8006 13.3938 36.6533 13.304C36.1762 13.0132 36.3702 13.8347 36.8732 14.2359C37.3231 14.5946 37.6785 14.7391 38.4052 14.8579C38.5587 14.883 39.138 15.1678 39.6927 15.4906C40.2477 15.8133 40.8118 16.0775 40.9467 16.0775C41.0815 16.0775 41.8279 16.3659 42.6055 16.7183C43.3828 17.0706 46.0076 18.1948 48.4382 19.2163C53.291 21.2554 54.2806 21.8828 54.9993 23.3762C55.7139 24.8615 55.776 26.2073 55.2851 29.5624C54.3278 36.1036 52.4259 42.3509 49.7791 47.6485C46.3108 54.5899 42.425 59.1244 36.8349 62.7534C32.814 65.3642 31.046 65.514 27.6227 63.5347C20.1682 59.225 14.2489 51.7966 10.8372 42.4702C9.11416 37.7595 7.45864 29.7664 7.45864 26.1577C7.45864 24.6299 8.51151 22.3897 9.58368 21.6369C10.2024 21.2024 15.568 18.889 26.6912 14.2612L28.6483 13.4469L28.4841 15.6136L20.128 19.108C11.2397 22.825 10.6561 23.1139 9.97741 24.1354C9.1688 25.3525 9.66189 30.8126 11.0884 36.437C13.8815 47.4483 19.3706 55.8461 27.0857 60.9116C29.4593 62.4697 29.9356 62.681 31.267 62.7656C32.6517 62.8535 32.9479 62.7616 35.0462 61.5912C37.7991 60.0555 42.7282 55.363 44.8749 52.2337C46.7661 49.4771 49.5452 43.7511 50.6924 40.2464C52.2847 35.3828 53.524 29.3065 53.5261 26.3521C53.528 23.6253 53.1426 23.3358 45.0902 20.0211C44.6483 19.8391 43.6841 19.4294 42.9475 19.1109C41.3517 18.4207 40.631 18.1338 40.2691 18.0451C40.1218 18.0091 39.3986 17.7115 38.6621 17.3839C37.9255 17.0561 37.0872 16.7442 36.7987 16.6903C36.5105 16.6364 36.1811 16.4467 36.0664 16.269C35.9328 16.0616 35.8468 16.1829 35.8267 16.6058C35.7426 18.3784 35.5763 19.2358 35.0818 20.4429L34.5437 21.7565L34.5373 12.1967C34.5301 1.42211 34.4746 1.0465 32.7878 0.351541C31.6511 -0.116782 31.4017 -0.117049 30.3132 0.349953ZM28.618 26.1244C28.618 27.1466 28.5658 27.2116 27.3458 27.7127C22.466 29.717 20.7556 30.5419 20.3961 31.0643C20.0466 31.5731 20.0332 32.0224 20.3003 34.289C20.9541 39.8344 22.8153 44.2646 25.8518 47.5029C27.8349 49.6179 30.4648 51.4725 31.4807 51.4725C31.8311 51.4725 32.6916 51.1856 33.3931 50.8351C38.335 48.3656 41.9833 41.4623 42.9325 32.7858C43.127 31.0081 42.8966 30.7777 39.4506 29.3065C37.9858 28.6813 36.4371 28.0043 36.0094 27.8025C35.5816 27.6007 35.0695 27.4356 34.8711 27.4356C34.6222 27.4356 34.5105 27.0671 34.5105 26.2469C34.5105 24.9732 34.54 24.9352 35.2508 25.2915C35.8562 25.5953 36.6672 25.9368 38.796 26.7842C45.2121 29.3387 45.6152 29.9795 44.5594 35.9512C43.6136 41.2993 41.4696 46.0459 38.6363 49.0638C35.6687 52.2247 32.6091 53.8273 30.5899 53.2781C28.2232 52.6347 24.3864 49.3628 22.3431 46.2459C19.7713 42.3231 17.9872 36.213 18.2213 32.1296C18.364 29.6388 18.8611 29.2058 24.2083 26.9181C26.56 25.912 28.5144 25.0818 28.5511 25.0734C28.5878 25.0652 28.618 25.538 28.618 26.1244Z" fill="white"/>
</g>
<defs>
<clipPath id="clip0_2567_122">
<rect width="432" height="73" fill="white"/>
</clipPath>
</defs>
</svg>
