<svg width="362" height="100" viewBox="0 0 362 100" fill="none" xmlns="http://www.w3.org/2000/svg">
<g clip-path="url(#clip0_2567_111)">
<path d="M89.9578 3.29554L73.5303 97.6616C73.4164 98.3155 73.0713 98.909 72.5564 99.3368C72.0415 99.7647 71.3895 99.9996 70.7157 100H19.2806C18.6068 99.9996 17.9548 99.7647 17.4398 99.3368C16.9248 98.909 16.5798 98.3155 16.466 97.6616L0.0410932 3.29554C-0.029207 2.89174 -0.00911848 2.47766 0.0999035 2.08229C0.208925 1.68692 0.404273 1.31976 0.67231 1.00646C0.940347 0.693158 1.27458 0.441269 1.65171 0.268394C2.02884 0.0955191 2.43978 0.00590607 2.85575 0.00565369H18.3376C19.0102 0.00571791 19.6612 0.239427 20.1761 0.665664C20.6909 1.0919 21.0366 1.68329 21.1522 2.33582L32.9881 69.0346C34.131 75.226 38.9516 79.3515 45.0754 79.3515C51.0389 79.3515 55.8708 75.226 57.1624 69.0346L68.8381 2.33582C68.9527 1.68178 69.2985 1.08869 69.8138 0.661267C70.3294 0.233845 70.9818 -0.000349339 71.6558 1.96046e-05H87.1318C87.5495 -0.00151424 87.9622 0.0869739 88.3411 0.259462C88.72 0.431948 89.0561 0.684198 89.3257 0.998349C89.5949 1.3125 89.7911 1.68102 89.9004 2.07789C90.0098 2.47477 90.0293 2.89039 89.9578 3.29554Z" fill="white"/>
<path d="M171.112 100H126.146C108.95 100 94.9254 86.4175 95.0003 69.6629C95.0813 51.6675 107.44 39.6807 125.947 39.6807H145.37C146.674 39.685 147.965 39.4371 149.17 38.9518C150.375 38.4664 151.469 37.7529 152.389 36.8529C153.309 35.9529 154.037 34.8839 154.531 33.7079C155.024 32.532 155.274 31.2723 155.265 30.0019C155.195 24.373 151.305 20.6355 145.494 20.6355H110.917C110.151 20.6355 109.416 20.3389 108.875 19.811C108.333 19.2833 108.029 18.5675 108.029 17.821V2.81444C108.029 2.06801 108.333 1.35208 108.875 0.824268C109.416 0.296459 110.151 0 110.917 0H171.112C171.878 0 172.613 0.296459 173.154 0.824268C173.696 1.35208 174 2.06801 174 2.81444V97.1854C174 97.555 173.925 97.9211 173.78 98.2625C173.635 98.6039 173.422 98.9143 173.154 99.1757C172.886 99.4371 172.568 99.6443 172.217 99.7857C171.867 99.9271 171.491 100 171.112 100ZM155.256 69.8404C155.256 64.1271 151.345 60.3161 145.482 60.3161H125.936C120.073 60.3161 116.162 64.1271 116.162 69.8404C116.162 75.5536 120.073 79.3643 125.936 79.3643H145.482C151.357 79.3643 155.256 75.5536 155.256 69.8404Z" fill="white"/>
<path d="M271 38.8871V97.1854C271 97.9318 270.699 98.6479 270.163 99.1757C269.627 99.7036 268.9 100 268.141 100H252.899C252.141 100 251.414 99.7036 250.877 99.1757C250.341 98.6479 250.04 97.9318 250.04 97.1854V39.0193C250.04 28.8874 241.724 20.6101 231.441 20.6355C220.347 20.6608 212.957 27.953 212.957 38.8871V97.1854C212.957 97.9318 212.656 98.6479 212.12 99.1757C211.584 99.7036 210.857 100 210.098 100H194.859C194.101 100 193.373 99.7036 192.838 99.1757C192.301 98.6479 192 97.9318 192 97.1854V2.81444C192 2.06801 192.301 1.35208 192.838 0.824268C193.373 0.296459 194.101 0 194.859 0H231.499C255.2 0 271 15.5554 271 38.8871Z" fill="white"/>
<path d="M359.114 100H314.143C296.949 100 282.925 86.4175 283 69.6629C283.081 51.6675 295.438 39.6807 313.944 39.6807H333.365C334.669 39.685 335.961 39.4371 337.165 38.9518C338.37 38.4664 339.465 37.7529 340.385 36.8529C341.305 35.9529 342.033 34.8841 342.527 33.7082C343.021 32.5322 343.271 31.2725 343.262 30.0019C343.19 24.373 339.3 20.6355 333.489 20.6355H298.924C298.158 20.6355 297.424 20.3389 296.882 19.811C296.341 19.2833 296.036 18.5675 296.036 17.821V2.81444C296.036 2.06801 296.341 1.35208 296.882 0.824268C297.424 0.296459 298.158 0 298.924 0H359.114C359.88 0 360.614 0.296459 361.154 0.824268C361.698 1.35208 362 2.06801 362 2.81444V97.1854C362 97.555 361.928 97.9211 361.78 98.2625C361.637 98.6039 361.424 98.9143 361.154 99.1757C360.888 99.4371 360.568 99.6443 360.219 99.7857C359.869 99.9271 359.492 100 359.114 100ZM343.271 69.8404C343.271 64.1271 339.36 60.3161 333.498 60.3161H313.953C308.09 60.3161 304.18 64.1271 304.18 69.8404C304.18 75.5536 308.09 79.3643 313.953 79.3643H333.492C339.36 79.3643 343.271 75.5536 343.271 69.8404Z" fill="white"/>
</g>
<defs>
<clipPath id="clip0_2567_111">
<rect width="362" height="100" fill="white"/>
</clipPath>
</defs>
</svg>
