<svg width="308" height="60" viewBox="0 0 308 60" fill="none" xmlns="http://www.w3.org/2000/svg">
<g clip-path="url(#clip0_2567_130)">
<path d="M0 8.38403V0.798479H45.0074V8.38403H26.8625V59.2015H18.1166V8.38403H0Z" fill="white"/>
<path d="M53.3538 59.2015V0.798479H89.8141V8.38403H62.1282V26.1787H87.9116V33.7357H62.1282V51.616H90.1549V59.2015H53.3538Z" fill="white"/>
<path d="M146.874 0.798479V59.2015H138.809L109.249 16.3688H108.71V59.2015H99.9353V0.798479H108.056L137.645 43.6882H138.185V0.798479H146.874Z" fill="white"/>
<path d="M156.569 59.2015V53.327L187.151 8.38403H156.313V0.798479H197.885V6.67301L167.302 51.616H198.14V59.2015H156.569Z" fill="white"/>
<path d="M207.545 59.2015V0.798479H228.274C232.779 0.798479 236.518 1.57795 239.49 3.13688C242.481 4.69582 244.715 6.85361 246.191 9.61027C247.668 12.3479 248.406 15.5133 248.406 19.1065C248.406 22.6806 247.658 25.827 246.163 28.5456C244.686 31.2452 242.453 33.346 239.461 34.8479C236.489 36.3498 232.751 37.1008 228.245 37.1008H212.542V29.5152H227.45C230.29 29.5152 232.599 29.1065 234.379 28.289C236.177 27.4715 237.493 26.2833 238.326 24.7243C239.159 23.1654 239.575 21.2928 239.575 19.1065C239.575 16.9011 239.149 14.9905 238.297 13.3745C237.464 11.7586 236.149 10.5228 234.35 9.6673C232.571 8.79278 230.233 8.35551 227.336 8.35551H216.319V59.2015H207.545ZM236.253 32.8517L250.621 59.2015H240.626L226.541 32.8517H236.253Z" fill="white"/>
<path d="M308 30C308 36.2357 306.864 41.597 304.593 46.0837C302.321 50.5513 299.207 53.9924 295.25 56.4068C291.313 58.8023 286.836 60 281.819 60C276.783 60 272.287 58.8023 268.331 56.4068C264.393 53.9924 261.289 50.5418 259.017 46.0551C256.745 41.5684 255.61 36.2167 255.61 30C255.61 23.7643 256.745 18.4125 259.017 13.9449C261.289 9.45817 264.393 6.01711 268.331 3.62167C272.287 1.20722 276.783 0 281.819 0C286.836 0 291.313 1.20722 295.25 3.62167C299.207 6.01711 302.321 9.45817 304.593 13.9449C306.864 18.4125 308 23.7643 308 30ZM299.311 30C299.311 25.2471 298.544 21.2452 297.011 17.9943C295.496 14.7243 293.414 12.2529 290.764 10.5799C288.132 8.88783 285.151 8.04183 281.819 8.04183C278.468 8.04183 275.477 8.88783 272.846 10.5799C270.215 12.2529 268.132 14.7243 266.599 17.9943C265.084 21.2452 264.327 25.2471 264.327 30C264.327 34.7529 265.084 38.7643 266.599 42.0342C268.132 45.2852 270.215 47.7567 272.846 49.4487C275.477 51.1217 278.468 51.9582 281.819 51.9582C285.151 51.9582 288.132 51.1217 290.764 49.4487C293.414 47.7567 295.496 45.2852 297.011 42.0342C298.544 38.7643 299.311 34.7529 299.311 30Z" fill="white"/>
</g>
<defs>
<clipPath id="clip0_2567_130">
<rect width="308" height="60" fill="white"/>
</clipPath>
</defs>
</svg>
