<svg width="40" height="40" viewBox="0 0 40 40" fill="none" xmlns="http://www.w3.org/2000/svg">
<g clip-path="url(#clip0_73_2046)">
<path d="M8.45403 4.61471V16.9224C8.45403 19.0466 6.73203 20.7686 4.60787 20.7686C2.48372 20.7686 0.761719 19.0466 0.761719 16.9224V4.61471C0.761719 2.49055 2.48372 0.768555 4.60787 0.768555C6.73203 0.768555 8.45403 2.49055 8.45403 4.61471Z" fill="white"/>
<path d="M35.3855 19.2304C37.5097 19.2304 39.2317 17.5084 39.2317 15.3842C39.2317 13.2601 37.5097 11.5381 35.3855 11.5381H26.1547C24.0306 11.5381 22.3086 13.2601 22.3086 15.3842V35.3842C22.3086 37.5084 24.0306 39.2304 26.1547 39.2304C28.2789 39.2304 30.0009 37.5084 30.0009 35.3842V23.0765C30.0009 20.9524 31.7229 19.2304 33.8471 19.2304H35.3855Z" fill="white"/>
<path d="M19.2233 12.307C19.2233 10.1829 20.9453 8.46086 23.0694 8.46086H35.3771C37.5013 8.46086 39.2233 6.73886 39.2233 4.61471C39.2233 2.49055 37.5013 0.768555 35.3771 0.768555H15.3771C13.2529 0.768555 11.5309 2.49055 11.5309 4.61471V19.9993C11.5309 22.1235 9.80895 23.8455 7.6848 23.8455H4.60787C2.48372 23.8455 0.761719 25.5675 0.761719 27.6916C0.761719 29.8158 2.48372 31.5378 4.60787 31.5378H7.6848C9.80895 31.5378 11.5309 33.2598 11.5309 35.3839C11.5309 37.5081 13.2529 39.2301 15.3771 39.2301C17.5013 39.2301 19.2233 37.5081 19.2233 35.3839V12.307Z" fill="white"/>
</g>
<defs>
<clipPath id="clip0_73_2046">
<rect width="40" height="40" fill="white"/>
</clipPath>
</defs>
</svg>
