<svg width="132" height="40" viewBox="0 0 132 40" fill="none" xmlns="http://www.w3.org/2000/svg">
<g clip-path="url(#clip0_73_2051)">
<path opacity="0.2" d="M34.1783 5.05859L5.07812 8.55802" stroke="white" stroke-width="5.286" stroke-miterlimit="10"/>
<path opacity="0.2" d="M34.1797 5.05859L30.6641 34.3451" stroke="white" stroke-width="5.286" stroke-miterlimit="10"/>
<path opacity="0.2" d="M5.07812 8.55957L22.2796 16.9513" stroke="white" stroke-width="5.286" stroke-miterlimit="10"/>
<path opacity="0.2" d="M30.669 34.3458L22.2773 16.958" stroke="white" stroke-width="5.286" stroke-miterlimit="10"/>
<path d="M5.0809 12.9643C3.91466 12.9643 2.79619 12.501 1.97153 11.6764C1.14688 10.8517 0.683594 9.73323 0.683594 8.56699C0.685306 7.40058 1.1489 6.28233 1.97297 5.45684C2.79703 4.63135 3.91449 4.16583 5.0809 4.16211C6.24757 4.16498 7.36552 4.63022 8.18977 5.45589C9.01402 6.28157 9.47734 7.40032 9.4782 8.56699C9.4782 9.14446 9.36446 9.71626 9.14347 10.2498C8.92249 10.7833 8.59859 11.268 8.19026 11.6764C7.78193 12.0847 7.29718 12.4086 6.76367 12.6296C6.23017 12.8506 5.65836 12.9643 5.0809 12.9643Z" fill="white"/>
<path d="M34.1825 9.45648C33.0162 9.45648 31.8978 8.9932 31.0731 8.16854C30.2484 7.34389 29.7852 6.22542 29.7852 5.05918C29.7869 3.89277 30.2505 2.77451 31.0745 1.94903C31.8986 1.12354 33.0161 0.658019 34.1825 0.654297C35.3491 0.657163 36.4671 1.12241 37.2913 1.94808C38.1156 2.77375 38.5789 3.89251 38.5798 5.05918C38.5798 6.22542 38.1165 7.34389 37.2918 8.16854C36.4672 8.9932 35.3487 9.45648 34.1825 9.45648Z" fill="white"/>
<path d="M30.6712 38.5494C29.5038 38.5494 28.3842 38.0856 27.5587 37.2602C26.7333 36.4347 26.2695 35.3151 26.2695 34.1477C26.2695 32.9803 26.7333 31.8608 27.5587 31.0353C28.3842 30.2098 29.5038 29.7461 30.6712 29.7461C31.8368 29.7481 32.9541 30.212 33.7783 31.0362C34.6025 31.8605 35.0665 32.9778 35.0685 34.1434C35.067 35.31 34.6036 36.4285 33.7795 37.2543C32.9554 38.08 31.8378 38.5456 30.6712 38.5494Z" fill="white"/>
<path d="M22.2801 21.3552C21.1139 21.3552 19.9954 20.8919 19.1708 20.0672C18.3461 19.2426 17.8828 18.1241 17.8828 16.9579C17.8848 15.7922 18.3487 14.6749 19.173 13.8507C19.9972 13.0265 21.1145 12.5626 22.2801 12.5605C23.4465 12.5623 24.5648 13.0259 25.3903 13.8499C26.2158 14.674 26.6813 15.7914 26.685 16.9579C26.6821 18.1245 26.2169 19.2425 25.3912 20.0667C24.5655 20.891 23.4468 21.3543 22.2801 21.3552Z" fill="white"/>
<path d="M57.877 29.937H59.662L61.2129 34.8499H61.2649L62.8679 29.937H64.7297V30.0659L61.2519 39.6198H59.3901V39.4898L60.4115 36.6467L60.1656 36.6337L57.877 30.0659V29.937ZM54.7199 36.7756C53.7505 36.7756 53.1949 36.3749 52.8591 35.9351H52.8071L52.6263 36.6586H51.0742V27.0918H52.8071V30.6605H52.8591C53.1949 30.2208 53.7505 29.8201 54.7209 29.8201C56.4658 29.8201 57.4741 31.2931 57.4741 33.2968C57.4741 35.3535 56.4257 36.7756 54.7199 36.7756ZM54.2303 35.2496C55.3296 35.2496 55.7174 34.3452 55.7174 33.2978C55.7174 32.2375 55.3426 31.3451 54.2303 31.3451C53.131 31.3451 52.7432 32.2505 52.7432 33.2978C52.7432 34.3452 53.157 35.2496 54.2303 35.2496ZM68.8216 36.754H75.7273V35.1477H71.07V35.0958L75.6493 29.2071V27.6149H68.9385V29.233H73.4117V29.285L68.8205 35.1878L68.8216 36.754ZM79.6004 36.8709C81.3441 36.8709 82.4489 35.8658 82.6308 34.6387H80.9271C80.7972 35.0568 80.3813 35.4218 79.6004 35.4218C78.5996 35.4218 78.1306 34.7687 78.1176 33.8415H82.7218V33.1635C82.7218 31.3093 81.5911 29.8472 79.5744 29.8472C77.4028 29.8472 76.336 31.4393 76.336 33.3726C76.336 35.3308 77.5068 36.8709 79.6004 36.8709ZM78.1306 32.6794C78.1696 31.9104 78.5996 31.3093 79.5744 31.3093C80.4842 31.3093 80.9141 31.9093 80.9401 32.6805L78.1306 32.6794ZM86.4649 36.754H87.7408V35.2268H86.961C86.362 35.2268 86.0891 34.9517 86.0891 34.3116V31.4523H87.7137V29.9641H86.0891V28.176H84.4103V29.9641H83.2406V31.4523H84.3453V34.6907C84.3453 35.8929 84.9692 36.754 86.4649 36.754Z" fill="white"/>
<path d="M90.8259 36.754H92.1007V35.2268H91.3209C90.7219 35.2268 90.449 34.9517 90.449 34.3116V31.4523H92.0747V29.9641H90.449V28.176H88.7713V29.9641H87.6016V31.4523H88.7063V34.6907C88.7063 35.8929 89.3302 36.754 90.8259 36.754ZM95.2373 36.8709C96.1081 36.8709 96.746 36.5449 97.1229 36.0478H97.1749L97.3049 36.754H98.8537V32.2624C98.8537 30.8782 97.7988 29.8472 95.9781 29.8472C94.1314 29.8472 93.1686 30.8782 93.1686 32.1574H94.8084C94.8084 31.6743 95.2113 31.2833 95.9391 31.2833C96.772 31.2833 97.1099 31.7274 97.1099 32.2754V32.6545H95.6012C93.7155 32.6545 92.8697 33.5285 92.8697 34.7557C92.8697 35.9579 93.7285 36.8709 95.2373 36.8709ZM95.6532 35.4867C94.9513 35.4867 94.5993 35.1477 94.5993 34.6777C94.5993 34.1946 94.9643 33.8686 95.7312 33.8686H97.1099V34.2336C97.1099 34.9127 96.5641 35.4867 95.6532 35.4867ZM100.312 36.754H104.603C106.384 36.754 107.503 35.7878 107.503 34.1167C107.503 32.8884 106.944 32.2494 106.215 31.9093V31.8573C106.735 31.5433 107.165 30.9833 107.165 29.9901C107.165 28.489 106.06 27.6138 104.46 27.6138H100.312V36.754ZM102.08 31.2573V29.1941H104.213C105.007 29.1941 105.358 29.5991 105.358 30.1992C105.358 30.8522 104.968 31.2573 104.174 31.2573H102.08ZM102.08 35.1607V32.7975H104.33C105.293 32.7975 105.682 33.3455 105.682 33.9726C105.682 34.6647 105.267 35.1607 104.33 35.1607H102.08ZM108.507 36.754H110.25V27.0929H108.506L108.507 36.754ZM114.401 36.8709C116.574 36.8709 117.679 35.3698 117.679 33.3726C117.679 31.3613 116.547 29.8472 114.401 29.8472C112.243 29.8472 111.111 31.3613 111.111 33.3726C111.111 35.3839 112.217 36.8709 114.401 36.8709ZM114.401 35.3308C113.425 35.3308 112.893 34.6647 112.893 33.3726C112.893 32.0805 113.412 31.3873 114.401 31.3873C115.377 31.3873 115.91 32.0664 115.91 33.3715C115.91 34.6647 115.377 35.3308 114.401 35.3308ZM121.588 36.8709C123.499 36.8709 124.487 35.7229 124.591 34.1946H122.835C122.757 34.8737 122.302 35.3308 121.547 35.3308C120.56 35.3308 120.066 34.6376 120.066 33.3596C120.066 32.0924 120.56 31.3884 121.547 31.3884C122.289 31.3884 122.757 31.8573 122.822 32.5494H124.578C124.487 31.0353 123.499 29.8472 121.547 29.8472C119.428 29.8472 118.283 31.2963 118.283 33.3585C118.283 35.4488 119.467 36.8709 121.588 36.8709ZM128.87 33.1105L131.602 30.0952V29.9652H129.572L127.218 32.6014V27.0918H125.567V36.7529H127.218V33.6856L129.637 36.754H131.732V36.624L128.87 33.1105Z" fill="white"/>
<path fill-rule="evenodd" clip-rule="evenodd" d="M131.085 24.2222H51.0742V22.6484H131.085V24.2222Z" fill="white"/>
<path d="M67.9096 2.16527C67.9096 1.00205 68.7642 0.226562 69.9783 0.226562C71.1925 0.226562 72.0448 1.00205 72.0448 2.16527C72.0448 3.32742 71.1914 4.13106 69.9772 4.13106C68.7631 4.13106 67.9096 3.38374 67.9096 2.16527ZM68.2974 6.02429H71.6571V19.5422H68.2974V6.02429ZM61.7361 19.6039L56.6229 11.5816L54.5379 13.9405V19.605H51.0938V1.50026H54.5379V9.13056H54.6961L61.3083 1.50026H65.4662L58.932 8.94535L65.724 19.6029L61.7361 19.6039ZM77.4332 15.081V8.8847H75.0006V6.03079H76.5624C77.1581 6.03079 77.5458 5.64304 77.5458 4.99644V2.24867H80.7983V6.00263H84.1082V8.88362H80.7983V14.8232C80.7983 15.9637 81.3658 16.5475 82.6579 16.5475H84.0291V19.6039H81.9615C79.1412 19.6039 77.4332 18.0031 77.4332 15.0767V15.081ZM96.9513 15.2835C96.2603 16.3558 95.2661 17.2277 93.4855 17.2277C91.3107 17.2277 89.9286 15.8901 89.8268 13.817H99.997V12.7275C99.997 8.90095 97.6196 5.66579 93.2429 5.66579C89.2593 5.66579 86.3881 8.58685 86.3881 12.8791C86.3881 16.9406 89.3719 19.9408 93.3783 19.9408C96.3329 19.9408 98.4287 18.7169 99.5074 16.7728L96.9513 15.2835ZM93.2483 8.40598C95.148 8.40598 96.5192 9.53022 96.6708 11.3671H89.8268C90.0294 9.6591 91.4222 8.40706 93.2494 8.40706M114.826 1.51218H119.146L125.61 19.6126H121.965L120.696 16.046H113.17L111.929 19.6126H108.385L114.826 1.51218ZM119.713 12.9636L117.051 5.33653H116.843L114.181 12.9636H119.713ZM127.643 1.51218H131.08V19.6126H127.643V1.51218Z" fill="white"/>
</g>
<defs>
<clipPath id="clip0_73_2051">
<rect width="131.053" height="40" fill="white" transform="translate(0.683594)"/>
</clipPath>
</defs>
</svg>
