<svg width="279" height="142" viewBox="0 0 279 142" fill="none" xmlns="http://www.w3.org/2000/svg">
<path d="M0 118V0H29V10H10V108H29V118H0Z" fill="white"/>
<path d="M250 10V0H279V118H250V108H269V10H250Z" fill="white"/>
<path d="M19 30V18.857L73.5 19.5L78.272 22.305C84.932 26.22 88.108 31.374 88.696 39.22C89.089 44.465 88.773 46.263 86.778 50.133L84.391 54.765L88.113 58.756C97.838 69.182 95.482 88.096 83.537 95.485L78.662 98.5L19 99.11V88H76.788L79.817 85.171C85.247 80.098 85.063 70.227 79.438 64.94L76.842 62.5L19 61.913V52.093L71.872 51.5L74.855 48.64C76.496 47.068 78.12 44.66 78.463 43.29C79.336 39.813 77.337 34.411 74.293 32.016C71.871 30.111 70.284 30 45.365 30H19Z" fill="white"/>
<path d="M102 30V18.857L129.25 19.178C156.178 19.496 156.553 19.53 160.956 22C167.586 25.72 171.104 31.336 171.689 39.131C172.089 44.476 171.782 46.245 169.778 50.133L167.391 54.765L171.113 58.756C180.838 69.182 178.482 88.096 166.537 95.485L161.662 98.5L102 99.11V88H159.788L162.817 85.171C168.247 80.098 168.063 70.227 162.438 64.94L159.842 62.5L102 61.913V52.093L154.872 51.5L157.855 48.64C159.496 47.068 161.12 44.66 161.463 43.29C162.336 39.813 160.337 34.411 157.293 32.016C154.871 30.111 153.284 30 128.365 30H102Z" fill="white"/>
<path d="M186 30V18.975L259.5 19.5L260.105 30H186Z" fill="white"/>
<path d="M185 86.182C185 66.764 188.173 59.094 198.271 54.095C202.267 52.117 204.087 52.002 231.25 52.001L260 52V62H232.95C203.636 62 202.341 62.209 198.088 67.615C196.191 70.027 196 71.581 196 84.635V99H185V86.182Z" fill="white"/>
<path fill-rule="evenodd" clip-rule="evenodd" d="M36.0582 134.091C36.0582 135.58 35.7794 136.855 35.2216 137.916C34.6683 138.973 33.9126 139.783 32.9545 140.345C32.0009 140.908 30.9192 141.189 29.7092 141.189C28.4992 141.189 27.4151 140.908 26.457 140.345C25.5034 139.779 24.7478 138.967 24.19 137.91C23.6367 136.848 23.3601 135.575 23.3601 134.091C23.3601 132.602 23.6367 131.329 24.19 130.272C24.7478 129.21 25.5034 128.398 26.457 127.836C27.4151 127.274 28.4992 126.993 29.7092 126.993C30.9192 126.993 32.0009 127.274 32.9545 127.836C33.9126 128.398 34.6683 129.21 35.2216 130.272C35.7794 131.329 36.0582 132.602 36.0582 134.091ZM33.5415 134.091C33.5415 133.043 33.3774 132.159 33.049 131.439C32.7251 130.715 32.2753 130.168 31.6996 129.799C31.1238 129.426 30.4603 129.239 29.7092 129.239C28.958 129.239 28.2945 129.426 27.7188 129.799C27.143 130.168 26.6909 130.715 26.3626 131.439C26.0387 132.159 25.8768 133.043 25.8768 134.091C25.8768 135.139 26.0387 136.025 26.3626 136.749C26.6909 137.469 27.143 138.015 27.7188 138.389C28.2945 138.757 28.958 138.942 29.7092 138.942C30.4603 138.942 31.1238 138.757 31.6996 138.389C32.2753 138.015 32.7251 137.469 33.049 136.749C33.3774 136.025 33.5415 135.139 33.5415 134.091Z" fill="white"/>
<path fill-rule="evenodd" clip-rule="evenodd" d="M1 127.182V141H6.59339C7.65045 141 8.52758 140.836 9.22479 140.507C9.92199 140.179 10.4438 139.731 10.7901 139.165C11.1365 138.593 11.3097 137.95 11.3097 137.235C11.3097 136.533 11.1657 135.935 10.8778 135.44C10.59 134.945 10.2189 134.563 9.76456 134.293C9.31475 134.019 8.8447 133.868 8.3544 133.841V133.706C8.80421 133.598 9.21129 133.42 9.57564 133.173C9.93999 132.926 10.2301 132.604 10.446 132.208C10.6619 131.808 10.7699 131.327 10.7699 130.764C10.7699 130.081 10.6035 129.469 10.2706 128.929C9.94224 128.389 9.44519 127.964 8.77947 127.654C8.11825 127.339 7.28835 127.182 6.28977 127.182H1ZM6.19531 138.908H3.5032V134.86H6.26278C6.78007 134.86 7.22538 134.957 7.59872 135.15C7.97206 135.339 8.25994 135.6 8.46236 135.933C8.66477 136.261 8.76598 136.63 8.76598 137.039C8.76598 137.588 8.56357 138.038 8.15874 138.389C7.7584 138.735 7.10393 138.908 6.19531 138.908ZM5.9794 133.058H3.5032V129.246H6.03338C6.77107 129.246 7.32659 129.419 7.69993 129.766C8.07777 130.112 8.26669 130.553 8.26669 131.088C8.26669 131.493 8.16548 131.844 7.96307 132.141C7.76515 132.433 7.49302 132.66 7.14666 132.822C6.80031 132.98 6.41122 133.058 5.9794 133.058Z" fill="white"/>
<path d="M13.4873 127.182V141H22.0764V138.901H15.9905V127.182H13.4873Z" fill="white"/>
<path d="M47.7291 131.844H50.2526C50.1491 131.075 49.9287 130.391 49.5914 129.793C49.2585 129.19 48.8334 128.682 48.3161 128.268C47.7989 127.85 47.2096 127.532 46.5484 127.317C45.8872 127.101 45.172 126.993 44.4028 126.993C43.1973 126.993 42.1177 127.274 41.1642 127.836C40.2106 128.398 39.4571 129.21 38.9039 130.272C38.3506 131.329 38.074 132.602 38.074 134.091C38.074 135.575 38.3483 136.848 38.8971 137.91C39.4459 138.971 40.1971 139.783 41.1507 140.345C42.1043 140.908 43.1883 141.189 44.4028 141.189C45.2259 141.189 45.9749 141.067 46.6496 140.824C47.3243 140.577 47.9136 140.235 48.4173 139.799C48.9211 139.358 49.3282 138.85 49.6386 138.274C49.9535 137.698 50.1581 137.082 50.2526 136.425L47.7291 136.412C47.6527 136.817 47.5132 137.176 47.3108 137.491C47.1129 137.806 46.8678 138.072 46.5754 138.287C46.2875 138.503 45.9614 138.668 45.597 138.78C45.2372 138.888 44.8503 138.942 44.4365 138.942C43.6898 138.942 43.0264 138.76 42.4461 138.395C41.8704 138.027 41.416 137.482 41.0832 136.763C40.7548 136.038 40.5906 135.148 40.5906 134.091C40.5906 133.052 40.7548 132.172 41.0832 131.453C41.4115 130.728 41.8659 130.18 42.4461 129.806C43.0264 129.428 43.6921 129.239 44.4433 129.239C44.8661 129.239 45.2597 129.298 45.624 129.415C45.9929 129.527 46.3212 129.696 46.6091 129.921C46.897 130.146 47.1376 130.42 47.3311 130.744C47.5245 131.063 47.6572 131.43 47.7291 131.844Z" fill="white"/>
<path d="M52.5449 141V127.182H55.0481V133.531H55.2168L60.6078 127.182H63.6642L58.3205 133.382L63.7115 141H60.7022L56.5797 135.076L55.0481 136.884V141H52.5449Z" fill="white"/>
<path d="M73.9655 131.844H76.4889C76.3855 131.075 76.165 130.391 75.8277 129.793C75.4948 129.19 75.0697 128.682 74.5525 128.268C74.0352 127.85 73.4459 127.532 72.7847 127.317C72.1235 127.101 71.4083 126.993 70.6391 126.993C69.4336 126.993 68.3541 127.274 67.4005 127.836C66.4469 128.398 65.6935 129.21 65.1402 130.272C64.5869 131.329 64.3103 132.602 64.3103 134.091C64.3103 135.575 64.5847 136.848 65.1334 137.91C65.6822 138.971 66.4334 139.783 67.387 140.345C68.3406 140.908 69.4246 141.189 70.6391 141.189C71.4623 141.189 72.2112 141.067 72.8859 140.824C73.5606 140.577 74.1499 140.235 74.6537 139.799C75.1575 139.358 75.5645 138.85 75.8749 138.274C76.1898 137.698 76.3944 137.082 76.4889 136.425L73.9655 136.412C73.889 136.817 73.7496 137.176 73.5471 137.491C73.3492 137.806 73.1041 138.072 72.8117 138.287C72.5238 138.503 72.1977 138.668 71.8334 138.78C71.4735 138.888 71.0867 138.942 70.6729 138.942C69.9262 138.942 69.2627 138.76 68.6824 138.395C68.1067 138.027 67.6524 137.482 67.3195 136.763C66.9911 136.038 66.827 135.148 66.827 134.091C66.827 133.052 66.9911 132.172 67.3195 131.453C67.6479 130.728 68.1022 130.18 68.6824 129.806C69.2627 129.428 69.9284 129.239 70.6796 129.239C71.1024 129.239 71.496 129.298 71.8604 129.415C72.2292 129.527 72.5576 129.696 72.8454 129.921C73.1333 130.146 73.374 130.42 73.5674 130.744C73.7608 131.063 73.8935 131.43 73.9655 131.844Z" fill="white"/>
<path d="M78.7812 141V127.182H81.2844V133.031H87.6875V127.182H90.1974V141H87.6875V135.13H81.2844V141H78.7812Z" fill="white"/>
<path fill-rule="evenodd" clip-rule="evenodd" d="M92.0226 141H94.6944L95.8372 137.592H101.032L102.177 141H104.849L99.9774 127.182H96.8873L92.0226 141ZM100.357 135.582L98.4863 130.015H98.3784L96.5115 135.582H100.357Z" fill="white"/>
<path d="M109.172 127.182V141H106.669V127.182H109.172Z" fill="white"/>
<path d="M123.238 141V127.182H120.749V136.601H120.627L114.123 127.182H111.883V141H114.386V131.587H114.501L121.012 141H123.238Z" fill="white"/>
<path fill-rule="evenodd" clip-rule="evenodd" d="M130.679 141V127.182H135.968C136.967 127.182 137.797 127.339 138.458 127.654C139.124 127.964 139.621 128.389 139.949 128.929C140.282 129.469 140.449 130.081 140.449 130.764C140.449 131.327 140.341 131.808 140.125 132.208C139.909 132.604 139.619 132.926 139.254 133.173C138.89 133.42 138.483 133.598 138.033 133.706V133.841C138.523 133.868 138.993 134.019 139.443 134.293C139.898 134.563 140.269 134.945 140.557 135.44C140.844 135.935 140.988 136.533 140.988 137.235C140.988 137.95 140.815 138.593 140.469 139.165C140.122 139.731 139.601 140.179 138.904 140.507C138.206 140.836 137.329 141 136.272 141H130.679ZM133.182 138.908H135.874C136.783 138.908 137.437 138.735 137.837 138.389C138.242 138.038 138.445 137.588 138.445 137.039C138.445 136.63 138.343 136.261 138.141 135.933C137.939 135.6 137.651 135.339 137.277 135.15C136.904 134.957 136.459 134.86 135.941 134.86H133.182V138.908ZM133.182 133.058H135.658C136.09 133.058 136.479 132.98 136.825 132.822C137.172 132.66 137.444 132.433 137.642 132.141C137.844 131.844 137.945 131.493 137.945 131.088C137.945 130.553 137.756 130.112 137.379 129.766C137.005 129.419 136.45 129.246 135.712 129.246H133.182V133.058Z" fill="white"/>
<path d="M154.38 127.182H151.877V136C151.877 136.576 151.751 137.089 151.499 137.538C151.247 137.988 150.887 138.341 150.419 138.598C149.956 138.85 149.407 138.976 148.773 138.976C148.139 138.976 147.59 138.85 147.127 138.598C146.663 138.341 146.303 137.988 146.047 137.538C145.795 137.089 145.669 136.576 145.669 136V127.182H143.166V136.209C143.166 137.199 143.398 138.069 143.861 138.82C144.324 139.572 144.977 140.159 145.818 140.581C146.659 141 147.644 141.209 148.773 141.209C149.897 141.209 150.88 141 151.721 140.581C152.563 140.159 153.215 139.572 153.678 138.82C154.146 138.069 154.38 137.199 154.38 136.209V127.182Z" fill="white"/>
<path d="M159.604 127.182V141H157.101V127.182H159.604Z" fill="white"/>
<path d="M162.314 127.182V141H170.904V138.901H164.818V127.182H162.314Z" fill="white"/>
<path fill-rule="evenodd" clip-rule="evenodd" d="M177.759 141H173.076V127.182H177.853C179.225 127.182 180.404 127.458 181.389 128.011C182.378 128.56 183.138 129.35 183.669 130.38C184.2 131.41 184.465 132.642 184.465 134.077C184.465 135.517 184.198 136.754 183.662 137.788C183.132 138.823 182.365 139.617 181.362 140.17C180.363 140.723 179.162 141 177.759 141ZM175.579 138.834H177.637C178.6 138.834 179.403 138.659 180.046 138.308C180.689 137.952 181.173 137.424 181.497 136.722C181.82 136.016 181.982 135.134 181.982 134.077C181.982 133.02 181.82 132.143 181.497 131.446C181.173 130.744 180.694 130.22 180.059 129.874C179.43 129.523 178.647 129.347 177.711 129.347H175.579V138.834Z" fill="white"/>
<path d="M186.844 127.182V141H195.885V138.901H189.347V135.13H195.365V133.031H189.347V129.28H195.831V127.182H186.844Z" fill="white"/>
<path fill-rule="evenodd" clip-rule="evenodd" d="M198.385 141V127.182H203.567C204.628 127.182 205.519 127.366 206.238 127.735C206.963 128.104 207.509 128.621 207.878 129.287C208.251 129.948 208.438 130.719 208.438 131.601C208.438 132.487 208.249 133.256 207.871 133.909C207.498 134.556 206.947 135.058 206.218 135.413C206.133 135.454 206.045 135.493 205.955 135.529L208.944 141H206.151L203.435 135.939H200.888V141H198.385ZM203.195 133.861H200.888V129.273H203.182C203.807 129.273 204.318 129.365 204.714 129.55C205.109 129.73 205.404 129.995 205.597 130.346C205.791 130.692 205.888 131.111 205.888 131.601C205.888 132.091 205.791 132.505 205.597 132.842C205.409 133.175 205.116 133.429 204.72 133.605C204.325 133.776 203.816 133.861 203.195 133.861Z" fill="white"/>
<path d="M217.456 129.604C217.923 129.932 218.189 130.391 218.252 130.98H220.661C220.647 130.202 220.429 129.514 220.006 128.916C219.583 128.313 219.001 127.843 218.259 127.505C217.521 127.164 216.662 126.993 215.681 126.993C214.714 126.993 213.848 127.164 213.083 127.505C212.319 127.843 211.714 128.317 211.268 128.929C210.828 129.541 210.607 130.254 210.607 131.068C210.607 132.058 210.936 132.851 211.592 133.45C212.254 134.043 213.153 134.487 214.291 134.779L215.863 135.184C216.358 135.31 216.79 135.454 217.159 135.616C217.532 135.773 217.822 135.971 218.029 136.209C218.236 136.443 218.342 136.74 218.346 137.1C218.342 137.496 218.223 137.842 217.989 138.139C217.755 138.431 217.431 138.661 217.017 138.827C216.608 138.989 216.131 139.07 215.587 139.07C215.065 139.07 214.593 138.991 214.17 138.834C213.751 138.677 213.412 138.438 213.151 138.119C212.89 137.799 212.742 137.399 212.706 136.918H210.243C210.279 137.835 210.517 138.614 210.958 139.252C211.403 139.891 212.02 140.377 212.807 140.71C213.598 141.043 214.532 141.209 215.607 141.209C216.713 141.209 217.656 141.038 218.434 140.696C219.217 140.35 219.815 139.871 220.229 139.259C220.643 138.643 220.849 137.93 220.849 137.12C220.849 136.522 220.737 136 220.512 135.555C220.287 135.11 219.981 134.729 219.594 134.415C219.212 134.1 218.778 133.839 218.292 133.632C217.811 133.425 217.309 133.261 216.788 133.139L215.492 132.815C215.209 132.748 214.928 132.665 214.649 132.566C214.37 132.467 214.116 132.345 213.886 132.201C213.657 132.053 213.475 131.873 213.34 131.662C213.209 131.45 213.144 131.201 213.144 130.913C213.149 130.566 213.25 130.258 213.448 129.988C213.646 129.719 213.931 129.505 214.305 129.347C214.678 129.19 215.126 129.111 215.647 129.111C216.39 129.111 216.992 129.275 217.456 129.604Z" fill="white"/>
<path d="M227.794 141V127.182H236.646V129.28H230.297V133.031H236.039V135.13H230.297V141H227.794Z" fill="white"/>
<path d="M250.141 127.182H247.637V136C247.637 136.576 247.511 137.089 247.26 137.538C247.008 137.988 246.648 138.341 246.18 138.598C245.717 138.85 245.168 138.976 244.534 138.976C243.899 138.976 243.351 138.85 242.887 138.598C242.424 138.341 242.064 137.988 241.808 137.538C241.556 137.089 241.43 136.576 241.43 136V127.182H238.927V136.209C238.927 137.199 239.158 138.069 239.622 138.82C240.085 139.572 240.737 140.159 241.578 140.581C242.42 141 243.405 141.209 244.534 141.209C245.658 141.209 246.641 141 247.482 140.581C248.323 140.159 248.976 139.572 249.439 138.82C249.907 138.069 250.141 137.199 250.141 136.209V127.182Z" fill="white"/>
<path d="M264.217 127.182V141H261.99L255.479 131.587H255.365V141H252.861V127.182H255.101L261.606 136.601H261.727V127.182H264.217Z" fill="white"/>
<path fill-rule="evenodd" clip-rule="evenodd" d="M266.944 141H271.627C273.03 141 274.231 140.723 275.23 140.17C276.233 139.617 277 138.823 277.531 137.788C278.066 136.754 278.334 135.517 278.334 134.077C278.334 132.642 278.068 131.41 277.537 130.38C277.007 129.35 276.246 128.56 275.257 128.011C274.272 127.458 273.093 127.182 271.721 127.182H266.944V141ZM271.505 138.834H269.448V129.347H271.58C272.515 129.347 273.298 129.523 273.928 129.874C274.562 130.22 275.041 130.744 275.365 131.446C275.689 132.143 275.851 133.02 275.851 134.077C275.851 135.134 275.689 136.016 275.365 136.722C275.041 137.424 274.557 137.952 273.914 138.308C273.271 138.659 272.468 138.834 271.505 138.834Z" fill="white"/>
</svg>
